<?xml version="1.0" standalone="no"?>
<!DOCTYPE svg PUBLIC "-//W3C//DTD SVG 1.1//EN" "http://www.w3.org/Graphics/SVG/1.1/DTD/svg11.dtd" >
<svg xmlns="http://www.w3.org/2000/svg" xmlns:xlink="http://www.w3.org/1999/xlink" version="1.1">
<metadata>
Created by FontForge 20141024 at Thu Jul  9 06:24:57 2015
 By System Administrator
Copyright 2015 Indian Type Foundry. All rights reserved.
</metadata>
<defs>
<font id="Begum-Light" horiz-adv-x="600" >
  <font-face 
    font-family="Begum-Light"
    font-weight="400"
    font-stretch="normal"
    units-per-em="1000"
    panose-1="2 0 0 0 0 0 0 0 0 0"
    ascent="748"
    descent="-252"
    x-height="508"
    cap-height="674"
    bbox="-48 -275 1523 931"
    underline-thickness="50"
    underline-position="-50"
    unicode-range="U+000D-FB02"
  />
<missing-glyph horiz-adv-x="750" 
d="M180 0v701h390v-701h-390zM234 651v-601h282v601h-282z" />
    <glyph glyph-name="fi" unicode="fi" horiz-adv-x="631" 
d="M517 519v-413q0 -47 8.5 -68t30.5 -30v-8h-143v8q22 9 30.5 30t8.5 68v291q0 38 -12.5 53t-45.5 15h-215v-359q0 -47 11 -68t38 -30v-8h-153v8q22 9 30.5 30t8.5 68v359h-85v24l85 3v81q0 89 55.5 138.5t153.5 49.5q88 0 146.5 -31.5t58.5 -78.5q0 -25 -16 -41.5
t-41 -16.5q-23 0 -38.5 15t-15.5 39q0 41 45 53q-50 36 -138 36q-145 0 -145 -156v-85l306 12z" />
    <glyph glyph-name="fl" unicode="fl" horiz-adv-x="631" 
d="M517 750v-644q0 -47 8.5 -68t30.5 -30v-8h-143v8q22 9 30.5 30t8.5 68v515q0 115 -130 115q-143 0 -143 -156v-83l191 11l-9 -43h-182v-359q0 -47 11 -68t38 -30v-8h-153v8q22 9 30.5 30t8.5 68v359h-85v24l85 5v79q0 89 55.5 138.5t153.5 49.5q83 0 140 -30z" />
    <glyph glyph-name=".notdef" horiz-adv-x="750" 
d="M180 0v701h390v-701h-390zM234 651v-601h282v601h-282z" />
    <glyph glyph-name=".null" horiz-adv-x="0" 
 />
    <glyph glyph-name="nonmarkingreturn" horiz-adv-x="333" 
 />
    <glyph glyph-name="NULL" horiz-adv-x="0" 
 />
    <glyph glyph-name="NULL" horiz-adv-x="0" 
 />
    <glyph glyph-name="CR" unicode="&#xd;" horiz-adv-x="0" 
 />
    <glyph glyph-name="space" unicode=" " horiz-adv-x="300" 
 />
    <glyph glyph-name="exclam" unicode="!" horiz-adv-x="320" 
d="M100 52q0 25 17.5 42.5t42.5 17.5t42.5 -17.5t17.5 -42.5t-17.5 -42.5t-42.5 -17.5t-42.5 17.5t-17.5 42.5zM164 206h-10l-36 327l-7 77q0 75 48 75t48 -75l-7 -77z" />
    <glyph glyph-name="quotedbl" unicode="&#x22;" horiz-adv-x="380" 
d="M107 706q45 0 45 -84q0 -58 -40 -204h-10q-40 146 -40 204q0 84 45 84zM272 706q45 0 45 -84q0 -58 -40 -204h-10q-40 146 -40 204q0 84 45 84z" />
    <glyph glyph-name="numbersign" unicode="#" horiz-adv-x="747" 
d="M446 230l44 206h-186l-44 -206h186zM692 436h-164l-44 -206h174v-34h-181l-42 -196h-37l41 196h-186l-42 -196h-37l41 196h-150v34h157l44 206h-167v34h174l43 204h38l-43 -204h186l43 204h38l-43 -204h157v-34z" />
    <glyph glyph-name="dollar" unicode="$" horiz-adv-x="486" 
d="M257 297l-2 -282q61 6 96.5 42t35.5 83q0 53 -33.5 88.5t-96.5 68.5zM230 389l-1 272q-53 -3 -87 -36.5t-34 -79.5q0 -53 31.5 -88t90.5 -68zM259 660l-2 -285q98 -50 127 -73q72 -55 72 -133q0 -74 -56.5 -124t-144.5 -55l-1 -109h-21l-1 108q-111 1 -202 49v133h10
q24 -81 78 -118.5t114 -38.5l-1 296q-99 50 -132 79q-64 54 -64 129q0 68 56 115t138 52l-1 105h32l-1 -105q108 -4 166 -43v-138h-10q-17 66 -60 107t-96 49z" />
    <glyph glyph-name="percent" unicode="%" horiz-adv-x="769" 
d="M172 0l386 654h38l-387 -654h-37zM68 495q0 64 36.5 112.5t95.5 48.5q70 0 101.5 -46.5t31.5 -113.5q0 -70 -34.5 -119t-98.5 -49t-98 47.5t-34 119.5zM127 495q0 -58 18 -101.5t55 -43.5q73 0 73 145q0 58 -18.5 98.5t-54.5 40.5q-38 0 -55.5 -39t-17.5 -100zM436 164
q0 64 36.5 112.5t95.5 48.5q70 0 101.5 -46.5t31.5 -113.5q0 -70 -34.5 -119t-98.5 -49t-98 47.5t-34 119.5zM495 164q0 -58 18 -101.5t55 -43.5q73 0 73 145q0 58 -18.5 98.5t-54.5 40.5q-38 0 -55.5 -39t-17.5 -100z" />
    <glyph glyph-name="ampersand" unicode="&#x26;" horiz-adv-x="797" 
d="M253 336l-13 16q-101 -56 -101 -171q0 -64 41.5 -104.5t107.5 -40.5q96 0 179 86q-140 120 -214 214zM327 667q-47 0 -74 -30.5t-27 -75.5q0 -66 66 -155q120 62 120 165q0 44 -24 70t-61 26zM738 365v-10q-56 -19 -94 -53.5t-92 -112.5q-5 -8 -19 -27q116 -95 224 -143
v-10q-17 -12 -70 -12q-67 0 -182 93l-19 16q-103 -115 -227 -115q-90 0 -144.5 48.5t-54.5 127.5q0 131 167 200q-70 86 -70 163q0 71 51 116t132 45q64 0 106.5 -33.5t42.5 -92.5q0 -34 -16 -62.5t-47 -49.5t-56.5 -34t-64.5 -29q41 -52 118 -129q48 -48 90 -83l17 24
q76 108 -7 153v10h215z" />
    <glyph glyph-name="quotesingle" unicode="'" horiz-adv-x="201" 
d="M107 706q45 0 45 -84q0 -58 -40 -204h-10q-40 146 -40 204q0 84 45 84z" />
    <glyph glyph-name="parenleft" unicode="(" horiz-adv-x="413" 
d="M136 301q0 -53 6.5 -108t24.5 -116.5t45 -108.5t73.5 -79t105.5 -33l2 -8q-32 -7 -50 -7q-74 0 -132 43.5t-90.5 113t-49 147t-16.5 155.5q0 62 10 124.5t32 123.5t54.5 108t82 76t109.5 29q19 0 50 -7l-2 -8q-59 -1 -105.5 -33t-73.5 -79t-45 -108.5t-24.5 -116.5
t-6.5 -108z" />
    <glyph glyph-name="parenright" unicode=")" horiz-adv-x="413" 
d="M277 301q0 53 -6.5 108t-24.5 116.5t-45 108.5t-73.5 79t-105.5 33l-2 8q32 7 50 7q74 0 132 -43.5t90.5 -113t49 -147t16.5 -155.5q0 -62 -10 -124.5t-32 -123.5t-54.5 -108t-82 -76t-109.5 -29q-18 0 -50 7l2 8q59 1 105.5 33t73.5 79t45 108.5t24.5 116.5t6.5 108z
" />
    <glyph glyph-name="asterisk" unicode="*" horiz-adv-x="500" 
d="M297 631q0 -19 -19.5 -67t-22.5 -90q39 17 79.5 49.5t58.5 38.5q21 8 43.5 1t28.5 -27q7 -20 -7 -38.5t-37 -26.5q-18 -6 -67.5 -3t-94.5 -6q28 -32 71.5 -59.5t54.5 -42.5q14 -20 14.5 -41t-16.5 -36q-18 -11 -39.5 -4t-35.5 26q-11 15 -24 65.5t-34 86.5
q-22 -37 -35.5 -87t-23.5 -65q-14 -20 -34.5 -27t-39.5 5q-16 12 -16.5 35.5t14.5 42.5q11 15 54.5 42.5t71.5 59.5q-42 10 -95 6.5t-67 2.5q-24 8 -37 26t-7 38q7 19 29 26.5t44 -0.5q17 -6 56.5 -39t79.5 -49q-4 42 -22.5 90t-18.5 67q0 24 13 42.5t34 18.5
q20 0 33.5 -18.5t13.5 -42.5z" />
    <glyph glyph-name="plus" unicode="+" horiz-adv-x="629" 
d="M564 358v-34h-231v-230h-37v230h-231v34h231v227h37v-227h231z" />
    <glyph glyph-name="comma" unicode="," horiz-adv-x="264" 
d="M131 112q29 0 47 -20.5t18 -54.5q0 -56 -41.5 -108t-90.5 -74l-3 7q36 23 58.5 59t23.5 77q-7 -2 -18 -2q-22 0 -37.5 16t-15.5 41q0 24 17 41.5t42 17.5z" />
    <glyph glyph-name="hyphen" unicode="-" horiz-adv-x="367" 
d="M60 248v54h247v-54h-247z" />
    <glyph glyph-name="period" unicode="." horiz-adv-x="264" 
d="M72 52q0 25 17.5 42.5t42.5 17.5t42.5 -17.5t17.5 -42.5t-17.5 -42.5t-42.5 -17.5t-42.5 17.5t-17.5 42.5z" />
    <glyph glyph-name="slash" unicode="/" horiz-adv-x="402" 
d="M10 -112l334 873h48l-334 -873h-48z" />
    <glyph glyph-name="zero" unicode="0" horiz-adv-x="592" 
d="M297 -11q-118 0 -185 88.5t-67 245.5q0 162 66 253.5t183 91.5q119 0 186 -91t67 -252q0 -158 -66 -247t-184 -89zM297 13q78 0 125 85.5t47 226.5q0 144 -48 231.5t-127 87.5q-77 0 -124 -88t-47 -233q0 -140 47.5 -225t126.5 -85z" />
    <glyph glyph-name="one" unicode="1" horiz-adv-x="332" 
d="M208 668v-562q0 -47 8.5 -68t30.5 -30v-8h-147v8q22 9 30.5 30t8.5 68v465l-79 -20v8z" />
    <glyph glyph-name="two" unicode="2" horiz-adv-x="485" 
d="M432 0h-418v47q22 18 72.5 59t72.5 60t61 54.5t57 59.5t39.5 56.5t30 65t8.5 66.5q0 81 -38.5 128.5t-105.5 47.5q-98 0 -132 -73q41 -10 41 -50q0 -21 -14 -34t-35 -13q-22 0 -37 16t-15 40q0 55 57 96.5t136 41.5q102 0 161.5 -56t59.5 -138q0 -30 -9.5 -60t-23 -55
t-40 -55.5t-46.5 -50.5t-57.5 -51t-59 -48t-65 -49.5t-61.5 -46.5h197q120 0 178 58h8z" />
    <glyph glyph-name="three" unicode="3" horiz-adv-x="510" 
d="M141 330v10q222 45 222 172q0 58 -36 95t-100 37q-103 0 -140 -73q41 -10 41 -50q0 -21 -14 -34t-35 -13q-24 0 -38 15t-14 42q0 56 59.5 96.5t141.5 40.5q95 0 154 -41t59 -109q0 -100 -130 -152q72 -8 115.5 -55t43.5 -118q0 -96 -72 -150t-174 -54q-84 1 -144 41
t-60 97q0 27 16 43t39 15q21 1 35 -12.5t14 -34.5q0 -38 -41 -50q39 -74 140 -74q71 0 118.5 44.5t47.5 116.5q0 158 -189 158q-24 0 -59 -3z" />
    <glyph glyph-name="four" unicode="4" horiz-adv-x="515" 
d="M74 218h248v391zM474 160h-83v-54q0 -47 8.5 -68t30.5 -30v-8h-147v8q22 9 30.5 30t8.5 68v54h-302v47l311 450h60v-439h93z" />
    <glyph glyph-name="five" unicode="5" horiz-adv-x="516" 
d="M228 -11q-82 0 -139.5 40.5t-57.5 98.5q0 26 15.5 42t38.5 15q21 1 35 -12.5t14 -34.5q0 -38 -41 -50q35 -74 133 -74q82 0 126.5 47t44.5 132q0 169 -169 169q-92 0 -160 -42l37 337h343l-10 -58h-319l-8 -219q67 30 139 30q106 0 166 -52.5t60 -148.5
q0 -97 -71.5 -158.5t-176.5 -61.5z" />
    <glyph glyph-name="six" unicode="6" horiz-adv-x="555" 
d="M291 -11q-115 0 -180.5 83.5t-65.5 225.5q0 154 90.5 262t224.5 108q45 0 80 -11l-3 -10q-76 4 -134.5 -20.5t-94 -69t-55.5 -98t-26 -115.5q33 30 83 55.5t104 25.5q90 0 145.5 -56.5t55.5 -143.5q0 -104 -65 -170t-159 -66zM124 315q-1 -9 -1 -29q0 -117 43.5 -195
t125.5 -78q66 0 104 52t38 133q0 178 -161 178q-39 0 -80 -18.5t-69 -42.5z" />
    <glyph glyph-name="seven" unicode="7" horiz-adv-x="475" 
d="M201 0h-101q35 151 120.5 321.5t167.5 277.5h-180q-118 0 -178 -58h-10l21 116h404v-15q-90 -121 -158.5 -298.5t-85.5 -343.5z" />
    <glyph glyph-name="eight" unicode="8" horiz-adv-x="549" 
d="M288 16q68 0 110 39t42 91q0 19 -5.5 35.5t-12.5 29t-23 26t-26.5 21.5t-33.5 19.5t-35 17t-39.5 17t-37.5 16.5q-46 -21 -74.5 -65t-28.5 -96q0 -67 45.5 -109t118.5 -42zM304 362q99 47 99 147q0 60 -35 97t-104 37q-59 0 -95 -31t-36 -78q0 -63 44 -100t127 -72z
M322 354q36 -15 55.5 -24t47.5 -26t42.5 -33t25.5 -40.5t11 -52.5q0 -79 -65 -134t-167 -55q-94 0 -160.5 46.5t-66.5 125.5q0 64 44.5 111t116.5 65q-68 32 -105.5 70t-37.5 98q0 73 60.5 118t153.5 45q91 0 148 -44t57 -115q0 -61 -43.5 -100.5t-116.5 -54.5z" />
    <glyph glyph-name="nine" unicode="9" horiz-adv-x="552" 
d="M267 668q117 0 178.5 -83t61.5 -226q0 -162 -81 -266t-225 -104q-78 0 -111 16l3 10q78 -3 138 15.5t95 48t57.5 73t31 82.5t10.5 85q-24 -31 -69.5 -58t-105.5 -27q-87 0 -148.5 51.5t-61.5 157.5t67.5 165.5t159.5 59.5zM428 348q1 9 1 40q0 108 -45 182t-125 74
q-59 0 -98.5 -50.5t-39.5 -137.5q0 -166 166 -166q38 0 78 17.5t63 40.5z" />
    <glyph glyph-name="colon" unicode=":" horiz-adv-x="264" 
d="M72 459q0 25 17.5 42.5t42.5 17.5t42.5 -17.5t17.5 -42.5t-17.5 -42.5t-42.5 -17.5t-42.5 17.5t-17.5 42.5zM72 52q0 25 17.5 42.5t42.5 17.5t42.5 -17.5t17.5 -42.5t-17.5 -42.5t-42.5 -17.5t-42.5 17.5t-17.5 42.5z" />
    <glyph glyph-name="semicolon" unicode=";" horiz-adv-x="264" 
d="M72 459q0 25 17.5 42.5t42.5 17.5t42.5 -17.5t17.5 -42.5t-17.5 -42.5t-42.5 -17.5t-42.5 17.5t-17.5 42.5zM131 112q29 0 47 -20.5t18 -54.5q0 -56 -41.5 -108t-90.5 -74l-3 7q36 23 58.5 59t23.5 77q-7 -2 -18 -2q-22 0 -37.5 16t-15.5 41q0 24 17 41.5t42 17.5z" />
    <glyph glyph-name="less" unicode="&#x3c;" horiz-adv-x="629" 
d="M90 314v34l449 174v-36l-410 -155l408 -155v-36z" />
    <glyph glyph-name="equal" unicode="=" horiz-adv-x="629" 
d="M65 434v34h499v-34h-499zM65 215v34h499v-34h-499z" />
    <glyph glyph-name="greater" unicode="&#x3e;" horiz-adv-x="629" 
d="M539 350v-34l-447 -174v36l408 155l-410 155v36z" />
    <glyph glyph-name="question" unicode="?" horiz-adv-x="509" 
d="M235 112q25 0 42.5 -17.5t17.5 -42.5t-17.5 -42.5t-42.5 -17.5t-42.5 17.5t-17.5 42.5t17.5 42.5t42.5 17.5zM227 206l-27 162q194 13 194 148q0 68 -40.5 106.5t-113.5 38.5q-49 0 -86 -19.5t-54 -53.5q41 -10 41 -50q0 -21 -14 -34t-35 -13q-23 0 -37.5 15.5
t-14.5 42.5q0 58 59 97t142 39q106 0 164.5 -50.5t58.5 -122.5q0 -75 -56 -123.5t-143 -62.5l-24 -120h-14z" />
    <glyph glyph-name="at" unicode="@" horiz-adv-x="890" 
d="M570 355l16 94q-22 28 -67 28q-72 0 -136 -98t-64 -205q0 -114 57 -114q85 0 194 295zM634 -79l9 -18q-103 -60 -244 -60q-149 0 -244 96t-95 261q0 183 124.5 315t296.5 132q152 0 250.5 -94t98.5 -249q0 -111 -58.5 -201.5t-152.5 -90.5q-53 0 -73.5 40.5t-4.5 135.5
l14 83q-39 -102 -94 -177t-106 -75q-47 0 -72 38t-25 105q0 75 39 153.5t100.5 129.5t122.5 51q32 0 58 -6.5t39.5 -14.5t33.5 -22q-13 -26 -23 -90l-31 -190q-21 -130 52 -130q64 0 105 80.5t41 176.5q0 143 -84 234.5t-231 91.5q-150 0 -253.5 -122.5t-103.5 -294.5
q0 -157 84.5 -248.5t211.5 -91.5q125 0 215 52z" />
    <glyph glyph-name="A" unicode="A" horiz-adv-x="665" 
d="M184 237h269l-137 334zM342 685l237 -576q20 -47 36 -67t40 -34v-8h-162v8q44 23 7 114l-37 91h-288l-22 -55q-46 -118 7 -150v-8h-160v8q31 15 56 47t53 99l224 531h9z" />
    <glyph glyph-name="B" unicode="B" horiz-adv-x="612" 
d="M276 24h20q98 0 146.5 40.5t48.5 115.5q0 74 -64 115.5t-177 41.5h-55v-246q0 -35 19 -51t62 -16zM266 650h-71v-291l53 2q200 9 200 147q0 72 -43.5 107t-138.5 35zM85 674h225q101 0 160 -42.5t59 -123.5q0 -65 -53 -106t-142 -51q107 -5 172.5 -48.5t65.5 -115.5
q0 -88 -73.5 -137.5t-218.5 -49.5h-195v8q22 9 30.5 30t8.5 68v462q0 47 -8.5 68t-30.5 30v8z" />
    <glyph glyph-name="C" unicode="C" horiz-adv-x="649" 
d="M55 342q0 145 94.5 244t244.5 99q123 0 220 -54v-136h-10q-29 83 -79 124.5t-132 41.5q-112 0 -184.5 -88t-72.5 -232q0 -149 74 -238.5t194 -89.5q80 0 128 37.5t71 115.5h10v-126q-72 -51 -211 -51q-154 0 -250.5 95.5t-96.5 257.5z" />
    <glyph glyph-name="D" unicode="D" horiz-adv-x="725" 
d="M276 24h18q136 0 215.5 83.5t79.5 225.5q0 148 -83 232.5t-233 84.5h-78v-559q0 -35 19 -51t62 -16zM85 674h205q184 0 282 -92.5t98 -242.5q0 -148 -102.5 -243.5t-274.5 -95.5h-208v8q22 9 30.5 30t8.5 68v462q0 47 -8.5 68t-30.5 30v8z" />
    <glyph glyph-name="E" unicode="E" horiz-adv-x="578" 
d="M533 153h10v-153h-458v8q22 9 30.5 30t8.5 68v462q0 47 -8.5 68t-30.5 30v8h443v-134h-10q-22 62 -61 85.5t-120 23.5h-142v-297l121 4q46 1 68.5 21.5t33.5 68.5h8v-201h-8q-11 47 -34.5 65t-70.5 20l-118 4v-243q0 -35 19 -51t62 -16h82q87 0 122 26.5t53 102.5z" />
    <glyph glyph-name="F" unicode="F" horiz-adv-x="553" 
d="M518 674v-134h-10q-22 62 -61 85.5t-120 23.5h-132v-317l111 4q46 1 68.5 21.5t33.5 68.5h8v-201h-8q-11 47 -34.5 65t-70.5 20l-108 4v-208q0 -49 11.5 -69.5t43.5 -28.5v-8h-165v8q22 9 30.5 30t8.5 68v462q0 47 -8.5 68t-30.5 30v8h433z" />
    <glyph glyph-name="G" unicode="G" horiz-adv-x="701" 
d="M497 324h169v-8q-22 -9 -30.5 -30t-8.5 -68v-96q0 -67 12 -82q-95 -51 -235 -51q-151 0 -250 93.5t-99 259.5q0 145 94.5 244t244.5 99q57 0 121 -14t109 -37v-136h-10q-33 83 -86.5 123t-134.5 40q-112 0 -184.5 -88t-72.5 -232q0 -146 74 -237t193 -91q75 0 114 27.5
t39 91.5v86q0 47 -13 68t-46 30v8z" />
    <glyph glyph-name="H" unicode="H" horiz-adv-x="765" 
d="M680 674v-8q-22 -9 -30.5 -30t-8.5 -68v-462q0 -47 8.5 -68t30.5 -30v-8h-149v8q22 9 30.5 30t8.5 68v221h-375v-221q0 -47 8.5 -68t30.5 -30v-8h-149v8q22 9 30.5 30t8.5 68v462q0 47 -8.5 68t-30.5 30v8h149v-8q-22 -9 -30.5 -30t-8.5 -68v-217h375v217q0 47 -8.5 68
t-30.5 30v8h149z" />
    <glyph glyph-name="I" unicode="I" horiz-adv-x="319" 
d="M195 568v-462q0 -47 8.5 -68t30.5 -30v-8h-149v8q22 9 30.5 30t8.5 68v462q0 47 -8.5 68t-30.5 30v8h149v-8q-22 -9 -30.5 -30t-8.5 -68z" />
    <glyph glyph-name="J" unicode="J" horiz-adv-x="314" 
d="M195 568v-443q0 -111 -29.5 -160t-122.5 -94l-3 6q47 45 65.5 106t18.5 163v422q0 47 -8.5 68t-30.5 30v8h149v-8q-22 -9 -30.5 -30t-8.5 -68z" />
    <glyph glyph-name="K" unicode="K" horiz-adv-x="649" 
d="M252 325v6l184 222q61 75 6 113v8h166v-8q-58 -23 -128 -103l-171 -196l139 -173q122 -151 191 -176v-8q-17 -21 -56 -21t-73.5 26t-90.5 98zM195 568v-462q0 -47 8.5 -68t30.5 -30v-8h-149v8q22 9 30.5 30t8.5 68v462q0 47 -8.5 68t-30.5 30v8h149v-8q-22 -9 -30.5 -30
t-8.5 -68z" />
    <glyph glyph-name="L" unicode="L" horiz-adv-x="550" 
d="M520 173h10v-173h-445v8q22 9 30.5 30t8.5 68v462q0 47 -8.5 68t-30.5 30v8h149v-8q-22 -9 -30.5 -30t-8.5 -68v-477q0 -35 19 -51t62 -16h69q87 0 122 30t53 119z" />
    <glyph glyph-name="M" unicode="M" horiz-adv-x="885" 
d="M124 505q1 78 -13.5 112.5t-45.5 48.5v8h108l278 -586l239 586h110v-8q-22 -9 -30.5 -30t-8.5 -68v-462q0 -47 8.5 -68t30.5 -30v-8h-149v8q22 9 30.5 30t8.5 68v479l-257 -595h-13l-271 570l7 -386q3 -135 63 -166v-8h-159v8q60 29 61 165z" />
    <glyph glyph-name="N" unicode="N" horiz-adv-x="723" 
d="M603 515l-9 -527h-14l-431 558l6 -378q3 -128 64 -160v-8h-159v8q60 29 61 161l3 336q1 78 -13.5 112.5t-45.5 48.5v8h80l427 -564v406q0 120 -59 150v8h149v-8q-56 -27 -59 -151z" />
    <glyph glyph-name="O" unicode="O" horiz-adv-x="768" 
d="M383 13q113 0 180.5 89t67.5 239q0 136 -69 228t-179 92t-178.5 -91.5t-68.5 -228.5q0 -148 68 -238t179 -90zM382 -11q-147 0 -237 95.5t-90 257.5q0 143 91.5 243t236.5 100q148 0 239 -98.5t91 -244.5q0 -157 -93.5 -255t-237.5 -98z" />
    <glyph glyph-name="P" unicode="P" horiz-adv-x="580" 
d="M85 674h192q129 0 198.5 -50.5t69.5 -141.5q0 -99 -72.5 -151.5t-182.5 -52.5q-34 0 -56 5v8q114 3 172 50.5t58 133.5q0 87 -56 130.5t-159 43.5h-54v-543q0 -47 8.5 -68t30.5 -30v-8h-149v8q22 9 30.5 30t8.5 68v462q0 47 -8.5 68t-30.5 30v8z" />
    <glyph glyph-name="Q" unicode="Q" horiz-adv-x="768" 
d="M136 341q0 -148 68 -238t179 -90q113 0 180.5 89t67.5 239q0 136 -69 228t-179 92t-178.5 -91.5t-68.5 -228.5zM744 -128l3 -8q-45 -45 -118 -45q-141 0 -258 170q-143 4 -229.5 99t-86.5 254q0 143 91.5 243t236.5 100q148 0 239 -98.5t91 -244.5q0 -150 -85.5 -247
t-221.5 -105q70 -49 164.5 -81.5t173.5 -36.5z" />
    <glyph glyph-name="R" unicode="R" horiz-adv-x="619" 
d="M563 -11q-41 0 -75.5 28.5t-109.5 120.5l-144 175v8q108 3 164 45.5t56 115.5q0 83 -53.5 125t-151.5 42h-54v-543q0 -47 8.5 -68t30.5 -30v-8h-149v8q22 9 30.5 30t8.5 68v462q0 47 -8.5 68t-30.5 30v8h192q124 0 191 -49t67 -136q0 -77 -59 -122t-153 -56l104 -120
q89 -104 124 -134t68 -39v-8q-17 -21 -56 -21z" />
    <glyph glyph-name="S" unicode="S" horiz-adv-x="486" 
d="M61 181q25 -83 73.5 -124.5t104.5 -42.5q65 -1 99 35.5t34 87.5q0 44 -24 79.5t-60 57t-78.5 46.5t-78.5 48t-60 62t-24 88q0 72 55.5 119.5t140.5 47.5q107 0 172 -43v-138h-10q-19 75 -64.5 116t-102.5 41q-56 0 -89 -33.5t-33 -82.5q0 -39 17.5 -70.5t46 -53t62.5 -41
t68.5 -39.5t63 -43t46 -57.5t17.5 -76.5q0 -75 -54 -125t-141 -50q-97 0 -191 49v143h10z" />
    <glyph glyph-name="T" unicode="T" horiz-adv-x="605" 
d="M30 674h545v-171h-10q-13 75 -49 111t-108 36h-72v-544q0 -47 8.5 -68t30.5 -30v-8h-149v8q22 9 30.5 30t8.5 68v544h-68q-72 0 -108 -36t-49 -111h-10v171z" />
    <glyph glyph-name="U" unicode="U" horiz-adv-x="697" 
d="M364 -9q-114 0 -182 55t-68 170v352q0 47 -8.5 68t-30.5 30v8h149v-8q-22 -9 -30.5 -30t-8.5 -68v-342q0 -199 189 -199q87 0 135 47.5t47 141.5l-3 290q-1 127 -66 160v8h169v-8q-66 -32 -69 -161l-5 -290q-2 -113 -60 -168.5t-158 -55.5z" />
    <glyph glyph-name="V" unicode="V" horiz-adv-x="655" 
d="M169 666q-39 -25 -4 -114l179 -450l155 403q50 130 -5 161v8h161v-8q-32 -14 -57.5 -49t-58.5 -116l-212 -512h-9l-232 576q-19 46 -35 66.5t-41 34.5v8h159v-8z" />
    <glyph glyph-name="W" unicode="W" horiz-adv-x="1005" 
d="M727 106l130 403q39 122 -17 157v8h160v-8q-31 -14 -53 -48.5t-51 -114.5l-184 -514h-9l-204 508l-208 -508h-9l-202 578q-17 49 -29.5 67.5t-35.5 31.5v8h159v-8q-44 -27 -15 -114l150 -448l171 440l-9 23q-19 47 -33.5 66t-38.5 33v8h159v-8q-42 -27 -8 -114z" />
    <glyph glyph-name="X" unicode="X" horiz-adv-x="661" 
d="M365 364l175 -256q31 -46 54 -68t50 -32v-8h-185v8q24 9 25 31.5t-23 60.5l-151 221l-131 -192q-32 -52 -27.5 -82.5t34.5 -38.5v-8h-179v8q56 19 134 126l154 208l-153 224q-32 47 -53 68.5t-48 31.5v8h182v-8q-24 -9 -25 -31.5t23 -60.5l129 -189l100 144q28 40 35 71
t-2.5 46t-28.5 20v8h176v-8q-50 -17 -140 -136z" />
    <glyph glyph-name="Y" unicode="Y" horiz-adv-x="608" 
d="M435 674h163v-8q-50 -27 -119 -146l-135 -231v-183q0 -47 8.5 -68t30.5 -30v-8h-149v8q22 9 30.5 30t8.5 68v167l-164 285q-31 54 -48.5 75t-40.5 33v8h171v-8q-47 -31 3 -116l136 -233l111 209q29 58 26.5 93.5t-32.5 46.5v8z" />
    <glyph glyph-name="Z" unicode="Z" horiz-adv-x="565" 
d="M525 179h10v-179h-505v8l412 647l-197 -4q-87 -2 -125.5 -34t-56.5 -112h-10v169h479v-8l-414 -646l204 5q100 3 142.5 37t60.5 117z" />
    <glyph glyph-name="bracketleft" unicode="[" horiz-adv-x="344" 
d="M324 726h-129v-850h129v-24h-200v898h200v-24z" />
    <glyph glyph-name="backslash" unicode="\" horiz-adv-x="402" 
d="M58 761l334 -873h-48l-334 873h48z" />
    <glyph glyph-name="bracketright" unicode="]" horiz-adv-x="344" 
d="M220 750v-898h-200v24h129v850h-129v24h200z" />
    <glyph glyph-name="asciicircum" unicode="^" horiz-adv-x="507" 
d="M234 594h34l139 -262h-34l-122 229l-117 -228h-34z" />
    <glyph glyph-name="underscore" unicode="_" horiz-adv-x="527" 
d="M10 -70v54h507v-54h-507z" />
    <glyph glyph-name="grave" unicode="`" 
d="M158 731h100l84 -152h-24z" />
    <glyph glyph-name="a" unicode="a" horiz-adv-x="530" 
d="M356 97v149q-35 5 -53 5q-81 0 -125.5 -33.5t-44.5 -91.5q0 -45 27.5 -71t71.5 -26q36 0 69 19t55 49zM484 35h15v-8q-26 -33 -73 -33q-31 0 -49.5 20.5t-20.5 56.5q-22 -34 -62 -58t-90 -24q-63 0 -103.5 35.5t-40.5 96.5q0 71 56.5 113t162.5 42q49 0 77 -6v98
q0 127 -113 127q-70 0 -103 -43q41 -10 41 -50q0 -21 -14 -34t-35 -13q-22 0 -35.5 14.5t-13.5 37.5q0 48 50 80t119 32q86 0 127.5 -41t41.5 -108v-267q0 -40 12 -54t51 -14z" />
    <glyph glyph-name="b" unicode="b" horiz-adv-x="604" 
d="M549 276q0 -137 -74 -211.5t-194 -74.5q-98 0 -167 40v591q0 63 -44 82v8l109 39v-327q72 96 169 96q94 0 147.5 -68t53.5 -175zM179 56q16 -17 45.5 -29t58.5 -12q90 0 141.5 61.5t51.5 175.5q0 100 -44 156t-117 56q-78 0 -136 -63v-345z" />
    <glyph glyph-name="c" unicode="c" horiz-adv-x="513" 
d="M483 94q-69 -105 -191 -105q-105 0 -171 73.5t-66 186.5q0 118 74.5 194t180.5 76q67 0 113 -31.5t46 -76.5q0 -25 -15 -40.5t-37 -15.5q-21 0 -35 13.5t-14 35.5q0 18 11.5 30.5t29.5 17.5q-34 42 -100 42q-80 0 -130.5 -65t-50.5 -166q0 -104 56 -164t137 -60
q90 0 155 63z" />
    <glyph glyph-name="d" unicode="d" horiz-adv-x="606" 
d="M427 106v289q-30 100 -129 100q-80 0 -125 -62.5t-45 -176.5q0 -104 46 -160t119 -56q37 0 74.5 19.5t59.5 46.5zM492 750v-635q0 -74 44 -92v-8l-109 -26v93q-2 -4 -7 -10t-21 -22t-33 -28.5t-44 -22.5t-54 -10q-98 0 -155.5 68t-57.5 182q0 126 67 203t180 77
q75 0 125 -32v144q0 63 -54 82v8z" />
    <glyph glyph-name="e" unicode="e" horiz-adv-x="532" 
d="M131 309l275 13q-2 73 -31 123t-94 50q-63 0 -102.5 -50.5t-47.5 -135.5zM480 111l7 -8q-75 -114 -199 -114q-107 0 -170 70.5t-63 189.5q0 120 62.5 195t163.5 75q100 0 148.5 -57.5t48.5 -152.5v-24h-349v-22q0 -110 50.5 -167t129.5 -57q91 0 171 72z" />
    <glyph glyph-name="f" unicode="f" horiz-adv-x="329" 
d="M114 494v119q0 70 37 109t102 39q48 0 82 -26t34 -62q0 -25 -15 -40.5t-37 -15.5q-21 0 -35 13.5t-14 35.5q0 18 11.5 30.5t29.5 17.5q-17 22 -55 22q-75 0 -75 -116v-122l161 10l-9 -43h-152v-359q0 -47 11 -68t38 -30v-8h-153v8q22 9 30.5 30t8.5 68v359h-85v24z" />
    <glyph glyph-name="g" unicode="g" horiz-adv-x="555" 
d="M260 193q51 0 85.5 42t34.5 106q0 67 -34 111t-86 44q-51 0 -85.5 -42t-34.5 -106q0 -67 34 -111t86 -44zM359 0h-131q-32 0 -54 6q-66 -41 -66 -108q0 -52 39.5 -83t106.5 -31q86 0 142.5 40.5t56.5 108.5q0 35 -22 51t-72 16zM235 66h126q82 0 117.5 -24.5t35.5 -80.5
q0 -78 -85 -144.5t-205 -66.5q-85 0 -132 36t-47 94q0 42 31 79t78 53q-49 21 -49 68q0 61 71 102q-50 18 -78 59t-28 99q0 78 55 128.5t144 50.5q69 0 117 -34q29 76 92 76q24 0 38 -12.5t14 -31.5t-11 -31t-31 -12q-34 0 -46 34q-28 -6 -44 -33q52 -47 52 -126
q0 -78 -55 -128.5t-144 -50.5q-29 0 -54 6q-33 -33 -33 -62q0 -48 71 -48z" />
    <glyph glyph-name="h" unicode="h" horiz-adv-x="626" 
d="M179 391v-285q0 -47 8.5 -68t30.5 -30v-8h-143v8q22 9 30.5 30t8.5 68v515q0 63 -44 82v8l109 39v-337q106 106 205 106q133 0 133 -145v-268q0 -47 8.5 -68t30.5 -30v-8h-143v8q22 9 30.5 30t8.5 68v236q0 63 -23 91t-77 28q-82 0 -173 -70z" />
    <glyph glyph-name="i" unicode="i" horiz-adv-x="293" 
d="M179 519v-413q0 -47 8.5 -68t30.5 -30v-8h-143v8q22 9 30.5 30t8.5 68v287q0 35 -11 52t-33 27v8zM89 652q0 22 16 38t38 16t38 -16t16 -38t-16 -38t-38 -16t-38 16t-16 38z" />
    <glyph glyph-name="j" unicode="j" horiz-adv-x="293" 
d="M114 16v377q0 35 -11 52t-33 27v8l109 39v-505q0 -102 -34.5 -169.5t-122.5 -101.5l-3 6q95 84 95 267zM89 652q0 22 16 38t38 16t38 -16t16 -38t-16 -38t-38 -16t-38 16t-16 38z" />
    <glyph glyph-name="k" unicode="k" horiz-adv-x="549" 
d="M216 261l112 130q35 43 34 71.5t-33 37.5v8h188v-8q-79 -28 -162 -116l-88 -93l140 -159q55 -61 82.5 -86t54.5 -38v-8q-18 -11 -42 -11q-34 0 -63 20t-76 74l-147 170v8zM179 750v-644q0 -47 8.5 -68t30.5 -30v-8h-143v8q22 9 30.5 30t8.5 68v515q0 63 -44 82v8z" />
    <glyph glyph-name="l" unicode="l" horiz-adv-x="293" 
d="M179 750v-644q0 -47 8.5 -68t30.5 -30v-8h-143v8q22 9 30.5 30t8.5 68v515q0 63 -44 82v8z" />
    <glyph glyph-name="m" unicode="m" horiz-adv-x="934" 
d="M825 374v-268q0 -47 8.5 -68t30.5 -30v-8h-143v8q22 9 30.5 30t8.5 68v236q0 62 -23 90.5t-72 28.5q-74 0 -163 -71v-16v-268q0 -47 8.5 -68t30.5 -30v-8h-143v8q22 9 30.5 30t8.5 68v236q0 62 -23 90.5t-72 28.5q-72 0 -163 -70v-285q0 -47 8.5 -68t30.5 -30v-8h-143v8
q22 9 30.5 30t8.5 68v287q0 35 -11 52t-33 27v8l109 39v-106q40 46 93 76t102 30q109 0 125 -108q100 108 198 108q128 0 128 -145z" />
    <glyph glyph-name="n" unicode="n" horiz-adv-x="626" 
d="M179 391v-285q0 -47 8.5 -68t30.5 -30v-8h-143v8q22 9 30.5 30t8.5 68v287q0 35 -11 52t-33 27v8l109 39v-106q106 106 205 106q133 0 133 -145v-268q0 -47 8.5 -68t30.5 -30v-8h-143v8q22 9 30.5 30t8.5 68v236q0 63 -23 91t-77 28q-82 0 -173 -70z" />
    <glyph glyph-name="o" unicode="o" horiz-adv-x="595" 
d="M540 262q0 -124 -67.5 -198.5t-180.5 -74.5q-108 0 -172.5 72t-64.5 185q0 124 67.5 198.5t180.5 74.5q108 0 172.5 -72t64.5 -185zM128 263q0 -114 49.5 -182t129.5 -68q70 0 115 62.5t45 169.5q0 114 -49.5 182t-129.5 68q-70 0 -115 -62.5t-45 -169.5z" />
    <glyph glyph-name="p" unicode="p" horiz-adv-x="606" 
d="M179 402v-289q30 -100 129 -100q80 0 125 62.5t45 176.5q0 104 -46 160t-119 56q-37 0 -74.5 -19.5t-59.5 -46.5zM179 519v-93q2 4 7 10t21 22t33 28.5t44 22.5t54 10q98 0 155.5 -68t57.5 -182q0 -126 -67 -203t-180 -77q-75 0 -125 32v-154q0 -47 11 -68t38 -30v-8
h-153v8q22 9 30.5 30t8.5 68v526q0 35 -11 52t-33 27v8z" />
    <glyph glyph-name="q" unicode="q" horiz-adv-x="591" 
d="M422 -133v215q-2 -4 -7 -10t-21 -22t-33 -28.5t-44 -22.5t-54 -10q-98 0 -155.5 68t-57.5 182q0 127 68.5 203.5t187.5 76.5t197 -53q-16 -32 -16 -112v-487q0 -47 8.5 -68t30.5 -30v-8h-153v8q27 9 38 30t11 68zM300 495q-84 0 -130.5 -62t-46.5 -177q0 -104 46 -160
t119 -56q37 0 74.5 19.5t59.5 46.5v341q-49 48 -122 48z" />
    <glyph glyph-name="r" unicode="r" horiz-adv-x="401" 
d="M179 409q41 52 82 81.5t73 28.5q25 1 41 -15t16 -38q0 -23 -15 -38.5t-38 -15.5q-21 0 -36 16t-16 41q-19 -2 -49.5 -27.5t-57.5 -60.5v-275q0 -47 11 -68t38 -30v-8h-153v8q22 9 30.5 30t8.5 68v287q0 35 -11 52t-33 27v8l109 39v-110z" />
    <glyph glyph-name="s" unicode="s" horiz-adv-x="443" 
d="M221 -9q-65 -2 -118 25.5t-53 68.5q0 22 13.5 36.5t35.5 14.5q21 0 35.5 -13t14.5 -33q0 -31 -27 -45q32 -33 98 -33q54 0 87 26t33 69t-29 72.5t-70 47.5t-82.5 36t-70.5 49.5t-29 76.5q0 55 47 92.5t123 37.5q69 0 112.5 -28.5t43.5 -67.5q0 -21 -13.5 -35t-34.5 -14
t-35.5 13t-14.5 33q0 34 32 47q-26 30 -95 30q-53 0 -79 -24t-26 -60q0 -31 20.5 -54.5t51.5 -37.5t67.5 -31t67.5 -34t51.5 -47t20.5 -70q0 -64 -51.5 -107t-125.5 -41z" />
    <glyph glyph-name="t" unicode="t" horiz-adv-x="349" 
d="M335 58l4 -8q-21 -23 -55 -38t-66 -15q-104 0 -104 127v341h-81v24q48 19 79 53.5t47 95.5h20v-140l156 10l-9 -43h-147v-328q0 -53 17 -74.5t58 -21.5q44 0 81 17z" />
    <glyph glyph-name="u" unicode="u" horiz-adv-x="614" 
d="M435 117v276q0 35 -11 52t-33 27v8l109 39v-404q0 -74 44 -92v-8l-109 -26v106q-93 -106 -193 -106q-66 0 -99.5 38t-33.5 107v259q0 35 -11 52t-33 27v8l109 39v-353q0 -63 23 -91t77 -28q75 0 161 70z" />
    <glyph glyph-name="v" unicode="v" horiz-adv-x="521" 
d="M257 -11l-163 390q-23 55 -38 79t-41 42v8h156v-8q-25 -16 -25.5 -44t19.5 -75l122 -299l98 277q40 114 -10 141v8h141v-8q-28 -14 -49.5 -46.5t-50.5 -108.5l-140 -356h-19z" />
    <glyph glyph-name="w" unicode="w" horiz-adv-x="791" 
d="M640 508h141v-8q-28 -14 -49 -47t-47 -110l-120 -354h-19l-152 364l-140 -364h-19l-143 390q-15 41 -22 57.5t-19.5 33.5t-30.5 30v8h156v-8q-25 -16 -27.5 -43.5t14.5 -75.5l103 -299l112 311q-17 44 -32 66.5t-40 40.5v8h156v-8q-25 -16 -26.5 -43.5t18.5 -75.5
l121 -299l81 280q32 112 -16 138v8z" />
    <glyph glyph-name="x" unicode="x" horiz-adv-x="563" 
d="M312 278l135 -177q57 -75 96 -93v-8h-170v8q49 22 -1 87l-109 143l-89 -124q-29 -43 -27 -70t28 -36v-8h-165v8q36 15 65 41t69 75l106 130l-116 153q-33 42 -52.5 62t-43.5 31v8h170v-8q-49 -22 1 -87l91 -119l70 98q32 50 29 74t-29 34v8h165v-8q-36 -15 -66.5 -41.5
t-71.5 -77.5z" />
    <glyph glyph-name="y" unicode="y" horiz-adv-x="521" 
d="M258 -5l-164 384q-23 55 -38 79t-41 42v8h156v-8q-25 -16 -25.5 -44t19.5 -75l123 -295l91 255q47 131 -4 159v8h141v-8q-28 -14 -49.5 -48.5t-56.5 -122.5l-119 -299q-32 -141 -86 -210.5t-124 -69.5q-59 0 -99 40v8q35 1 62.5 5t62 16.5t60.5 32.5t51 56.5t40 86.5z
" />
    <glyph glyph-name="z" unicode="z" horiz-adv-x="493" 
d="M453 508v-10l-330 -482l154 7q71 4 106 32t47 90h10v-145h-400v10l329 483l-162 -7q-66 -3 -94.5 -28.5t-42.5 -84.5h-10v135h393z" />
    <glyph glyph-name="braceleft" unicode="{" horiz-adv-x="368" 
d="M40 307h7q42 0 71.5 30.5t29.5 80.5q0 40 -11 97t-11 93q0 72 43 112.5t110 40.5q41 0 69 -14l-4 -9q-18 3 -24 3q-54 0 -86.5 -31t-32.5 -78q0 -40 12 -98t12 -93q0 -58 -29 -95.5t-72 -44.5q43 -7 72 -44.5t29 -95.5q0 -35 -12 -93t-12 -98q0 -47 32.5 -78t86.5 -31
q6 0 24 3l4 -9q-28 -14 -69 -14q-67 0 -110 40.5t-43 112.5q0 37 11 93.5t11 96.5q0 50 -29.5 80.5t-71.5 30.5h-7v12z" />
    <glyph glyph-name="bar" unicode="|" horiz-adv-x="278" 
d="M164 -250h-50v1000h50v-1000z" />
    <glyph glyph-name="braceright" unicode="}" horiz-adv-x="368" 
d="M328 295h-7q-42 0 -71.5 -30.5t-29.5 -80.5q0 -40 11 -96.5t11 -93.5q0 -72 -43 -112.5t-110 -40.5q-41 0 -69 14l4 9q18 -3 24 -3q54 0 86.5 31t32.5 78q0 40 -12 98t-12 93q0 58 29 95.5t72 44.5q-43 7 -72 44.5t-29 95.5q0 35 12 93t12 98q0 47 -32.5 78t-86.5 31
q-6 0 -24 -3l-4 9q28 14 69 14q67 0 110 -40.5t43 -112.5q0 -36 -11 -93t-11 -97q0 -50 29.5 -80.5t71.5 -30.5h7v-12z" />
    <glyph glyph-name="asciitilde" unicode="~" horiz-adv-x="629" 
d="M50 188v8q3 68 41 115t111 47q32 0 64.5 -14t55.5 -30.5t54 -30.5t61 -14q96 0 131 93h12v-11q-4 -67 -42 -113t-110 -46q-46 0 -118.5 44.5t-116.5 44.5q-96 0 -131 -93h-12z" />
    <glyph glyph-name="uni00A0" unicode="&#xa0;" horiz-adv-x="300" 
 />
    <glyph glyph-name="exclamdown" unicode="&#xa1;" horiz-adv-x="320" 
d="M164 305l36 -327l7 -77q0 -75 -48 -75t-48 75l7 77l36 327h10zM100 459q0 25 17.5 42.5t42.5 17.5t42.5 -17.5t17.5 -42.5t-17.5 -42.5t-42.5 -17.5t-42.5 17.5t-17.5 42.5z" />
    <glyph glyph-name="cent" unicode="&#xa2;" horiz-adv-x="500" 
d="M277 42l-4 450q-64 -12 -104.5 -75t-40.5 -154t43 -149t106 -72zM456 102l7 -8q-64 -97 -165 -104l-1 -110h-18l-1 109q-97 1 -160 75.5t-63 184.5q0 108 63.5 182.5t154.5 85.5l-1 109h30l-1 -107q67 0 106.5 -28.5t39.5 -71.5q0 -23 -14 -37.5t-36 -14.5
q-21 0 -35 13.5t-14 35.5q0 18 10.5 30.5t27.5 17.5q-28 30 -85 30l-3 -454q4 -1 13 -1q80 0 145 63z" />
    <glyph glyph-name="sterling" unicode="&#xa3;" horiz-adv-x="500" 
d="M458 138h10v-138h-423v10l6 3q95 49 95 207q0 44 -15 91l-96 2v19l89 2q-30 92 -30 136q0 83 60 139t164 56q63 0 101 -28.5t38 -69.5q0 -26 -16 -42t-40 -16t-39 16t-15 37q0 42 42 50q-7 12 -27.5 20.5t-45.5 8.5q-68 0 -106 -44.5t-38 -102.5t31 -159l196 4v-33
l-189 4q16 -55 16 -88q0 -105 -116 -181l212 11q67 4 94 22.5t42 63.5z" />
    <glyph glyph-name="currency" unicode="&#xa4;" horiz-adv-x="579" 
d="M290 182q60 0 101.5 43t41.5 102q0 61 -41.5 104t-101.5 43q-61 0 -102.5 -43t-41.5 -104q0 -59 41.5 -102t102.5 -43zM499 148l-24 -24l-71 69q-50 -42 -115 -42q-66 0 -115 43l-60 -60l-24 24l60 60q-38 49 -38 110q0 67 43 116l-63 63l24 25l64 -65q48 38 109 38
q63 0 110 -38l70 70l24 -24l-70 -70q43 -49 43 -115q0 -63 -39 -110z" />
    <glyph glyph-name="yen" unicode="&#xa5;" horiz-adv-x="608" 
d="M435 674h163v-8q-50 -27 -119 -146l-71 -121l149 2v-29l-164 1l-49 -84v-20l213 2v-29l-213 1v-137q0 -47 8.5 -68t30.5 -30v-8h-149v8q22 9 30.5 30t8.5 68v138l-198 1v22l198 2v4l-58 101l-140 1v22l126 1l-92 160q-31 54 -48.5 75t-40.5 33v8h171v-8q-47 -31 3 -116
l136 -233l111 209q29 58 26.5 93.5t-32.5 46.5v8z" />
    <glyph glyph-name="brokenbar" unicode="&#xa6;" horiz-adv-x="278" 
d="M164 331h-50v419h50v-419zM114 168h50v-418h-50v418z" />
    <glyph glyph-name="section" unicode="&#xa7;" horiz-adv-x="583" 
d="M132 297q0 -31 15.5 -56t45 -45t58 -34.5t70.5 -34t66 -32.5q28 19 46 49.5t18 62.5t-15.5 58t-45.5 45.5t-59 34t-70.5 33t-65.5 31.5q-26 -15 -44.5 -47.5t-18.5 -64.5zM405 85q86 -52 86 -123q0 -72 -58 -109t-140 -37q-79 0 -141 34.5t-62 83.5q0 23 14.5 38.5
t37.5 15.5q22 0 37.5 -14.5t15.5 -36.5q0 -31 -24 -46q15 -21 48.5 -35.5t74.5 -14.5q63 0 95.5 25t32.5 70q0 37 -35.5 67t-86.5 53t-102.5 48.5t-87 65t-35.5 90.5q0 54 29 95t73 65q-78 47 -78 116q0 72 57.5 109t130.5 37q78 0 138.5 -33.5t60.5 -83.5
q0 -23 -14.5 -38.5t-37.5 -15.5q-22 0 -37.5 14.5t-15.5 36.5q0 31 24 46q-15 21 -45.5 35t-67.5 14q-59 0 -91.5 -26.5t-32.5 -71.5q0 -36 35 -65t85 -50.5t100 -45.5t85 -62.5t35 -89.5q0 -102 -103 -161z" />
    <glyph glyph-name="dieresis" unicode="&#xa8;" 
d="M458 655q0 -23 -16.5 -39.5t-39.5 -16.5t-39.5 16.5t-16.5 39.5t16.5 39.5t39.5 16.5t39.5 -16.5t16.5 -39.5zM254 655q0 -23 -16.5 -39.5t-39.5 -16.5t-39.5 16.5t-16.5 39.5t16.5 39.5t39.5 16.5t39.5 -16.5t16.5 -39.5z" />
    <glyph glyph-name="copyright" unicode="&#xa9;" horiz-adv-x="800" 
d="M237 342q0 72 51.5 122t126.5 50q59 0 110 -24v-94h-9q-26 99 -102 99q-51 0 -89.5 -42.5t-38.5 -112.5q0 -72 38.5 -116t89.5 -44q41 0 69 26.5t39 72.5h9v-92q-50 -25 -116 -25q-75 0 -126.5 49t-51.5 131zM60 328q0 141 100 240.5t240 99.5q142 0 241 -99.5t99 -240.5
t-99.5 -240.5t-240.5 -99.5q-140 0 -240 100t-100 240zM92 328q0 -128 88.5 -220t218.5 -92t219.5 92t89.5 220t-89.5 220.5t-219.5 92.5t-218.5 -92.5t-88.5 -220.5z" />
    <glyph glyph-name="ordfeminine" unicode="&#xaa;" horiz-adv-x="404" 
d="M256 410v92q-20 4 -32 4q-50 0 -78.5 -22t-28.5 -59q0 -28 17 -44.5t44 -16.5q44 0 78 46zM343 368h13v-7q-18 -25 -51 -25q-43 0 -48 47q-35 -50 -98 -50q-43 0 -71 24t-28 64q0 48 38 76t109 28q30 0 49 -4v63q0 81 -71 81q-44 0 -64 -25q27 -8 27 -34q0 -14 -10 -23
t-27 -9q-16 0 -26 10t-10 25q0 33 34.5 54.5t80.5 21.5q58 0 86 -27.5t28 -72.5v-174q0 -25 8 -34t31 -9z" />
    <glyph glyph-name="guillemotleft" unicode="&#xab;" horiz-adv-x="505" 
d="M250 263q110 64 199 179l16 -12l-120 -177l120 -177l-16 -12q-89 115 -199 179v20zM50 263q110 64 199 179l16 -12l-120 -177l120 -177l-16 -12q-89 115 -199 179v20z" />
    <glyph glyph-name="logicalnot" unicode="&#xac;" horiz-adv-x="596" 
d="M65 448h466v-222h-37v188h-429v34z" />
    <glyph glyph-name="uni00AD" unicode="&#xad;" horiz-adv-x="367" 
d="M60 248v54h247v-54h-247z" />
    <glyph glyph-name="registered" unicode="&#xae;" horiz-adv-x="800" 
d="M275 512h118q63 0 98.5 -25t35.5 -71q0 -88 -110 -103q90 -103 142 -146l-3 -4q-8 -7 -24 -7q-19 0 -38.5 13.5t-57.5 57.5l-77 89l2 8q59 0 87 25.5t28 65.5q0 79 -101 79h-35v-266q0 -36 21 -57v-5h-86v5q22 19 22 57v222q0 39 -22 58v4zM399 16q130 0 219.5 92
t89.5 220t-89.5 220.5t-219.5 92.5t-218.5 -92.5t-88.5 -220.5t88.5 -220t218.5 -92zM400 668q142 0 241 -99.5t99 -240.5t-99.5 -240.5t-240.5 -99.5q-140 0 -240 100t-100 240q0 141 100 240.5t240 99.5z" />
    <glyph glyph-name="macron" unicode="&#xaf;" 
d="M146 638v34h307v-34h-307z" />
    <glyph glyph-name="degree" unicode="&#xb0;" horiz-adv-x="456" 
d="M70 511q0 74 44.5 118.5t117.5 44.5q71 0 113.5 -41t40.5 -108q1 -74 -43 -118.5t-119 -44.5q-70 0 -112 41t-42 108zM327 512q1 61 -27.5 98.5t-75.5 37.5q-43 0 -69 -34t-26 -90q0 -61 28.5 -98.5t74.5 -37.5q44 0 70 33.5t25 90.5z" />
    <glyph glyph-name="plusminus" unicode="&#xb1;" horiz-adv-x="629" 
d="M65 74v34h499v-34h-499zM333 399h231v-34h-231v-187h-37v187h-231v34h231v186h37v-186z" />
    <glyph glyph-name="twosuperior" unicode="&#xb2;" horiz-adv-x="277" 
d="M246 338h-231v29q106 84 132 113q45 50 45 100q0 39 -18 62t-51 23q-39 0 -56 -29q19 -6 19 -28q0 -13 -9.5 -21.5t-23.5 -8.5q-15 0 -25 9.5t-10 24.5q0 28 31.5 50.5t74.5 22.5q57 0 90 -30t33 -73q0 -28 -13.5 -54t-44 -54.5t-54 -47t-69.5 -50.5h87q61 0 91 30h14z
" />
    <glyph glyph-name="threesuperior" unicode="&#xb3;" horiz-adv-x="338" 
d="M114 502v13q55 12 84 31t29 54q0 29 -15.5 46.5t-45.5 17.5q-45 0 -66 -31q20 -6 20 -27q0 -12 -9 -21t-23 -9q-15 0 -24.5 9t-9.5 23q0 31 33 53.5t79 22.5q51 0 84.5 -23t33.5 -60q0 -49 -67 -76q38 -7 59.5 -30.5t21.5 -57.5q0 -50 -40 -79.5t-94 -29.5
q-47 1 -80.5 22.5t-33.5 52.5q0 14 9.5 24.5t25.5 10.5q15 0 24 -8.5t9 -21.5q0 -21 -20 -28q18 -30 66 -30q32 0 54.5 21.5t22.5 56.5q0 39 -22 56.5t-77 17.5h-28z" />
    <glyph glyph-name="acute" unicode="&#xb4;" 
d="M342 731h100l-160 -152h-24z" />
    <glyph glyph-name="uni00B5" unicode="&#xb5;" horiz-adv-x="614" 
d="M500 519v-404q0 -74 44 -92v-8l-109 -26v106q-93 -106 -193 -106q-52 0 -85 27q4 -65 15.5 -121.5t11.5 -70.5q0 -35 -36 -35q-39 0 -39 52v552q0 35 -11 52t-33 27v8l109 39v-353q0 -63 23 -91t77 -28q75 0 161 70v276q0 35 -11 52t-33 27v8z" />
    <glyph glyph-name="paragraph" unicode="&#xb6;" horiz-adv-x="478" 
d="M453 674v-8q-44 -29 -44 -108v-530q0 -45 -6 -79t-22 -66t-49.5 -49.5t-82.5 -17.5q-66 0 -112.5 30t-46.5 84q0 32 19.5 52.5t49.5 20.5q32 0 53 -21t21 -54q0 -42 -29 -58q1 -15 17.5 -24.5t36.5 -9.5q39 0 61.5 28t29 65.5t6.5 93.5v635l-113 -14v-413q-38 0 -71.5 11
t-64 35.5t-48.5 69.5t-18 106q0 103 65 162t158 59h190z" />
    <glyph glyph-name="periodcentered" unicode="&#xb7;" 
d="M358 355q0 -24 -17 -41t-41 -17t-41 17t-17 41t17 41t41 17t41 -17t17 -41z" />
    <glyph glyph-name="cedilla" unicode="&#xb8;" 
d="M201 -191l5 16q34 -17 67 -17q28 0 45 13.5t17 37.5q0 23 -21.5 40.5t-66.5 19.5l52 83h34l-29 -67q43 -3 69 -24.5t26 -50.5q0 -35 -27 -56.5t-74 -21.5q-56 0 -97 27z" />
    <glyph glyph-name="onesuperior" unicode="&#xb9;" horiz-adv-x="211" 
d="M131 685v-288q0 -43 20 -52v-7h-90v7q20 8 20 52v221l-41 -10v8z" />
    <glyph glyph-name="ordmasculine" unicode="&#xba;" horiz-adv-x="420" 
d="M50 501q0 83 44 133.5t120 50.5q74 0 115 -48.5t41 -125.5q0 -84 -43.5 -134t-120.5 -50q-72 0 -114 49t-42 125zM107 512q0 -73 30.5 -117.5t78.5 -44.5q43 0 70 40.5t27 109.5q0 74 -30 118t-79 44q-42 0 -69.5 -40.5t-27.5 -109.5z" />
    <glyph glyph-name="guillemotright" unicode="&#xbb;" horiz-adv-x="505" 
d="M360 253l-120 177l16 12q89 -115 199 -179v-20q-110 -64 -199 -179l-16 12zM160 253l-120 177l16 12q89 -115 199 -179v-20q-110 -64 -199 -179l-16 12z" />
    <glyph glyph-name="onequarter" unicode="&#xbc;" horiz-adv-x="568" 
d="M61 338v7q20 8 20 52v221l-41 -10v8l91 69v-288q0 -43 20 -52v-7h-90zM370 657h45l-266 -657h-45zM328 108h108v167zM525 74h-39v-15q0 -43 20 -52v-7h-90v7q20 8 20 52v15h-152v25l159 220h43v-211h44z" />
    <glyph glyph-name="onehalf" unicode="&#xbd;" horiz-adv-x="622" 
d="M131 685v-288q0 -43 20 -52v-7h-90v7q20 8 20 52v221l-41 -10v8zM104 0l266 657h45l-266 -657h-45zM570 0h-231v29q106 84 132 113q45 50 45 100q0 39 -18 62t-51 23q-39 0 -56 -29q19 -6 19 -28q0 -13 -9.5 -21.5t-23.5 -8.5q-15 0 -25 9.5t-10 24.5q0 28 31.5 50.5
t74.5 22.5q57 0 90 -30t33 -73q0 -28 -13.5 -54t-44 -54.5t-54 -47t-69.5 -50.5h87q61 0 91 30h14z" />
    <glyph glyph-name="threequarters" unicode="&#xbe;" horiz-adv-x="666" 
d="M114 502v13q55 12 84 31t29 54q0 29 -15.5 46.5t-45.5 17.5q-45 0 -66 -31q20 -6 20 -27q0 -12 -9 -21t-23 -9q-15 0 -24.5 9t-9.5 23q0 31 33 53.5t79 22.5q51 0 84.5 -23t33.5 -60q0 -49 -67 -76q38 -7 59.5 -30.5t21.5 -57.5q0 -50 -40 -79.5t-94 -29.5
q-47 1 -80.5 22.5t-33.5 52.5q0 14 9.5 24.5t25.5 10.5q15 0 24 -8.5t9 -21.5q0 -21 -20 -28q18 -30 66 -30q32 0 54.5 21.5t22.5 56.5q0 39 -22 56.5t-77 17.5h-28zM466 657h45l-266 -657h-45zM424 108h108v167zM621 74h-39v-15q0 -43 20 -52v-7h-90v7q20 8 20 52v15h-152
v25l159 220h43v-211h44z" />
    <glyph glyph-name="questiondown" unicode="&#xbf;" horiz-adv-x="509" 
d="M274 399q-25 0 -42.5 17.5t-17.5 42.5t17.5 42.5t42.5 17.5t42.5 -17.5t17.5 -42.5t-17.5 -42.5t-42.5 -17.5zM282 305l27 -162q-194 -13 -194 -148q0 -68 40.5 -106.5t113.5 -38.5q103 0 140 73q-41 10 -41 50q0 21 14 34t35 13q23 0 37.5 -15.5t14.5 -42.5
q0 -58 -59 -97t-142 -39q-106 0 -164.5 50.5t-58.5 122.5q0 75 56 123.5t143 62.5l24 120h14z" />
    <glyph glyph-name="Agrave" unicode="&#xc0;" horiz-adv-x="665" 
d="M375 745h-24l-160 152h100zM184 237h269l-137 334zM342 685l237 -576q20 -47 36 -67t40 -34v-8h-162v8q44 23 7 114l-37 91h-288l-22 -55q-46 -118 7 -150v-8h-160v8q31 15 56 47t53 99l224 531h9z" />
    <glyph glyph-name="Aacute" unicode="&#xc1;" horiz-adv-x="665" 
d="M475 897l-160 -152h-24l84 152h100zM184 237h269l-137 334zM342 685l237 -576q20 -47 36 -67t40 -34v-8h-162v8q44 23 7 114l-37 91h-288l-22 -55q-46 -118 7 -150v-8h-160v8q31 15 56 47t53 99l224 531h9z" />
    <glyph glyph-name="Acircumflex" unicode="&#xc2;" horiz-adv-x="665" 
d="M333 818l-141 -73l-6 6l143 146h8l143 -146l-6 -6zM184 237h269l-137 334zM342 685l237 -576q20 -47 36 -67t40 -34v-8h-162v8q44 23 7 114l-37 91h-288l-22 -55q-46 -118 7 -150v-8h-160v8q31 15 56 47t53 99l224 531h9z" />
    <glyph glyph-name="Atilde" unicode="&#xc3;" horiz-adv-x="665" 
d="M191 761h-8q-2 8 -2 25q0 39 21.5 66t61.5 27q27 0 75 -30.5t74 -30.5q27 0 43 17t18 46h8q2 -8 2 -25q0 -39 -21.5 -66t-61.5 -27q-25 0 -73.5 30.5t-75.5 30.5t-43 -17t-18 -46zM184 237h269l-137 334zM342 685l237 -576q20 -47 36 -67t40 -34v-8h-162v8q44 23 7 114
l-37 91h-288l-22 -55q-46 -118 7 -150v-8h-160v8q31 15 56 47t53 99l224 531h9z" />
    <glyph glyph-name="Adieresis" unicode="&#xc4;" horiz-adv-x="665" 
d="M435 765q-23 0 -39.5 16.5t-16.5 39.5t16.5 39.5t39.5 16.5t39.5 -16.5t16.5 -39.5t-16.5 -39.5t-39.5 -16.5zM231 765q-23 0 -39.5 16.5t-16.5 39.5t16.5 39.5t39.5 16.5t39.5 -16.5t16.5 -39.5t-16.5 -39.5t-39.5 -16.5zM184 237h269l-137 334zM342 685l237 -576
q20 -47 36 -67t40 -34v-8h-162v8q44 23 7 114l-37 91h-288l-22 -55q-46 -118 7 -150v-8h-160v8q31 15 56 47t53 99l224 531h9z" />
    <glyph glyph-name="Aring" unicode="&#xc5;" horiz-adv-x="665" 
d="M333 869q-19 0 -33.5 -14.5t-14.5 -33.5t14.5 -33.5t33.5 -14.5t33.5 14.5t14.5 33.5t-14.5 33.5t-33.5 14.5zM333 738q-35 0 -59 24t-24 59t24 59t59 24t59 -24t24 -59t-24 -59t-59 -24zM184 237h269l-137 334zM342 685l237 -576q20 -47 36 -67t40 -34v-8h-162v8
q44 23 7 114l-37 91h-288l-22 -55q-46 -118 7 -150v-8h-160v8q31 15 56 47t53 99l224 531h9z" />
    <glyph glyph-name="AE" unicode="&#xc6;" horiz-adv-x="915" 
d="M237 237h224v385zM870 153h10v-153h-458v8q22 9 30.5 30t8.5 68v107h-238l-24 -42q-82 -142 -13 -163v-8h-186v8q35 10 71 47t90 126l300 493h404v-134h-10q-22 62 -61 85.5t-120 23.5h-142v-297l121 4q46 1 68.5 21.5t33.5 68.5h8v-201h-8q-11 47 -34.5 65t-70.5 20
l-118 4v-243q0 -35 19 -51t62 -16h82q87 0 122 26.5t53 102.5z" />
    <glyph glyph-name="Ccedilla" unicode="&#xc7;" horiz-adv-x="649" 
d="M614 495h-10q-29 83 -79 124.5t-132 41.5q-112 0 -184.5 -88t-72.5 -232q0 -149 74 -238.5t194 -89.5q80 0 128 37.5t71 115.5h10v-126q-69 -49 -201 -51l-23 -54q43 -3 69 -24.5t26 -50.5q0 -35 -27 -56.5t-74 -21.5q-56 0 -97 27l5 16q34 -17 67 -17q28 0 45 13.5
t17 37.5q0 23 -21.5 40.5t-66.5 19.5l44 71q-144 8 -232.5 102.5t-88.5 249.5q0 145 94.5 244t244.5 99q123 0 220 -54v-136z" />
    <glyph glyph-name="Egrave" unicode="&#xc8;" horiz-adv-x="578" 
d="M361 745h-24l-160 152h100zM533 153h10v-153h-458v8q22 9 30.5 30t8.5 68v462q0 47 -8.5 68t-30.5 30v8h443v-134h-10q-22 62 -61 85.5t-120 23.5h-142v-297l121 4q46 1 68.5 21.5t33.5 68.5h8v-201h-8q-11 47 -34.5 65t-70.5 20l-118 4v-243q0 -35 19 -51t62 -16h82
q87 0 122 26.5t53 102.5z" />
    <glyph glyph-name="Eacute" unicode="&#xc9;" horiz-adv-x="578" 
d="M461 897l-160 -152h-24l84 152h100zM533 153h10v-153h-458v8q22 9 30.5 30t8.5 68v462q0 47 -8.5 68t-30.5 30v8h443v-134h-10q-22 62 -61 85.5t-120 23.5h-142v-297l121 4q46 1 68.5 21.5t33.5 68.5h8v-201h-8q-11 47 -34.5 65t-70.5 20l-118 4v-243q0 -35 19 -51
t62 -16h82q87 0 122 26.5t53 102.5z" />
    <glyph glyph-name="Ecircumflex" unicode="&#xca;" horiz-adv-x="578" 
d="M319 818l-141 -73l-6 6l143 146h8l143 -146l-6 -6zM533 153h10v-153h-458v8q22 9 30.5 30t8.5 68v462q0 47 -8.5 68t-30.5 30v8h443v-134h-10q-22 62 -61 85.5t-120 23.5h-142v-297l121 4q46 1 68.5 21.5t33.5 68.5h8v-201h-8q-11 47 -34.5 65t-70.5 20l-118 4v-243
q0 -35 19 -51t62 -16h82q87 0 122 26.5t53 102.5z" />
    <glyph glyph-name="Edieresis" unicode="&#xcb;" horiz-adv-x="578" 
d="M421 765q-23 0 -39.5 16.5t-16.5 39.5t16.5 39.5t39.5 16.5t39.5 -16.5t16.5 -39.5t-16.5 -39.5t-39.5 -16.5zM217 765q-23 0 -39.5 16.5t-16.5 39.5t16.5 39.5t39.5 16.5t39.5 -16.5t16.5 -39.5t-16.5 -39.5t-39.5 -16.5zM533 153h10v-153h-458v8q22 9 30.5 30t8.5 68
v462q0 47 -8.5 68t-30.5 30v8h443v-134h-10q-22 62 -61 85.5t-120 23.5h-142v-297l121 4q46 1 68.5 21.5t33.5 68.5h8v-201h-8q-11 47 -34.5 65t-70.5 20l-118 4v-243q0 -35 19 -51t62 -16h82q87 0 122 26.5t53 102.5z" />
    <glyph glyph-name="Igrave" unicode="&#xcc;" horiz-adv-x="319" 
d="M195 568v-462q0 -47 8.5 -68t30.5 -30v-8h-149v8q22 9 30.5 30t8.5 68v462q0 47 -8.5 68t-30.5 30v8h149v-8q-22 -9 -30.5 -30t-8.5 -68zM17 897h100l84 -152h-24z" />
    <glyph glyph-name="Iacute" unicode="&#xcd;" horiz-adv-x="319" 
d="M195 568v-462q0 -47 8.5 -68t30.5 -30v-8h-149v8q22 9 30.5 30t8.5 68v462q0 47 -8.5 68t-30.5 30v8h149v-8q-22 -9 -30.5 -30t-8.5 -68zM201 897h100l-160 -152h-24z" />
    <glyph glyph-name="Icircumflex" unicode="&#xce;" horiz-adv-x="319" 
d="M85 666v8h149v-8q-22 -9 -30.5 -30t-8.5 -68v-462q0 -47 8.5 -68t30.5 -30v-8h-149v8q22 9 30.5 30t8.5 68v462q0 47 -8.5 68t-30.5 30zM163 897l143 -146l-6 -6l-141 73l-141 -73l-6 6l143 146h8z" />
    <glyph glyph-name="Idieresis" unicode="&#xcf;" horiz-adv-x="319" 
d="M195 568v-462q0 -47 8.5 -68t30.5 -30v-8h-149v8q22 9 30.5 30t8.5 68v462q0 47 -8.5 68t-30.5 30v8h149v-8q-22 -9 -30.5 -30t-8.5 -68zM317 821q0 -23 -16.5 -39.5t-39.5 -16.5t-39.5 16.5t-16.5 39.5t16.5 39.5t39.5 16.5t39.5 -16.5t16.5 -39.5zM113 821
q0 -23 -16.5 -39.5t-39.5 -16.5t-39.5 16.5t-16.5 39.5t16.5 39.5t39.5 16.5t39.5 -16.5t16.5 -39.5z" />
    <glyph glyph-name="Eth" unicode="&#xd0;" horiz-adv-x="725" 
d="M276 24h18q136 0 215.5 83.5t79.5 225.5q0 148 -83 232.5t-233 84.5h-78v-300l174 4v-28h-174v-235q0 -35 19 -51t62 -16zM85 674h205q184 0 282 -92.5t98 -242.5q0 -148 -102.5 -243.5t-274.5 -95.5h-208v8q22 9 30.5 30t8.5 68v220h-89v20l89 2v220q0 47 -8.5 68
t-30.5 30v8z" />
    <glyph glyph-name="Ntilde" unicode="&#xd1;" horiz-adv-x="723" 
d="M603 515l-9 -527h-14l-431 558l6 -378q3 -128 64 -160v-8h-159v8q60 29 61 161l3 336q1 78 -13.5 112.5t-45.5 48.5v8h80l427 -564v406q0 120 -59 150v8h149v-8q-56 -27 -59 -151zM220 761h-8q-2 8 -2 25q0 39 21.5 66t61.5 27q27 0 75 -30.5t74 -30.5q27 0 43 17t18 46
h8q2 -8 2 -25q0 -39 -21.5 -66t-61.5 -27q-25 0 -73.5 30.5t-75.5 30.5t-43 -17t-18 -46z" />
    <glyph glyph-name="Ograve" unicode="&#xd2;" horiz-adv-x="768" 
d="M383 13q113 0 180.5 89t67.5 239q0 136 -69 228t-179 92t-178.5 -91.5t-68.5 -228.5q0 -148 68 -238t179 -90zM382 -11q-147 0 -237 95.5t-90 257.5q0 143 91.5 243t236.5 100q148 0 239 -98.5t91 -244.5q0 -157 -93.5 -255t-237.5 -98zM242 897h100l84 -152h-24z" />
    <glyph glyph-name="Oacute" unicode="&#xd3;" horiz-adv-x="768" 
d="M426 897h100l-160 -152h-24zM383 13q113 0 180.5 89t67.5 239q0 136 -69 228t-179 92t-178.5 -91.5t-68.5 -228.5q0 -148 68 -238t179 -90zM382 -11q-147 0 -237 95.5t-90 257.5q0 143 91.5 243t236.5 100q148 0 239 -98.5t91 -244.5q0 -157 -93.5 -255t-237.5 -98z" />
    <glyph glyph-name="Ocircumflex" unicode="&#xd4;" horiz-adv-x="768" 
d="M384 818l-141 -73l-6 6l143 146h8l143 -146l-6 -6zM383 13q113 0 180.5 89t67.5 239q0 136 -69 228t-179 92t-178.5 -91.5t-68.5 -228.5q0 -148 68 -238t179 -90zM383 685q148 0 239 -98.5t91 -244.5q0 -157 -93.5 -255t-237.5 -98q-147 0 -237 95.5t-90 257.5
q0 143 91.5 243t236.5 100z" />
    <glyph glyph-name="Otilde" unicode="&#xd5;" horiz-adv-x="768" 
d="M383 13q113 0 180.5 89t67.5 239q0 136 -69 228t-179 92t-178.5 -91.5t-68.5 -228.5q0 -148 68 -238t179 -90zM382 -11q-147 0 -237 95.5t-90 257.5q0 143 91.5 243t236.5 100q148 0 239 -98.5t91 -244.5q0 -157 -93.5 -255t-237.5 -98zM242 761h-8q-2 8 -2 25
q0 39 21.5 66t61.5 27q27 0 75 -30.5t74 -30.5q27 0 43 17t18 46h8q2 -8 2 -25q0 -39 -21.5 -66t-61.5 -27q-25 0 -73.5 30.5t-75.5 30.5t-43 -17t-18 -46z" />
    <glyph glyph-name="Odieresis" unicode="&#xd6;" horiz-adv-x="768" 
d="M542 821q0 -23 -16.5 -39.5t-39.5 -16.5t-39.5 16.5t-16.5 39.5t16.5 39.5t39.5 16.5t39.5 -16.5t16.5 -39.5zM338 821q0 -23 -16.5 -39.5t-39.5 -16.5t-39.5 16.5t-16.5 39.5t16.5 39.5t39.5 16.5t39.5 -16.5t16.5 -39.5zM383 13q113 0 180.5 89t67.5 239q0 136 -69 228
t-179 92t-178.5 -91.5t-68.5 -228.5q0 -148 68 -238t179 -90zM382 -11q-147 0 -237 95.5t-90 257.5q0 143 91.5 243t236.5 100q148 0 239 -98.5t91 -244.5q0 -157 -93.5 -255t-237.5 -98z" />
    <glyph glyph-name="multiply" unicode="&#xd7;" horiz-adv-x="629" 
d="M505 177l-24 -24l-167 167l-165 -165l-24 24l165 165l-162 162l24 25l162 -163l160 160l24 -24l-160 -160z" />
    <glyph glyph-name="Oslash" unicode="&#xd8;" horiz-adv-x="737" 
d="M554 545l-354 -446q62 -86 168 -86q110 0 171.5 90t61.5 238q0 119 -47 204zM186 122l349 451q-64 88 -167 88q-107 0 -169.5 -92t-62.5 -228q0 -134 50 -219zM665 685l-73 -91q90 -96 90 -252q0 -163 -86 -258t-229 -95q-122 0 -201 67l-52 -65l-18 15l52 67
q-93 95 -93 269q0 147 84.5 245t228.5 98q119 0 201 -69l53 69h43z" />
    <glyph glyph-name="Ugrave" unicode="&#xd9;" horiz-adv-x="697" 
d="M364 -9q-114 0 -182 55t-68 170v352q0 47 -8.5 68t-30.5 30v8h149v-8q-22 -9 -30.5 -30t-8.5 -68v-342q0 -199 189 -199q87 0 135 47.5t47 141.5l-3 290q-1 127 -66 160v8h169v-8q-66 -32 -69 -161l-5 -290q-2 -113 -60 -168.5t-158 -55.5zM227 897h100l84 -152h-24z" />
    <glyph glyph-name="Uacute" unicode="&#xda;" horiz-adv-x="697" 
d="M411 897h100l-160 -152h-24zM364 -9q-114 0 -182 55t-68 170v352q0 47 -8.5 68t-30.5 30v8h149v-8q-22 -9 -30.5 -30t-8.5 -68v-342q0 -199 189 -199q87 0 135 47.5t47 141.5l-3 290q-1 127 -66 160v8h169v-8q-66 -32 -69 -161l-5 -290q-2 -113 -60 -168.5t-158 -55.5z
" />
    <glyph glyph-name="Ucircumflex" unicode="&#xdb;" horiz-adv-x="697" 
d="M369 818l-141 -73l-6 6l143 146h8l143 -146l-6 -6zM487 674h169v-8q-66 -32 -69 -161l-5 -290q-2 -113 -60 -168.5t-158 -55.5q-114 0 -182 55t-68 170v352q0 47 -8.5 68t-30.5 30v8h149v-8q-22 -9 -30.5 -30t-8.5 -68v-342q0 -199 189 -199q87 0 135 47.5t47 141.5
l-3 290q-1 127 -66 160v8z" />
    <glyph glyph-name="Udieresis" unicode="&#xdc;" horiz-adv-x="697" 
d="M527 821q0 -23 -16.5 -39.5t-39.5 -16.5t-39.5 16.5t-16.5 39.5t16.5 39.5t39.5 16.5t39.5 -16.5t16.5 -39.5zM323 821q0 -23 -16.5 -39.5t-39.5 -16.5t-39.5 16.5t-16.5 39.5t16.5 39.5t39.5 16.5t39.5 -16.5t16.5 -39.5zM364 -9q-114 0 -182 55t-68 170v352
q0 47 -8.5 68t-30.5 30v8h149v-8q-22 -9 -30.5 -30t-8.5 -68v-342q0 -199 189 -199q87 0 135 47.5t47 141.5l-3 290q-1 127 -66 160v8h169v-8q-66 -32 -69 -161l-5 -290q-2 -113 -60 -168.5t-158 -55.5z" />
    <glyph glyph-name="Yacute" unicode="&#xdd;" horiz-adv-x="608" 
d="M446 897l-160 -152h-24l84 152h100zM435 674h163v-8q-50 -27 -119 -146l-135 -231v-183q0 -47 8.5 -68t30.5 -30v-8h-149v8q22 9 30.5 30t8.5 68v167l-164 285q-31 54 -48.5 75t-40.5 33v8h171v-8q-47 -31 3 -116l136 -233l111 209q29 58 26.5 93.5t-32.5 46.5v8z" />
    <glyph glyph-name="Thorn" unicode="&#xde;" horiz-adv-x="575" 
d="M195 543h82q129 0 198.5 -50.5t69.5 -141.5q0 -99 -72.5 -151.5t-182.5 -52.5q-34 0 -56 5v8q114 3 172 50.5t58 133.5q0 87 -56 130.5t-159 43.5h-54v-412q0 -47 8.5 -68t30.5 -30v-8h-149v8q22 9 30.5 30t8.5 68v462q0 47 -8.5 68t-30.5 30v8h149v-8q-22 -9 -30.5 -30
t-8.5 -68v-25z" />
    <glyph glyph-name="germandbls" unicode="&#xdf;" horiz-adv-x="618" 
d="M487 618q0 -29 -14 -51.5t-33.5 -37.5t-39.5 -29t-34 -33t-14 -43q0 -31 23.5 -57.5t56.5 -47.5t66 -44t56.5 -57t23.5 -75q0 -68 -47.5 -111t-124.5 -43q-78 0 -122 28t-44 70q0 22 14 37t37 15t37 -13t14 -35q0 -13 -8 -25.5t-22 -17.5q11 -16 38.5 -26t58.5 -10
q51 0 81 27.5t30 76.5q0 38 -23.5 68.5t-56.5 52t-66 42.5t-56.5 52t-23.5 69q0 25 13.5 47t32 39t37.5 35t32.5 43.5t13.5 55.5q0 46 -31.5 79t-83.5 33q-58 0 -93.5 -43.5t-35.5 -113.5v-575h-104v8q22 9 30.5 30t8.5 68v457q0 89 52.5 141t141.5 52q83 0 131 -38t48 -100
z" />
    <glyph glyph-name="agrave" unicode="&#xe0;" horiz-adv-x="530" 
d="M297 579h-24l-160 152h100zM356 97v149q-35 5 -53 5q-81 0 -125.5 -33.5t-44.5 -91.5q0 -45 27.5 -71t71.5 -26q36 0 69 19t55 49zM484 35h15v-8q-26 -33 -73 -33q-31 0 -49.5 20.5t-20.5 56.5q-22 -34 -62 -58t-90 -24q-63 0 -103.5 35.5t-40.5 96.5q0 71 56.5 113
t162.5 42q49 0 77 -6v98q0 127 -113 127q-70 0 -103 -43q41 -10 41 -50q0 -21 -14 -34t-35 -13q-22 0 -35.5 14.5t-13.5 37.5q0 48 50 80t119 32q86 0 127.5 -41t41.5 -108v-267q0 -40 12 -54t51 -14z" />
    <glyph glyph-name="aacute" unicode="&#xe1;" horiz-adv-x="530" 
d="M397 731l-160 -152h-24l84 152h100zM356 97v149q-35 5 -53 5q-81 0 -125.5 -33.5t-44.5 -91.5q0 -45 27.5 -71t71.5 -26q36 0 69 19t55 49zM484 35h15v-8q-26 -33 -73 -33q-31 0 -49.5 20.5t-20.5 56.5q-22 -34 -62 -58t-90 -24q-63 0 -103.5 35.5t-40.5 96.5
q0 71 56.5 113t162.5 42q49 0 77 -6v98q0 127 -113 127q-70 0 -103 -43q41 -10 41 -50q0 -21 -14 -34t-35 -13q-22 0 -35.5 14.5t-13.5 37.5q0 48 50 80t119 32q86 0 127.5 -41t41.5 -108v-267q0 -40 12 -54t51 -14z" />
    <glyph glyph-name="acircumflex" unicode="&#xe2;" horiz-adv-x="530" 
d="M255 652l-141 -73l-6 6l143 146h8l143 -146l-6 -6zM356 97v149q-35 5 -53 5q-81 0 -125.5 -33.5t-44.5 -91.5q0 -45 27.5 -71t71.5 -26q36 0 69 19t55 49zM484 35h15v-8q-26 -33 -73 -33q-31 0 -49.5 20.5t-20.5 56.5q-22 -34 -62 -58t-90 -24q-63 0 -103.5 35.5
t-40.5 96.5q0 71 56.5 113t162.5 42q49 0 77 -6v98q0 127 -113 127q-70 0 -103 -43q41 -10 41 -50q0 -21 -14 -34t-35 -13q-22 0 -35.5 14.5t-13.5 37.5q0 48 50 80t119 32q86 0 127.5 -41t41.5 -108v-267q0 -40 12 -54t51 -14z" />
    <glyph glyph-name="atilde" unicode="&#xe3;" horiz-adv-x="530" 
d="M113 595h-8q-2 8 -2 25q0 39 21.5 66t61.5 27q27 0 75 -30.5t74 -30.5q27 0 43 17t18 46h8q2 -8 2 -25q0 -39 -21.5 -66t-61.5 -27q-25 0 -73.5 30.5t-75.5 30.5t-43 -17t-18 -46zM356 97v149q-35 5 -53 5q-81 0 -125.5 -33.5t-44.5 -91.5q0 -45 27.5 -71t71.5 -26
q36 0 69 19t55 49zM484 35h15v-8q-26 -33 -73 -33q-31 0 -49.5 20.5t-20.5 56.5q-22 -34 -62 -58t-90 -24q-63 0 -103.5 35.5t-40.5 96.5q0 71 56.5 113t162.5 42q49 0 77 -6v98q0 127 -113 127q-70 0 -103 -43q41 -10 41 -50q0 -21 -14 -34t-35 -13q-22 0 -35.5 14.5
t-13.5 37.5q0 48 50 80t119 32q86 0 127.5 -41t41.5 -108v-267q0 -40 12 -54t51 -14z" />
    <glyph glyph-name="adieresis" unicode="&#xe4;" horiz-adv-x="530" 
d="M357 599q-23 0 -39.5 16.5t-16.5 39.5t16.5 39.5t39.5 16.5t39.5 -16.5t16.5 -39.5t-16.5 -39.5t-39.5 -16.5zM153 599q-23 0 -39.5 16.5t-16.5 39.5t16.5 39.5t39.5 16.5t39.5 -16.5t16.5 -39.5t-16.5 -39.5t-39.5 -16.5zM356 97v149q-35 5 -53 5q-81 0 -125.5 -33.5
t-44.5 -91.5q0 -45 27.5 -71t71.5 -26q36 0 69 19t55 49zM484 35h15v-8q-26 -33 -73 -33q-31 0 -49.5 20.5t-20.5 56.5q-22 -34 -62 -58t-90 -24q-63 0 -103.5 35.5t-40.5 96.5q0 71 56.5 113t162.5 42q49 0 77 -6v98q0 127 -113 127q-70 0 -103 -43q41 -10 41 -50
q0 -21 -14 -34t-35 -13q-22 0 -35.5 14.5t-13.5 37.5q0 48 50 80t119 32q86 0 127.5 -41t41.5 -108v-267q0 -40 12 -54t51 -14z" />
    <glyph glyph-name="aring" unicode="&#xe5;" horiz-adv-x="530" 
d="M255 703q-19 0 -33.5 -14.5t-14.5 -33.5t14.5 -33.5t33.5 -14.5t33.5 14.5t14.5 33.5t-14.5 33.5t-33.5 14.5zM255 572q-35 0 -59 24t-24 59t24 59t59 24t59 -24t24 -59t-24 -59t-59 -24zM356 97v149q-35 5 -53 5q-81 0 -125.5 -33.5t-44.5 -91.5q0 -45 27.5 -71
t71.5 -26q36 0 69 19t55 49zM484 35h15v-8q-26 -33 -73 -33q-31 0 -49.5 20.5t-20.5 56.5q-22 -34 -62 -58t-90 -24q-63 0 -103.5 35.5t-40.5 96.5q0 71 56.5 113t162.5 42q49 0 77 -6v98q0 127 -113 127q-70 0 -103 -43q41 -10 41 -50q0 -21 -14 -34t-35 -13
q-22 0 -35.5 14.5t-13.5 37.5q0 48 50 80t119 32q86 0 127.5 -41t41.5 -108v-267q0 -40 12 -54t51 -14z" />
    <glyph glyph-name="ae" unicode="&#xe6;" horiz-adv-x="813" 
d="M232 29q42 0 81.5 25t66.5 65q-24 58 -24 128q-35 5 -53 5q-81 0 -125.5 -34t-44.5 -92q0 -45 27.5 -71t71.5 -26zM432 309l255 13q-2 74 -28.5 123.5t-86.5 49.5q-59 0 -95.5 -50.5t-44.5 -135.5zM761 111l7 -8q-72 -114 -189 -114q-132 0 -190 112q-26 -47 -74.5 -79.5
t-110.5 -32.5q-63 0 -103.5 35.5t-40.5 96.5q0 70 56.5 112.5t162.5 42.5q49 0 77 -6v98q0 127 -113 127q-70 0 -103 -43q41 -10 41 -50q0 -21 -14 -34t-35 -13q-22 0 -35.5 14.5t-13.5 37.5q0 48 50 80t119 32q122 0 157 -84q60 84 163 84q95 0 141 -57.5t46 -152.5v-24
h-329v-22q0 -110 48 -167t122 -57q86 0 161 72z" />
    <glyph glyph-name="ccedilla" unicode="&#xe7;" horiz-adv-x="513" 
d="M476 102l7 -8q-66 -99 -178 -105l-24 -54q43 -3 69 -24.5t26 -50.5q0 -35 -27 -56.5t-74 -21.5q-56 0 -97 27l5 16q34 -17 67 -17q28 0 45 13.5t17 37.5q0 23 -21.5 40.5t-66.5 19.5l45 71q-96 9 -155 81t-59 178q0 118 74.5 194t180.5 76q67 0 113 -31.5t46 -76.5
q0 -25 -15 -40.5t-37 -15.5q-21 0 -35 13.5t-14 35.5q0 18 11.5 30.5t29.5 17.5q-34 42 -100 42q-80 0 -130.5 -65t-50.5 -166q0 -104 56 -164t137 -60q90 0 155 63z" />
    <glyph glyph-name="egrave" unicode="&#xe8;" horiz-adv-x="532" 
d="M318 579h-24l-160 152h100zM131 309l275 13q-2 73 -31 123t-94 50q-63 0 -102.5 -50.5t-47.5 -135.5zM480 111l7 -8q-75 -114 -199 -114q-107 0 -170 70.5t-63 189.5q0 120 62.5 195t163.5 75q100 0 148.5 -57.5t48.5 -152.5v-24h-349v-22q0 -110 50.5 -167t129.5 -57
q91 0 171 72z" />
    <glyph glyph-name="eacute" unicode="&#xe9;" horiz-adv-x="532" 
d="M408 731l-160 -152h-24l84 152h100zM131 309l275 13q-2 73 -31 123t-94 50q-63 0 -102.5 -50.5t-47.5 -135.5zM480 111l7 -8q-75 -114 -199 -114q-107 0 -170 70.5t-63 189.5q0 120 62.5 195t163.5 75q100 0 148.5 -57.5t48.5 -152.5v-24h-349v-22q0 -110 50.5 -167
t129.5 -57q91 0 171 72z" />
    <glyph glyph-name="ecircumflex" unicode="&#xea;" horiz-adv-x="532" 
d="M276 652l-141 -73l-6 6l143 146h8l143 -146l-6 -6zM131 309l275 13q-2 73 -31 123t-94 50q-63 0 -102.5 -50.5t-47.5 -135.5zM480 111l7 -8q-75 -114 -199 -114q-107 0 -170 70.5t-63 189.5q0 120 62.5 195t163.5 75q100 0 148.5 -57.5t48.5 -152.5v-24h-349v-22
q0 -110 50.5 -167t129.5 -57q91 0 171 72z" />
    <glyph glyph-name="edieresis" unicode="&#xeb;" horiz-adv-x="532" 
d="M378 599q-23 0 -39.5 16.5t-16.5 39.5t16.5 39.5t39.5 16.5t39.5 -16.5t16.5 -39.5t-16.5 -39.5t-39.5 -16.5zM174 599q-23 0 -39.5 16.5t-16.5 39.5t16.5 39.5t39.5 16.5t39.5 -16.5t16.5 -39.5t-16.5 -39.5t-39.5 -16.5zM131 309l275 13q-2 73 -31 123t-94 50
q-63 0 -102.5 -50.5t-47.5 -135.5zM480 111l7 -8q-75 -114 -199 -114q-107 0 -170 70.5t-63 189.5q0 120 62.5 195t163.5 75q100 0 148.5 -57.5t48.5 -152.5v-24h-349v-22q0 -110 50.5 -167t129.5 -57q91 0 171 72z" />
    <glyph glyph-name="igrave" unicode="&#xec;" horiz-adv-x="293" 
d="M179 519v-413q0 -47 8.5 -68t30.5 -30v-8h-143v8q22 9 30.5 30t8.5 68v287q0 35 -11 52t-33 27v8zM4 731h100l84 -152h-24z" />
    <glyph glyph-name="iacute" unicode="&#xed;" horiz-adv-x="293" 
d="M188 731h100l-160 -152h-24zM179 519v-413q0 -47 8.5 -68t30.5 -30v-8h-143v8q22 9 30.5 30t8.5 68v287q0 35 -11 52t-33 27v8z" />
    <glyph glyph-name="icircumflex" unicode="&#xee;" horiz-adv-x="293" 
d="M179 519v-413q0 -47 8.5 -68t30.5 -30v-8h-143v8q22 9 30.5 30t8.5 68v287q0 35 -11 52t-33 27v8zM150 731l143 -146l-6 -6l-141 73l-141 -73l-6 6l143 146h8z" />
    <glyph glyph-name="idieresis" unicode="&#xef;" horiz-adv-x="293" 
d="M304 655q0 -23 -16.5 -39.5t-39.5 -16.5t-39.5 16.5t-16.5 39.5t16.5 39.5t39.5 16.5t39.5 -16.5t16.5 -39.5zM100 655q0 -23 -16.5 -39.5t-39.5 -16.5t-39.5 16.5t-16.5 39.5t16.5 39.5t39.5 16.5t39.5 -16.5t16.5 -39.5zM179 519v-413q0 -47 8.5 -68t30.5 -30v-8h-143
v8q22 9 30.5 30t8.5 68v287q0 35 -11 52t-33 27v8z" />
    <glyph glyph-name="eth" unicode="&#xf0;" horiz-adv-x="595" 
d="M307 13q70 0 115 62.5t45 169.5q0 114 -49.5 182t-129.5 68q-70 0 -115 -62.5t-45 -169.5q0 -114 49.5 -182t129.5 -68zM433 752l-76 -43q91 -62 137 -178.5t46 -238.5q0 -138 -67.5 -220.5t-180.5 -82.5q-108 0 -172.5 72t-64.5 185q0 124 66.5 198.5t174.5 74.5
q102 0 152 -60q-41 150 -135 225l-111 -63l-9 16l101 61q-71 47 -163 48v8q22 7 50 7q84 0 154 -38l98 59v-30z" />
    <glyph glyph-name="ntilde" unicode="&#xf1;" horiz-adv-x="626" 
d="M179 391v-285q0 -47 8.5 -68t30.5 -30v-8h-143v8q22 9 30.5 30t8.5 68v287q0 35 -11 52t-33 27v8l109 39v-106q106 106 205 106q133 0 133 -145v-268q0 -47 8.5 -68t30.5 -30v-8h-143v8q22 9 30.5 30t8.5 68v236q0 63 -23 91t-77 28q-82 0 -173 -70zM171 595h-8
q-2 8 -2 25q0 39 21.5 66t61.5 27q27 0 75 -30.5t74 -30.5q27 0 43 17t18 46h8q2 -8 2 -25q0 -39 -21.5 -66t-61.5 -27q-25 0 -73.5 30.5t-75.5 30.5t-43 -17t-18 -46z" />
    <glyph glyph-name="ograve" unicode="&#xf2;" horiz-adv-x="595" 
d="M540 262q0 -124 -67.5 -198.5t-180.5 -74.5q-108 0 -172.5 72t-64.5 185q0 124 67.5 198.5t180.5 74.5q108 0 172.5 -72t64.5 -185zM128 263q0 -114 49.5 -182t129.5 -68q70 0 115 62.5t45 169.5q0 114 -49.5 182t-129.5 68q-70 0 -115 -62.5t-45 -169.5zM155 731h100
l84 -152h-24z" />
    <glyph glyph-name="oacute" unicode="&#xf3;" horiz-adv-x="595" 
d="M339 731h100l-160 -152h-24zM540 262q0 -124 -67.5 -198.5t-180.5 -74.5q-108 0 -172.5 72t-64.5 185q0 124 67.5 198.5t180.5 74.5q108 0 172.5 -72t64.5 -185zM128 263q0 -114 49.5 -182t129.5 -68q70 0 115 62.5t45 169.5q0 114 -49.5 182t-129.5 68q-70 0 -115 -62.5
t-45 -169.5z" />
    <glyph glyph-name="ocircumflex" unicode="&#xf4;" horiz-adv-x="595" 
d="M297 652l-141 -73l-6 6l143 146h8l143 -146l-6 -6zM307 13q70 0 115 62.5t45 169.5q0 114 -49.5 182t-129.5 68q-70 0 -115 -62.5t-45 -169.5q0 -114 49.5 -182t129.5 -68zM303 519q108 0 172.5 -72t64.5 -185q0 -124 -67.5 -198.5t-180.5 -74.5q-108 0 -172.5 72
t-64.5 185q0 124 67.5 198.5t180.5 74.5z" />
    <glyph glyph-name="otilde" unicode="&#xf5;" horiz-adv-x="595" 
d="M540 262q0 -124 -67.5 -198.5t-180.5 -74.5q-108 0 -172.5 72t-64.5 185q0 124 67.5 198.5t180.5 74.5q108 0 172.5 -72t64.5 -185zM128 263q0 -114 49.5 -182t129.5 -68q70 0 115 62.5t45 169.5q0 114 -49.5 182t-129.5 68q-70 0 -115 -62.5t-45 -169.5zM155 595h-8
q-2 8 -2 25q0 39 21.5 66t61.5 27q27 0 75 -30.5t74 -30.5q27 0 43 17t18 46h8q2 -8 2 -25q0 -39 -21.5 -66t-61.5 -27q-25 0 -73.5 30.5t-75.5 30.5t-43 -17t-18 -46z" />
    <glyph glyph-name="odieresis" unicode="&#xf6;" horiz-adv-x="595" 
d="M455 655q0 -23 -16.5 -39.5t-39.5 -16.5t-39.5 16.5t-16.5 39.5t16.5 39.5t39.5 16.5t39.5 -16.5t16.5 -39.5zM251 655q0 -23 -16.5 -39.5t-39.5 -16.5t-39.5 16.5t-16.5 39.5t16.5 39.5t39.5 16.5t39.5 -16.5t16.5 -39.5zM540 262q0 -124 -67.5 -198.5t-180.5 -74.5
q-108 0 -172.5 72t-64.5 185q0 124 67.5 198.5t180.5 74.5q108 0 172.5 -72t64.5 -185zM128 263q0 -114 49.5 -182t129.5 -68q70 0 115 62.5t45 169.5q0 114 -49.5 182t-129.5 68q-70 0 -115 -62.5t-45 -169.5z" />
    <glyph glyph-name="divide" unicode="&#xf7;" horiz-adv-x="629" 
d="M65 324v34h499v-34h-499zM250 517q0 25 17.5 42.5t42.5 17.5t42.5 -17.5t17.5 -42.5t-17.5 -42.5t-42.5 -17.5t-42.5 17.5t-17.5 42.5zM250 164q0 25 17.5 42.5t42.5 17.5t42.5 -17.5t17.5 -42.5t-17.5 -42.5t-42.5 -17.5t-42.5 17.5t-17.5 42.5z" />
    <glyph glyph-name="oslash" unicode="&#xf8;" horiz-adv-x="595" 
d="M435 399l-259 -316q48 -70 131 -70q70 0 115 62.5t45 169.5q0 88 -32 154zM162 105l257 320q-50 70 -131 70q-70 0 -115 -62.5t-45 -169.5q0 -95 34 -158zM533 519l-58 -71q65 -71 65 -186q0 -124 -67.5 -198.5t-180.5 -74.5q-90 0 -151 52l-42 -51l-17 15l42 52
q-69 72 -69 189q0 124 67.5 198.5t180.5 74.5q88 0 150 -51l41 51h39z" />
    <glyph glyph-name="ugrave" unicode="&#xf9;" horiz-adv-x="614" 
d="M435 117v276q0 35 -11 52t-33 27v8l109 39v-404q0 -74 44 -92v-8l-109 -26v106q-93 -106 -193 -106q-66 0 -99.5 38t-33.5 107v259q0 35 -11 52t-33 27v8l109 39v-353q0 -63 23 -91t77 -28q75 0 161 70zM165 731h100l84 -152h-24z" />
    <glyph glyph-name="uacute" unicode="&#xfa;" horiz-adv-x="614" 
d="M349 731h100l-160 -152h-24zM435 117v276q0 35 -11 52t-33 27v8l109 39v-404q0 -74 44 -92v-8l-109 -26v106q-93 -106 -193 -106q-66 0 -99.5 38t-33.5 107v259q0 35 -11 52t-33 27v8l109 39v-353q0 -63 23 -91t77 -28q75 0 161 70z" />
    <glyph glyph-name="ucircumflex" unicode="&#xfb;" horiz-adv-x="614" 
d="M307 652l-141 -73l-6 6l143 146h8l143 -146l-6 -6zM500 519v-404q0 -74 44 -92v-8l-109 -26v106q-93 -106 -193 -106q-66 0 -99.5 38t-33.5 107v259q0 35 -11 52t-33 27v8l109 39v-353q0 -63 23 -91t77 -28q75 0 161 70v276q0 35 -11 52t-33 27v8z" />
    <glyph glyph-name="udieresis" unicode="&#xfc;" horiz-adv-x="614" 
d="M465 655q0 -23 -16.5 -39.5t-39.5 -16.5t-39.5 16.5t-16.5 39.5t16.5 39.5t39.5 16.5t39.5 -16.5t16.5 -39.5zM261 655q0 -23 -16.5 -39.5t-39.5 -16.5t-39.5 16.5t-16.5 39.5t16.5 39.5t39.5 16.5t39.5 -16.5t16.5 -39.5zM435 117v276q0 35 -11 52t-33 27v8l109 39v-404
q0 -74 44 -92v-8l-109 -26v106q-93 -106 -193 -106q-66 0 -99.5 38t-33.5 107v259q0 35 -11 52t-33 27v8l109 39v-353q0 -63 23 -91t77 -28q75 0 161 70z" />
    <glyph glyph-name="yacute" unicode="&#xfd;" horiz-adv-x="521" 
d="M258 -5l-164 384q-23 55 -38 79t-41 42v8h156v-8q-25 -16 -25.5 -44t19.5 -75l123 -295l91 255q47 131 -4 159v8h141v-8q-28 -14 -49.5 -48.5t-56.5 -122.5l-119 -299q-32 -141 -86 -210.5t-124 -69.5q-59 0 -99 40v8q35 1 62.5 5t62 16.5t60.5 32.5t51 56.5t40 86.5z
M322 731h100l-160 -152h-24z" />
    <glyph glyph-name="thorn" unicode="&#xfe;" horiz-adv-x="606" 
d="M179 402v-289q30 -100 129 -100q80 0 125 62.5t45 176.5q0 104 -46 160t-119 56q-37 0 -74.5 -19.5t-59.5 -46.5zM179 750v-324q2 4 7 10t21 22t33 28.5t44 22.5t54 10q98 0 155.5 -68t57.5 -182q0 -126 -67 -203t-180 -77q-75 0 -125 32v-154q0 -47 11 -68t38 -30v-8
h-153v8q22 9 30.5 30t8.5 68v754q0 63 -44 82v8z" />
    <glyph glyph-name="ydieresis" unicode="&#xff;" horiz-adv-x="521" 
d="M258 -5l-164 384q-23 55 -38 79t-41 42v8h156v-8q-25 -16 -25.5 -44t19.5 -75l123 -295l91 255q47 131 -4 159v8h141v-8q-28 -14 -49.5 -48.5t-56.5 -122.5l-119 -299q-32 -141 -86 -210.5t-124 -69.5q-59 0 -99 40v8q35 1 62.5 5t62 16.5t60.5 32.5t51 56.5t40 86.5z
M438 655q0 -23 -16.5 -39.5t-39.5 -16.5t-39.5 16.5t-16.5 39.5t16.5 39.5t39.5 16.5t39.5 -16.5t16.5 -39.5zM234 655q0 -23 -16.5 -39.5t-39.5 -16.5t-39.5 16.5t-16.5 39.5t16.5 39.5t39.5 16.5t39.5 -16.5t16.5 -39.5z" />
    <glyph glyph-name="Amacron" unicode="&#x100;" horiz-adv-x="665" 
d="M486 838v-34h-307v34h307zM184 237h269l-137 334zM342 685l237 -576q20 -47 36 -67t40 -34v-8h-162v8q44 23 7 114l-37 91h-288l-22 -55q-46 -118 7 -150v-8h-160v8q31 15 56 47t53 99l224 531h9z" />
    <glyph glyph-name="amacron" unicode="&#x101;" horiz-adv-x="530" 
d="M408 672v-34h-307v34h307zM356 97v149q-35 5 -53 5q-81 0 -125.5 -33.5t-44.5 -91.5q0 -45 27.5 -71t71.5 -26q36 0 69 19t55 49zM484 35h15v-8q-26 -33 -73 -33q-31 0 -49.5 20.5t-20.5 56.5q-22 -34 -62 -58t-90 -24q-63 0 -103.5 35.5t-40.5 96.5q0 71 56.5 113
t162.5 42q49 0 77 -6v98q0 127 -113 127q-70 0 -103 -43q41 -10 41 -50q0 -21 -14 -34t-35 -13q-22 0 -35.5 14.5t-13.5 37.5q0 48 50 80t119 32q86 0 127.5 -41t41.5 -108v-267q0 -40 12 -54t51 -14z" />
    <glyph glyph-name="Abreve" unicode="&#x102;" horiz-adv-x="665" 
d="M453 897h8q1 -5 1 -16q0 -59 -33.5 -98.5t-97.5 -39.5t-96 39t-32 99q0 10 1 16h8q10 -46 40.5 -71.5t78.5 -25.5q98 0 122 97zM184 237h269l-137 334zM342 685l237 -576q20 -47 36 -67t40 -34v-8h-162v8q44 23 7 114l-37 91h-288l-22 -55q-46 -118 7 -150v-8h-160v8
q31 15 56 47t53 99l224 531h9z" />
    <glyph glyph-name="abreve" unicode="&#x103;" horiz-adv-x="530" 
d="M385 731h8q1 -5 1 -16q0 -59 -33.5 -98.5t-97.5 -39.5t-96 39t-32 99q0 10 1 16h8q10 -46 40.5 -71.5t78.5 -25.5q98 0 122 97zM356 97v149q-35 5 -53 5q-81 0 -125.5 -33.5t-44.5 -91.5q0 -45 27.5 -71t71.5 -26q36 0 69 19t55 49zM484 35h15v-8q-26 -33 -73 -33
q-31 0 -49.5 20.5t-20.5 56.5q-22 -34 -62 -58t-90 -24q-63 0 -103.5 35.5t-40.5 96.5q0 71 56.5 113t162.5 42q49 0 77 -6v98q0 127 -113 127q-70 0 -103 -43q41 -10 41 -50q0 -21 -14 -34t-35 -13q-22 0 -35.5 14.5t-13.5 37.5q0 48 50 80t119 32q86 0 127.5 -41
t41.5 -108v-267q0 -40 12 -54t51 -14z" />
    <glyph glyph-name="Aogonek" unicode="&#x104;" horiz-adv-x="665" 
d="M184 237h269l-137 334zM655 0h-85q-33 -17 -55 -47.5t-22 -60.5q0 -37 21.5 -54.5t54.5 -17.5q43 0 82 22l4 -7q-46 -53 -121 -53q-45 0 -74 23t-29 66t33 77.5t82 51.5h-53v8q44 23 7 114l-37 91h-288l-22 -55q-46 -118 7 -150v-8h-160v8q31 15 56 47t53 99l224 531h9
l237 -576q20 -47 36 -67t40 -34v-8z" />
    <glyph glyph-name="aogonek" unicode="&#x105;" horiz-adv-x="530" 
d="M356 97v149q-35 5 -53 5q-81 0 -125.5 -33.5t-44.5 -91.5q0 -45 27.5 -71t71.5 -26q36 0 69 19t55 49zM513 -158l4 -7q-46 -53 -121 -53q-45 0 -74 23t-29 66q0 42 31 76t78 51q-41 14 -46 73q-22 -34 -62 -58t-90 -24q-63 0 -103.5 35.5t-40.5 96.5q0 71 56.5 113
t162.5 42q49 0 77 -6v98q0 127 -113 127q-70 0 -103 -43q41 -10 41 -50q0 -21 -14 -34t-35 -13q-22 0 -35.5 14.5t-13.5 37.5q0 48 50 80t119 32q86 0 127.5 -41t41.5 -108v-267q0 -40 12 -54t51 -14h15v-8q-26 -33 -73 -33h-4q-30 -18 -48.5 -46.5t-18.5 -55.5
q0 -37 21.5 -54.5t54.5 -17.5q43 0 82 22z" />
    <glyph glyph-name="Cacute" unicode="&#x106;" horiz-adv-x="649" 
d="M417 897h100l-160 -152h-24zM55 342q0 145 94.5 244t244.5 99q123 0 220 -54v-136h-10q-29 83 -79 124.5t-132 41.5q-112 0 -184.5 -88t-72.5 -232q0 -149 74 -238.5t194 -89.5q80 0 128 37.5t71 115.5h10v-126q-72 -51 -211 -51q-154 0 -250.5 95.5t-96.5 257.5z" />
    <glyph glyph-name="cacute" unicode="&#x107;" horiz-adv-x="513" 
d="M328 731h100l-160 -152h-24zM483 94q-69 -105 -191 -105q-105 0 -171 73.5t-66 186.5q0 118 74.5 194t180.5 76q67 0 113 -31.5t46 -76.5q0 -25 -15 -40.5t-37 -15.5q-21 0 -35 13.5t-14 35.5q0 18 11.5 30.5t29.5 17.5q-34 42 -100 42q-80 0 -130.5 -65t-50.5 -166
q0 -104 56 -164t137 -60q90 0 155 63z" />
    <glyph glyph-name="Ccircumflex" unicode="&#x108;" horiz-adv-x="649" 
d="M375 818l-141 -73l-6 6l143 146h8l143 -146l-6 -6zM614 495h-10q-29 83 -79 124.5t-132 41.5q-112 0 -184.5 -88t-72.5 -232q0 -149 74 -238.5t194 -89.5q80 0 128 37.5t71 115.5h10v-126q-72 -51 -211 -51q-154 0 -250.5 95.5t-96.5 257.5q0 145 94.5 244t244.5 99
q123 0 220 -54v-136z" />
    <glyph glyph-name="ccircumflex" unicode="&#x109;" horiz-adv-x="513" 
d="M286 652l-141 -73l-6 6l143 146h8l143 -146l-6 -6zM476 102l7 -8q-69 -105 -191 -105q-105 0 -171 73.5t-66 186.5q0 118 74.5 194t180.5 76q67 0 113 -31.5t46 -76.5q0 -25 -15 -40.5t-37 -15.5q-21 0 -35 13.5t-14 35.5q0 18 11.5 30.5t29.5 17.5q-34 42 -100 42
q-80 0 -130.5 -65t-50.5 -166q0 -104 56 -164t137 -60q90 0 155 63z" />
    <glyph glyph-name="Cdotaccent" unicode="&#x10a;" horiz-adv-x="649" 
d="M55 342q0 145 94.5 244t244.5 99q123 0 220 -54v-136h-10q-29 83 -79 124.5t-132 41.5q-112 0 -184.5 -88t-72.5 -232q0 -149 74 -238.5t194 -89.5q80 0 128 37.5t71 115.5h10v-126q-72 -51 -211 -51q-154 0 -250.5 95.5t-96.5 257.5zM433 821q0 -24 -17 -41t-41 -17
t-41 17t-17 41t17 41t41 17t41 -17t17 -41z" />
    <glyph glyph-name="cdotaccent" unicode="&#x10b;" horiz-adv-x="513" 
d="M483 94q-69 -105 -191 -105q-105 0 -171 73.5t-66 186.5q0 118 74.5 194t180.5 76q67 0 113 -31.5t46 -76.5q0 -25 -15 -40.5t-37 -15.5q-21 0 -35 13.5t-14 35.5q0 18 11.5 30.5t29.5 17.5q-34 42 -100 42q-80 0 -130.5 -65t-50.5 -166q0 -104 56 -164t137 -60
q90 0 155 63zM344 655q0 -24 -17 -41t-41 -17t-41 17t-17 41t17 41t41 17t41 -17t17 -41z" />
    <glyph glyph-name="Ccaron" unicode="&#x10c;" horiz-adv-x="649" 
d="M379 745h-8l-143 146l6 6l141 -73l141 73l6 -6zM614 495h-10q-29 83 -79 124.5t-132 41.5q-112 0 -184.5 -88t-72.5 -232q0 -149 74 -238.5t194 -89.5q80 0 128 37.5t71 115.5h10v-126q-72 -51 -211 -51q-154 0 -250.5 95.5t-96.5 257.5q0 145 94.5 244t244.5 99
q123 0 220 -54v-136z" />
    <glyph glyph-name="ccaron" unicode="&#x10d;" horiz-adv-x="513" 
d="M290 579h-8l-143 146l6 6l141 -73l141 73l6 -6zM476 102l7 -8q-69 -105 -191 -105q-105 0 -171 73.5t-66 186.5q0 118 74.5 194t180.5 76q67 0 113 -31.5t46 -76.5q0 -25 -15 -40.5t-37 -15.5q-21 0 -35 13.5t-14 35.5q0 18 11.5 30.5t29.5 17.5q-34 42 -100 42
q-80 0 -130.5 -65t-50.5 -166q0 -104 56 -164t137 -60q90 0 155 63z" />
    <glyph glyph-name="Dcaron" unicode="&#x10e;" horiz-adv-x="725" 
d="M347 745h-8l-143 146l6 6l141 -73l141 73l6 -6zM276 24h18q136 0 215.5 83.5t79.5 225.5q0 148 -83 232.5t-233 84.5h-78v-559q0 -35 19 -51t62 -16zM85 674h205q184 0 282 -92.5t98 -242.5q0 -148 -102.5 -243.5t-274.5 -95.5h-208v8q22 9 30.5 30t8.5 68v462
q0 47 -8.5 68t-30.5 30v8z" />
    <glyph glyph-name="dcaron" unicode="&#x10f;" horiz-adv-x="656" 
d="M427 106v289q-30 100 -129 100q-80 0 -125 -62.5t-45 -176.5q0 -104 46 -160t119 -56q37 0 74.5 19.5t59.5 46.5zM492 750v-635q0 -74 44 -92v-8l-109 -26v93q-2 -4 -7 -10t-21 -22t-33 -28.5t-44 -22.5t-54 -10q-98 0 -155.5 68t-57.5 182q0 126 67 203t180 77
q75 0 125 -32v144q0 63 -54 82v8zM557 541l-2 6q69 43 71 117q-7 -2 -16 -2q-19 0 -32 13t-13 35q0 21 14.5 36t35.5 15q25 0 40.5 -17t15.5 -47q0 -48 -36 -93t-78 -63z" />
    <glyph glyph-name="Dcroat" unicode="&#x110;" horiz-adv-x="725" 
d="M276 24h18q136 0 215.5 83.5t79.5 225.5q0 148 -83 232.5t-233 84.5h-78v-300l174 4v-28h-174v-235q0 -35 19 -51t62 -16zM85 674h205q184 0 282 -92.5t98 -242.5q0 -148 -102.5 -243.5t-274.5 -95.5h-208v8q22 9 30.5 30t8.5 68v220h-89v20l89 2v220q0 47 -8.5 68
t-30.5 30v8z" />
    <glyph glyph-name="dcroat" unicode="&#x111;" horiz-adv-x="606" 
d="M427 106v289q-30 100 -129 100q-80 0 -125 -62.5t-45 -176.5q0 -104 46 -160t119 -56q37 0 74.5 19.5t59.5 46.5zM576 601h-84v-486q0 -74 44 -92v-8l-109 -26v93q-2 -4 -7 -10t-21 -22t-33 -28.5t-44 -22.5t-54 -10q-98 0 -155.5 68t-57.5 182q0 126 67 203t180 77
q75 0 125 -32v114h-138v20l138 4v6q0 63 -54 82v8l119 29v-123l84 2v-28z" />
    <glyph glyph-name="Emacron" unicode="&#x112;" horiz-adv-x="578" 
d="M472 838v-34h-307v34h307zM533 153h10v-153h-458v8q22 9 30.5 30t8.5 68v462q0 47 -8.5 68t-30.5 30v8h443v-134h-10q-22 62 -61 85.5t-120 23.5h-142v-297l121 4q46 1 68.5 21.5t33.5 68.5h8v-201h-8q-11 47 -34.5 65t-70.5 20l-118 4v-243q0 -35 19 -51t62 -16h82
q87 0 122 26.5t53 102.5z" />
    <glyph glyph-name="emacron" unicode="&#x113;" horiz-adv-x="532" 
d="M429 672v-34h-307v34h307zM131 309l275 13q-2 73 -31 123t-94 50q-63 0 -102.5 -50.5t-47.5 -135.5zM480 111l7 -8q-75 -114 -199 -114q-107 0 -170 70.5t-63 189.5q0 120 62.5 195t163.5 75q100 0 148.5 -57.5t48.5 -152.5v-24h-349v-22q0 -110 50.5 -167t129.5 -57
q91 0 171 72z" />
    <glyph glyph-name="Ebreve" unicode="&#x114;" horiz-adv-x="578" 
d="M441 897h8q1 -5 1 -16q0 -59 -33.5 -98.5t-97.5 -39.5t-96 39t-32 99q0 10 1 16h8q10 -46 40.5 -71.5t78.5 -25.5q98 0 122 97zM533 153h10v-153h-458v8q22 9 30.5 30t8.5 68v462q0 47 -8.5 68t-30.5 30v8h443v-134h-10q-22 62 -61 85.5t-120 23.5h-142v-297l121 4
q46 1 68.5 21.5t33.5 68.5h8v-201h-8q-11 47 -34.5 65t-70.5 20l-118 4v-243q0 -35 19 -51t62 -16h82q87 0 122 26.5t53 102.5z" />
    <glyph glyph-name="ebreve" unicode="&#x115;" horiz-adv-x="532" 
d="M396 731h8q1 -5 1 -16q0 -59 -33.5 -98.5t-97.5 -39.5t-96 39t-32 99q0 10 1 16h8q10 -46 40.5 -71.5t78.5 -25.5q98 0 122 97zM131 309l275 13q-2 73 -31 123t-94 50q-63 0 -102.5 -50.5t-47.5 -135.5zM480 111l7 -8q-75 -114 -199 -114q-107 0 -170 70.5t-63 189.5
q0 120 62.5 195t163.5 75q100 0 148.5 -57.5t48.5 -152.5v-24h-349v-22q0 -110 50.5 -167t129.5 -57q91 0 171 72z" />
    <glyph glyph-name="Edotaccent" unicode="&#x116;" horiz-adv-x="578" 
d="M319 763q-24 0 -41 17t-17 41t17 41t41 17t41 -17t17 -41t-17 -41t-41 -17zM533 153h10v-153h-458v8q22 9 30.5 30t8.5 68v462q0 47 -8.5 68t-30.5 30v8h443v-134h-10q-22 62 -61 85.5t-120 23.5h-142v-297l121 4q46 1 68.5 21.5t33.5 68.5h8v-201h-8q-11 47 -34.5 65
t-70.5 20l-118 4v-243q0 -35 19 -51t62 -16h82q87 0 122 26.5t53 102.5z" />
    <glyph glyph-name="edotaccent" unicode="&#x117;" horiz-adv-x="532" 
d="M276 597q-24 0 -41 17t-17 41t17 41t41 17t41 -17t17 -41t-17 -41t-41 -17zM131 309l275 13q-2 73 -31 123t-94 50q-63 0 -102.5 -50.5t-47.5 -135.5zM480 111l7 -8q-75 -114 -199 -114q-107 0 -170 70.5t-63 189.5q0 120 62.5 195t163.5 75q100 0 148.5 -57.5
t48.5 -152.5v-24h-349v-22q0 -110 50.5 -167t129.5 -57q91 0 171 72z" />
    <glyph glyph-name="Eogonek" unicode="&#x118;" horiz-adv-x="578" 
d="M543 0h-97q-33 -17 -55 -47.5t-22 -60.5q0 -37 21.5 -54.5t54.5 -17.5q43 0 82 22l4 -7q-46 -53 -121 -53q-45 0 -74 23t-29 66t33 77.5t82 51.5h-337v8q22 9 30.5 30t8.5 68v462q0 47 -8.5 68t-30.5 30v8h443v-134h-10q-22 62 -61 85.5t-120 23.5h-142v-297l121 4
q46 1 68.5 21.5t33.5 68.5h8v-201h-8q-11 47 -34.5 65t-70.5 20l-118 4v-243q0 -35 19 -51t62 -16h82q87 0 122 26.5t53 102.5h10v-153z" />
    <glyph glyph-name="eogonek" unicode="&#x119;" horiz-adv-x="532" 
d="M131 309l275 13q-2 73 -31 123t-94 50q-63 0 -102.5 -50.5t-47.5 -135.5zM480 111l7 -8q-50 -76 -124 -102q-35 -17 -57.5 -47.5t-22.5 -61.5q0 -37 21.5 -54.5t54.5 -17.5q43 0 82 22l4 -7q-46 -53 -121 -53q-45 0 -74 23t-29 66q0 37 25.5 68.5t65.5 50.5q-8 -1 -24 -1
q-107 0 -170 70.5t-63 189.5q0 120 62.5 195t163.5 75q100 0 148.5 -57.5t48.5 -152.5v-24h-349v-22q0 -110 50.5 -167t129.5 -57q91 0 171 72z" />
    <glyph glyph-name="Ecaron" unicode="&#x11a;" horiz-adv-x="578" 
d="M317 745h-8l-143 146l6 6l141 -73l141 73l6 -6zM533 153h10v-153h-458v8q22 9 30.5 30t8.5 68v462q0 47 -8.5 68t-30.5 30v8h443v-134h-10q-22 62 -61 85.5t-120 23.5h-142v-297l121 4q46 1 68.5 21.5t33.5 68.5h8v-201h-8q-11 47 -34.5 65t-70.5 20l-118 4v-243
q0 -35 19 -51t62 -16h82q87 0 122 26.5t53 102.5z" />
    <glyph glyph-name="ecaron" unicode="&#x11b;" horiz-adv-x="532" 
d="M280 579h-8l-143 146l6 6l141 -73l141 73l6 -6zM131 309l275 13q-2 73 -31 123t-94 50q-63 0 -102.5 -50.5t-47.5 -135.5zM480 111l7 -8q-75 -114 -199 -114q-107 0 -170 70.5t-63 189.5q0 120 62.5 195t163.5 75q100 0 148.5 -57.5t48.5 -152.5v-24h-349v-22
q0 -110 50.5 -167t129.5 -57q91 0 171 72z" />
    <glyph glyph-name="Gcircumflex" unicode="&#x11c;" horiz-adv-x="701" 
d="M391 818l-141 -73l-6 6l143 146h8l143 -146l-6 -6zM497 324h169v-8q-22 -9 -30.5 -30t-8.5 -68v-96q0 -67 12 -82q-95 -51 -235 -51q-151 0 -250 93.5t-99 259.5q0 145 94.5 244t244.5 99q57 0 121 -14t109 -37v-136h-10q-33 83 -86.5 123t-134.5 40q-112 0 -184.5 -88
t-72.5 -232q0 -146 74 -237t193 -91q75 0 114 27.5t39 91.5v86q0 47 -13 68t-46 30v8z" />
    <glyph glyph-name="gcircumflex" unicode="&#x11d;" horiz-adv-x="555" 
d="M267 652l-141 -73l-6 6l143 146h8l143 -146l-6 -6zM260 193q51 0 85.5 42t34.5 106q0 67 -34 111t-86 44q-51 0 -85.5 -42t-34.5 -106q0 -67 34 -111t86 -44zM359 0h-131q-32 0 -54 6q-66 -41 -66 -108q0 -52 39.5 -83t106.5 -31q86 0 142.5 40.5t56.5 108.5q0 35 -22 51
t-72 16zM235 66h126q82 0 117.5 -24.5t35.5 -80.5q0 -78 -85 -144.5t-205 -66.5q-85 0 -132 36t-47 94q0 42 31 79t78 53q-49 21 -49 68q0 61 71 102q-50 18 -78 59t-28 99q0 78 55 128.5t144 50.5q69 0 117 -34q29 76 92 76q24 0 38 -12.5t14 -31.5t-11 -31t-31 -12
q-34 0 -46 34q-28 -6 -44 -33q52 -47 52 -126q0 -78 -55 -128.5t-144 -50.5q-29 0 -54 6q-33 -33 -33 -62q0 -48 71 -48z" />
    <glyph glyph-name="Gbreve" unicode="&#x11e;" horiz-adv-x="701" 
d="M511 897h8q1 -5 1 -16q0 -59 -33.5 -98.5t-97.5 -39.5t-96 39t-32 99q0 10 1 16h8q10 -46 40.5 -71.5t78.5 -25.5q98 0 122 97zM497 324h169v-8q-22 -9 -30.5 -30t-8.5 -68v-96q0 -67 12 -82q-95 -51 -235 -51q-151 0 -250 93.5t-99 259.5q0 145 94.5 244t244.5 99
q57 0 121 -14t109 -37v-136h-10q-33 83 -86.5 123t-134.5 40q-112 0 -184.5 -88t-72.5 -232q0 -146 74 -237t193 -91q75 0 114 27.5t39 91.5v86q0 47 -13 68t-46 30v8z" />
    <glyph glyph-name="gbreve" unicode="&#x11f;" horiz-adv-x="555" 
d="M386 731h8q1 -5 1 -16q0 -59 -33.5 -98.5t-97.5 -39.5t-96 39t-32 99q0 10 1 16h8q10 -46 40.5 -71.5t78.5 -25.5q98 0 122 97zM260 193q51 0 85.5 42t34.5 106q0 67 -34 111t-86 44q-51 0 -85.5 -42t-34.5 -106q0 -67 34 -111t86 -44zM359 0h-131q-32 0 -54 6
q-66 -41 -66 -108q0 -52 39.5 -83t106.5 -31q86 0 142.5 40.5t56.5 108.5q0 35 -22 51t-72 16zM235 66h126q82 0 117.5 -24.5t35.5 -80.5q0 -78 -85 -144.5t-205 -66.5q-85 0 -132 36t-47 94q0 42 31 79t78 53q-49 21 -49 68q0 61 71 102q-50 18 -78 59t-28 99
q0 78 55 128.5t144 50.5q69 0 117 -34q29 76 92 76q24 0 38 -12.5t14 -31.5t-11 -31t-31 -12q-34 0 -46 34q-28 -6 -44 -33q52 -47 52 -126q0 -78 -55 -128.5t-144 -50.5q-29 0 -54 6q-33 -33 -33 -62q0 -48 71 -48z" />
    <glyph glyph-name="Gdotaccent" unicode="&#x120;" horiz-adv-x="701" 
d="M386 763q-24 0 -41 17t-17 41t17 41t41 17t41 -17t17 -41t-17 -41t-41 -17zM497 324h169v-8q-22 -9 -30.5 -30t-8.5 -68v-96q0 -67 12 -82q-95 -51 -235 -51q-151 0 -250 93.5t-99 259.5q0 145 94.5 244t244.5 99q57 0 121 -14t109 -37v-136h-10q-33 83 -86.5 123
t-134.5 40q-112 0 -184.5 -88t-72.5 -232q0 -146 74 -237t193 -91q75 0 114 27.5t39 91.5v86q0 47 -13 68t-46 30v8z" />
    <glyph glyph-name="gdotaccent" unicode="&#x121;" horiz-adv-x="555" 
d="M267 597q-24 0 -41 17t-17 41t17 41t41 17t41 -17t17 -41t-17 -41t-41 -17zM260 193q51 0 85.5 42t34.5 106q0 67 -34 111t-86 44q-51 0 -85.5 -42t-34.5 -106q0 -67 34 -111t86 -44zM359 0h-131q-32 0 -54 6q-66 -41 -66 -108q0 -52 39.5 -83t106.5 -31q86 0 142.5 40.5
t56.5 108.5q0 35 -22 51t-72 16zM235 66h126q82 0 117.5 -24.5t35.5 -80.5q0 -78 -85 -144.5t-205 -66.5q-85 0 -132 36t-47 94q0 42 31 79t78 53q-49 21 -49 68q0 61 71 102q-50 18 -78 59t-28 99q0 78 55 128.5t144 50.5q69 0 117 -34q29 76 92 76q24 0 38 -12.5t14 -31.5
t-11 -31t-31 -12q-34 0 -46 34q-28 -6 -44 -33q52 -47 52 -126q0 -78 -55 -128.5t-144 -50.5q-29 0 -54 6q-33 -33 -33 -62q0 -48 71 -48z" />
    <glyph glyph-name="uni0122" unicode="&#x122;" horiz-adv-x="701" 
d="M335 -275l-2 6q69 43 71 117q-7 -2 -16 -2q-19 0 -32 13t-13 35q0 21 14.5 36t35.5 15q25 0 40.5 -17t15.5 -47q0 -48 -36 -93t-78 -63zM497 324h169v-8q-22 -9 -30.5 -30t-8.5 -68v-96q0 -67 12 -82q-95 -51 -235 -51q-151 0 -250 93.5t-99 259.5q0 145 94.5 244
t244.5 99q57 0 121 -14t109 -37v-136h-10q-33 83 -86.5 123t-134.5 40q-112 0 -184.5 -88t-72.5 -232q0 -146 74 -237t193 -91q75 0 114 27.5t39 91.5v86q0 47 -13 68t-46 30v8z" />
    <glyph glyph-name="uni0123" unicode="&#x123;" horiz-adv-x="555" 
d="M323 785l2 -6q-69 -43 -71 -117q7 2 16 2q19 0 32 -13t13 -35q0 -21 -14.5 -36t-35.5 -15q-25 0 -40.5 17t-15.5 47q0 48 36 93t78 63zM260 193q51 0 85.5 42t34.5 106q0 67 -34 111t-86 44q-51 0 -85.5 -42t-34.5 -106q0 -67 34 -111t86 -44zM359 0h-131q-32 0 -54 6
q-66 -41 -66 -108q0 -52 39.5 -83t106.5 -31q86 0 142.5 40.5t56.5 108.5q0 35 -22 51t-72 16zM235 66h126q82 0 117.5 -24.5t35.5 -80.5q0 -78 -85 -144.5t-205 -66.5q-85 0 -132 36t-47 94q0 42 31 79t78 53q-49 21 -49 68q0 61 71 102q-50 18 -78 59t-28 99
q0 78 55 128.5t144 50.5q69 0 117 -34q29 76 92 76q24 0 38 -12.5t14 -31.5t-11 -31t-31 -12q-34 0 -46 34q-28 -6 -44 -33q52 -47 52 -126q0 -78 -55 -128.5t-144 -50.5q-29 0 -54 6q-33 -33 -33 -62q0 -48 71 -48z" />
    <glyph glyph-name="Hcircumflex" unicode="&#x124;" horiz-adv-x="765" 
d="M383 818l-141 -73l-6 6l143 146h8l143 -146l-6 -6zM680 674v-8q-22 -9 -30.5 -30t-8.5 -68v-462q0 -47 8.5 -68t30.5 -30v-8h-149v8q22 9 30.5 30t8.5 68v221h-375v-221q0 -47 8.5 -68t30.5 -30v-8h-149v8q22 9 30.5 30t8.5 68v462q0 47 -8.5 68t-30.5 30v8h149v-8
q-22 -9 -30.5 -30t-8.5 -68v-217h375v217q0 47 -8.5 68t-30.5 30v8h149z" />
    <glyph glyph-name="hcircumflex" unicode="&#x125;" horiz-adv-x="626" 
d="M273 852l-141 -73l-6 6l143 146h8l143 -146l-6 -6zM517 374v-268q0 -47 8.5 -68t30.5 -30v-8h-143v8q22 9 30.5 30t8.5 68v236q0 63 -23 91t-77 28q-82 0 -173 -70v-285q0 -47 8.5 -68t30.5 -30v-8h-143v8q22 9 30.5 30t8.5 68v515q0 63 -44 82v8l109 39v-337
q106 106 205 106q133 0 133 -145z" />
    <glyph glyph-name="Hbar" unicode="&#x126;" horiz-adv-x="765" 
d="M570 351v143h-375v-143h375zM716 494h-75v-388q0 -47 8.5 -68t30.5 -30v-8h-149v8q22 9 30.5 30t8.5 68v221h-375v-221q0 -47 8.5 -68t30.5 -30v-8h-149v8q22 9 30.5 30t8.5 68v388h-75v20l75 1v53q0 47 -8.5 68t-30.5 30v8h149v-8q-22 -9 -30.5 -30t-8.5 -68v-52l375 4
v48q0 47 -8.5 68t-30.5 30v8h149v-8q-22 -9 -30.5 -30t-8.5 -68v-47l75 1v-28z" />
    <glyph glyph-name="hbar" unicode="&#x127;" horiz-adv-x="626" 
d="M517 374v-268q0 -47 8.5 -68t30.5 -30v-8h-143v8q22 9 30.5 30t8.5 68v236q0 63 -23 91t-77 28q-82 0 -173 -70v-285q0 -47 8.5 -68t30.5 -30v-8h-143v8q22 9 30.5 30t8.5 68v495h-85v20l85 2q-1 61 -44 80v8l109 39v-125l137 4v-28h-137v-188q106 106 205 106
q133 0 133 -145z" />
    <glyph glyph-name="Itilde" unicode="&#x128;" horiz-adv-x="319" 
d="M195 568v-462q0 -47 8.5 -68t30.5 -30v-8h-149v8q22 9 30.5 30t8.5 68v462q0 47 -8.5 68t-30.5 30v8h149v-8q-22 -9 -30.5 -30t-8.5 -68zM17 761h-8q-2 8 -2 25q0 39 21.5 66t61.5 27q27 0 75 -30.5t74 -30.5q27 0 43 17t18 46h8q2 -8 2 -25q0 -39 -21.5 -66t-61.5 -27
q-25 0 -73.5 30.5t-75.5 30.5t-43 -17t-18 -46z" />
    <glyph glyph-name="itilde" unicode="&#x129;" horiz-adv-x="293" 
d="M179 519v-413q0 -47 8.5 -68t30.5 -30v-8h-143v8q22 9 30.5 30t8.5 68v287q0 35 -11 52t-33 27v8zM4 595h-8q-2 8 -2 25q0 39 21.5 66t61.5 27q27 0 75 -30.5t74 -30.5q27 0 43 17t18 46h8q2 -8 2 -25q0 -39 -21.5 -66t-61.5 -27q-25 0 -73.5 30.5t-75.5 30.5t-43 -17
t-18 -46z" />
    <glyph glyph-name="Imacron" unicode="&#x12a;" horiz-adv-x="319" 
d="M195 568v-462q0 -47 8.5 -68t30.5 -30v-8h-149v8q22 9 30.5 30t8.5 68v462q0 47 -8.5 68t-30.5 30v8h149v-8q-22 -9 -30.5 -30t-8.5 -68zM5 804v34h307v-34h-307z" />
    <glyph glyph-name="imacron" unicode="&#x12b;" horiz-adv-x="293" 
d="M179 519v-413q0 -47 8.5 -68t30.5 -30v-8h-143v8q22 9 30.5 30t8.5 68v287q0 35 -11 52t-33 27v8zM-8 638v34h307v-34h-307z" />
    <glyph glyph-name="Ibreve" unicode="&#x12c;" horiz-adv-x="319" 
d="M195 568v-462q0 -47 8.5 -68t30.5 -30v-8h-149v8q22 9 30.5 30t8.5 68v462q0 47 -8.5 68t-30.5 30v8h149v-8q-22 -9 -30.5 -30t-8.5 -68zM288 881q0 -59 -33.5 -98.5t-97.5 -39.5t-96 39t-32 99q0 10 1 16h8q10 -46 40.5 -71.5t78.5 -25.5q98 0 122 97h8q1 -5 1 -16z" />
    <glyph glyph-name="ibreve" unicode="&#x12d;" horiz-adv-x="293" 
d="M179 519v-413q0 -47 8.5 -68t30.5 -30v-8h-143v8q22 9 30.5 30t8.5 68v287q0 35 -11 52t-33 27v8zM275 715q0 -59 -33.5 -98.5t-97.5 -39.5t-96 39t-32 99q0 10 1 16h8q10 -46 40.5 -71.5t78.5 -25.5q98 0 122 97h8q1 -5 1 -16z" />
    <glyph glyph-name="Iogonek" unicode="&#x12e;" horiz-adv-x="319" 
d="M248 -158l4 -7q-46 -53 -121 -53q-45 0 -74 23t-29 66t33 77.5t82 51.5h-58v8q22 9 30.5 30t8.5 68v462q0 47 -8.5 68t-30.5 30v8h149v-8q-22 -9 -30.5 -30t-8.5 -68v-462q0 -47 8.5 -68t30.5 -30v-8h-67q-33 -17 -55 -47.5t-22 -60.5q0 -37 21.5 -54.5t54.5 -17.5
q43 0 82 22z" />
    <glyph glyph-name="iogonek" unicode="&#x12f;" horiz-adv-x="293" 
d="M143 598q-22 0 -38 16t-16 38t16 38t38 16t38 -16t16 -38t-16 -38t-38 -16zM235 -158l4 -7q-46 -53 -121 -53q-45 0 -74 23t-29 66t33 77.5t82 51.5h-55v8q22 9 30.5 30t8.5 68v287q0 35 -11 52t-33 27v8l109 39v-413q0 -47 8.5 -68t30.5 -30v-8h-64q-33 -17 -55 -47.5
t-22 -60.5q0 -37 21.5 -54.5t54.5 -17.5q43 0 82 22z" />
    <glyph glyph-name="Idotaccent" unicode="&#x130;" horiz-adv-x="319" 
d="M195 568v-462q0 -47 8.5 -68t30.5 -30v-8h-149v8q22 9 30.5 30t8.5 68v462q0 47 -8.5 68t-30.5 30v8h149v-8q-22 -9 -30.5 -30t-8.5 -68zM217 821q0 -24 -17 -41t-41 -17t-41 17t-17 41t17 41t41 17t41 -17t17 -41z" />
    <glyph glyph-name="dotlessi" unicode="&#x131;" horiz-adv-x="293" 
d="M179 519v-413q0 -47 8.5 -68t30.5 -30v-8h-143v8q22 9 30.5 30t8.5 68v287q0 35 -11 52t-33 27v8z" />
    <glyph glyph-name="IJ" unicode="&#x132;" horiz-adv-x="633" 
d="M195 568v-462q0 -47 8.5 -68t30.5 -30v-8h-149v8q22 9 30.5 30t8.5 68v462q0 47 -8.5 68t-30.5 30v8h149v-8q-22 -9 -30.5 -30t-8.5 -68zM514 568v-443q0 -111 -29.5 -160t-122.5 -94l-3 6q47 45 65.5 106t18.5 163v422q0 47 -8.5 68t-30.5 30v8h149v-8q-22 -9 -30.5 -30
t-8.5 -68z" />
    <glyph glyph-name="ij" unicode="&#x133;" horiz-adv-x="586" 
d="M179 519v-413q0 -47 8.5 -68t30.5 -30v-8h-143v8q22 9 30.5 30t8.5 68v287q0 35 -11 52t-33 27v8zM89 652q0 22 16 38t38 16t38 -16t16 -38t-16 -38t-38 -16t-38 16t-16 38zM407 16v377q0 35 -11 52t-33 27v8l109 39v-505q0 -102 -34.5 -169.5t-122.5 -101.5l-3 6
q95 84 95 267zM382 652q0 22 16 38t38 16t38 -16t16 -38t-16 -38t-38 -16t-38 16t-16 38z" />
    <glyph glyph-name="Jcircumflex" unicode="&#x134;" horiz-adv-x="314" 
d="M85 666v8h149v-8q-22 -9 -30.5 -30t-8.5 -68v-443q0 -111 -29.5 -160t-122.5 -94l-3 6q47 45 65.5 106t18.5 163v422q0 47 -8.5 68t-30.5 30zM161 897l143 -146l-6 -6l-141 73l-141 -73l-6 6l143 146h8z" />
    <glyph glyph-name="jcircumflex" unicode="&#x135;" horiz-adv-x="293" 
d="M70 472v8l109 39v-505q0 -102 -34.5 -169.5t-122.5 -101.5l-3 6q95 84 95 267v377q0 35 -11 52t-33 27zM150 731l143 -146l-6 -6l-141 73l-141 -73l-6 6l143 146h8z" />
    <glyph glyph-name="uni0136" unicode="&#x136;" horiz-adv-x="649" 
d="M327 -55q25 0 40.5 -17t15.5 -47q0 -48 -36 -93t-78 -63l-2 6q69 43 71 117q-7 -2 -16 -2q-19 0 -32 13t-13 35q0 21 14.5 36t35.5 15zM252 325v6l184 222q61 75 6 113v8h166v-8q-58 -23 -128 -103l-171 -196l139 -173q122 -151 191 -176v-8q-17 -21 -56 -21t-73.5 26
t-90.5 98zM195 568v-462q0 -47 8.5 -68t30.5 -30v-8h-149v8q22 9 30.5 30t8.5 68v462q0 47 -8.5 68t-30.5 30v8h149v-8q-22 -9 -30.5 -30t-8.5 -68z" />
    <glyph glyph-name="uni0137" unicode="&#x137;" horiz-adv-x="549" 
d="M276 -55q25 0 40.5 -17t15.5 -47q0 -48 -36 -93t-78 -63l-2 6q69 43 71 117q-7 -2 -16 -2q-19 0 -32 13t-13 35q0 21 14.5 36t35.5 15zM216 261l112 130q35 43 34 71.5t-33 37.5v8h188v-8q-79 -28 -162 -116l-88 -93l140 -159q55 -61 82.5 -86t54.5 -38v-8
q-18 -11 -42 -11q-34 0 -63 20t-76 74l-147 170v8zM179 750v-644q0 -47 8.5 -68t30.5 -30v-8h-143v8q22 9 30.5 30t8.5 68v515q0 63 -44 82v8z" />
    <glyph glyph-name="Lacute" unicode="&#x139;" horiz-adv-x="550" 
d="M347 897l-160 -152h-24l84 152h100zM520 173h10v-173h-445v8q22 9 30.5 30t8.5 68v462q0 47 -8.5 68t-30.5 30v8h149v-8q-22 -9 -30.5 -30t-8.5 -68v-477q0 -35 19 -51t62 -16h69q87 0 122 30t53 119z" />
    <glyph glyph-name="lacute" unicode="&#x13a;" horiz-adv-x="293" 
d="M188 931h100l-160 -152h-24zM179 750v-644q0 -47 8.5 -68t30.5 -30v-8h-143v8q22 9 30.5 30t8.5 68v515q0 63 -44 82v8z" />
    <glyph glyph-name="uni013B" unicode="&#x13b;" horiz-adv-x="550" 
d="M249 -275l-2 6q69 43 71 117q-7 -2 -16 -2q-19 0 -32 13t-13 35q0 21 14.5 36t35.5 15q25 0 40.5 -17t15.5 -47q0 -48 -36 -93t-78 -63zM520 173h10v-173h-445v8q22 9 30.5 30t8.5 68v462q0 47 -8.5 68t-30.5 30v8h149v-8q-22 -9 -30.5 -30t-8.5 -68v-477q0 -35 19 -51
t62 -16h69q87 0 122 30t53 119z" />
    <glyph glyph-name="uni013C" unicode="&#x13c;" horiz-adv-x="293" 
d="M143 -55q25 0 40.5 -17t15.5 -47q0 -48 -36 -93t-78 -63l-2 6q69 43 71 117q-7 -2 -16 -2q-19 0 -32 13t-13 35q0 21 14.5 36t35.5 15zM179 750v-644q0 -47 8.5 -68t30.5 -30v-8h-143v8q22 9 30.5 30t8.5 68v515q0 63 -44 82v8z" />
    <glyph glyph-name="Lcaron" unicode="&#x13d;" horiz-adv-x="550" 
d="M339 461l-2 6q69 43 71 117q-7 -2 -16 -2q-19 0 -32 13t-13 35q0 21 14.5 36t35.5 15q25 0 40.5 -17t15.5 -47q0 -48 -36 -93t-78 -63zM520 173h10v-173h-445v8q22 9 30.5 30t8.5 68v462q0 47 -8.5 68t-30.5 30v8h149v-8q-22 -9 -30.5 -30t-8.5 -68v-477q0 -35 19 -51
t62 -16h69q87 0 122 30t53 119z" />
    <glyph glyph-name="lcaron" unicode="&#x13e;" horiz-adv-x="339" 
d="M298 761q25 0 40.5 -17t15.5 -47q0 -48 -36 -93t-78 -63l-2 6q69 43 71 117q-7 -2 -16 -2q-19 0 -32 13t-13 35q0 21 14.5 36t35.5 15zM179 750v-644q0 -47 8.5 -68t30.5 -30v-8h-143v8q22 9 30.5 30t8.5 68v515q0 63 -44 82v8z" />
    <glyph glyph-name="Ldot" unicode="&#x13f;" horiz-adv-x="550" 
d="M395 297q-24 0 -41 17t-17 41t17 41t41 17t41 -17t17 -41t-17 -41t-41 -17zM520 173h10v-173h-445v8q22 9 30.5 30t8.5 68v462q0 47 -8.5 68t-30.5 30v8h149v-8q-22 -9 -30.5 -30t-8.5 -68v-477q0 -35 19 -51t62 -16h69q87 0 122 30t53 119z" />
    <glyph glyph-name="ldot" unicode="&#x140;" horiz-adv-x="314" 
d="M179 750v-644q0 -47 8.5 -68t30.5 -30v-8h-143v8q22 9 30.5 30t8.5 68v515q0 63 -44 82v8zM238 355q0 24 17 41t41 17t41 -17t17 -41t-17 -41t-41 -17t-41 17t-17 41z" />
    <glyph glyph-name="Lslash" unicode="&#x141;" horiz-adv-x="550" 
d="M520 173h10v-173h-445v8q22 9 30.5 30t8.5 68v165l-77 -42l-10 20l87 49v270q0 47 -8.5 68t-30.5 30v8h149v-8q-22 -9 -30.5 -30t-8.5 -68v-229l148 84v-32l-148 -81v-219q0 -35 19 -51t62 -16h69q87 0 122 30t53 119z" />
    <glyph glyph-name="lslash" unicode="&#x142;" horiz-adv-x="293" 
d="M268 422l-89 -51v-265q0 -47 8.5 -68t30.5 -30v-8h-143v8q22 9 30.5 30t8.5 68v228l-76 -43l-11 17l87 52v261q0 63 -44 82v8l109 39v-351l89 53v-30z" />
    <glyph glyph-name="Nacute" unicode="&#x143;" horiz-adv-x="723" 
d="M404 897h100l-160 -152h-24zM603 515l-9 -527h-14l-431 558l6 -378q3 -128 64 -160v-8h-159v8q60 29 61 161l3 336q1 78 -13.5 112.5t-45.5 48.5v8h80l427 -564v406q0 120 -59 150v8h149v-8q-56 -27 -59 -151z" />
    <glyph glyph-name="nacute" unicode="&#x144;" horiz-adv-x="626" 
d="M355 731h100l-160 -152h-24zM179 391v-285q0 -47 8.5 -68t30.5 -30v-8h-143v8q22 9 30.5 30t8.5 68v287q0 35 -11 52t-33 27v8l109 39v-106q106 106 205 106q133 0 133 -145v-268q0 -47 8.5 -68t30.5 -30v-8h-143v8q22 9 30.5 30t8.5 68v236q0 63 -23 91t-77 28
q-82 0 -173 -70z" />
    <glyph glyph-name="uni0145" unicode="&#x145;" horiz-adv-x="723" 
d="M364 -55q25 0 40.5 -17t15.5 -47q0 -48 -36 -93t-78 -63l-2 6q69 43 71 117q-7 -2 -16 -2q-19 0 -32 13t-13 35q0 21 14.5 36t35.5 15zM603 515l-9 -527h-14l-431 558l6 -378q3 -128 64 -160v-8h-159v8q60 29 61 161l3 336q1 78 -13.5 112.5t-45.5 48.5v8h80l427 -564
v406q0 120 -59 150v8h149v-8q-56 -27 -59 -151z" />
    <glyph glyph-name="uni0146" unicode="&#x146;" horiz-adv-x="626" 
d="M315 -55q25 0 40.5 -17t15.5 -47q0 -48 -36 -93t-78 -63l-2 6q69 43 71 117q-7 -2 -16 -2q-19 0 -32 13t-13 35q0 21 14.5 36t35.5 15zM179 391v-285q0 -47 8.5 -68t30.5 -30v-8h-143v8q22 9 30.5 30t8.5 68v287q0 35 -11 52t-33 27v8l109 39v-106q106 106 205 106
q133 0 133 -145v-268q0 -47 8.5 -68t30.5 -30v-8h-143v8q22 9 30.5 30t8.5 68v236q0 63 -23 91t-77 28q-82 0 -173 -70z" />
    <glyph glyph-name="Ncaron" unicode="&#x147;" horiz-adv-x="723" 
d="M366 745h-8l-143 146l6 6l141 -73l141 73l6 -6zM513 674h149v-8q-56 -27 -59 -151l-9 -527h-14l-431 558l6 -378q3 -128 64 -160v-8h-159v8q60 29 61 161l3 336q1 78 -13.5 112.5t-45.5 48.5v8h80l427 -564v406q0 120 -59 150v8z" />
    <glyph glyph-name="ncaron" unicode="&#x148;" horiz-adv-x="626" 
d="M317 579h-8l-143 146l6 6l141 -73l141 73l6 -6zM517 374v-268q0 -47 8.5 -68t30.5 -30v-8h-143v8q22 9 30.5 30t8.5 68v236q0 63 -23 91t-77 28q-82 0 -173 -70v-285q0 -47 8.5 -68t30.5 -30v-8h-143v8q22 9 30.5 30t8.5 68v287q0 35 -11 52t-33 27v8l109 39v-106
q106 106 205 106q133 0 133 -145z" />
    <glyph glyph-name="Omacron" unicode="&#x14c;" horiz-adv-x="768" 
d="M230 804v34h307v-34h-307zM383 13q113 0 180.5 89t67.5 239q0 136 -69 228t-179 92t-178.5 -91.5t-68.5 -228.5q0 -148 68 -238t179 -90zM382 -11q-147 0 -237 95.5t-90 257.5q0 143 91.5 243t236.5 100q148 0 239 -98.5t91 -244.5q0 -157 -93.5 -255t-237.5 -98z" />
    <glyph glyph-name="omacron" unicode="&#x14d;" horiz-adv-x="595" 
d="M143 638v34h307v-34h-307zM540 262q0 -124 -67.5 -198.5t-180.5 -74.5q-108 0 -172.5 72t-64.5 185q0 124 67.5 198.5t180.5 74.5q108 0 172.5 -72t64.5 -185zM128 263q0 -114 49.5 -182t129.5 -68q70 0 115 62.5t45 169.5q0 114 -49.5 182t-129.5 68q-70 0 -115 -62.5
t-45 -169.5z" />
    <glyph glyph-name="Obreve" unicode="&#x14e;" horiz-adv-x="768" 
d="M383 13q113 0 180.5 89t67.5 239q0 136 -69 228t-179 92t-178.5 -91.5t-68.5 -228.5q0 -148 68 -238t179 -90zM382 -11q-147 0 -237 95.5t-90 257.5q0 143 91.5 243t236.5 100q148 0 239 -98.5t91 -244.5q0 -157 -93.5 -255t-237.5 -98zM513 881q0 -59 -33.5 -98.5
t-97.5 -39.5t-96 39t-32 99q0 10 1 16h8q10 -46 40.5 -71.5t78.5 -25.5q98 0 122 97h8q1 -5 1 -16z" />
    <glyph glyph-name="obreve" unicode="&#x14f;" horiz-adv-x="595" 
d="M540 262q0 -124 -67.5 -198.5t-180.5 -74.5q-108 0 -172.5 72t-64.5 185q0 124 67.5 198.5t180.5 74.5q108 0 172.5 -72t64.5 -185zM128 263q0 -114 49.5 -182t129.5 -68q70 0 115 62.5t45 169.5q0 114 -49.5 182t-129.5 68q-70 0 -115 -62.5t-45 -169.5zM426 715
q0 -59 -33.5 -98.5t-97.5 -39.5t-96 39t-32 99q0 10 1 16h8q10 -46 40.5 -71.5t78.5 -25.5q98 0 122 97h8q1 -5 1 -16z" />
    <glyph glyph-name="Ohungarumlaut" unicode="&#x150;" horiz-adv-x="768" 
d="M368 897h95l-155 -152h-24zM508 897h95l-155 -152h-24zM383 13q113 0 180.5 89t67.5 239q0 136 -69 228t-179 92t-178.5 -91.5t-68.5 -228.5q0 -148 68 -238t179 -90zM382 -11q-147 0 -237 95.5t-90 257.5q0 143 91.5 243t236.5 100q148 0 239 -98.5t91 -244.5
q0 -157 -93.5 -255t-237.5 -98z" />
    <glyph glyph-name="ohungarumlaut" unicode="&#x151;" horiz-adv-x="595" 
d="M281 731h95l-155 -152h-24zM421 731h95l-155 -152h-24zM540 262q0 -124 -67.5 -198.5t-180.5 -74.5q-108 0 -172.5 72t-64.5 185q0 124 67.5 198.5t180.5 74.5q108 0 172.5 -72t64.5 -185zM128 263q0 -114 49.5 -182t129.5 -68q70 0 115 62.5t45 169.5q0 114 -49.5 182
t-129.5 68q-70 0 -115 -62.5t-45 -169.5z" />
    <glyph glyph-name="OE" unicode="&#x152;" horiz-adv-x="1068" 
d="M378 13q112 0 177.5 89t65.5 239q0 136 -68 228t-175 92t-174.5 -91.5t-67.5 -228.5q0 -148 67 -238t175 -90zM1023 153h10v-153h-419v111q-92 -122 -237 -122t-233.5 96t-88.5 257q0 143 90.5 243t232.5 100q140 0 236 -125v114h404v-134h-10q-22 62 -61 85.5t-120 23.5
h-142v-297l121 4q46 1 68.5 21.5t33.5 68.5h8v-201h-8q-11 47 -34.5 65t-70.5 20l-118 4v-243q0 -35 19 -51t62 -16h82q87 0 122 26.5t53 102.5z" />
    <glyph glyph-name="oe" unicode="&#x153;" horiz-adv-x="944" 
d="M307 13q70 0 115 62.5t45 169.5q0 114 -49.5 182t-129.5 68q-70 0 -115 -62.5t-45 -169.5q0 -114 49.5 -182t129.5 -68zM543 309l275 13q-2 73 -31 123t-94 50q-63 0 -102.5 -50.5t-47.5 -135.5zM892 111l7 -8q-75 -114 -199 -114q-68 0 -119 29.5t-80 83.5
q-66 -113 -209 -113q-108 0 -172.5 72t-64.5 185q0 124 67.5 198.5t180.5 74.5q68 0 119.5 -29.5t81.5 -82.5q30 53 78.5 82.5t110.5 29.5q100 0 148.5 -57.5t48.5 -152.5v-24h-349v-22q0 -110 50.5 -167t129.5 -57q91 0 171 72z" />
    <glyph glyph-name="Racute" unicode="&#x154;" horiz-adv-x="619" 
d="M352 897h100l-160 -152h-24zM563 -11q-41 0 -75.5 28.5t-109.5 120.5l-144 175v8q108 3 164 45.5t56 115.5q0 83 -53.5 125t-151.5 42h-54v-543q0 -47 8.5 -68t30.5 -30v-8h-149v8q22 9 30.5 30t8.5 68v462q0 47 -8.5 68t-30.5 30v8h192q124 0 191 -49t67 -136
q0 -77 -59 -122t-153 -56l104 -120q89 -104 124 -134t68 -39v-8q-17 -21 -56 -21z" />
    <glyph glyph-name="racute" unicode="&#x155;" horiz-adv-x="401" 
d="M272 731h100l-160 -152h-24zM179 409q41 52 82 81.5t73 28.5q25 1 41 -15t16 -38q0 -23 -15 -38.5t-38 -15.5q-21 0 -36 16t-16 41q-19 -2 -49.5 -27.5t-57.5 -60.5v-275q0 -47 11 -68t38 -30v-8h-153v8q22 9 30.5 30t8.5 68v287q0 35 -11 52t-33 27v8l109 39v-110z" />
    <glyph glyph-name="uni0156" unicode="&#x156;" horiz-adv-x="619" 
d="M332 -55q25 0 40.5 -17t15.5 -47q0 -48 -36 -93t-78 -63l-2 6q69 43 71 117q-7 -2 -16 -2q-19 0 -32 13t-13 35q0 21 14.5 36t35.5 15zM563 -11q-41 0 -75.5 28.5t-109.5 120.5l-144 175v8q108 3 164 45.5t56 115.5q0 83 -53.5 125t-151.5 42h-54v-543q0 -47 8.5 -68
t30.5 -30v-8h-149v8q22 9 30.5 30t8.5 68v462q0 47 -8.5 68t-30.5 30v8h192q124 0 191 -49t67 -136q0 -77 -59 -122t-153 -56l104 -120q89 -104 124 -134t68 -39v-8q-17 -21 -56 -21z" />
    <glyph glyph-name="uni0157" unicode="&#x157;" horiz-adv-x="401" 
d="M172 -53q25 0 40.5 -17t15.5 -47q0 -48 -36 -93t-78 -63l-2 6q69 43 71 117q-7 -2 -16 -2q-19 0 -32 13t-13 35q0 21 14.5 36t35.5 15zM179 409q41 52 82 81.5t73 28.5q25 1 41 -15t16 -38q0 -23 -15 -38.5t-38 -15.5q-21 0 -36 16t-16 41q-19 -2 -49.5 -27.5
t-57.5 -60.5v-275q0 -47 11 -68t38 -30v-8h-153v8q22 9 30.5 30t8.5 68v287q0 35 -11 52t-33 27v8l109 39v-110z" />
    <glyph glyph-name="Rcaron" unicode="&#x158;" horiz-adv-x="619" 
d="M314 745h-8l-143 146l6 6l141 -73l141 73l6 -6zM323 311l104 -120q89 -104 124 -134t68 -39v-8q-17 -21 -56 -21q-41 0 -75.5 28.5t-109.5 120.5l-144 175v8q108 3 164 45.5t56 115.5q0 83 -53.5 125t-151.5 42h-54v-543q0 -47 8.5 -68t30.5 -30v-8h-149v8q22 9 30.5 30
t8.5 68v462q0 47 -8.5 68t-30.5 30v8h192q124 0 191 -49t67 -136q0 -77 -59 -122t-153 -56z" />
    <glyph glyph-name="rcaron" unicode="&#x159;" horiz-adv-x="401" 
d="M234 579h-8l-143 146l6 6l141 -73l141 73l6 -6zM179 519v-110q41 52 82 81.5t73 28.5q25 1 41 -15t16 -38q0 -23 -15 -38.5t-38 -15.5q-21 0 -36 16t-16 41q-19 -2 -49.5 -27.5t-57.5 -60.5v-275q0 -47 11 -68t38 -30v-8h-153v8q22 9 30.5 30t8.5 68v287q0 35 -11 52
t-33 27v8z" />
    <glyph glyph-name="Sacute" unicode="&#x15a;" horiz-adv-x="486" 
d="M275 897h100l-160 -152h-24zM61 181q25 -83 73.5 -124.5t104.5 -42.5q65 -1 99 35.5t34 87.5q0 44 -24 79.5t-60 57t-78.5 46.5t-78.5 48t-60 62t-24 88q0 72 55.5 119.5t140.5 47.5q107 0 172 -43v-138h-10q-19 75 -64.5 116t-102.5 41q-56 0 -89 -33.5t-33 -82.5
q0 -39 17.5 -70.5t46 -53t62.5 -41t68.5 -39.5t63 -43t46 -57.5t17.5 -76.5q0 -75 -54 -125t-141 -50q-97 0 -191 49v143h10z" />
    <glyph glyph-name="sacute" unicode="&#x15b;" horiz-adv-x="443" 
d="M263 731h100l-160 -152h-24zM221 -9q-65 -2 -118 25.5t-53 68.5q0 22 13.5 36.5t35.5 14.5q21 0 35.5 -13t14.5 -33q0 -31 -27 -45q32 -33 98 -33q54 0 87 26t33 69t-29 72.5t-70 47.5t-82.5 36t-70.5 49.5t-29 76.5q0 55 47 92.5t123 37.5q69 0 112.5 -28.5t43.5 -67.5
q0 -21 -13.5 -35t-34.5 -14t-35.5 13t-14.5 33q0 34 32 47q-26 30 -95 30q-53 0 -79 -24t-26 -60q0 -31 20.5 -54.5t51.5 -37.5t67.5 -31t67.5 -34t51.5 -47t20.5 -70q0 -64 -51.5 -107t-125.5 -41z" />
    <glyph glyph-name="Scircumflex" unicode="&#x15c;" horiz-adv-x="486" 
d="M233 818l-141 -73l-6 6l143 146h8l143 -146l-6 -6zM415 504h-10q-19 75 -64.5 116t-102.5 41q-56 0 -89 -33.5t-33 -82.5q0 -39 17.5 -70.5t46 -53t62.5 -41t68.5 -39.5t63 -43t46 -57.5t17.5 -76.5q0 -75 -54 -125t-141 -50q-97 0 -191 49v143h10q25 -83 73.5 -124.5
t104.5 -42.5q65 -1 99 35.5t34 87.5q0 44 -24 79.5t-60 57t-78.5 46.5t-78.5 48t-60 62t-24 88q0 72 55.5 119.5t140.5 47.5q107 0 172 -43v-138z" />
    <glyph glyph-name="scircumflex" unicode="&#x15d;" horiz-adv-x="443" 
d="M221 652l-141 -73l-6 6l143 146h8l143 -146l-6 -6zM119 413q0 -31 20.5 -54.5t51.5 -37.5t67.5 -31t67.5 -34t51.5 -47t20.5 -70q0 -64 -51.5 -107t-125.5 -41q-65 -2 -118 25.5t-53 68.5q0 22 13.5 36.5t35.5 14.5q21 0 35.5 -13t14.5 -33q0 -31 -27 -45q32 -33 98 -33
q54 0 87 26t33 69t-29 72.5t-70 47.5t-82.5 36t-70.5 49.5t-29 76.5q0 55 47 92.5t123 37.5q69 0 112.5 -28.5t43.5 -67.5q0 -21 -13.5 -35t-34.5 -14t-35.5 13t-14.5 33q0 34 32 47q-26 30 -95 30q-53 0 -79 -24t-26 -60z" />
    <glyph glyph-name="uni015E" unicode="&#x15e;" horiz-adv-x="486" 
d="M415 504h-10q-19 75 -64.5 116t-102.5 41q-56 0 -89 -33.5t-33 -82.5q0 -39 17.5 -70.5t46 -53t62.5 -41t68.5 -39.5t63 -43t46 -57.5t17.5 -76.5q0 -68 -45.5 -116.5t-120.5 -56.5l-24 -56q43 -3 69 -24.5t26 -50.5q0 -35 -27 -56.5t-74 -21.5q-56 0 -97 27l5 16
q34 -17 67 -17q28 0 45 13.5t17 37.5q0 23 -21.5 40.5t-66.5 19.5l44 70q-91 2 -183 49v143h10q25 -83 73.5 -124.5t104.5 -42.5q65 -1 99 35.5t34 87.5q0 44 -24 79.5t-60 57t-78.5 46.5t-78.5 48t-60 62t-24 88q0 72 55.5 119.5t140.5 47.5q107 0 172 -43v-138z" />
    <glyph glyph-name="uni015F" unicode="&#x15f;" horiz-adv-x="443" 
d="M159 -81l45 72q-61 2 -107.5 29t-46.5 65q0 22 13.5 36.5t35.5 14.5q21 0 35.5 -13t14.5 -33q0 -31 -27 -45q32 -33 98 -33q54 0 87 26t33 69t-29 72.5t-70 47.5t-82.5 36t-70.5 49.5t-29 76.5q0 55 47 92.5t123 37.5q69 0 112.5 -28.5t43.5 -67.5q0 -21 -13.5 -35
t-34.5 -14t-35.5 13t-14.5 33q0 34 32 47q-26 30 -95 30q-53 0 -79 -24t-26 -60q0 -31 20.5 -54.5t51.5 -37.5t67.5 -31t67.5 -34t51.5 -47t20.5 -70q0 -59 -45 -101t-113 -47l-24 -56q43 -3 69 -24.5t26 -50.5q0 -35 -27 -56.5t-74 -21.5q-56 0 -97 27l5 16q34 -17 67 -17
q28 0 45 13.5t17 37.5q0 23 -21.5 40.5t-66.5 19.5z" />
    <glyph glyph-name="Scaron" unicode="&#x160;" horiz-adv-x="486" 
d="M237 745h-8l-143 146l6 6l141 -73l141 73l6 -6zM415 504h-10q-19 75 -64.5 116t-102.5 41q-56 0 -89 -33.5t-33 -82.5q0 -39 17.5 -70.5t46 -53t62.5 -41t68.5 -39.5t63 -43t46 -57.5t17.5 -76.5q0 -75 -54 -125t-141 -50q-97 0 -191 49v143h10q25 -83 73.5 -124.5
t104.5 -42.5q65 -1 99 35.5t34 87.5q0 44 -24 79.5t-60 57t-78.5 46.5t-78.5 48t-60 62t-24 88q0 72 55.5 119.5t140.5 47.5q107 0 172 -43v-138z" />
    <glyph glyph-name="scaron" unicode="&#x161;" horiz-adv-x="443" 
d="M225 579h-8l-143 146l6 6l141 -73l141 73l6 -6zM119 413q0 -31 20.5 -54.5t51.5 -37.5t67.5 -31t67.5 -34t51.5 -47t20.5 -70q0 -64 -51.5 -107t-125.5 -41q-65 -2 -118 25.5t-53 68.5q0 22 13.5 36.5t35.5 14.5q21 0 35.5 -13t14.5 -33q0 -31 -27 -45q32 -33 98 -33
q54 0 87 26t33 69t-29 72.5t-70 47.5t-82.5 36t-70.5 49.5t-29 76.5q0 55 47 92.5t123 37.5q69 0 112.5 -28.5t43.5 -67.5q0 -21 -13.5 -35t-34.5 -14t-35.5 13t-14.5 33q0 34 32 47q-26 30 -95 30q-53 0 -79 -24t-26 -60z" />
    <glyph glyph-name="uni0162" unicode="&#x162;" horiz-adv-x="605" 
d="M30 674h545v-171h-10q-13 75 -49 111t-108 36h-72v-544q0 -47 8.5 -68t30.5 -30v-8h-58l-28 -65q43 -3 69 -24.5t26 -50.5q0 -35 -27 -56.5t-74 -21.5q-56 0 -97 27l5 16q34 -17 67 -17q28 0 45 13.5t17 37.5q0 23 -21.5 40.5t-66.5 19.5l51 81h-57v8q22 9 30.5 30
t8.5 68v544h-68q-72 0 -108 -36t-49 -111h-10v171z" />
    <glyph glyph-name="uni0163" unicode="&#x163;" horiz-adv-x="349" 
d="M335 58l4 -8q-45 -48 -111 -53l-27 -62q43 -3 69 -24.5t26 -50.5q0 -35 -27 -56.5t-74 -21.5q-56 0 -97 27l5 16q34 -17 67 -17q28 0 45 13.5t17 37.5q0 23 -21.5 40.5t-66.5 19.5l50 80q-80 14 -80 125v341h-81v24q48 19 79 53.5t47 95.5h20v-140l156 10l-9 -43h-147
v-328q0 -53 17 -74.5t58 -21.5q44 0 81 17z" />
    <glyph glyph-name="Tcaron" unicode="&#x164;" horiz-adv-x="605" 
d="M307 745h-8l-143 146l6 6l141 -73l141 73l6 -6zM30 674h545v-171h-10q-13 75 -49 111t-108 36h-72v-544q0 -47 8.5 -68t30.5 -30v-8h-149v8q22 9 30.5 30t8.5 68v544h-68q-72 0 -108 -36t-49 -111h-10v171z" />
    <glyph glyph-name="tcaron" unicode="&#x165;" horiz-adv-x="349" 
d="M238 541l-2 6q69 43 71 117q-7 -2 -16 -2q-19 0 -32 13t-13 35q0 21 14.5 36t35.5 15q25 0 40.5 -17t15.5 -47q0 -48 -36 -93t-78 -63zM179 465v-328q0 -53 17 -74.5t58 -21.5q44 0 81 17l4 -8q-21 -23 -55 -38t-66 -15q-104 0 -104 127v341h-81v24q48 19 79 53.5
t47 95.5h20v-140l156 10l-9 -43h-147z" />
    <glyph glyph-name="Tbar" unicode="&#x166;" horiz-adv-x="605" 
d="M30 674h545v-171h-10q-13 75 -49 111t-108 36h-72v-301l160 3v-28h-160v-218q0 -47 8.5 -68t30.5 -30v-8h-149v8q22 9 30.5 30t8.5 68v218h-146v20l146 3v303h-68q-72 0 -108 -36t-49 -111h-10v171z" />
    <glyph glyph-name="tbar" unicode="&#x167;" horiz-adv-x="349" 
d="M335 58l4 -8q-21 -23 -55 -38t-66 -15q-104 0 -104 127v137h-75v20l75 2v182h-81v24q48 19 79 53.5t47 95.5h20v-140l156 10l-9 -43h-147v-180l147 4v-28h-147v-124q0 -53 17 -74.5t58 -21.5q44 0 81 17z" />
    <glyph glyph-name="Utilde" unicode="&#x168;" horiz-adv-x="697" 
d="M364 -9q-114 0 -182 55t-68 170v352q0 47 -8.5 68t-30.5 30v8h149v-8q-22 -9 -30.5 -30t-8.5 -68v-342q0 -199 189 -199q87 0 135 47.5t47 141.5l-3 290q-1 127 -66 160v8h169v-8q-66 -32 -69 -161l-5 -290q-2 -113 -60 -168.5t-158 -55.5zM227 761h-8q-2 8 -2 25
q0 39 21.5 66t61.5 27q27 0 75 -30.5t74 -30.5q27 0 43 17t18 46h8q2 -8 2 -25q0 -39 -21.5 -66t-61.5 -27q-25 0 -73.5 30.5t-75.5 30.5t-43 -17t-18 -46z" />
    <glyph glyph-name="utilde" unicode="&#x169;" horiz-adv-x="614" 
d="M435 117v276q0 35 -11 52t-33 27v8l109 39v-404q0 -74 44 -92v-8l-109 -26v106q-93 -106 -193 -106q-66 0 -99.5 38t-33.5 107v259q0 35 -11 52t-33 27v8l109 39v-353q0 -63 23 -91t77 -28q75 0 161 70zM165 595h-8q-2 8 -2 25q0 39 21.5 66t61.5 27q27 0 75 -30.5
t74 -30.5q27 0 43 17t18 46h8q2 -8 2 -25q0 -39 -21.5 -66t-61.5 -27q-25 0 -73.5 30.5t-75.5 30.5t-43 -17t-18 -46z" />
    <glyph glyph-name="Umacron" unicode="&#x16a;" horiz-adv-x="697" 
d="M364 -9q-114 0 -182 55t-68 170v352q0 47 -8.5 68t-30.5 30v8h149v-8q-22 -9 -30.5 -30t-8.5 -68v-342q0 -199 189 -199q87 0 135 47.5t47 141.5l-3 290q-1 127 -66 160v8h169v-8q-66 -32 -69 -161l-5 -290q-2 -113 -60 -168.5t-158 -55.5zM215 804v34h307v-34h-307z" />
    <glyph glyph-name="umacron" unicode="&#x16b;" horiz-adv-x="614" 
d="M435 117v276q0 35 -11 52t-33 27v8l109 39v-404q0 -74 44 -92v-8l-109 -26v106q-93 -106 -193 -106q-66 0 -99.5 38t-33.5 107v259q0 35 -11 52t-33 27v8l109 39v-353q0 -63 23 -91t77 -28q75 0 161 70zM153 638v34h307v-34h-307z" />
    <glyph glyph-name="Ubreve" unicode="&#x16c;" horiz-adv-x="697" 
d="M364 -9q-114 0 -182 55t-68 170v352q0 47 -8.5 68t-30.5 30v8h149v-8q-22 -9 -30.5 -30t-8.5 -68v-342q0 -199 189 -199q87 0 135 47.5t47 141.5l-3 290q-1 127 -66 160v8h169v-8q-66 -32 -69 -161l-5 -290q-2 -113 -60 -168.5t-158 -55.5zM498 881q0 -59 -33.5 -98.5
t-97.5 -39.5t-96 39t-32 99q0 10 1 16h8q10 -46 40.5 -71.5t78.5 -25.5q98 0 122 97h8q1 -5 1 -16z" />
    <glyph glyph-name="ubreve" unicode="&#x16d;" horiz-adv-x="614" 
d="M435 117v276q0 35 -11 52t-33 27v8l109 39v-404q0 -74 44 -92v-8l-109 -26v106q-93 -106 -193 -106q-66 0 -99.5 38t-33.5 107v259q0 35 -11 52t-33 27v8l109 39v-353q0 -63 23 -91t77 -28q75 0 161 70zM436 715q0 -59 -33.5 -98.5t-97.5 -39.5t-96 39t-32 99q0 10 1 16
h8q10 -46 40.5 -71.5t78.5 -25.5q98 0 122 97h8q1 -5 1 -16z" />
    <glyph glyph-name="Uring" unicode="&#x16e;" horiz-adv-x="697" 
d="M452 821q0 -35 -24 -59t-59 -24t-59 24t-24 59t24 59t59 24t59 -24t24 -59zM321 821q0 -19 14.5 -33.5t33.5 -14.5t33.5 14.5t14.5 33.5t-14.5 33.5t-33.5 14.5t-33.5 -14.5t-14.5 -33.5zM364 -9q-114 0 -182 55t-68 170v352q0 47 -8.5 68t-30.5 30v8h149v-8
q-22 -9 -30.5 -30t-8.5 -68v-342q0 -199 189 -199q87 0 135 47.5t47 141.5l-3 290q-1 127 -66 160v8h169v-8q-66 -32 -69 -161l-5 -290q-2 -113 -60 -168.5t-158 -55.5z" />
    <glyph glyph-name="uring" unicode="&#x16f;" horiz-adv-x="614" 
d="M390 655q0 -35 -24 -59t-59 -24t-59 24t-24 59t24 59t59 24t59 -24t24 -59zM259 655q0 -19 14.5 -33.5t33.5 -14.5t33.5 14.5t14.5 33.5t-14.5 33.5t-33.5 14.5t-33.5 -14.5t-14.5 -33.5zM435 117v276q0 35 -11 52t-33 27v8l109 39v-404q0 -74 44 -92v-8l-109 -26v106
q-93 -106 -193 -106q-66 0 -99.5 38t-33.5 107v259q0 35 -11 52t-33 27v8l109 39v-353q0 -63 23 -91t77 -28q75 0 161 70z" />
    <glyph glyph-name="Uhungarumlaut" unicode="&#x170;" horiz-adv-x="697" 
d="M364 -9q-114 0 -182 55t-68 170v352q0 47 -8.5 68t-30.5 30v8h149v-8q-22 -9 -30.5 -30t-8.5 -68v-342q0 -199 189 -199q87 0 135 47.5t47 141.5l-3 290q-1 127 -66 160v8h169v-8q-66 -32 -69 -161l-5 -290q-2 -113 -60 -168.5t-158 -55.5zM353 897h95l-155 -152h-24z
M493 897h95l-155 -152h-24z" />
    <glyph glyph-name="uhungarumlaut" unicode="&#x171;" horiz-adv-x="614" 
d="M435 117v276q0 35 -11 52t-33 27v8l109 39v-404q0 -74 44 -92v-8l-109 -26v106q-93 -106 -193 -106q-66 0 -99.5 38t-33.5 107v259q0 35 -11 52t-33 27v8l109 39v-353q0 -63 23 -91t77 -28q75 0 161 70zM291 731h95l-155 -152h-24zM431 731h95l-155 -152h-24z" />
    <glyph glyph-name="Uogonek" unicode="&#x172;" horiz-adv-x="697" 
d="M487 674h169v-8q-66 -32 -69 -161l-5 -290q-2 -96 -45 -151t-119 -68q-30 -18 -49.5 -47t-19.5 -57q0 -37 21.5 -54.5t54.5 -17.5q43 0 82 22l4 -7q-46 -53 -121 -53q-45 0 -74 23t-29 66q0 38 26 69.5t67 50.5h-16q-114 0 -182 55t-68 170v352q0 47 -8.5 68t-30.5 30v8
h149v-8q-22 -9 -30.5 -30t-8.5 -68v-342q0 -199 189 -199q87 0 135 47.5t47 141.5l-3 290q-1 127 -66 160v8z" />
    <glyph glyph-name="uogonek" unicode="&#x173;" horiz-adv-x="614" 
d="M545 -158l4 -7q-46 -53 -121 -53q-45 0 -74 23t-29 66q0 41 31.5 75t78.5 52v97q-93 -106 -193 -106q-66 0 -99.5 38t-33.5 107v259q0 35 -11 52t-33 27v8l109 39v-353q0 -63 23 -91t77 -28q75 0 161 70v276q0 35 -11 52t-33 27v8l109 39v-404q0 -74 44 -92v-8l-92 -22
q-29 -18 -47 -46t-18 -55q0 -37 21.5 -54.5t54.5 -17.5q43 0 82 22z" />
    <glyph glyph-name="Wcircumflex" unicode="&#x174;" horiz-adv-x="1005" 
d="M503 818l-141 -73l-6 6l143 146h8l143 -146l-6 -6zM840 674h160v-8q-31 -14 -53 -48.5t-51 -114.5l-184 -514h-9l-204 508l-208 -508h-9l-202 578q-17 49 -29.5 67.5t-35.5 31.5v8h159v-8q-44 -27 -15 -114l150 -448l171 440l-9 23q-19 47 -33.5 66t-38.5 33v8h159v-8
q-42 -27 -8 -114l177 -446l130 403q39 122 -17 157v8z" />
    <glyph glyph-name="wcircumflex" unicode="&#x175;" horiz-adv-x="791" 
d="M396 652l-141 -73l-6 6l143 146h8l143 -146l-6 -6zM640 508h141v-8q-28 -14 -49 -47t-47 -110l-120 -354h-19l-152 364l-140 -364h-19l-143 390q-15 41 -22 57.5t-19.5 33.5t-30.5 30v8h156v-8q-25 -16 -27.5 -43.5t14.5 -75.5l103 -299l112 311q-17 44 -32 66.5
t-40 40.5v8h156v-8q-25 -16 -26.5 -43.5t18.5 -75.5l121 -299l81 280q32 112 -16 138v8z" />
    <glyph glyph-name="Ycircumflex" unicode="&#x176;" horiz-adv-x="608" 
d="M304 818l-141 -73l-6 6l143 146h8l143 -146l-6 -6zM435 674h163v-8q-50 -27 -119 -146l-135 -231v-183q0 -47 8.5 -68t30.5 -30v-8h-149v8q22 9 30.5 30t8.5 68v167l-164 285q-31 54 -48.5 75t-40.5 33v8h171v-8q-47 -31 3 -116l136 -233l111 209q29 58 26.5 93.5
t-32.5 46.5v8z" />
    <glyph glyph-name="ycircumflex" unicode="&#x177;" horiz-adv-x="521" 
d="M280 652l-141 -73l-6 6l143 146h8l143 -146l-6 -6zM375 508h141v-8q-28 -14 -49.5 -48.5t-56.5 -122.5l-119 -299q-32 -141 -86 -210.5t-124 -69.5q-59 0 -99 40v8q35 1 62.5 5t62 16.5t60.5 32.5t51 56.5t40 86.5l-164 384q-23 55 -38 79t-41 42v8h156v-8
q-25 -16 -25.5 -44t19.5 -75l123 -295l91 255q47 131 -4 159v8z" />
    <glyph glyph-name="Ydieresis" unicode="&#x178;" horiz-adv-x="608" 
d="M406 765q-23 0 -39.5 16.5t-16.5 39.5t16.5 39.5t39.5 16.5t39.5 -16.5t16.5 -39.5t-16.5 -39.5t-39.5 -16.5zM202 765q-23 0 -39.5 16.5t-16.5 39.5t16.5 39.5t39.5 16.5t39.5 -16.5t16.5 -39.5t-16.5 -39.5t-39.5 -16.5zM435 674h163v-8q-50 -27 -119 -146l-135 -231
v-183q0 -47 8.5 -68t30.5 -30v-8h-149v8q22 9 30.5 30t8.5 68v167l-164 285q-31 54 -48.5 75t-40.5 33v8h171v-8q-47 -31 3 -116l136 -233l111 209q29 58 26.5 93.5t-32.5 46.5v8z" />
    <glyph glyph-name="Zacute" unicode="&#x179;" horiz-adv-x="565" 
d="M424 897l-160 -152h-24l84 152h100zM525 179h10v-179h-505v8l412 647l-197 -4q-87 -2 -125.5 -34t-56.5 -112h-10v169h479v-8l-414 -646l204 5q100 3 142.5 37t60.5 117z" />
    <glyph glyph-name="zacute" unicode="&#x17a;" horiz-adv-x="493" 
d="M388 731l-160 -152h-24l84 152h100zM453 508v-10l-330 -482l154 7q71 4 106 32t47 90h10v-145h-400v10l329 483l-162 -7q-66 -3 -94.5 -28.5t-42.5 -84.5h-10v135h393z" />
    <glyph glyph-name="Zdotaccent" unicode="&#x17b;" horiz-adv-x="565" 
d="M282 763q-24 0 -41 17t-17 41t17 41t41 17t41 -17t17 -41t-17 -41t-41 -17zM525 179h10v-179h-505v8l412 647l-197 -4q-87 -2 -125.5 -34t-56.5 -112h-10v169h479v-8l-414 -646l204 5q100 3 142.5 37t60.5 117z" />
    <glyph glyph-name="zdotaccent" unicode="&#x17c;" horiz-adv-x="493" 
d="M246 597q-24 0 -41 17t-17 41t17 41t41 17t41 -17t17 -41t-17 -41t-41 -17zM453 508v-10l-330 -482l154 7q71 4 106 32t47 90h10v-145h-400v10l329 483l-162 -7q-66 -3 -94.5 -28.5t-42.5 -84.5h-10v135h393z" />
    <glyph glyph-name="Zcaron" unicode="&#x17d;" horiz-adv-x="565" 
d="M286 745h-8l-143 146l6 6l141 -73l141 73l6 -6zM525 179h10v-179h-505v8l412 647l-197 -4q-87 -2 -125.5 -34t-56.5 -112h-10v169h479v-8l-414 -646l204 5q100 3 142.5 37t60.5 117z" />
    <glyph glyph-name="zcaron" unicode="&#x17e;" horiz-adv-x="493" 
d="M250 579h-8l-143 146l6 6l141 -73l141 73l6 -6zM453 508v-10l-330 -482l154 7q71 4 106 32t47 90h10v-145h-400v10l329 483l-162 -7q-66 -3 -94.5 -28.5t-42.5 -84.5h-10v135h393z" />
    <glyph glyph-name="florin" unicode="&#x192;" horiz-adv-x="500" 
d="M198 380l40 233q12 72 55.5 107.5t107.5 35.5q54 0 85.5 -23t31.5 -55q0 -23 -14.5 -39t-35.5 -16q-22 0 -36 13t-14 33q0 38 35 46q-13 17 -48 17q-83 0 -102 -117l-39 -231l160 9l-10 -43h-156l-46 -270q-43 -246 -207 -280q-24 -4 -51 -6l-2 7q158 66 195 280l46 269
h-106v24z" />
    <glyph glyph-name="uni0218" unicode="&#x218;" horiz-adv-x="486" 
d="M235 -55q25 0 40.5 -17t15.5 -47q0 -48 -36 -93t-78 -63l-2 6q69 43 71 117q-7 -2 -16 -2q-19 0 -32 13t-13 35q0 21 14.5 36t35.5 15zM61 181q25 -83 73.5 -124.5t104.5 -42.5q65 -1 99 35.5t34 87.5q0 44 -24 79.5t-60 57t-78.5 46.5t-78.5 48t-60 62t-24 88
q0 72 55.5 119.5t140.5 47.5q107 0 172 -43v-138h-10q-19 75 -64.5 116t-102.5 41q-56 0 -89 -33.5t-33 -82.5q0 -39 17.5 -70.5t46 -53t62.5 -41t68.5 -39.5t63 -43t46 -57.5t17.5 -76.5q0 -75 -54 -125t-141 -50q-97 0 -191 49v143h10z" />
    <glyph glyph-name="uni0219" unicode="&#x219;" horiz-adv-x="443" 
d="M223 -55q25 0 40.5 -17t15.5 -47q0 -48 -36 -93t-78 -63l-2 6q69 43 71 117q-7 -2 -16 -2q-19 0 -32 13t-13 35q0 21 14.5 36t35.5 15zM221 -9q-65 -2 -118 25.5t-53 68.5q0 22 13.5 36.5t35.5 14.5q21 0 35.5 -13t14.5 -33q0 -31 -27 -45q32 -33 98 -33q54 0 87 26
t33 69t-29 72.5t-70 47.5t-82.5 36t-70.5 49.5t-29 76.5q0 55 47 92.5t123 37.5q69 0 112.5 -28.5t43.5 -67.5q0 -21 -13.5 -35t-34.5 -14t-35.5 13t-14.5 33q0 34 32 47q-26 30 -95 30q-53 0 -79 -24t-26 -60q0 -31 20.5 -54.5t51.5 -37.5t67.5 -31t67.5 -34t51.5 -47
t20.5 -70q0 -64 -51.5 -107t-125.5 -41z" />
    <glyph glyph-name="uni021A" unicode="&#x21a;" horiz-adv-x="605" 
d="M237 -275l-2 6q69 43 71 117q-7 -2 -16 -2q-19 0 -32 13t-13 35q0 21 14.5 36t35.5 15q25 0 40.5 -17t15.5 -47q0 -48 -36 -93t-78 -63zM30 674h545v-171h-10q-13 75 -49 111t-108 36h-72v-544q0 -47 8.5 -68t30.5 -30v-8h-149v8q22 9 30.5 30t8.5 68v544h-68
q-72 0 -108 -36t-49 -111h-10v171z" />
    <glyph glyph-name="uni021B" unicode="&#x21b;" horiz-adv-x="349" 
d="M118 -275l-2 6q69 43 71 117q-7 -2 -16 -2q-19 0 -32 13t-13 35q0 21 14.5 36t35.5 15q25 0 40.5 -17t15.5 -47q0 -48 -36 -93t-78 -63zM335 58l4 -8q-21 -23 -55 -38t-66 -15q-104 0 -104 127v341h-81v24q48 19 79 53.5t47 95.5h20v-140l156 10l-9 -43h-147v-328
q0 -53 17 -74.5t58 -21.5q44 0 81 17z" />
    <glyph glyph-name="uni0237" unicode="&#x237;" horiz-adv-x="293" 
d="M114 16v377q0 35 -11 52t-33 27v8l109 39v-505q0 -102 -34.5 -169.5t-122.5 -101.5l-3 6q95 84 95 267z" />
    <glyph glyph-name="circumflex" unicode="&#x2c6;" 
d="M447 585l-6 -6l-141 73l-141 -73l-6 6l143 146h8z" />
    <glyph glyph-name="caron" unicode="&#x2c7;" 
d="M441 731l6 -6l-143 -146h-8l-143 146l6 6l141 -73z" />
    <glyph glyph-name="uni02C9" unicode="&#x2c9;" 
d="M146 638v34h307v-34h-307z" />
    <glyph glyph-name="breve" unicode="&#x2d8;" 
d="M429 715q0 -59 -33.5 -98.5t-97.5 -39.5t-96 39t-32 99q0 10 1 16h8q10 -46 40.5 -71.5t78.5 -25.5q98 0 122 97h8q1 -5 1 -16z" />
    <glyph glyph-name="dotaccent" unicode="&#x2d9;" 
d="M358 655q0 -24 -17 -41t-41 -17t-41 17t-17 41t17 41t41 17t41 -17t17 -41z" />
    <glyph glyph-name="ring" unicode="&#x2da;" 
d="M383 655q0 -35 -24.5 -59t-58.5 -24t-58.5 24t-24.5 59t24.5 59t58.5 24t58.5 -24t24.5 -59zM252 655q0 -19 14 -33.5t34 -14.5t34 14.5t14 33.5t-14 33.5t-34 14.5t-34 -14.5t-14 -33.5z" />
    <glyph glyph-name="ogonek" unicode="&#x2db;" 
d="M408 -158l4 -7q-46 -53 -121 -53q-45 0 -74 23t-29 66q0 44 35 79.5t86 51.5h22q-35 -17 -58 -48t-23 -62q0 -37 21.5 -54.5t54.5 -17.5q43 0 82 22z" />
    <glyph glyph-name="tilde" unicode="&#x2dc;" 
d="M158 595h-8q-2 8 -2 25q0 39 21.5 66t61.5 27q27 0 75 -30.5t74 -30.5q27 0 43 17t18 46h8q2 -8 2 -25q0 -39 -21.5 -66t-61.5 -27q-25 0 -73.5 30.5t-75.5 30.5t-43 -17t-18 -46z" />
    <glyph glyph-name="hungarumlaut" unicode="&#x2dd;" 
d="M284 731h95l-155 -152h-24zM424 731h95l-155 -152h-24z" />
    <glyph glyph-name="uni0326" unicode="&#x326;" 
d="M302 -55q25 0 40.5 -17t15.5 -47q0 -48 -36 -93t-78 -63l-2 6q69 43 71 117q-7 -2 -16 -2q-19 0 -32 13t-13 35q0 21 14.5 36t35.5 15z" />
    <glyph glyph-name="pi" unicode="&#x3c0;" horiz-adv-x="678" 
d="M612 67l6 -4q-20 -73 -89 -73q-48 0 -71.5 41t-23.5 106v316h-180v-412q0 -25 -12 -38.5t-32 -13.5q-38 0 -38 48q0 24 8 55.5t16 101t8 185.5v72q-67 -5 -108 -30.5t-80 -72.5l-6 3q26 88 80.5 122.5t150.5 34.5h358v-55h-100v-277q0 -67 12 -100t45 -33q32 0 56 24z
" />
    <glyph glyph-name="Wgrave" unicode="&#x1e80;" horiz-adv-x="1005" 
d="M727 106l130 403q39 122 -17 157v8h160v-8q-31 -14 -53 -48.5t-51 -114.5l-184 -514h-9l-204 508l-208 -508h-9l-202 578q-17 49 -29.5 67.5t-35.5 31.5v8h159v-8q-44 -27 -15 -114l150 -448l171 440l-9 23q-19 47 -33.5 66t-38.5 33v8h159v-8q-42 -27 -8 -114zM361 897
h100l84 -152h-24z" />
    <glyph glyph-name="wgrave" unicode="&#x1e81;" horiz-adv-x="791" 
d="M438 579h-24l-160 152h100zM640 508h141v-8q-28 -14 -49 -47t-47 -110l-120 -354h-19l-152 364l-140 -364h-19l-143 390q-15 41 -22 57.5t-19.5 33.5t-30.5 30v8h156v-8q-25 -16 -27.5 -43.5t14.5 -75.5l103 -299l112 311q-17 44 -32 66.5t-40 40.5v8h156v-8
q-25 -16 -26.5 -43.5t18.5 -75.5l121 -299l81 280q32 112 -16 138v8z" />
    <glyph glyph-name="Wacute" unicode="&#x1e82;" horiz-adv-x="1005" 
d="M545 897h100l-160 -152h-24zM727 106l130 403q39 122 -17 157v8h160v-8q-31 -14 -53 -48.5t-51 -114.5l-184 -514h-9l-204 508l-208 -508h-9l-202 578q-17 49 -29.5 67.5t-35.5 31.5v8h159v-8q-44 -27 -15 -114l150 -448l171 440l-9 23q-19 47 -33.5 66t-38.5 33v8h159
v-8q-42 -27 -8 -114z" />
    <glyph glyph-name="wacute" unicode="&#x1e83;" horiz-adv-x="791" 
d="M538 731l-160 -152h-24l84 152h100zM640 508h141v-8q-28 -14 -49 -47t-47 -110l-120 -354h-19l-152 364l-140 -364h-19l-143 390q-15 41 -22 57.5t-19.5 33.5t-30.5 30v8h156v-8q-25 -16 -27.5 -43.5t14.5 -75.5l103 -299l112 311q-17 44 -32 66.5t-40 40.5v8h156v-8
q-25 -16 -26.5 -43.5t18.5 -75.5l121 -299l81 280q32 112 -16 138v8z" />
    <glyph glyph-name="Wdieresis" unicode="&#x1e84;" horiz-adv-x="1005" 
d="M661 821q0 -23 -16.5 -39.5t-39.5 -16.5t-39.5 16.5t-16.5 39.5t16.5 39.5t39.5 16.5t39.5 -16.5t16.5 -39.5zM457 821q0 -23 -16.5 -39.5t-39.5 -16.5t-39.5 16.5t-16.5 39.5t16.5 39.5t39.5 16.5t39.5 -16.5t16.5 -39.5zM727 106l130 403q39 122 -17 157v8h160v-8
q-31 -14 -53 -48.5t-51 -114.5l-184 -514h-9l-204 508l-208 -508h-9l-202 578q-17 49 -29.5 67.5t-35.5 31.5v8h159v-8q-44 -27 -15 -114l150 -448l171 440l-9 23q-19 47 -33.5 66t-38.5 33v8h159v-8q-42 -27 -8 -114z" />
    <glyph glyph-name="wdieresis" unicode="&#x1e85;" horiz-adv-x="791" 
d="M498 599q-23 0 -39.5 16.5t-16.5 39.5t16.5 39.5t39.5 16.5t39.5 -16.5t16.5 -39.5t-16.5 -39.5t-39.5 -16.5zM294 599q-23 0 -39.5 16.5t-16.5 39.5t16.5 39.5t39.5 16.5t39.5 -16.5t16.5 -39.5t-16.5 -39.5t-39.5 -16.5zM640 508h141v-8q-28 -14 -49 -47t-47 -110
l-120 -354h-19l-152 364l-140 -364h-19l-143 390q-15 41 -22 57.5t-19.5 33.5t-30.5 30v8h156v-8q-25 -16 -27.5 -43.5t14.5 -75.5l103 -299l112 311q-17 44 -32 66.5t-40 40.5v8h156v-8q-25 -16 -26.5 -43.5t18.5 -75.5l121 -299l81 280q32 112 -16 138v8z" />
    <glyph glyph-name="Ygrave" unicode="&#x1ef2;" horiz-adv-x="608" 
d="M346 745h-24l-160 152h100zM435 674h163v-8q-50 -27 -119 -146l-135 -231v-183q0 -47 8.5 -68t30.5 -30v-8h-149v8q22 9 30.5 30t8.5 68v167l-164 285q-31 54 -48.5 75t-40.5 33v8h171v-8q-47 -31 3 -116l136 -233l111 209q29 58 26.5 93.5t-32.5 46.5v8z" />
    <glyph glyph-name="ygrave" unicode="&#x1ef3;" horiz-adv-x="521" 
d="M258 -5l-164 384q-23 55 -38 79t-41 42v8h156v-8q-25 -16 -25.5 -44t19.5 -75l123 -295l91 255q47 131 -4 159v8h141v-8q-28 -14 -49.5 -48.5t-56.5 -122.5l-119 -299q-32 -141 -86 -210.5t-124 -69.5q-59 0 -99 40v8q35 1 62.5 5t62 16.5t60.5 32.5t51 56.5t40 86.5z
M138 731h100l84 -152h-24z" />
    <glyph glyph-name="endash" unicode="&#x2013;" horiz-adv-x="500" 
d="M60 248v54h380v-54h-380z" />
    <glyph glyph-name="emdash" unicode="&#x2014;" horiz-adv-x="1000" 
d="M60 248v54h880v-54h-880z" />
    <glyph glyph-name="quoteleft" unicode="&#x2018;" horiz-adv-x="220" 
d="M112 450q-29 0 -47 20.5t-18 54.5q0 56 41.5 108t90.5 74l3 -7q-36 -23 -58.5 -59t-23.5 -77q7 2 18 2q22 0 37.5 -16t15.5 -41q0 -24 -17 -41.5t-42 -17.5z" />
    <glyph glyph-name="quoteright" unicode="&#x2019;" horiz-adv-x="241" 
d="M117 707q29 0 47 -20.5t18 -54.5q0 -56 -41.5 -108t-90.5 -74l-3 7q36 23 58.5 59t23.5 77q-7 -2 -18 -2q-22 0 -37.5 16t-15.5 41q0 24 17 41.5t42 17.5z" />
    <glyph glyph-name="quotesinglbase" unicode="&#x201a;" horiz-adv-x="241" 
d="M117 127q29 0 47 -20.5t18 -54.5q0 -56 -41.5 -108t-90.5 -74l-3 7q36 23 58.5 59t23.5 77q-7 -2 -18 -2q-22 0 -37.5 16t-15.5 41q0 24 17 41.5t42 17.5z" />
    <glyph glyph-name="quotedblleft" unicode="&#x201c;" horiz-adv-x="427" 
d="M307 450q-29 0 -47 20.5t-18 54.5q0 56 41.5 108t90.5 74l3 -7q-36 -23 -58.5 -59t-23.5 -77q7 2 18 2q22 0 37.5 -16t15.5 -41q0 -24 -17 -41.5t-42 -17.5zM112 450q-29 0 -47 20.5t-18 54.5q0 56 41.5 108t90.5 74l3 -7q-36 -23 -58.5 -59t-23.5 -77q7 2 18 2
q22 0 37.5 -16t15.5 -41q0 -24 -17 -41.5t-42 -17.5z" />
    <glyph glyph-name="quotedblright" unicode="&#x201d;" horiz-adv-x="431" 
d="M117 707q29 0 47 -20.5t18 -54.5q0 -56 -41.5 -108t-90.5 -74l-3 7q36 23 58.5 59t23.5 77q-7 -2 -18 -2q-22 0 -37.5 16t-15.5 41q0 24 17 41.5t42 17.5zM312 707q29 0 47 -20.5t18 -54.5q0 -56 -41.5 -108t-90.5 -74l-3 7q36 23 58.5 59t23.5 77q-7 -2 -18 -2
q-22 0 -37.5 16t-15.5 41q0 24 17 41.5t42 17.5z" />
    <glyph glyph-name="quotedblbase" unicode="&#x201e;" horiz-adv-x="431" 
d="M117 127q29 0 47 -20.5t18 -54.5q0 -56 -41.5 -108t-90.5 -74l-3 7q36 23 58.5 59t23.5 77q-7 -2 -18 -2q-22 0 -37.5 16t-15.5 41q0 24 17 41.5t42 17.5zM312 127q29 0 47 -20.5t18 -54.5q0 -56 -41.5 -108t-90.5 -74l-3 7q36 23 58.5 59t23.5 77q-7 -2 -18 -2
q-22 0 -37.5 16t-15.5 41q0 24 17 41.5t42 17.5z" />
    <glyph glyph-name="dagger" unicode="&#x2020;" horiz-adv-x="500" 
d="M253 -172h-7q0 117 -20 225.5t-40 158.5l-19 51q78 47 80 179q-44 -3 -82.5 -22.5t-54.5 -19.5q-27 0 -42.5 13t-15.5 34t15.5 34t42.5 13q16 0 54.5 -19t80.5 -23q-3 49 -22.5 101.5t-19.5 73.5q0 27 13 42.5t34 15.5t34 -15.5t13 -42.5q0 -20 -19.5 -73t-22.5 -102
q42 4 80.5 23t54.5 19q27 0 42.5 -13t15.5 -34t-15.5 -34t-42.5 -13q-16 0 -54.5 19.5t-82.5 22.5q2 -130 79 -179q-9 -19 -22 -55t-35 -149.5t-22 -230.5z" />
    <glyph glyph-name="daggerdbl" unicode="&#x2021;" horiz-adv-x="500" 
d="M332 283q-78 -49 -79 -157q43 3 82 22.5t55 19.5q27 0 42.5 -13t15.5 -34t-15.5 -34t-42.5 -13q-16 0 -54.5 19t-80.5 22q3 -49 22.5 -101.5t19.5 -72.5q0 -27 -13 -42.5t-34 -15.5t-34 15.5t-13 42.5q0 21 19 73t22 101q-42 -3 -80 -22t-54 -19q-27 0 -42.5 13t-15.5 34
t15.5 34t42.5 13q15 0 54 -19.5t83 -22.5q-2 59 -20 95t-60 62q42 26 60.5 63t19.5 95q-44 -3 -83 -22t-54 -19q-27 0 -42.5 13t-15.5 34t15.5 34t42.5 13q16 0 54 -19t80 -23q-3 49 -22 101.5t-19 73.5q0 27 13 42.5t34 15.5t34 -15.5t13 -42.5q0 -20 -19.5 -73t-22.5 -102
q42 4 80.5 23t54.5 19q27 0 42.5 -13t15.5 -34t-15.5 -34t-42.5 -13q-16 0 -55 19.5t-82 22.5q1 -110 79 -159z" />
    <glyph glyph-name="bullet" unicode="&#x2022;" horiz-adv-x="342" 
d="M82 314q0 35 25 60t60 25t60 -25t25 -60t-25 -60t-60 -25t-60 25t-25 60z" />
    <glyph glyph-name="ellipsis" unicode="&#x2026;" horiz-adv-x="864" 
d="M72 52q0 25 17.5 42.5t42.5 17.5t42.5 -17.5t17.5 -42.5t-17.5 -42.5t-42.5 -17.5t-42.5 17.5t-17.5 42.5zM372 52q0 25 17.5 42.5t42.5 17.5t42.5 -17.5t17.5 -42.5t-17.5 -42.5t-42.5 -17.5t-42.5 17.5t-17.5 42.5zM672 52q0 25 17.5 42.5t42.5 17.5t42.5 -17.5
t17.5 -42.5t-17.5 -42.5t-42.5 -17.5t-42.5 17.5t-17.5 42.5z" />
    <glyph glyph-name="perthousand" unicode="&#x2030;" horiz-adv-x="1105" 
d="M172 0l386 654h38l-387 -654h-37zM68 495q0 64 36.5 112.5t95.5 48.5q70 0 101.5 -46.5t31.5 -113.5q0 -70 -34.5 -119t-98.5 -49t-98 47.5t-34 119.5zM127 495q0 -58 18 -101.5t55 -43.5q73 0 73 145q0 58 -18.5 98.5t-54.5 40.5q-38 0 -55.5 -39t-17.5 -100zM436 164
q0 64 36.5 112.5t95.5 48.5q70 0 101.5 -46.5t31.5 -113.5q0 -70 -34.5 -119t-98.5 -49t-98 47.5t-34 119.5zM495 164q0 -58 18 -101.5t55 -43.5q73 0 73 145q0 58 -18.5 98.5t-54.5 40.5q-38 0 -55.5 -39t-17.5 -100zM772 164q0 64 36.5 112.5t95.5 48.5q70 0 101.5 -46.5
t31.5 -113.5q0 -70 -34.5 -119t-98.5 -49t-98 47.5t-34 119.5zM831 164q0 -58 18 -101.5t55 -43.5q73 0 73 145q0 58 -18.5 98.5t-54.5 40.5q-38 0 -55.5 -39t-17.5 -100z" />
    <glyph glyph-name="guilsinglleft" unicode="&#x2039;" horiz-adv-x="305" 
d="M50 263q110 64 199 179l16 -12l-120 -177l120 -177l-16 -12q-89 115 -199 179v20z" />
    <glyph glyph-name="guilsinglright" unicode="&#x203a;" horiz-adv-x="305" 
d="M160 253l-120 177l16 12q89 -115 199 -179v-20q-110 -64 -199 -179l-16 12z" />
    <glyph glyph-name="fraction" unicode="&#x2044;" horiz-adv-x="327" 
d="M-23 0l266 657h45l-266 -657h-45z" />
    <glyph glyph-name="Euro" unicode="&#x20ac;" horiz-adv-x="659" 
d="M594 176h10v-136q-72 -51 -191 -51q-110 0 -189 70.5t-101 191.5l-87 1v26h83q-3 29 -3 59q0 25 3 51h-83v26l87 1q22 114 98 187t184 73q95 0 192 -54v-136h-10q-29 83 -71 124.5t-109 41.5q-76 0 -132 -64t-72 -171l249 4v-32h-253q-2 -34 -2 -52q0 -30 3 -58h252v-32
l-249 4q17 -109 74 -173t138 -64q70 0 113 41t66 122z" />
    <glyph glyph-name="uni20B9" unicode="&#x20b9;" horiz-adv-x="585" 
d="M532 674v-24h-239q120 -44 120 -164v-2h119v-24h-121q-10 -78 -77.5 -120.5t-162.5 -46.5q182 -233 266 -286v-6q-17 -14 -47 -14q-48 0 -98 51.5t-217 262.5v6q104 1 174 43.5t81 109.5h-255v24h257q0 79 -52 122.5t-155 43.5h-50v24h457z" />
    <glyph glyph-name="uni2113" unicode="&#x2113;" horiz-adv-x="457" 
d="M207 515v-244q122 93 122 240q0 128 -62 128q-30 0 -45 -34.5t-15 -89.5zM386 91l11 -9q-18 -44 -53.5 -67.5t-80.5 -23.5q-60 0 -93.5 43.5t-33.5 120.5v44q-49 -19 -96 -28l-3 15q56 17 99 40v265q0 198 131 198q53 0 84 -46t31 -122q0 -83 -44.5 -159t-130.5 -128v-63
q0 -124 88 -124q55 0 91 44z" />
    <glyph glyph-name="trademark" unicode="&#x2122;" horiz-adv-x="733" 
d="M14 577v107h285v-107h-5q-9 47 -33 69t-68 22h-14v-240q0 -42 28 -58v-5h-101v5q28 16 28 58v240h-14q-44 0 -67.5 -21.5t-33.5 -69.5h-5zM710 684v-5q-21 -13 -21 -59v-191q0 -45 21 -60v-4h-90v4q24 18 24 60v200l-123 -258h-7l-127 240l3 -150q2 -77 31 -92v-4h-87v4
q30 15 32 92l3 130q1 63 -36 88v5h71l130 -249l110 249h66z" />
    <glyph glyph-name="uni2126" unicode="&#x2126;" horiz-adv-x="722" 
d="M339 10v-10h-261v88h10q24 -23 56.5 -33t143.5 -22q-237 160 -237 347q0 124 89 214.5t221 90.5q143 0 226.5 -87.5t83.5 -215.5q0 -185 -237 -349q110 12 145 23t55 32h10v-88h-261v10q117 92 161.5 177.5t44.5 193.5q0 122 -62.5 201t-165.5 79t-165.5 -79t-62.5 -201
q0 -108 44.5 -193.5t161.5 -177.5z" />
    <glyph glyph-name="estimated" unicode="&#x212e;" horiz-adv-x="698" 
d="M172 338h359v189q-58 71 -181 71q-52 0 -101 -19t-77 -52v-189zM643 313h-471v-222q31 -34 79 -54t100 -20q73 0 133 36t98 102l23 -13q-95 -152 -254 -152q-133 0 -212 91t-79 227q0 139 80.5 228t210.5 89q136 0 213.5 -89t78.5 -223z" />
    <glyph glyph-name="partialdiff" unicode="&#x2202;" horiz-adv-x="564" 
d="M509 413q0 -98 -34 -194.5t-102 -164.5t-152 -68q-77 0 -116.5 49t-39.5 129q0 105 59.5 181.5t158.5 76.5q52 0 91 -24.5t53 -61.5q10 30 10 78q0 86 -32 141t-99 55q-45 0 -79.5 -29t-69.5 -84l-10 7q25 69 73.5 115.5t112.5 46.5q47 0 82.5 -20.5t55 -57t29 -80
t9.5 -95.5zM236 19q69 0 113 79t44 176q0 51 -24.5 85t-68.5 34q-65 0 -110.5 -73t-45.5 -170q0 -55 23.5 -93t68.5 -38z" />
    <glyph glyph-name="uni2206" unicode="&#x2206;" horiz-adv-x="616" 
d="M586 0h-556v21l268 635h24l264 -635v-21zM493 34l-207 505l-214 -505h421z" />
    <glyph glyph-name="product" unicode="&#x220f;" horiz-adv-x="658" 
d="M583 657v-8q-22 -9 -30.5 -30t-8.5 -68v-575q0 -47 8.5 -68t30.5 -30v-8h-143v8q22 9 30.5 30t8.5 68v657h-300v-657q0 -47 8.5 -68t30.5 -30v-8h-143v8q22 9 30.5 30t8.5 68v575q0 47 -8.5 68t-30.5 30v8h508z" />
    <glyph glyph-name="summation" unicode="&#x2211;" horiz-adv-x="642" 
d="M597 69h10v-189h-562v8l279 392l-279 414v10h549v-189h-10q-75 154 -259 165l-183 11l253 -375v-8l-286 -370l240 4q93 2 152.5 31t95.5 96z" />
    <glyph glyph-name="minus" unicode="&#x2212;" horiz-adv-x="629" 
d="M65 324v34h499v-34h-499z" />
    <glyph glyph-name="uni2215" unicode="&#x2215;" horiz-adv-x="387" 
d="M10 -100l319 806h48l-319 -806h-48z" />
    <glyph glyph-name="uni2219" unicode="&#x2219;" horiz-adv-x="290" 
d="M60 254q0 35 25 60t60 25t60 -25t25 -60t-25 -60t-60 -25t-60 25t-25 60z" />
    <glyph glyph-name="radical" unicode="&#x221a;" horiz-adv-x="679" 
d="M310 -131l-176 445q-10 21 -20 30t-31 15l-73 21v8h170l159 -414l291 809h39l-340 -914h-19z" />
    <glyph glyph-name="infinity" unicode="&#x221e;" horiz-adv-x="778" 
d="M600 206q42 0 68 33.5t26 82.5q0 55 -36.5 90t-95.5 35q-74 0 -148 -91q33 -50 52.5 -75.5t56 -50t77.5 -24.5zM229 217q45 0 75 22t65 70q-26 40 -38.5 57.5t-37 44.5t-50.5 38t-57 11q-44 0 -71 -29t-27 -77q0 -59 42.5 -98t98.5 -39zM577 510q63 0 102 -50t39 -130
q0 -74 -39 -124t-110 -50q-63 0 -105 35.5t-85 101.5q-33 -63 -72 -100t-97 -37q-65 0 -107.5 51t-42.5 129q0 73 42.5 123.5t114.5 50.5q59 0 100.5 -36t86.5 -104q23 39 42.5 65.5t55.5 50.5t75 24z" />
    <glyph glyph-name="integral" unicode="&#x222b;" horiz-adv-x="425" 
d="M114 -113q36 0 51 29.5t15 86.5v640q0 71 34 109.5t97 38.5q48 0 76 -25t28 -63q0 -25 -15 -40.5t-37 -15.5q-21 0 -35 13.5t-14 35.5q0 18 11.5 30.5t29.5 17.5q-10 22 -44 22q-36 0 -51 -29.5t-15 -86.5v-640q0 -71 -34 -109.5t-97 -38.5q-48 0 -76 25t-28 63
q0 25 15 40.5t37 15.5q21 0 35 -13.5t14 -35.5q0 -18 -11.5 -30.5t-29.5 -17.5q10 -22 44 -22z" />
    <glyph glyph-name="approxequal" unicode="&#x2248;" horiz-adv-x="650" 
d="M60 108v8q3 66 40.5 109t111.5 43q32 0 64.5 -14t55.5 -30.5t54 -30.5t61 -14q92 0 131 103h12v-11q-4 -67 -42 -113t-110 -46q-46 0 -118.5 44.5t-116.5 44.5q-96 0 -131 -93h-12zM60 318v8q3 66 40.5 109t111.5 43q32 0 64.5 -14t55.5 -30.5t54 -30.5t61 -14
q92 0 131 103h12v-11q-4 -67 -42 -113t-110 -46q-46 0 -118.5 44.5t-116.5 44.5q-96 0 -131 -93h-12z" />
    <glyph glyph-name="notequal" unicode="&#x2260;" horiz-adv-x="629" 
d="M564 434h-197l-84 -185h281v-34h-296l-73 -160h-37l72 160h-165v34h181l83 185h-264v34h280l72 160h38l-73 -160h182v-34z" />
    <glyph glyph-name="lessequal" unicode="&#x2264;" horiz-adv-x="629" 
d="M90 74v29h449v-29h-449zM90 319v34l449 169v-36l-410 -150l408 -151v-36z" />
    <glyph glyph-name="greaterequal" unicode="&#x2265;" horiz-adv-x="629" 
d="M539 103v-29h-449v29h449zM539 353v-34l-447 -170v36l408 151l-410 150v36z" />
    <glyph glyph-name="lozenge" unicode="&#x25ca;" horiz-adv-x="537" 
d="M245 704h44l193 -362l-194 -371h-43l-190 372zM443 342l-177 327l-171 -326l172 -337z" />
    <glyph glyph-name="itfLogo" horiz-adv-x="1648" 
d="M147 0v634h196v-634h-196zM383 449v185h196v-185h-196zM619 0v634h196v-634h-196zM855 449v185h196v-185h-196zM1091 0v634h196v-634h-196zM1327 449v185h196v-185h-196zM1327 224v185h196v-185h-196z" />
    <glyph glyph-name="caron.alt" 
d="M302 761q25 0 40.5 -17t15.5 -47q0 -48 -36 -93t-78 -63l-2 6q69 43 71 117q-7 -2 -16 -2q-19 0 -32 13t-13 35q0 21 14.5 36t35.5 15z" />
    <glyph glyph-name="commaaccent.alt" 
d="M298 565q-25 0 -40.5 17t-15.5 47q0 48 36 93t78 63l2 -6q-69 -43 -71 -117q7 2 16 2q19 0 32 -13t13 -35q0 -21 -14.5 -36t-35.5 -15z" />
    </font>
</defs>
</svg>
