<?xml version="1.0" standalone="no"?>
<!DOCTYPE svg PUBLIC "-//W3C//DTD SVG 1.1//EN" "http://www.w3.org/Graphics/SVG/1.1/DTD/svg11.dtd" >
<svg xmlns="http://www.w3.org/2000/svg" xmlns:xlink="http://www.w3.org/1999/xlink" version="1.1">
<metadata>
Created by FontForge 20141024 at Thu Jul  9 06:24:56 2015
 By System Administrator
Copyright 2015 Indian Type Foundry. All rights reserved.
</metadata>
<defs>
<font id="Begum-Regular" horiz-adv-x="600" >
  <font-face 
    font-family="Begum-Regular"
    font-weight="400"
    font-stretch="normal"
    units-per-em="1000"
    panose-1="2 0 0 0 0 0 0 0 0 0"
    ascent="748"
    descent="-252"
    x-height="508"
    cap-height="674"
    bbox="-48 -288 1523 936"
    underline-thickness="50"
    underline-position="-50"
    unicode-range="U+000D-FB02"
  />
<missing-glyph horiz-adv-x="751" 
d="M176 0v701h399v-701h-399zM235 646v-591h281v591h-281z" />
    <glyph glyph-name="fi" unicode="fi" horiz-adv-x="643" 
d="M534 519v-407q0 -47 10 -70t31 -33v-9h-168v9q22 10 31.5 33t9.5 70v281q0 39 -13 55t-47 16h-195v-352q0 -47 12 -70t39 -33v-9h-178v9q22 10 31.5 33t9.5 70v352h-78v24l78 3v70q0 96 57.5 148t164.5 52q94 0 153 -31t59 -81q0 -27 -17.5 -45t-44.5 -18
q-25 0 -42.5 16.5t-17.5 43.5q0 43 46 57q-47 31 -129 31q-143 0 -143 -167v-72l304 12z" />
    <glyph glyph-name="fl" unicode="fl" horiz-adv-x="643" 
d="M534 752v-640q0 -47 9.5 -70t31.5 -33v-9h-168v9q22 10 31.5 33t9.5 70v504q0 118 -121 118q-134 0 -134 -167v-66l177 11l-9 -46h-168v-354q0 -47 12 -70t39 -33v-9h-178v9q22 10 31.5 33t9.5 70v354h-78v24l78 5v66q0 95 58 147.5t163 52.5q86 0 141 -31z" />
    <glyph glyph-name=".notdef" horiz-adv-x="751" 
d="M176 0v701h399v-701h-399zM235 646v-591h281v591h-281z" />
    <glyph glyph-name=".null" horiz-adv-x="0" 
 />
    <glyph glyph-name="nonmarkingreturn" horiz-adv-x="333" 
 />
    <glyph glyph-name="NULL" horiz-adv-x="0" 
 />
    <glyph glyph-name="NULL" horiz-adv-x="0" 
 />
    <glyph glyph-name="CR" unicode="&#xd;" horiz-adv-x="0" 
 />
    <glyph glyph-name="space" unicode=" " horiz-adv-x="296" 
 />
    <glyph glyph-name="exclam" unicode="!" horiz-adv-x="316" 
d="M91 60q0 28 19.5 47.5t47.5 19.5t48 -19.5t20 -47.5t-20 -48t-48 -20t-47.5 20t-19.5 48zM164 212h-13l-45 321q-8 59 -8 74q0 35 16 56.5t44 21.5t43 -21.5t15 -56.5q0 -21 -7 -75z" />
    <glyph glyph-name="quotedbl" unicode="&#x22;" horiz-adv-x="381" 
d="M103 706q26 0 39.5 -23.5t13.5 -61.5q0 -53 -41 -190q-4 -13 -6 -19h-12q-2 8 -9 31.5t-9.5 31.5t-7.5 27t-7 27.5t-5 23.5t-4.5 24.5t-2.5 21.5t-1 22q0 38 13 61.5t39 23.5zM277 706q26 0 39 -23.5t13 -61.5q0 -10 -1 -22t-2.5 -21.5t-4.5 -24.5t-5 -23.5t-7 -27.5
t-7.5 -27t-9.5 -31.5t-9 -31.5h-12q-42 139 -46 184q-1 13 -1 25q0 38 13.5 61.5t39.5 23.5z" />
    <glyph glyph-name="numbersign" unicode="#" horiz-adv-x="747" 
d="M446 231l43 204h-185l-43 -204h185zM696 435h-165l-43 -204h174v-38h-182l-41 -193h-42l41 193h-185l-41 -193h-42l41 193h-150v38h158l43 204h-167v38h175l42 201h43l-43 -201h185l42 201h43l-43 -201h157v-38z" />
    <glyph glyph-name="dollar" unicode="$" horiz-adv-x="500" 
d="M265 279l-2 -262q56 7 88 39.5t32 76.5q0 48 -30.5 81t-87.5 65zM235 405l-2 251q-49 -4 -79.5 -34t-30.5 -73q0 -48 29 -81t83 -63zM268 654l-2 -266q98 -52 127 -74q75 -58 75 -139q0 -77 -56.5 -128t-148.5 -57l-1 -109h-24l-1 108q-110 1 -203 50v142h11
q27 -82 80 -122.5t112 -42.5l-2 278q-97 51 -129 77q-70 58 -70 139q0 70 56.5 118t140.5 53l-1 109h37l-1 -108q107 -4 167 -44v-144h-11q-21 71 -63.5 111.5t-92.5 48.5z" />
    <glyph glyph-name="percent" unicode="%" horiz-adv-x="781" 
d="M175 0l385 657h44l-385 -657h-44zM62 496q0 67 38 116t99 49q72 0 105.5 -47.5t33.5 -116.5q0 -71 -36.5 -120t-102.5 -49q-65 0 -101 47t-36 121zM133 496q0 -61 16.5 -103t49.5 -42q67 0 67 145q0 62 -17 102t-50 40q-66 0 -66 -142zM443 164q0 67 38 115.5t99 48.5
q72 0 105.5 -47t33.5 -116q0 -71 -36.5 -120t-102.5 -49q-65 0 -101 47t-36 121zM514 164q0 -61 16.5 -103t49.5 -42q67 0 67 145q0 62 -17 102t-50 40q-66 0 -66 -142z" />
    <glyph glyph-name="ampersand" unicode="&#x26;" horiz-adv-x="801" 
d="M245 340l-6 7q-86 -56 -86 -161q0 -64 41.5 -105t106.5 -41q91 0 167 76q-141 120 -223 224zM335 664q-43 0 -68 -28t-25 -70q0 -67 68 -156q107 59 107 158q0 43 -22.5 69.5t-59.5 26.5zM563 189l-16 -21q118 -97 221 -146v-11q-23 -15 -79 -15q-71 0 -174 82l-26 21
q-103 -109 -229 -109q-93 0 -148 48.5t-55 127.5q0 132 169 198q-69 88 -69 163q0 71 53 117.5t140 46.5q71 0 115.5 -33.5t44.5 -92.5q0 -28 -12.5 -53t-30 -41.5t-45.5 -32.5t-48.5 -25t-50.5 -20q43 -56 112 -124q39 -38 91 -84l13 17q37 52 34.5 91t-41.5 61v11h217v-11
q-53 -17 -92 -52.5t-94 -112.5z" />
    <glyph glyph-name="quotesingle" unicode="'" horiz-adv-x="197" 
d="M103 706q26 0 39.5 -23.5t13.5 -61.5q0 -53 -41 -190q-4 -13 -6 -19h-12q-2 8 -9 31.5t-9.5 31.5t-7.5 27t-7 27.5t-5 23.5t-4.5 24.5t-2.5 21.5t-1 22q0 38 13 61.5t39 23.5z" />
    <glyph glyph-name="parenleft" unicode="(" horiz-adv-x="417" 
d="M154 300q0 -71 11.5 -141.5t37 -140.5t75 -114.5t117.5 -46.5l2 -9q-29 -8 -51 -8q-72 0 -130.5 42.5t-93 110.5t-52.5 147t-18 159q0 79 18 158t52 148t92.5 112t131.5 43q20 0 51 -7l-2 -10q-68 -2 -118 -46t-75.5 -113.5t-36.5 -140t-11 -143.5z" />
    <glyph glyph-name="parenright" unicode=")" horiz-adv-x="417" 
d="M264 300q0 73 -11.5 143.5t-36.5 140t-75.5 113.5t-118.5 46l-2 10q32 7 51 7q73 0 131.5 -43t93 -112t52.5 -147.5t18 -157.5q0 -80 -18 -159t-53 -147.5t-93.5 -111t-130.5 -42.5q-22 0 -51 8l2 9q55 2 98.5 32.5t69.5 76.5t43.5 106.5t24 116t6.5 111.5z" />
    <glyph glyph-name="asterisk" unicode="*" horiz-adv-x="491" 
d="M297 629q0 -21 -19.5 -66.5t-26.5 -87.5q39 21 76 52.5t58 38.5q23 7 46 -0.5t30 -29.5q7 -23 -8.5 -44t-42.5 -27q-18 -4 -66 0t-89 -3q32 -30 74 -55t54 -42q15 -19 14.5 -42.5t-17.5 -38.5q-18 -14 -42.5 -7.5t-38.5 27.5q-12 17 -23.5 65t-29.5 87
q-20 -41 -31.5 -88.5t-22.5 -63.5q-15 -20 -38 -26.5t-43 6.5q-16 13 -17 37t14 44q12 16 54 41.5t73 55.5q-44 7 -90 3t-64 0q-24 6 -40 24.5t-11 41.5q5 22 28 32.5t49 2.5q19 -7 56 -39t76 -52q-8 42 -26.5 87t-18.5 67q0 25 14 44t38 19q23 0 37 -19t14 -44z" />
    <glyph glyph-name="plus" unicode="+" horiz-adv-x="623" 
d="M561 361v-40h-228v-227h-43v227h-228v40h228v224h43v-224h228z" />
    <glyph glyph-name="comma" unicode="," horiz-adv-x="262" 
d="M130 129q32 0 52.5 -23t20.5 -60q0 -58 -43 -112t-98 -78l-4 9q34 21 56.5 57.5t23.5 76.5q-6 -2 -16 -2q-25 1 -42 19t-17 46t19 47.5t48 19.5z" />
    <glyph glyph-name="hyphen" unicode="-" horiz-adv-x="363" 
d="M58 248v54h247v-54h-247z" />
    <glyph glyph-name="period" unicode="." horiz-adv-x="262" 
d="M63 60q0 28 20 47.5t48 19.5t48 -19.5t20 -47.5t-20 -48t-48 -20t-48 20t-20 48z" />
    <glyph glyph-name="slash" unicode="/" horiz-adv-x="413" 
d="M10 -110l341 860h52l-340 -860h-53z" />
    <glyph glyph-name="zero" unicode="0" horiz-adv-x="598" 
d="M300 -10q-121 0 -188.5 88.5t-67.5 245.5q0 163 68.5 253.5t184.5 90.5q120 0 188.5 -89.5t68.5 -250.5q0 -160 -67.5 -249t-186.5 -89zM300 16q73 0 113 84t40 227q0 145 -42 230.5t-114 85.5q-71 -1 -111.5 -86t-40.5 -232q0 -139 42 -224t113 -85z" />
    <glyph glyph-name="one" unicode="1" horiz-adv-x="342" 
d="M223 668v-556q0 -47 10 -70t31 -33v-9h-173v9q22 10 31.5 33t9.5 70v453l-80 -19v9z" />
    <glyph glyph-name="two" unicode="2" horiz-adv-x="500" 
d="M442 0h-423v51q146 119 190 162q133 129 138 249v10q0 77 -35.5 122.5t-97.5 45.5q-91 0 -122 -71q48 -12 48 -58q0 -25 -16.5 -40.5t-41.5 -15.5q-26 0 -43.5 19t-17.5 47q0 58 59.5 102t142.5 44q104 0 164 -55t60 -137q0 -32 -12 -65t-27 -60t-48 -61t-55 -55t-69 -57
t-70 -52t-76 -54h193q114 0 174 58h9z" />
    <glyph glyph-name="three" unicode="3" horiz-adv-x="526" 
d="M149 327v13q208 46 208 173q0 56 -33.5 91.5t-92.5 35.5q-93 0 -127 -66q44 -12 44 -56q0 -24 -16.5 -39.5t-40.5 -15.5q-27 0 -43.5 17.5t-16.5 47.5q0 58 60.5 98.5t146.5 40.5q97 0 158.5 -41t61.5 -111q0 -102 -133 -152q73 -9 117.5 -55t44.5 -115q0 -96 -73.5 -150
t-180.5 -54q-87 1 -149 41.5t-62 97.5q0 30 18 48t45 17q25 1 41.5 -15t16.5 -41q0 -36 -38 -53q35 -66 127 -66q66 0 109 43t43 113q0 155 -181 156q-11 0 -45 -2z" />
    <glyph glyph-name="four" unicode="4" horiz-adv-x="535" 
d="M78 222h241v373zM495 155h-85v-43q0 -48 9 -70.5t31 -32.5v-9h-171v9q22 10 31 32.5t9 70.5v43h-299v51l319 453h71v-437h96z" />
    <glyph glyph-name="five" unicode="5" horiz-adv-x="521" 
d="M232 -11q-87 0 -145 40t-58 99q0 30 18 47.5t44 16.5q25 1 41.5 -15t16.5 -41q0 -39 -38 -53q30 -67 119 -67q76 0 116.5 45.5t40.5 126.5t-43 123t-127 42q-83 0 -149 -37l39 341h350l-13 -71h-325l-7 -204q66 32 146 32q107 0 166 -52.5t59 -148.5q0 -98 -71.5 -161
t-179.5 -63z" />
    <glyph glyph-name="six" unicode="6" horiz-adv-x="559" 
d="M293 -13q-118 0 -183.5 83.5t-65.5 223.5q0 160 90.5 265.5t229.5 105.5q46 0 81 -11l-3 -11q-73 3 -129 -20.5t-89.5 -67.5t-52.5 -95.5t-25 -113.5q30 30 78 55t100 25q90 0 143.5 -56.5t53.5 -144.5q0 -106 -65 -172t-163 -66zM143 315q-1 -12 -1 -36
q0 -111 40 -188.5t114 -77.5q61 0 94.5 49t33.5 128q0 83 -35.5 130.5t-111.5 47.5q-73 0 -134 -53z" />
    <glyph glyph-name="seven" unicode="7" horiz-adv-x="480" 
d="M217 0h-120q36 147 123.5 311.5t174.5 274.5h-188q-117 0 -177 -58h-11l23 129h417v-18q-88 -121 -156 -301t-86 -338z" />
    <glyph glyph-name="eight" unicode="8" horiz-adv-x="561" 
d="M297 19q62 0 101 35.5t39 84.5q0 16 -3.5 30t-12 27t-16.5 23t-23.5 20.5t-25.5 17.5t-31 17.5t-31.5 15t-35 15.5t-33.5 15q-39 -22 -63 -63t-24 -88q0 -67 44 -108.5t115 -41.5zM146 538q0 -32 13 -58t41.5 -47t52 -34t65.5 -32q81 46 81 140q0 58 -33.5 95.5
t-98.5 37.5q-55 0 -88 -29t-33 -73zM337 359q43 -19 68 -32.5t54.5 -36t43.5 -50t14 -62.5q0 -79 -68 -134t-173 -55q-97 0 -164.5 46t-67.5 125q0 63 44.5 108t114.5 63q-68 33 -105.5 71.5t-37.5 97.5q0 77 64 122.5t158 45.5q93 0 152.5 -44.5t59.5 -114.5
q0 -59 -43.5 -97.5t-113.5 -52.5z" />
    <glyph glyph-name="nine" unicode="9" horiz-adv-x="556" 
d="M269 667q119 0 181 -83.5t62 -224.5q0 -161 -82 -265.5t-228 -104.5q-73 0 -111 16l4 11q297 -8 315 297q-24 -32 -68.5 -57t-101.5 -25q-83 0 -142.5 52.5t-59.5 154.5q0 107 67 168t164 61zM413 345q1 11 1 43q0 102 -39.5 177.5t-113.5 75.5q-54 0 -90 -48.5
t-36 -130.5t39 -125.5t114 -43.5q33 0 68 15t57 37z" />
    <glyph glyph-name="colon" unicode=":" horiz-adv-x="262" 
d="M63 449q0 28 20 47.5t48 19.5t48 -19.5t20 -47.5t-20 -48t-48 -20t-48 20t-20 48zM63 61q0 28 20 48t48 20t48 -20t20 -48t-20 -47.5t-48 -19.5t-48 19.5t-20 47.5z" />
    <glyph glyph-name="semicolon" unicode=";" horiz-adv-x="262" 
d="M63 449q0 28 20 47.5t48 19.5t48 -19.5t20 -47.5t-20 -48t-48 -20t-48 20t-20 48zM130 129q32 0 52.5 -23t20.5 -60q0 -58 -43 -112t-98 -78l-4 9q34 21 56.5 57.5t23.5 76.5q-7 -2 -16 -2q-25 2 -42 19.5t-17 45.5t19 47.5t48 19.5z" />
    <glyph glyph-name="less" unicode="&#x3c;" horiz-adv-x="623" 
d="M86 312v38l451 176v-42l-405 -153l403 -152v-42z" />
    <glyph glyph-name="equal" unicode="=" horiz-adv-x="623" 
d="M62 432v39h499v-39h-499zM62 212v39h499v-39h-499z" />
    <glyph glyph-name="greater" unicode="&#x3e;" horiz-adv-x="623" 
d="M537 352v-39l-450 -175v42l403 153l-404 152v42z" />
    <glyph glyph-name="question" unicode="?" horiz-adv-x="510" 
d="M235 127q28 0 48 -19.5t20 -47.5t-19.5 -48t-48.5 -20q-28 0 -47.5 20t-19.5 48t19.5 47.5t47.5 19.5zM226 212l-30 160q89 8 137 45.5t48 103.5q0 64 -37.5 100.5t-104.5 36.5q-44 0 -78 -17.5t-50 -48.5q40 -13 40 -56q0 -24 -17 -39.5t-41 -15.5q-25 0 -42 17.5
t-17 46.5q0 60 60 100t148 40q107 0 167.5 -50.5t60.5 -123.5q0 -77 -56 -125t-146 -61l-26 -113h-16z" />
    <glyph glyph-name="at" unicode="@" horiz-adv-x="894" 
d="M570 354l16 95q-20 25 -61 25q-69 0 -130 -95t-61 -202q0 -106 52 -106q44 0 93 81t91 202zM639 -75l10 -22q-103 -60 -244 -60q-152 0 -249.5 96.5t-97.5 260.5q0 120 58 223t157 163.5t214 60.5q155 0 253 -94t98 -249q0 -111 -59.5 -201.5t-153.5 -90.5
q-114 0 -84 176l9 51q-40 -92 -92 -156t-100 -64t-74 37.5t-26 103.5q0 78 39.5 157t102.5 129.5t126 50.5q77 0 138 -44q-13 -26 -23 -90l-31 -190q-20 -126 49 -126q60 0 99 79t39 174q0 142 -82.5 232t-228.5 90q-147 0 -249.5 -120.5t-102.5 -292.5q0 -157 83.5 -246.5
t211.5 -89.5q120 0 210 52z" />
    <glyph glyph-name="A" unicode="A" horiz-adv-x="682" 
d="M190 234h255l-130 316zM354 685l231 -557q21 -52 40.5 -77t46.5 -42v-9h-197v9q53 23 10 127l-30 72h-275l-19 -47q-45 -115 15 -152v-9h-174v9q66 33 114 148l226 528h12z" />
    <glyph glyph-name="B" unicode="B" horiz-adv-x="622" 
d="M291 26h16q170 0 170 155q0 73 -55.5 113t-157.5 42l-51 1v-240q0 -37 18.5 -54t59.5 -17zM273 648h-60v-290l48 3q178 9 178 145q0 74 -40.5 108t-125.5 34zM80 674h241q102 0 162 -43t60 -123q0 -67 -52 -108t-136 -50q101 -5 164 -48t63 -115q0 -89 -71.5 -138
t-214.5 -49h-216v9q22 10 31 32.5t9 70.5v452q0 82 -40 101v9z" />
    <glyph glyph-name="C" unicode="C" horiz-adv-x="655" 
d="M52 341q0 149 97 246.5t249 97.5q122 0 220 -54v-148h-11q-60 175 -210 175q-106 0 -173 -86t-68 -232q1 -151 70 -238t183 -87q151 0 198 165h11v-140q-73 -51 -214 -51q-155 0 -253.5 94.5t-98.5 257.5z" />
    <glyph glyph-name="D" unicode="D" horiz-adv-x="731" 
d="M292 26h14q125 0 197.5 84t72.5 223q0 145 -76 230t-217 85h-70v-549q0 -39 19 -56t60 -17zM80 674h217q186 0 284 -91t98 -244q0 -150 -102 -244.5t-279 -94.5h-218v9q21 10 30.5 33t9.5 70v450q0 47 -9.5 70t-30.5 33v9z" />
    <glyph glyph-name="E" unicode="E" horiz-adv-x="583" 
d="M538 159h12v-159h-470v9q21 10 30.5 33t9.5 70v450q0 47 -9.5 70t-30.5 33v9h453v-144h-11q-24 63 -65.5 90t-119.5 27h-124v-295l104 5q46 2 70 24t36 68h10v-208h-10q-13 45 -37.5 65.5t-70.5 22.5l-102 5v-234q0 -39 18.5 -56.5t61.5 -17.5h66q83 0 121 29.5t58 103.5
z" />
    <glyph glyph-name="F" unicode="F" horiz-adv-x="562" 
d="M529 674v-144h-11q-23 63 -65 90t-120 27h-120v-312l96 5q46 2 70.5 23.5t37.5 68.5h10v-208h-10q-14 45 -39 65.5t-72 22.5l-93 5v-205q0 -49 12 -71.5t40 -31.5v-9h-185v9q21 10 30.5 33t9.5 70v450q0 47 -9.5 70t-30.5 33v9h449z" />
    <glyph glyph-name="G" unicode="G" horiz-adv-x="704" 
d="M485 328h186v-9q-40 -19 -40 -102v-90q0 -62 13 -83q-98 -55 -237 -55q-156 0 -255.5 93t-99.5 258q0 147 96 246t250 99q126 0 229 -50v-149h-12q-67 172 -218 172q-108 0 -174.5 -90t-66.5 -229q0 -143 68.5 -233.5t181.5 -90.5q67 0 101 26.5t34 86.5v89
q0 47 -12.5 69.5t-43.5 32.5v9z" />
    <glyph glyph-name="H" unicode="H" horiz-adv-x="773" 
d="M693 674v-9q-21 -10 -30.5 -33t-9.5 -70v-450q0 -47 9.5 -70t30.5 -33v-9h-172v9q21 10 30.5 33t9.5 70v213h-348v-213q0 -48 9 -70.5t31 -32.5v-9h-173v9q21 10 30.5 33t9.5 70v450q0 47 -9.5 70t-30.5 33v9h173v-9q-22 -10 -31 -32.5t-9 -70.5v-211h348v211
q0 47 -9.5 70t-30.5 33v9h172z" />
    <glyph glyph-name="I" unicode="I" horiz-adv-x="332" 
d="M213 562v-450q0 -48 9 -70.5t31 -32.5v-9h-173v9q21 10 30.5 33t9.5 70v450q0 47 -9.5 70t-30.5 33v9h173v-9q-22 -10 -31 -32.5t-9 -70.5z" />
    <glyph glyph-name="J" unicode="J" horiz-adv-x="330" 
d="M216 562v-424q0 -118 -33.5 -173.5t-142.5 -93.5l-3 8q46 43 66 102.5t20 154.5v426q0 48 -9 70.5t-31 32.5v9h173v-9q-21 -10 -30.5 -33t-9.5 -70z" />
    <glyph glyph-name="K" unicode="K" horiz-adv-x="666" 
d="M261 320v8l172 209q32 41 34 75.5t-24 52.5v9h181v-9q-72 -30 -147 -119l-145 -166l129 -165q121 -157 195 -192v-9q-23 -25 -70 -25q-44 0 -80.5 30t-94.5 106zM213 562v-450q0 -48 9 -70.5t31 -32.5v-9h-173v9q21 10 30.5 33t9.5 70v450q0 47 -9.5 70t-30.5 33v9h173
v-9q-22 -10 -31 -32.5t-9 -70.5z" />
    <glyph glyph-name="L" unicode="L" horiz-adv-x="566" 
d="M533 185h11v-185h-464v9q40 19 40 103v450q0 48 -9 70.5t-31 32.5v9h173v-9q-22 -10 -31 -32.5t-9 -70.5v-462q0 -39 19 -56.5t64 -17.5h55q85 0 124 35t58 124z" />
    <glyph glyph-name="M" unicode="M" horiz-adv-x="900" 
d="M125 502q1 76 -13.5 111t-47.5 52v9h137l264 -561l223 561h133v-9q-22 -10 -31 -32.5t-9 -70.5v-450q0 -48 9 -70.5t31 -32.5v-9h-173v9q22 10 31 32.5t9 70.5v468l-248 -590h-19l-270 570l8 -384q3 -135 65 -167v-9h-166v9q63 31 64 167z" />
    <glyph glyph-name="N" unicode="N" horiz-adv-x="730" 
d="M610 510l-10 -524h-15l-434 542l7 -357q3 -129 66 -162v-9h-166v9q61 31 64 163l4 319q0 136 -64 174v9h96l420 -535l-2 372q-1 123 -63 154v9h159v-9q-59 -30 -62 -155z" />
    <glyph glyph-name="O" unicode="O" horiz-adv-x="773" 
d="M386 15q106 0 168 90t62 236q0 135 -63 226.5t-167 91.5q-105 0 -167.5 -91t-62.5 -227q0 -145 62.5 -235.5t167.5 -90.5zM385 -11q-152 0 -242.5 95t-90.5 257q0 145 93 244.5t241 99.5q151 0 243 -98.5t92 -245.5q0 -157 -94 -254.5t-242 -97.5z" />
    <glyph glyph-name="P" unicode="P" horiz-adv-x="597" 
d="M80 674h210q130 0 200.5 -52t70.5 -145q0 -100 -71.5 -154t-184.5 -55q-29 0 -52 4v10q204 14 204 190q0 175 -198 175h-46v-535q0 -47 9.5 -70t30.5 -33v-9h-173v9q22 10 31 32.5t9 70.5v450q0 47 -9.5 70t-30.5 33v9z" />
    <glyph glyph-name="Q" unicode="Q" horiz-adv-x="773" 
d="M156 341q0 -145 62.5 -235.5t167.5 -90.5q106 0 168 90t62 236q0 135 -63 226.5t-167 91.5q-105 0 -167.5 -91t-62.5 -227zM749 -123l4 -9q-45 -51 -122 -51q-136 0 -261 172q-146 5 -232 99.5t-86 252.5q0 145 93 244.5t241 99.5q151 0 243 -98.5t92 -245.5
q0 -150 -85.5 -246t-223.5 -105q72 -47 165 -78t172 -35z" />
    <glyph glyph-name="R" unicode="R" horiz-adv-x="637" 
d="M571 -11q-45 0 -82.5 29.5t-107.5 117.5q-22 27 -134 173v9q99 7 150 50.5t51 115.5q0 79 -48 121t-140 42h-47v-535q0 -48 9 -70.5t31 -32.5v-9h-173v9q22 10 31 32.5t9 70.5v450q0 47 -9.5 70t-30.5 33v9h210q128 0 195 -49t67 -136q0 -76 -56 -120t-144 -55l91 -108
q81 -97 120 -133.5t74 -51.5l-1 -9q-23 -23 -65 -23z" />
    <glyph glyph-name="S" unicode="S" horiz-adv-x="500" 
d="M61 189q29 -85 78.5 -128.5t105.5 -44.5q61 0 93.5 33t32.5 82q0 37 -18 66.5t-46.5 50.5t-63.5 40t-69.5 40t-63 44.5t-46.5 59t-18 79.5q0 76 57.5 124.5t146.5 48.5q110 0 177 -44v-144h-11q-24 80 -70.5 121t-101.5 41q-53 0 -84 -31t-31 -77q0 -50 33.5 -88t81 -64
t95 -53.5t81 -71t33.5 -101.5q0 -79 -56.5 -131t-150.5 -52q-98 0 -196 50v150h11z" />
    <glyph glyph-name="T" unicode="T" horiz-adv-x="611" 
d="M27 674h557v-179h-11q-16 73 -53 113t-109 40h-61v-536q0 -48 9 -70.5t31 -32.5v-9h-173v9q22 10 31 32.5t9 70.5v536h-57q-73 0 -110 -40t-52 -113h-11v179z" />
    <glyph glyph-name="U" unicode="U" horiz-adv-x="705" 
d="M368 -9q-118 0 -187 54.5t-69 173.5v343q0 48 -9 70.5t-31 32.5v9h173v-9q-22 -10 -31 -32.5t-9 -70.5v-333q0 -198 182 -198q84 0 129.5 48t44.5 143l-3 285q-1 122 -71 158v9h181v-9q-68 -34 -72 -159l-6 -286q-3 -114 -60 -171.5t-162 -57.5z" />
    <glyph glyph-name="V" unicode="V" horiz-adv-x="671" 
d="M205 665q-46 -31 -7 -125l167 -413l140 370q48 127 -11 168v9h175v-9q-35 -15 -63.5 -54.5t-61.5 -118.5l-206 -503h-12l-231 563q-36 85 -85 113v9h195v-9z" />
    <glyph glyph-name="W" unicode="W" horiz-adv-x="1020" 
d="M746 134l117 362q20 74 12.5 113t-34.5 56v9h173v-9q-34 -16 -59 -56t-53 -118l-182 -502h-12l-197 497l-201 -497h-11l-205 559q-21 54 -37 78t-43 39v9h195v-9q-48 -32 -12 -129l141 -404l154 402l-8 21q-20 50 -37 73t-43 37v9h196v-9q-51 -30 -14 -125z" />
    <glyph glyph-name="X" unicode="X" horiz-adv-x="679" 
d="M381 369l170 -249q32 -47 58 -73t54 -38v-9h-218v9q24 12 24 39t-26 67l-135 199l-116 -174q-32 -52 -28.5 -84.5t33.5 -46.5v-9h-189v9q63 22 142 132l144 194l-149 219q-34 50 -57.5 75t-50.5 36v9h214v-9q-51 -29 0 -105l116 -170l87 132q36 60 34 95t-32 48v9h187v-9
q-61 -21 -148 -140z" />
    <glyph glyph-name="Y" unicode="Y" horiz-adv-x="628" 
d="M442 674h176v-9q-60 -28 -129 -150l-124 -220v-183q0 -47 9.5 -70t30.5 -33v-9h-173v9q22 10 31 32.5t9 70.5v162l-156 274q-31 54 -52 79t-46 38v9h205v-9q-53 -35 -1 -125l127 -219l103 198q27 55 24 93t-34 53v9z" />
    <glyph glyph-name="Z" unicode="Z" horiz-adv-x="580" 
d="M536 188h11v-188h-515v9l400 645l-180 -5q-83 -3 -124.5 -39t-63.5 -115h-11v179h493v-9l-401 -644l185 6q93 4 139 41.5t67 119.5z" />
    <glyph glyph-name="bracketleft" unicode="[" horiz-adv-x="349" 
d="M329 723h-123v-848h123v-27h-214v902h214v-27z" />
    <glyph glyph-name="backslash" unicode="\" horiz-adv-x="413" 
d="M62 750l341 -860h-52l-341 860h52z" />
    <glyph glyph-name="bracketright" unicode="]" horiz-adv-x="349" 
d="M235 750v-902h-215v27h124v848h-124v27h215z" />
    <glyph glyph-name="asciicircum" unicode="^" horiz-adv-x="508" 
d="M232 594h38l143 -262h-42l-120 222l-115 -221h-40z" />
    <glyph glyph-name="underscore" unicode="_" horiz-adv-x="527" 
d="M10 -70v54h507v-54h-507z" />
    <glyph glyph-name="grave" unicode="`" 
d="M148 734h116l80 -155h-26z" />
    <glyph glyph-name="a" unicode="a" horiz-adv-x="534" 
d="M344 95v152q-24 4 -42 4q-75 0 -116 -32.5t-41 -88.5q0 -42 25 -67.5t66 -25.5q64 0 108 58zM491 39h15v-10q-32 -35 -83 -35q-30 0 -50.5 18.5t-26.5 53.5q-55 -76 -151 -76q-63 0 -102.5 35.5t-39.5 96.5q0 72 58.5 114.5t160.5 42.5q39 0 72 -5v87q0 133 -103 133
q-65 0 -95 -41q38 -14 38 -51q0 -23 -16 -38.5t-39 -15.5t-38.5 16t-15.5 41q0 50 51 82t123 32q181 0 181 -161v-254q0 -37 12.5 -51t48.5 -14z" />
    <glyph glyph-name="b" unicode="b" horiz-adv-x="609" 
d="M559 277q0 -139 -77 -213t-198 -74q-103 0 -177 40v586q0 64 -44 82v10l130 44v-330q68 97 167 97q92 0 145.5 -68.5t53.5 -173.5zM193 58q15 -17 42.5 -29t55.5 -12q81 0 128 58.5t47 168.5q0 99 -41 154.5t-109 55.5t-123 -55v-341z" />
    <glyph glyph-name="c" unicode="c" horiz-adv-x="519" 
d="M489 99q-72 -110 -198 -110q-106 0 -173.5 73t-67.5 187q0 118 75 194t182 76q75 0 122.5 -33.5t47.5 -81.5q0 -27 -17 -44.5t-42 -17.5q-24 0 -40 16t-16 41q0 37 39 52q-30 41 -92 41q-76 0 -121.5 -63.5t-45.5 -155.5q0 -105 55 -165t134 -60q40 0 81 16.5t70 43.5z
" />
    <glyph glyph-name="d" unicode="d" horiz-adv-x="614" 
d="M421 107v283q-24 103 -121 103q-71 0 -113.5 -59t-42.5 -172q0 -99 42.5 -154.5t112.5 -55.5q33 0 67 16t55 39zM507 752v-629q0 -75 44 -94v-9l-130 -30v93q-7 -10 -16.5 -20.5t-31 -30t-51.5 -31.5t-62 -12q-96 0 -152.5 68.5t-56.5 180.5q0 127 67 204t180 77
q74 0 123 -32v137q0 65 -52 82v10z" />
    <glyph glyph-name="e" unicode="e" horiz-adv-x="535" 
d="M144 304l255 16q-2 75 -29 124t-86 49q-62 0 -98 -52.5t-42 -136.5zM486 115l8 -9q-80 -117 -207 -117q-108 0 -172.5 70.5t-64.5 189.5q0 120 65 195t169 75q103 0 152.5 -58.5t49.5 -154.5v-25h-343v-8q0 -112 50.5 -169t128.5 -57q90 0 164 68z" />
    <glyph glyph-name="f" unicode="f" horiz-adv-x="351" 
d="M108 495v98q0 79 38.5 123.5t112.5 44.5q55 0 92.5 -26.5t37.5 -64.5q0 -27 -15.5 -43t-39.5 -16q-22 0 -37.5 14.5t-15.5 37.5q0 18 11.5 31.5t29.5 18.5q-18 21 -55 21q-40 0 -56.5 -34.5t-16.5 -100.5v-98l161 11l-9 -46h-152v-354q0 -47 12 -70t39 -33v-9h-178v9
q22 10 31.5 33t9.5 70v354h-78v24z" />
    <glyph glyph-name="g" unicode="g" horiz-adv-x="556" 
d="M362 -9h-136q-32 0 -56 6q-57 -37 -57 -98q0 -52 39.5 -81.5t104.5 -29.5q83 0 138.5 38.5t55.5 102.5q0 33 -21.5 47.5t-67.5 14.5zM260 495q-48 0 -79 -41t-31 -105q0 -70 31.5 -112.5t78.5 -42.5t78.5 41t31.5 106t-31.5 109.5t-78.5 44.5zM235 74h131q81 0 118 -25
t37 -82q0 -81 -86 -149t-211 -68q-87 0 -136 35t-49 92q0 42 30.5 77t77.5 50q-50 22 -50 72q0 35 23.5 62t52.5 43q-51 18 -81 59.5t-30 99.5q0 78 57.5 128.5t149.5 50.5q68 0 116 -31q30 81 94 81q25 0 39.5 -14t14.5 -34t-12 -33t-33 -13q-35 0 -47 34q-24 -4 -41 -31
q58 -47 58 -129q0 -79 -58.5 -129.5t-149.5 -50.5q-30 0 -55 6q-29 -31 -29 -56q0 -45 69 -45z" />
    <glyph glyph-name="h" unicode="h" horiz-adv-x="632" 
d="M194 392v-280q0 -48 9 -70.5t31 -32.5v-9h-167v9q22 10 31.5 33t9.5 70v504q0 64 -44 82v10l130 44v-338q97 105 201 105q74 0 103.5 -40t29.5 -112v-255q0 -47 9.5 -70t31.5 -33v-9h-167v9q22 10 31 32.5t9 70.5v227q0 59 -23 85.5t-73 26.5q-67 0 -152 -59z" />
    <glyph glyph-name="i" unicode="i" horiz-adv-x="301" 
d="M194 519v-407q0 -47 9.5 -70t31.5 -33v-9h-168v9q22 10 31.5 33t9.5 70v274q0 59 -44 79v10zM84 655q0 25 19 44t44 19t44 -19t19 -44t-19 -44t-44 -19t-44 19t-19 44z" />
    <glyph glyph-name="j" unicode="j" horiz-adv-x="301" 
d="M108 21v365q0 59 -44 79v10l130 44v-494q0 -112 -39.5 -181.5t-141.5 -99.5l-4 8q99 85 99 269zM83 655q0 25 18.5 44t44.5 19t44.5 -19t18.5 -44t-18.5 -44t-44.5 -19t-44.5 19t-18.5 44z" />
    <glyph glyph-name="k" unicode="k" horiz-adv-x="570" 
d="M194 752v-640q0 -47 9.5 -70t31.5 -33v-9h-168v9q22 10 31.5 33t9.5 70v504q0 64 -44 82v10zM225 258l109 123q35 40 36 72.5t-31 45.5v9h198v-9q-82 -31 -171 -121l-75 -78l121 -139q61 -70 92 -100t62 -48v-8q-21 -16 -52 -16q-39 0 -71.5 21.5t-81.5 77.5l-136 160v10
z" />
    <glyph glyph-name="l" unicode="l" horiz-adv-x="301" 
d="M194 752v-640q0 -47 9.5 -70t31.5 -33v-9h-168v9q22 10 31.5 33t9.5 70v504q0 64 -44 82v10z" />
    <glyph glyph-name="m" unicode="m" horiz-adv-x="939" 
d="M836 367v-255q0 -47 9.5 -70t31.5 -33v-9h-168v9q22 10 31.5 33t9.5 70v227q0 112 -92 112q-70 0 -144 -59q1 -7 1 -23v-257q0 -48 9 -70.5t31 -32.5v-9h-166v9q21 10 30.5 33t9.5 70v227q0 59 -22.5 85.5t-68.5 26.5q-62 0 -144 -59v-280q0 -48 9 -70.5t31 -32.5v-9
h-167v9q22 10 31.5 33t9.5 70v276q0 58 -44 80v9l130 44v-107q39 47 91 76t101 29q107 0 126 -107q92 107 194 107q130 0 130 -152z" />
    <glyph glyph-name="n" unicode="n" horiz-adv-x="632" 
d="M194 392v-280q0 -48 9 -70.5t31 -32.5v-9h-167v9q22 10 31.5 33t9.5 70v276q0 58 -44 80v9l130 44v-107q97 105 201 105q133 0 133 -152v-255q0 -47 10 -70t31 -33v-9h-167v9q22 10 31 32.5t9 70.5v227q0 59 -23 85.5t-73 26.5q-70 0 -152 -59z" />
    <glyph glyph-name="o" unicode="o" horiz-adv-x="598" 
d="M549 259q0 -122 -70.5 -196t-185.5 -74q-110 0 -176.5 72t-66.5 185q0 123 69 198t186 75q112 0 178 -73t66 -187zM144 268q0 -110 44.5 -181t118.5 -71q65 0 106 60.5t41 165.5q0 114 -44.5 182.5t-118.5 68.5q-65 0 -106 -62.5t-41 -162.5z" />
    <glyph glyph-name="p" unicode="p" horiz-adv-x="611" 
d="M194 400v-282q26 -102 120 -102q71 0 113 58t42 171q0 98 -42.5 155t-112.5 57q-34 0 -67 -16.5t-53 -40.5zM194 521v-97q5 8 15 20t30.5 30.5t51 31.5t62.5 13q97 0 153 -69.5t56 -180.5q0 -126 -67 -203t-180 -77q-71 0 -121 31v-149q0 -47 12 -70t39 -33v-9h-178v9
q21 10 31 33t10 70v515q0 60 -44 82v9z" />
    <glyph glyph-name="q" unicode="q" horiz-adv-x="599" 
d="M413 -129v212q-4 -7 -14.5 -19.5t-30.5 -31t-50 -31t-62 -12.5q-96 0 -153 68.5t-57 180.5q0 129 71.5 205t190.5 76q124 0 209 -58q-18 -35 -18 -119v-471q0 -83 41 -103v-9h-178v9q27 11 39 33.5t12 69.5zM300 493q-76 0 -118.5 -59t-42.5 -169q0 -102 43 -157.5
t110 -55.5q33 0 66 16t55 39v336q-44 50 -113 50z" />
    <glyph glyph-name="r" unicode="r" horiz-adv-x="422" 
d="M194 409q38 51 79 81t75 29q29 1 46.5 -17t17.5 -43q0 -27 -17 -44.5t-43 -17.5q-23 0 -40 17.5t-18 44.5q-18 -2 -46.5 -24.5t-53.5 -53.5v-269q0 -47 12 -69.5t41 -33.5v-9h-180v9q22 10 31.5 33t9.5 70v276q0 58 -44 80v9l130 44v-112z" />
    <glyph glyph-name="s" unicode="s" horiz-adv-x="452" 
d="M223 -9q-69 -2 -122 25t-53 69q0 23 14.5 38.5t37.5 15.5t38 -14t15 -35q0 -30 -24 -44q30 -31 94 -31q52 0 82.5 24t30.5 64t-29 67.5t-70 44.5t-82 35t-70 51t-29 81q0 59 50 98t129 39q71 0 115 -28t44 -67q0 -22 -14 -37.5t-37 -15.5t-38 14t-15 36q0 33 28 46
q-24 27 -89 27q-48 0 -72.5 -22t-24.5 -55q0 -36 28.5 -61.5t69 -42t81.5 -35t69.5 -52.5t28.5 -82q0 -66 -54 -110.5t-132 -42.5z" />
    <glyph glyph-name="t" unicode="t" horiz-adv-x="358" 
d="M343 64l5 -9q-23 -26 -59 -42.5t-71 -16.5q-110 0 -110 135v335h-78v24q107 42 141 156h23v-144l146 10l-9 -46h-137v-321q0 -52 16.5 -74.5t55.5 -22.5q41 0 77 16z" />
    <glyph glyph-name="u" unicode="u" horiz-adv-x="621" 
d="M427 116v272q0 64 -44 83v10l130 40v-398q0 -75 44 -94v-9l-130 -30v104q-89 -105 -188 -105q-135 0 -135 152v247q0 63 -44 83v10l130 40v-353q0 -58 22.5 -84.5t71.5 -26.5q66 0 143 59z" />
    <glyph glyph-name="v" unicode="v" horiz-adv-x="536" 
d="M264 -11l-166 389q-40 92 -84 121v9h185v-9q-26 -17 -26.5 -47.5t19.5 -74.5l112 -273l87 250q39 112 -14 145v9h153v-9q-30 -15 -54 -49t-51 -104l-141 -357h-20z" />
    <glyph glyph-name="w" unicode="w" horiz-adv-x="816" 
d="M654 508h152v-9q-30 -17 -53.5 -51.5t-47.5 -105.5l-124 -353h-20l-152 361l-140 -361h-20l-147 380q-22 57 -38 83.5t-46 46.5v9h183v-9q-25 -17 -26 -48.5t16 -74.5l99 -274l103 287q-30 78 -76 110v9h183v-9q-48 -32 -10 -126l109 -271l73 248q35 116 -18 149v9z" />
    <glyph glyph-name="x" unicode="x" horiz-adv-x="577" 
d="M324 283l135 -178q59 -77 100 -96v-9h-196v9q46 24 -10 99l-91 121l-76 -108q-28 -41 -27 -70.5t27 -41.5v-9h-176v9q35 15 64 40.5t70 73.5l104 124l-116 155q-33 43 -54.5 64.5t-44.5 32.5v9h194v-9q-23 -12 -21.5 -37.5t27.5 -58.5l77 -102l60 84q30 45 28.5 73
t-27.5 41v9h176v-9q-64 -27 -143 -121z" />
    <glyph glyph-name="y" unicode="y" horiz-adv-x="540" 
d="M266 -8l-163 375q-25 55 -43.5 84.5t-45.5 47.5v9h185v-9q-19 -13 -23.5 -34t1 -44.5t20.5 -59.5l109 -262l83 232q47 134 -9 168v9h154v-9q-30 -15 -53.5 -51t-54.5 -115l-121 -304q-67 -280 -210 -280q-60 0 -100 43v9q42 2 76.5 10t73.5 27.5t70 58.5t51 95z" />
    <glyph glyph-name="z" unicode="z" horiz-adv-x="498" 
d="M460 508v-13l-317 -477l132 7q75 5 111.5 35.5t51.5 93.5h11v-154h-411v13l316 478l-136 -7q-71 -4 -102 -32t-48 -91h-11v147h403z" />
    <glyph glyph-name="braceleft" unicode="{" horiz-adv-x="375" 
d="M38 306h8q42 0 69.5 31.5t27.5 79.5q0 39 -10.5 94.5t-10.5 89.5q0 73 46 115.5t114 42.5q43 0 73 -15l-4 -10q-12 2 -24 2q-50 0 -80 -30t-30 -76q0 -38 11.5 -96t11.5 -92q0 -58 -33 -97t-78 -46q46 -8 78.5 -47t32.5 -97q0 -35 -11.5 -92t-11.5 -95q0 -47 30 -77
t80 -30q6 0 24 3l4 -10q-27 -15 -73 -15q-68 0 -114 42.5t-46 114.5q0 34 10.5 90t10.5 94q0 48 -28 80t-69 32h-8v14z" />
    <glyph glyph-name="bar" unicode="|" horiz-adv-x="283" 
d="M168 -250h-53v1000h53v-1000z" />
    <glyph glyph-name="braceright" unicode="}" horiz-adv-x="375" 
d="M337 292h-8q-41 0 -68.5 -32t-27.5 -80q0 -38 10.5 -94t10.5 -90q0 -72 -46.5 -114.5t-114.5 -42.5q-45 0 -73 15l4 10q18 -3 24 -3q51 0 81 30t30 77q0 37 -12 94.5t-12 92.5q0 58 32.5 97t78.5 47q-45 7 -78 46t-33 97q0 34 12 92t12 96q0 46 -30 76t-81 30
q-12 0 -24 -2l-4 10q30 15 73 15q69 0 115 -42.5t46 -115.5q0 -34 -10.5 -89.5t-10.5 -94.5q0 -48 27.5 -79.5t68.5 -31.5h8v-14z" />
    <glyph glyph-name="asciitilde" unicode="~" horiz-adv-x="623" 
d="M43 184v11q3 71 41.5 122t112.5 51q41 0 82 -22.5t81 -45t79 -22.5q93 0 129 92h12q1 -5 1 -16q-3 -71 -43 -120t-114 -49q-48 0 -122 44.5t-119 44.5q-49 0 -81.5 -25.5t-46.5 -64.5h-12z" />
    <glyph glyph-name="uni00A0" unicode="&#xa0;" horiz-adv-x="296" 
 />
    <glyph glyph-name="exclamdown" unicode="&#xa1;" horiz-adv-x="316" 
d="M164 298l45 -320q7 -54 7 -75q0 -34 -15 -55.5t-43 -21.5t-44 21.5t-16 55.5q0 14 8 75l45 320h13zM91 451q0 28 19.5 47.5t47.5 19.5t48 -19.5t20 -47.5t-20 -48t-48 -20t-47.5 20t-19.5 48z" />
    <glyph glyph-name="cent" unicode="&#xa2;" horiz-adv-x="508" 
d="M277 55l-5 434q-58 -13 -94 -74t-36 -142q0 -86 38.5 -143t96.5 -75zM466 108l8 -9q-68 -102 -174 -109l-1 -110h-20l-1 109q-99 2 -163.5 75t-64.5 185q0 109 64.5 183t157.5 85l-1 109h35l-1 -107q73 -1 114 -32t41 -76q0 -25 -16.5 -42.5t-40.5 -17.5t-40.5 16
t-16.5 41q0 39 37 52q-25 31 -78 32l-4 -442q14 -2 22 -2q78 0 143 60z" />
    <glyph glyph-name="sterling" unicode="&#xa3;" horiz-adv-x="510" 
d="M467 143h11v-143h-432v12q100 49 100 204q0 41 -15 92l-97 2v22l88 2q-30 88 -30 133q0 85 61 141.5t165 56.5q66 0 108 -29t42 -73q0 -29 -17.5 -46t-41.5 -17q-25 0 -41.5 17t-16.5 41q0 42 42 53q-7 11 -26.5 19t-41.5 8q-63 0 -99 -42.5t-36 -100.5q0 -57 34 -159
l182 3v-36l-173 3q13 -48 13 -78q0 -105 -117 -181l205 14q64 5 90.5 23t42.5 59z" />
    <glyph glyph-name="currency" unicode="&#xa4;" horiz-adv-x="582" 
d="M290 183q60 0 101 42.5t41 101.5q0 61 -41 103.5t-101 42.5q-61 0 -102.5 -42.5t-41.5 -103.5q0 -59 41.5 -101.5t102.5 -42.5zM506 147l-27 -28l-73 71q-51 -43 -117 -43q-64 0 -116 42l-62 -61l-27 28l62 62q-38 49 -38 110q0 67 44 118l-65 65l28 29l66 -67
q47 36 108 36q63 0 110 -38l72 72l28 -27l-71 -71q42 -52 42 -117q0 -61 -37 -109z" />
    <glyph glyph-name="yen" unicode="&#xa5;" horiz-adv-x="628" 
d="M442 673h176v-10q-60 -26 -129 -150l-64 -113l141 2v-32l-157 1l-44 -78v-25l201 2v-32l-201 2v-128q0 -47 9.5 -70t30.5 -33v-9h-173v9q22 10 31 32.5t9 70.5v128l-193 2v23l193 2v6l-57 99l-136 2v23l122 1l-85 148q-31 55 -52 80t-46 37v10h205v-10q-27 -19 -26 -51.5
t25 -73.5l127 -219l103 198q27 56 24 94t-34 52v10z" />
    <glyph glyph-name="brokenbar" unicode="&#xa6;" horiz-adv-x="283" 
d="M168 331h-53v419h53v-419zM115 168h53v-418h-53v418z" />
    <glyph glyph-name="section" unicode="&#xa7;" horiz-adv-x="587" 
d="M138 301q0 -31 15.5 -55.5t45.5 -43.5t59.5 -32.5t71.5 -31.5t67 -32q51 42 51 98q0 32 -16 57.5t-46 44.5t-59.5 32.5t-71.5 31t-67 30.5q-21 -16 -35.5 -43.5t-14.5 -55.5zM416 95q85 -50 85 -125q0 -74 -60 -114t-144 -40t-145.5 34t-61.5 83q0 25 15.5 41t40.5 16
q24 0 40 -15.5t16 -39.5q0 -29 -22 -46q14 -19 46 -32.5t73 -13.5q58 0 89 24t31 66q0 36 -36 65.5t-87 51.5t-102.5 46.5t-87.5 64.5t-36 92q0 51 28.5 92t69.5 66q-77 48 -77 117q0 74 59.5 114t137.5 40q81 0 141 -33t60 -82q0 -24 -15.5 -40t-39.5 -16t-40 15.5
t-16 39.5q0 30 22 45q-14 18 -43 31t-65 13q-55 0 -86 -25t-31 -67q0 -37 35 -65t85.5 -48t101 -42.5t85.5 -61.5t35 -92q0 -99 -101 -159z" />
    <glyph glyph-name="dieresis" unicode="&#xa8;" 
d="M463 656q0 -25 -17 -42t-42 -17t-42 17t-17 42t17 42.5t42 17.5t42 -17.5t17 -42.5zM255 656q0 -25 -17 -42t-42 -17t-42 17t-17 42t17 42.5t42 17.5t42 -17.5t17 -42.5z" />
    <glyph glyph-name="copyright" unicode="&#xa9;" horiz-adv-x="787" 
d="M228 341q0 74 52.5 123.5t129.5 49.5q58 0 110 -25v-93h-9q-30 97 -102 97q-48 0 -83.5 -41.5t-35.5 -111.5q0 -72 35.5 -115t83.5 -43q39 0 66.5 26t39.5 71h10v-92q-52 -25 -115 -25q-77 0 -129.5 48t-52.5 131zM54 328q0 141 100 240.5t240 99.5q142 0 241 -99.5
t99 -240.5t-99.5 -240.5t-240.5 -99.5q-140 0 -240 100t-100 240zM89 328q0 -127 88 -218t216 -91q129 0 217.5 91t88.5 218t-88.5 218.5t-217.5 91.5q-128 0 -216 -91.5t-88 -218.5z" />
    <glyph glyph-name="ordfeminine" unicode="&#xaa;" horiz-adv-x="399" 
d="M245 407v96q-16 2 -25 2q-47 0 -72.5 -21t-25.5 -57q0 -27 15.5 -43t40.5 -16q38 0 67 39zM358 371l1 -9q-22 -27 -60 -27q-43 0 -52 45q-34 -47 -96 -47q-43 0 -70.5 24t-27.5 64q0 49 39 77t108 28q26 0 45 -4v59q0 82 -64 82q-41 0 -59 -23q25 -9 25 -35
q0 -16 -11 -26t-30 -10q-17 0 -28 11t-11 27q0 34 35 55.5t84 21.5q122 0 122 -108v-166q0 -23 7.5 -31.5t28.5 -8.5q9 0 14 1z" />
    <glyph glyph-name="guillemotleft" unicode="&#xab;" horiz-adv-x="510" 
d="M252 263q112 64 202 180l16 -12l-112 -178l112 -178l-16 -12q-90 116 -202 180v20zM48 263q112 64 202 180l16 -12l-113 -178l113 -178l-16 -12q-90 116 -202 180v20z" />
    <glyph glyph-name="logicalnot" unicode="&#xac;" horiz-adv-x="597" 
d="M62 450h473v-228h-43v188h-430v40z" />
    <glyph glyph-name="uni00AD" unicode="&#xad;" horiz-adv-x="363" 
d="M58 248v54h247v-54h-247z" />
    <glyph glyph-name="registered" unicode="&#xae;" horiz-adv-x="787" 
d="M263 512h127q65 0 100.5 -25t35.5 -72q0 -42 -28 -67t-77 -32q86 -100 138 -146l-3 -4q-12 -9 -29 -9q-22 0 -42 14.5t-57 56.5l-72 88l2 8q54 2 80 27.5t26 64.5q0 78 -94 78h-31v-265q0 -37 22 -57v-6h-98v6q22 17 22 57v220q0 39 -22 59v4zM393 19q129 0 217.5 91
t88.5 218t-88.5 218.5t-217.5 91.5q-128 0 -216 -91.5t-88 -218.5t88 -218t216 -91zM394 668q142 0 241 -99.5t99 -240.5t-99.5 -240.5t-240.5 -99.5q-140 0 -240 100t-100 240q0 141 100 240.5t240 99.5z" />
    <glyph glyph-name="macron" unicode="&#xaf;" 
d="M146 637v38h307v-38h-307z" />
    <glyph glyph-name="degree" unicode="&#xb0;" horiz-adv-x="458" 
d="M66 510q0 74 46 119t123 45q72 0 115 -40.5t42 -107.5q1 -74 -45 -119t-123 -45q-72 0 -115 40.5t-43 107.5zM319 508q2 62 -24.5 100t-69.5 38q-39 0 -62.5 -32.5t-23.5 -85.5q0 -62 26 -100t68 -38q40 0 63.5 32t22.5 86z" />
    <glyph glyph-name="plusminus" unicode="&#xb1;" horiz-adv-x="623" 
d="M62 71v39h499v-39h-499zM333 402h228v-40h-228v-183h-43v183h-228v40h228v183h43v-183z" />
    <glyph glyph-name="twosuperior" unicode="&#xb2;" horiz-adv-x="290" 
d="M253 338h-235v32q92 70 131.5 114t39.5 97q0 37 -16.5 58.5t-46.5 21.5q-35 0 -50 -27q22 -7 22 -32q0 -15 -10.5 -25t-26.5 -10q-17 0 -28.5 11t-11.5 28q0 31 32.5 54.5t78.5 23.5q58 0 91 -29.5t33 -72.5q0 -50 -44.5 -95.5t-130.5 -103.5h81q59 0 89 30h15z" />
    <glyph glyph-name="threesuperior" unicode="&#xb3;" horiz-adv-x="339" 
d="M113 501v13q51 13 78 32.5t27 53.5q0 27 -14 44t-42 17q-41 0 -58 -27q21 -8 21 -30q0 -15 -10 -24.5t-26 -9.5q-17 0 -28 10.5t-11 26.5q0 32 33.5 54t81.5 22q53 0 87.5 -22.5t34.5 -60.5q0 -50 -66 -76q37 -7 58.5 -30t21.5 -57q0 -49 -41 -78.5t-97 -29.5
q-49 1 -83 22t-34 53q0 16 10.5 27t28.5 11q17 0 27.5 -10t10.5 -24q0 -20 -19 -29q17 -27 59 -27q29 0 49.5 20.5t20.5 54.5q0 38 -21.5 56t-73.5 18h-25z" />
    <glyph glyph-name="acute" unicode="&#xb4;" 
d="M337 734h117l-171 -155h-26z" />
    <glyph glyph-name="uni00B5" unicode="&#xb5;" horiz-adv-x="622" 
d="M514 521v-398q0 -74 44 -94v-9l-130 -30v104q-85 -104 -184 -104q-51 0 -84 24q6 -58 20.5 -112t14.5 -72q0 -41 -44 -41q-47 0 -47 58v541q0 63 -44 83v10l130 40v-351q0 -59 23.5 -86t73.5 -27q66 0 141 59v272q0 64 -44 83v10z" />
    <glyph glyph-name="paragraph" unicode="&#xb6;" horiz-adv-x="498" 
d="M472 674v-11q-44 -28 -44 -109v-526q0 -212 -175 -212q-67 0 -114 30.5t-47 85.5q0 33 21 54.5t51 21.5q33 0 55 -22.5t22 -56.5q0 -41 -28 -59q2 -14 17.5 -22.5t33.5 -8.5q54 0 74.5 48.5t20.5 134.5v633l-101 -12v-412q-42 0 -78.5 10.5t-70 34.5t-52.5 69t-19 108
q0 103 67.5 162t168.5 59h198z" />
    <glyph glyph-name="periodcentered" unicode="&#xb7;" 
d="M362 355q0 -25 -18 -43.5t-44 -18.5t-44 18.5t-18 43.5t18 43.5t44 18.5t44 -18.5t18 -43.5z" />
    <glyph glyph-name="cedilla" unicode="&#xb8;" 
d="M199 -192l5 18q34 -16 64 -16q26 0 42.5 13t16.5 36t-20.5 40t-63.5 20l52 83h40l-28 -64q43 -4 68.5 -25.5t25.5 -50.5q0 -37 -28 -59t-75 -22q-57 0 -99 27z" />
    <glyph glyph-name="onesuperior" unicode="&#xb9;" horiz-adv-x="219" 
d="M142 685v-285q0 -43 21 -54v-8h-107v8q21 10 21 54v214l-41 -10v11z" />
    <glyph glyph-name="ordmasculine" unicode="&#xba;" horiz-adv-x="422" 
d="M46 501q0 82 45 133t124 51q76 0 118.5 -49t42.5 -127q0 -82 -45.5 -132t-123.5 -50q-75 0 -118 48.5t-43 125.5zM118 516q0 -71 26.5 -117.5t71.5 -46.5q40 0 64 39t24 107q0 75 -26 118.5t-72 43.5q-39 0 -63.5 -40t-24.5 -104z" />
    <glyph glyph-name="guillemotright" unicode="&#xbb;" horiz-adv-x="510" 
d="M357 253l-113 178l16 12q90 -116 202 -180v-20q-112 -64 -202 -180l-16 12zM152 253l-112 178l16 12q90 -116 202 -180v-20q-112 -64 -202 -180l-16 12z" />
    <glyph glyph-name="onequarter" unicode="&#xbc;" horiz-adv-x="590" 
d="M60 338v8q21 10 21 54v214l-42 -10v11l106 70v-285q0 -43 21 -54v-8h-106zM383 657h50l-272 -657h-50zM342 111h102v156zM545 72h-41v-10q0 -43 21 -54v-8h-102v8q21 10 21 54v10h-151v27l163 224h48v-212h47z" />
    <glyph glyph-name="onehalf" unicode="&#xbd;" horiz-adv-x="637" 
d="M144 685v-285q0 -43 22 -54v-8h-107v8q21 10 21 54v214l-42 -10v11zM110 0l272 657h50l-272 -657h-50zM582 0h-234v32q47 36 70.5 56t50.5 48t38 53.5t11 53.5q0 37 -16 58.5t-46 21.5q-34 0 -51 -27q23 -7 23 -32q0 -15 -11 -25t-27 -10q-17 0 -28.5 11t-11.5 28
q0 31 32.5 54.5t78.5 23.5q58 0 91.5 -29.5t33.5 -72.5q0 -50 -44.5 -95.5t-131.5 -103.5h82q58 0 88 30h16z" />
    <glyph glyph-name="threequarters" unicode="&#xbe;" horiz-adv-x="675" 
d="M113 501v13q51 13 78 32.5t27 53.5q0 27 -14 44t-42 17q-41 0 -58 -27q21 -8 21 -30q0 -15 -10 -24.5t-26 -9.5q-17 0 -28 10.5t-11 26.5q0 32 33.5 54t81.5 22q53 0 87.5 -22.5t34.5 -60.5q0 -50 -66 -76q37 -7 58.5 -30t21.5 -57q0 -49 -41 -78.5t-97 -29.5
q-49 1 -83 22t-34 53q0 16 10.5 27t28.5 11q17 0 27.5 -10t10.5 -24q0 -20 -19 -29q17 -27 59 -27q29 0 49.5 20.5t20.5 54.5q0 38 -21.5 56t-73.5 18h-25zM468 657h50l-272 -657h-50zM425 111h102v156zM628 72h-40v-10q0 -43 20 -54v-8h-102v8q21 10 21 54v10h-150v27
l162 224h49v-212h46z" />
    <glyph glyph-name="questiondown" unicode="&#xbf;" horiz-adv-x="510" 
d="M275 383q-29 0 -48.5 19.5t-19.5 48.5q0 28 20 47.5t48 19.5t47.5 -19.5t19.5 -47.5t-19.5 -48t-47.5 -20zM284 298l30 -160q-89 -8 -137 -45.5t-48 -104.5q0 -64 37.5 -100t104.5 -36q44 0 78 17.5t50 48.5q-18 6 -29 21.5t-11 34.5q0 24 17 40t41 16q26 0 42.5 -17.5
t16.5 -47.5q0 -59 -60 -99t-148 -40q-107 0 -167.5 49.5t-60.5 122.5q0 79 56.5 127t145.5 61l26 112h16z" />
    <glyph glyph-name="Agrave" unicode="&#xc0;" horiz-adv-x="682" 
d="M385 745h-26l-170 155h116zM190 234h255l-130 316zM354 685l231 -557q21 -52 40.5 -77t46.5 -42v-9h-197v9q53 23 10 127l-30 72h-275l-19 -47q-45 -115 15 -152v-9h-174v9q66 33 114 148l226 528h12z" />
    <glyph glyph-name="Aacute" unicode="&#xc1;" horiz-adv-x="682" 
d="M496 900l-171 -155h-26l80 155h117zM190 234h255l-130 316zM354 685l231 -557q21 -52 40.5 -77t46.5 -42v-9h-197v9q53 23 10 127l-30 72h-275l-19 -47q-45 -115 15 -152v-9h-174v9q66 33 114 148l226 528h12z" />
    <glyph glyph-name="Acircumflex" unicode="&#xc2;" horiz-adv-x="682" 
d="M343 813l-141 -68l-7 7l143 148h10l143 -148l-7 -7zM190 234h255l-130 316zM354 685l231 -557q21 -52 40.5 -77t46.5 -42v-9h-197v9q53 23 10 127l-30 72h-275l-19 -47q-45 -115 15 -152v-9h-174v9q66 33 114 148l226 528h12z" />
    <glyph glyph-name="Atilde" unicode="&#xc3;" horiz-adv-x="682" 
d="M202 760h-9q-2 8 -2 26q0 41 22 69.5t61 28.5q29 0 77.5 -30.5t73.5 -30.5q27 0 42.5 17.5t17.5 45.5h9q2 -9 2 -26q0 -42 -21 -70t-62 -28q-28 0 -76.5 30.5t-74.5 30.5q-27 0 -42.5 -17.5t-17.5 -45.5zM190 234h255l-130 316zM354 685l231 -557q21 -52 40.5 -77
t46.5 -42v-9h-197v9q53 23 10 127l-30 72h-275l-19 -47q-45 -115 15 -152v-9h-174v9q66 33 114 148l226 528h12z" />
    <glyph glyph-name="Adieresis" unicode="&#xc4;" horiz-adv-x="682" 
d="M448 763q-25 0 -42 17t-17 42t17 42.5t42 17.5t42 -17.5t17 -42.5t-17 -42t-42 -17zM240 763q-25 0 -42 17t-17 42t17 42.5t42 17.5t42 -17.5t17 -42.5t-17 -42t-42 -17zM190 234h255l-130 316zM354 685l231 -557q21 -52 40.5 -77t46.5 -42v-9h-197v9q53 23 10 127
l-30 72h-275l-19 -47q-45 -115 15 -152v-9h-174v9q66 33 114 148l226 528h12z" />
    <glyph glyph-name="Aring" unicode="&#xc5;" horiz-adv-x="682" 
d="M343 868q-19 0 -32.5 -13.5t-13.5 -32.5q0 -18 13.5 -31.5t32.5 -13.5t32.5 13.5t13.5 31.5q0 19 -13.5 32.5t-32.5 13.5zM343 737q-35 0 -60 25t-25 60t25 60t60 25t60 -25t25 -60t-25 -60t-60 -25zM190 234h255l-130 316zM354 685l231 -557q21 -52 40.5 -77t46.5 -42
v-9h-197v9q53 23 10 127l-30 72h-275l-19 -47q-45 -115 15 -152v-9h-174v9q66 33 114 148l226 528h12z" />
    <glyph glyph-name="AE" unicode="&#xc6;" horiz-adv-x="925" 
d="M239 234h222v389zM880 159h11v-159h-470v9q22 10 31 32.5t9 70.5v96h-237l-21 -37q-37 -65 -38 -107.5t31 -54.5v-9h-194v9q35 11 72.5 49.5t86.5 119.5l300 496h413v-144h-11q-23 63 -65 90t-120 27h-124v-295l105 5q45 2 69 24t36 68h10v-208h-10q-12 45 -36.5 65.5
t-71.5 22.5l-102 5v-234q0 -39 19 -56.5t62 -17.5h65q82 0 120.5 29.5t59.5 103.5z" />
    <glyph glyph-name="Ccedilla" unicode="&#xc7;" horiz-adv-x="655" 
d="M618 483h-11q-60 175 -210 175q-106 0 -173 -86t-68 -232q1 -151 70 -238t183 -87q151 0 198 165h11v-140q-68 -48 -199 -51l-22 -51q43 -4 68.5 -25.5t25.5 -50.5q0 -37 -28 -59t-76 -22q-56 0 -98 27l5 18q34 -16 64 -16q26 0 42.5 13t16.5 36t-20.5 40t-63.5 20l44 71
q-145 8 -235 102t-90 249q0 149 97 246.5t249 97.5q122 0 220 -54v-148z" />
    <glyph glyph-name="Egrave" unicode="&#xc8;" horiz-adv-x="583" 
d="M366 745h-26l-170 155h116zM538 159h12v-159h-470v9q21 10 30.5 33t9.5 70v450q0 47 -9.5 70t-30.5 33v9h453v-144h-11q-24 63 -65.5 90t-119.5 27h-124v-295l104 5q46 2 70 24t36 68h10v-208h-10q-13 45 -37.5 65.5t-70.5 22.5l-102 5v-234q0 -39 18.5 -56.5t61.5 -17.5
h66q83 0 121 29.5t58 103.5z" />
    <glyph glyph-name="Eacute" unicode="&#xc9;" horiz-adv-x="583" 
d="M469 900l-171 -155h-26l80 155h117zM538 159h12v-159h-470v9q21 10 30.5 33t9.5 70v450q0 47 -9.5 70t-30.5 33v9h453v-144h-11q-24 63 -65.5 90t-119.5 27h-124v-295l104 5q46 2 70 24t36 68h10v-208h-10q-13 45 -37.5 65.5t-70.5 22.5l-102 5v-234q0 -39 18.5 -56.5
t61.5 -17.5h66q83 0 121 29.5t58 103.5z" />
    <glyph glyph-name="Ecircumflex" unicode="&#xca;" horiz-adv-x="583" 
d="M320 813l-141 -68l-7 7l143 148h10l143 -148l-7 -7zM538 159h12v-159h-470v9q21 10 30.5 33t9.5 70v450q0 47 -9.5 70t-30.5 33v9h453v-144h-11q-24 63 -65.5 90t-119.5 27h-124v-295l104 5q46 2 70 24t36 68h10v-208h-10q-13 45 -37.5 65.5t-70.5 22.5l-102 5v-234
q0 -39 18.5 -56.5t61.5 -17.5h66q83 0 121 29.5t58 103.5z" />
    <glyph glyph-name="Edieresis" unicode="&#xcb;" horiz-adv-x="583" 
d="M424 763q-25 0 -42 17t-17 42t17 42.5t42 17.5t42 -17.5t17 -42.5t-17 -42t-42 -17zM216 763q-25 0 -42 17t-17 42t17 42.5t42 17.5t42 -17.5t17 -42.5t-17 -42t-42 -17zM538 159h12v-159h-470v9q21 10 30.5 33t9.5 70v450q0 47 -9.5 70t-30.5 33v9h453v-144h-11
q-24 63 -65.5 90t-119.5 27h-124v-295l104 5q46 2 70 24t36 68h10v-208h-10q-13 45 -37.5 65.5t-70.5 22.5l-102 5v-234q0 -39 18.5 -56.5t61.5 -17.5h66q83 0 121 29.5t58 103.5z" />
    <glyph glyph-name="Igrave" unicode="&#xcc;" horiz-adv-x="332" 
d="M213 562v-450q0 -48 9 -70.5t31 -32.5v-9h-173v9q21 10 30.5 33t9.5 70v450q0 47 -9.5 70t-30.5 33v9h173v-9q-22 -10 -31 -32.5t-9 -70.5zM16 900h116l80 -155h-26z" />
    <glyph glyph-name="Iacute" unicode="&#xcd;" horiz-adv-x="332" 
d="M213 562v-450q0 -48 9 -70.5t31 -32.5v-9h-173v9q21 10 30.5 33t9.5 70v450q0 47 -9.5 70t-30.5 33v9h173v-9q-22 -10 -31 -32.5t-9 -70.5zM201 900h117l-171 -155h-26z" />
    <glyph glyph-name="Icircumflex" unicode="&#xce;" horiz-adv-x="332" 
d="M80 665v9h173v-9q-22 -10 -31 -32.5t-9 -70.5v-450q0 -48 9 -70.5t31 -32.5v-9h-173v9q21 10 30.5 33t9.5 70v450q0 47 -9.5 70t-30.5 33zM171 900l143 -148l-7 -7l-141 68l-141 -68l-7 7l143 148h10z" />
    <glyph glyph-name="Idieresis" unicode="&#xcf;" horiz-adv-x="332" 
d="M213 562v-450q0 -48 9 -70.5t31 -32.5v-9h-173v9q21 10 30.5 33t9.5 70v450q0 47 -9.5 70t-30.5 33v9h173v-9q-22 -10 -31 -32.5t-9 -70.5zM329 822q0 -25 -17 -42t-42 -17t-42 17t-17 42t17 42.5t42 17.5t42 -17.5t17 -42.5zM121 822q0 -25 -17 -42t-42 -17t-42 17
t-17 42t17 42.5t42 17.5t42 -17.5t17 -42.5z" />
    <glyph glyph-name="Eth" unicode="&#xd0;" horiz-adv-x="731" 
d="M292 26h15q124 0 196.5 84t72.5 223q0 145 -76 230t-217 85h-70v-296l166 4v-30h-166v-227q0 -39 19 -56t60 -17zM80 674h217q186 0 284 -91t98 -244q0 -150 -102 -244.5t-279 -94.5h-218v9q21 10 30.5 33t9.5 70v215h-88v21l88 2v212q0 47 -9.5 70t-30.5 33v9z" />
    <glyph glyph-name="Ntilde" unicode="&#xd1;" horiz-adv-x="730" 
d="M610 510l-10 -524h-15l-434 542l7 -357q3 -129 66 -162v-9h-166v9q61 31 64 163l4 319q0 136 -64 174v9h96l420 -535l-2 372q-1 123 -63 154v9h159v-9q-59 -30 -62 -155zM223 760h-9q-2 8 -2 26q0 41 22 69.5t61 28.5q29 0 77.5 -30.5t73.5 -30.5q27 0 42.5 17.5
t17.5 45.5h9q2 -9 2 -26q0 -42 -21 -70t-62 -28q-28 0 -76.5 30.5t-74.5 30.5q-27 0 -42.5 -17.5t-17.5 -45.5z" />
    <glyph glyph-name="Ograve" unicode="&#xd2;" horiz-adv-x="773" 
d="M386 15q106 0 168 90t62 236q0 135 -63 226.5t-167 91.5q-105 0 -167.5 -91t-62.5 -227q0 -145 62.5 -235.5t167.5 -90.5zM385 -11q-152 0 -242.5 95t-90.5 257q0 145 93 244.5t241 99.5q151 0 243 -98.5t92 -245.5q0 -157 -94 -254.5t-242 -97.5zM234 900h116l80 -155
h-26z" />
    <glyph glyph-name="Oacute" unicode="&#xd3;" horiz-adv-x="773" 
d="M423 900h117l-171 -155h-26zM386 15q106 0 168 90t62 236q0 135 -63 226.5t-167 91.5q-105 0 -167.5 -91t-62.5 -227q0 -145 62.5 -235.5t167.5 -90.5zM385 -11q-152 0 -242.5 95t-90.5 257q0 145 93 244.5t241 99.5q151 0 243 -98.5t92 -245.5q0 -157 -94 -254.5
t-242 -97.5z" />
    <glyph glyph-name="Ocircumflex" unicode="&#xd4;" horiz-adv-x="773" 
d="M386 813l-141 -68l-7 7l143 148h10l143 -148l-7 -7zM386 15q106 0 168 90t62 236q0 135 -63 226.5t-167 91.5q-105 0 -167.5 -91t-62.5 -227q0 -145 62.5 -235.5t167.5 -90.5zM386 685q151 0 243 -98.5t92 -245.5q0 -157 -94 -254.5t-242 -97.5q-152 0 -242.5 95
t-90.5 257q0 145 93 244.5t241 99.5z" />
    <glyph glyph-name="Otilde" unicode="&#xd5;" horiz-adv-x="773" 
d="M386 15q106 0 168 90t62 236q0 135 -63 226.5t-167 91.5q-105 0 -167.5 -91t-62.5 -227q0 -145 62.5 -235.5t167.5 -90.5zM385 -11q-152 0 -242.5 95t-90.5 257q0 145 93 244.5t241 99.5q151 0 243 -98.5t92 -245.5q0 -157 -94 -254.5t-242 -97.5zM244 760h-9q-2 8 -2 26
q0 41 22 69.5t61 28.5q29 0 77.5 -30.5t73.5 -30.5q27 0 42.5 17.5t17.5 45.5h9q2 -9 2 -26q0 -42 -21 -70t-62 -28q-28 0 -76.5 30.5t-74.5 30.5q-27 0 -42.5 -17.5t-17.5 -45.5z" />
    <glyph glyph-name="Odieresis" unicode="&#xd6;" horiz-adv-x="773" 
d="M549 822q0 -25 -17 -42t-42 -17t-42 17t-17 42t17 42.5t42 17.5t42 -17.5t17 -42.5zM341 822q0 -25 -17 -42t-42 -17t-42 17t-17 42t17 42.5t42 17.5t42 -17.5t17 -42.5zM386 15q106 0 168 90t62 236q0 135 -63 226.5t-167 91.5q-105 0 -167.5 -91t-62.5 -227
q0 -145 62.5 -235.5t167.5 -90.5zM385 -11q-152 0 -242.5 95t-90.5 257q0 145 93 244.5t241 99.5q151 0 243 -98.5t92 -245.5q0 -157 -94 -254.5t-242 -97.5z" />
    <glyph glyph-name="multiply" unicode="&#xd7;" horiz-adv-x="623" 
d="M503 178l-28 -27l-164 165l-163 -163l-28 28l163 163l-160 160l27 29l161 -161l158 158l28 -28l-159 -159z" />
    <glyph glyph-name="Oslash" unicode="&#xd8;" horiz-adv-x="748" 
d="M553 533l-342 -424q59 -94 163 -94t161 90.5t57 235.5q0 111 -39 192zM197 135l336 433q-59 91 -159 91q-103 0 -160.5 -91.5t-57.5 -226.5q0 -122 41 -206zM676 685l-73 -90q93 -96 93 -254q0 -162 -87.5 -257t-235.5 -95q-124 0 -206 65l-50 -62l-19 16l50 64
q-96 94 -96 269q0 148 87 246t235 98q117 0 200 -64l50 64h52z" />
    <glyph glyph-name="Ugrave" unicode="&#xd9;" horiz-adv-x="705" 
d="M368 -9q-118 0 -187 54.5t-69 173.5v343q0 48 -9 70.5t-31 32.5v9h173v-9q-22 -10 -31 -32.5t-9 -70.5v-333q0 -198 182 -198q84 0 129.5 48t44.5 143l-3 285q-1 122 -71 158v9h181v-9q-68 -34 -72 -159l-6 -286q-3 -114 -60 -171.5t-162 -57.5zM221 900h116l80 -155h-26
z" />
    <glyph glyph-name="Uacute" unicode="&#xda;" horiz-adv-x="705" 
d="M410 900h117l-171 -155h-26zM368 -9q-118 0 -187 54.5t-69 173.5v343q0 48 -9 70.5t-31 32.5v9h173v-9q-22 -10 -31 -32.5t-9 -70.5v-333q0 -198 182 -198q84 0 129.5 48t44.5 143l-3 285q-1 122 -71 158v9h181v-9q-68 -34 -72 -159l-6 -286q-3 -114 -60 -171.5
t-162 -57.5z" />
    <glyph glyph-name="Ucircumflex" unicode="&#xdb;" horiz-adv-x="705" 
d="M378 813l-141 -68l-7 7l143 148h10l143 -148l-7 -7zM487 674h181v-9q-68 -34 -72 -159l-6 -286q-3 -114 -60 -171.5t-162 -57.5q-118 0 -187 54.5t-69 173.5v343q0 48 -9 70.5t-31 32.5v9h173v-9q-22 -10 -31 -32.5t-9 -70.5v-333q0 -198 182 -198q84 0 129.5 48
t44.5 143l-3 285q-1 122 -71 158v9z" />
    <glyph glyph-name="Udieresis" unicode="&#xdc;" horiz-adv-x="705" 
d="M541 822q0 -25 -17 -42t-42 -17t-42 17t-17 42t17 42.5t42 17.5t42 -17.5t17 -42.5zM333 822q0 -25 -17 -42t-42 -17t-42 17t-17 42t17 42.5t42 17.5t42 -17.5t17 -42.5zM368 -9q-118 0 -187 54.5t-69 173.5v343q0 48 -9 70.5t-31 32.5v9h173v-9q-22 -10 -31 -32.5
t-9 -70.5v-333q0 -198 182 -198q84 0 129.5 48t44.5 143l-3 285q-1 122 -71 158v9h181v-9q-68 -34 -72 -159l-6 -286q-3 -114 -60 -171.5t-162 -57.5z" />
    <glyph glyph-name="Yacute" unicode="&#xdd;" horiz-adv-x="628" 
d="M473 900l-171 -155h-26l80 155h117zM442 674h176v-9q-60 -28 -129 -150l-124 -220v-183q0 -47 9.5 -70t30.5 -33v-9h-173v9q22 10 31 32.5t9 70.5v162l-156 274q-31 54 -52 79t-46 38v9h205v-9q-53 -35 -1 -125l127 -219l103 198q27 55 24 93t-34 53v9z" />
    <glyph glyph-name="Thorn" unicode="&#xde;" horiz-adv-x="592" 
d="M213 541h77q130 0 199.5 -50.5t69.5 -142.5q0 -98 -70.5 -149.5t-183.5 -52.5q-35 0 -51 3l-1 10q202 15 202 185t-196 170h-46v-402q0 -47 9.5 -70t30.5 -33v-9h-173v9q22 10 31 32.5t9 70.5v450q0 48 -9 70.5t-31 32.5v9h173v-9q-21 -10 -30.5 -33t-9.5 -70v-21z" />
    <glyph glyph-name="germandbls" unicode="&#xdf;" horiz-adv-x="639" 
d="M509 619q0 -28 -14 -50t-33.5 -36.5t-39 -28t-33.5 -31.5t-14 -40q0 -28 23.5 -53.5t56.5 -47t66.5 -45t57 -59t23.5 -77.5q0 -70 -50.5 -116t-130.5 -46q-77 0 -120.5 28.5t-43.5 72.5q0 24 16 40.5t40 16.5q25 0 41 -15t16 -39q0 -32 -29 -45q9 -16 33.5 -25.5
t52.5 -9.5q48 0 76 27.5t28 74.5q0 37 -23 67.5t-55.5 51.5t-65.5 43t-56 52.5t-23 69.5q0 25 12.5 47t31 39.5t36.5 35.5t30.5 43t12.5 54q0 47 -30 80t-81 33q-57 0 -89.5 -43.5t-32.5 -117.5v-570h-128v9q21 10 30.5 33t9.5 70v444q0 93 56.5 146.5t152.5 53.5
q87 0 138.5 -38t51.5 -99z" />
    <glyph glyph-name="agrave" unicode="&#xe0;" horiz-adv-x="534" 
d="M304 579h-26l-170 155h116zM344 95v152q-24 4 -42 4q-75 0 -116 -32.5t-41 -88.5q0 -42 25 -67.5t66 -25.5q64 0 108 58zM491 39h15v-10q-32 -35 -83 -35q-30 0 -50.5 18.5t-26.5 53.5q-55 -76 -151 -76q-63 0 -102.5 35.5t-39.5 96.5q0 72 58.5 114.5t160.5 42.5
q39 0 72 -5v87q0 133 -103 133q-65 0 -95 -41q38 -14 38 -51q0 -23 -16 -38.5t-39 -15.5t-38.5 16t-15.5 41q0 50 51 82t123 32q181 0 181 -161v-254q0 -37 12.5 -51t48.5 -14z" />
    <glyph glyph-name="aacute" unicode="&#xe1;" horiz-adv-x="534" 
d="M404 734l-171 -155h-26l80 155h117zM344 95v152q-24 4 -42 4q-75 0 -116 -32.5t-41 -88.5q0 -42 25 -67.5t66 -25.5q64 0 108 58zM491 39h15v-10q-32 -35 -83 -35q-30 0 -50.5 18.5t-26.5 53.5q-55 -76 -151 -76q-63 0 -102.5 35.5t-39.5 96.5q0 72 58.5 114.5
t160.5 42.5q39 0 72 -5v87q0 133 -103 133q-65 0 -95 -41q38 -14 38 -51q0 -23 -16 -38.5t-39 -15.5t-38.5 16t-15.5 41q0 50 51 82t123 32q181 0 181 -161v-254q0 -37 12.5 -51t48.5 -14z" />
    <glyph glyph-name="acircumflex" unicode="&#xe2;" horiz-adv-x="534" 
d="M257 647l-141 -68l-7 7l143 148h10l143 -148l-7 -7zM344 95v152q-24 4 -42 4q-75 0 -116 -32.5t-41 -88.5q0 -42 25 -67.5t66 -25.5q64 0 108 58zM491 39h15v-10q-32 -35 -83 -35q-30 0 -50.5 18.5t-26.5 53.5q-55 -76 -151 -76q-63 0 -102.5 35.5t-39.5 96.5
q0 72 58.5 114.5t160.5 42.5q39 0 72 -5v87q0 133 -103 133q-65 0 -95 -41q38 -14 38 -51q0 -23 -16 -38.5t-39 -15.5t-38.5 16t-15.5 41q0 50 51 82t123 32q181 0 181 -161v-254q0 -37 12.5 -51t48.5 -14z" />
    <glyph glyph-name="atilde" unicode="&#xe3;" horiz-adv-x="534" 
d="M115 594h-9q-2 8 -2 26q0 41 22 69.5t61 28.5q29 0 77.5 -30.5t73.5 -30.5q27 0 42.5 17.5t17.5 45.5h9q2 -9 2 -26q0 -42 -21 -70t-62 -28q-28 0 -76.5 30.5t-74.5 30.5q-27 0 -42.5 -17.5t-17.5 -45.5zM344 95v152q-24 4 -42 4q-75 0 -116 -32.5t-41 -88.5
q0 -42 25 -67.5t66 -25.5q64 0 108 58zM491 39h15v-10q-32 -35 -83 -35q-30 0 -50.5 18.5t-26.5 53.5q-55 -76 -151 -76q-63 0 -102.5 35.5t-39.5 96.5q0 72 58.5 114.5t160.5 42.5q39 0 72 -5v87q0 133 -103 133q-65 0 -95 -41q38 -14 38 -51q0 -23 -16 -38.5t-39 -15.5
t-38.5 16t-15.5 41q0 50 51 82t123 32q181 0 181 -161v-254q0 -37 12.5 -51t48.5 -14z" />
    <glyph glyph-name="adieresis" unicode="&#xe4;" horiz-adv-x="534" 
d="M361 597q-25 0 -42 17t-17 42t17 42.5t42 17.5t42 -17.5t17 -42.5t-17 -42t-42 -17zM153 597q-25 0 -42 17t-17 42t17 42.5t42 17.5t42 -17.5t17 -42.5t-17 -42t-42 -17zM344 95v152q-24 4 -42 4q-75 0 -116 -32.5t-41 -88.5q0 -42 25 -67.5t66 -25.5q64 0 108 58z
M491 39h15v-10q-32 -35 -83 -35q-30 0 -50.5 18.5t-26.5 53.5q-55 -76 -151 -76q-63 0 -102.5 35.5t-39.5 96.5q0 72 58.5 114.5t160.5 42.5q39 0 72 -5v87q0 133 -103 133q-65 0 -95 -41q38 -14 38 -51q0 -23 -16 -38.5t-39 -15.5t-38.5 16t-15.5 41q0 50 51 82t123 32
q181 0 181 -161v-254q0 -37 12.5 -51t48.5 -14z" />
    <glyph glyph-name="aring" unicode="&#xe5;" horiz-adv-x="534" 
d="M257 702q-19 0 -32.5 -13.5t-13.5 -32.5q0 -18 13.5 -31.5t32.5 -13.5t32.5 13.5t13.5 31.5q0 19 -13.5 32.5t-32.5 13.5zM257 571q-35 0 -60 25t-25 60t25 60t60 25t60 -25t25 -60t-25 -60t-60 -25zM344 95v152q-24 4 -42 4q-75 0 -116 -32.5t-41 -88.5q0 -42 25 -67.5
t66 -25.5q64 0 108 58zM491 39h15v-10q-32 -35 -83 -35q-30 0 -50.5 18.5t-26.5 53.5q-55 -76 -151 -76q-63 0 -102.5 35.5t-39.5 96.5q0 72 58.5 114.5t160.5 42.5q39 0 72 -5v87q0 133 -103 133q-65 0 -95 -41q38 -14 38 -51q0 -23 -16 -38.5t-39 -15.5t-38.5 16t-15.5 41
q0 50 51 82t123 32q181 0 181 -161v-254q0 -37 12.5 -51t48.5 -14z" />
    <glyph glyph-name="ae" unicode="&#xe6;" horiz-adv-x="815" 
d="M347 244v4q-24 4 -42 4q-75 0 -116 -33t-41 -89q0 -42 25 -67.5t66 -25.5q77 0 133 82q-23 53 -25 125zM441 304l238 17q-4 172 -107 172q-58 0 -91.5 -53t-39.5 -136zM766 115l7 -9q-76 -117 -199 -117q-132 0 -192 109q-26 -44 -74 -76t-110 -32q-63 0 -102.5 35.5
t-39.5 96.5q0 72 58 114.5t161 42.5q39 0 72 -5v87q0 133 -103 133q-65 0 -95 -41q38 -14 38 -51q0 -23 -15.5 -38.5t-39.5 -15.5q-23 0 -38.5 16t-15.5 41q0 50 51 82t123 32q116 0 159 -72q63 72 161 72q100 0 147 -58.5t47 -155.5v-24h-326v-8q0 -112 47.5 -169
t121.5 -57q86 0 157 68z" />
    <glyph glyph-name="ccedilla" unicode="&#xe7;" horiz-adv-x="519" 
d="M482 108l7 -9q-67 -102 -182 -110l-22 -51q43 -4 68.5 -25.5t25.5 -50.5q0 -37 -28 -59t-76 -22q-57 0 -98 27l5 18q34 -16 63 -16q26 0 43 13t17 36t-20.5 40t-63.5 20l45 71q-96 9 -156 80.5t-60 178.5q0 118 75 194t182 76q75 0 122.5 -33.5t47.5 -81.5
q0 -27 -17 -44.5t-42 -17.5q-24 0 -40 16t-16 41q0 37 39 52q-30 41 -92 41q-76 0 -121.5 -63.5t-45.5 -155.5q0 -105 55 -165t134 -60q40 0 81 16.5t70 43.5z" />
    <glyph glyph-name="egrave" unicode="&#xe8;" horiz-adv-x="535" 
d="M321 579h-26l-170 155h116zM144 304l255 16q-2 75 -29 124t-86 49q-62 0 -98 -52.5t-42 -136.5zM486 115l8 -9q-80 -117 -207 -117q-108 0 -172.5 70.5t-64.5 189.5q0 120 65 195t169 75q103 0 152.5 -58.5t49.5 -154.5v-25h-343v-8q0 -112 50.5 -169t128.5 -57
q90 0 164 68z" />
    <glyph glyph-name="eacute" unicode="&#xe9;" horiz-adv-x="535" 
d="M422 734l-171 -155h-26l80 155h117zM144 304l255 16q-2 75 -29 124t-86 49q-62 0 -98 -52.5t-42 -136.5zM486 115l8 -9q-80 -117 -207 -117q-108 0 -172.5 70.5t-64.5 189.5q0 120 65 195t169 75q103 0 152.5 -58.5t49.5 -154.5v-25h-343v-8q0 -112 50.5 -169t128.5 -57
q90 0 164 68z" />
    <glyph glyph-name="ecircumflex" unicode="&#xea;" horiz-adv-x="535" 
d="M277 647l-141 -68l-7 7l143 148h10l143 -148l-7 -7zM144 304l255 16q-2 75 -29 124t-86 49q-62 0 -98 -52.5t-42 -136.5zM486 115l8 -9q-80 -117 -207 -117q-108 0 -172.5 70.5t-64.5 189.5q0 120 65 195t169 75q103 0 152.5 -58.5t49.5 -154.5v-25h-343v-8
q0 -112 50.5 -169t128.5 -57q90 0 164 68z" />
    <glyph glyph-name="edieresis" unicode="&#xeb;" horiz-adv-x="535" 
d="M382 597q-25 0 -42 17t-17 42t17 42.5t42 17.5t42 -17.5t17 -42.5t-17 -42t-42 -17zM174 597q-25 0 -42 17t-17 42t17 42.5t42 17.5t42 -17.5t17 -42.5t-17 -42t-42 -17zM144 304l255 16q-2 75 -29 124t-86 49q-62 0 -98 -52.5t-42 -136.5zM486 115l8 -9
q-80 -117 -207 -117q-108 0 -172.5 70.5t-64.5 189.5q0 120 65 195t169 75q103 0 152.5 -58.5t49.5 -154.5v-25h-343v-8q0 -112 50.5 -169t128.5 -57q90 0 164 68z" />
    <glyph glyph-name="igrave" unicode="&#xec;" horiz-adv-x="304" 
d="M195 519v-407q0 -47 10 -70t31 -33v-9h-168v9q22 10 31.5 33t9.5 70v274q0 59 -44 79v10zM1 734h116l80 -155h-26z" />
    <glyph glyph-name="iacute" unicode="&#xed;" horiz-adv-x="304" 
d="M187 734h117l-171 -155h-26zM195 519v-407q0 -47 10 -70t31 -33v-9h-168v9q22 10 31.5 33t9.5 70v274q0 59 -44 79v10z" />
    <glyph glyph-name="icircumflex" unicode="&#xee;" horiz-adv-x="304" 
d="M195 519v-407q0 -47 10 -70t31 -33v-9h-168v9q22 10 31.5 33t9.5 70v274q0 59 -44 79v10zM157 734l143 -148l-7 -7l-141 68l-141 -68l-7 7l143 148h10z" />
    <glyph glyph-name="idieresis" unicode="&#xef;" horiz-adv-x="304" 
d="M315 656q0 -25 -17 -42t-42 -17t-42 17t-17 42t17 42.5t42 17.5t42 -17.5t17 -42.5zM107 656q0 -25 -17 -42t-42 -17t-42 17t-17 42t17 42.5t42 17.5t42 -17.5t17 -42.5zM195 519v-407q0 -47 10 -70t31 -33v-9h-168v9q22 10 31.5 33t9.5 70v274q0 59 -44 79v10z" />
    <glyph glyph-name="eth" unicode="&#xf0;" 
d="M309 16q65 0 106 60.5t41 165.5q0 114 -44.5 182.5t-118.5 68.5q-65 0 -106 -62.5t-41 -162.5q0 -110 44 -181t119 -71zM441 747l-72 -39q90 -61 136 -175.5t46 -233.5q0 -143 -70 -226.5t-186 -83.5q-110 0 -177 72t-67 185q0 122 68.5 197.5t181.5 75.5q90 0 135 -49
q-39 137 -122 208l-109 -59l-10 17l98 58q-70 49 -160 50l-1 10q25 7 56 7q85 0 155 -38l98 58v-34z" />
    <glyph glyph-name="ntilde" unicode="&#xf1;" horiz-adv-x="632" 
d="M194 392v-280q0 -48 9 -70.5t31 -32.5v-9h-167v9q22 10 31.5 33t9.5 70v276q0 58 -44 80v9l130 44v-107q97 105 201 105q133 0 133 -152v-255q0 -47 10 -70t31 -33v-9h-167v9q22 10 31 32.5t9 70.5v227q0 59 -23 85.5t-73 26.5q-70 0 -152 -59zM174 594h-9q-2 8 -2 26
q0 41 22 69.5t61 28.5q29 0 77.5 -30.5t73.5 -30.5q27 0 42.5 17.5t17.5 45.5h9q2 -9 2 -26q0 -42 -21 -70t-62 -28q-28 0 -76.5 30.5t-74.5 30.5q-27 0 -42.5 -17.5t-17.5 -45.5z" />
    <glyph glyph-name="ograve" unicode="&#xf2;" horiz-adv-x="598" 
d="M549 259q0 -122 -70.5 -196t-185.5 -74q-110 0 -176.5 72t-66.5 185q0 123 69 198t186 75q112 0 178 -73t66 -187zM144 268q0 -110 44.5 -181t118.5 -71q65 0 106 60.5t41 165.5q0 114 -44.5 182.5t-118.5 68.5q-65 0 -106 -62.5t-41 -162.5zM147 734h116l80 -155h-26z
" />
    <glyph glyph-name="oacute" unicode="&#xf3;" horiz-adv-x="598" 
d="M336 734h117l-171 -155h-26zM549 259q0 -122 -70.5 -196t-185.5 -74q-110 0 -176.5 72t-66.5 185q0 123 69 198t186 75q112 0 178 -73t66 -187zM144 268q0 -110 44.5 -181t118.5 -71q65 0 106 60.5t41 165.5q0 114 -44.5 182.5t-118.5 68.5q-65 0 -106 -62.5t-41 -162.5z
" />
    <glyph glyph-name="ocircumflex" unicode="&#xf4;" horiz-adv-x="598" 
d="M299 647l-141 -68l-7 7l143 148h10l143 -148l-7 -7zM307 16q65 0 106 60.5t41 165.5q0 114 -44.5 182.5t-118.5 68.5q-65 0 -106 -62.5t-41 -162.5q0 -110 44.5 -181t118.5 -71zM305 519q112 0 178 -73t66 -187q0 -122 -70.5 -196t-185.5 -74q-110 0 -176.5 72t-66.5 185
q0 123 69 198t186 75z" />
    <glyph glyph-name="otilde" unicode="&#xf5;" horiz-adv-x="598" 
d="M549 259q0 -122 -70.5 -196t-185.5 -74q-110 0 -176.5 72t-66.5 185q0 123 69 198t186 75q112 0 178 -73t66 -187zM144 268q0 -110 44.5 -181t118.5 -71q65 0 106 60.5t41 165.5q0 114 -44.5 182.5t-118.5 68.5q-65 0 -106 -62.5t-41 -162.5zM157 594h-9q-2 8 -2 26
q0 41 22 69.5t61 28.5q29 0 77.5 -30.5t73.5 -30.5q27 0 42.5 17.5t17.5 45.5h9q2 -9 2 -26q0 -42 -21 -70t-62 -28q-28 0 -76.5 30.5t-74.5 30.5q-27 0 -42.5 -17.5t-17.5 -45.5z" />
    <glyph glyph-name="odieresis" unicode="&#xf6;" horiz-adv-x="598" 
d="M462 656q0 -25 -17 -42t-42 -17t-42 17t-17 42t17 42.5t42 17.5t42 -17.5t17 -42.5zM254 656q0 -25 -17 -42t-42 -17t-42 17t-17 42t17 42.5t42 17.5t42 -17.5t17 -42.5zM549 259q0 -122 -70.5 -196t-185.5 -74q-110 0 -176.5 72t-66.5 185q0 123 69 198t186 75
q112 0 178 -73t66 -187zM144 268q0 -110 44.5 -181t118.5 -71q65 0 106 60.5t41 165.5q0 114 -44.5 182.5t-118.5 68.5q-65 0 -106 -62.5t-41 -162.5z" />
    <glyph glyph-name="divide" unicode="&#xf7;" horiz-adv-x="623" 
d="M62 321v39h499v-39h-499zM244 517q0 26 18.5 44.5t43.5 18.5q26 0 44.5 -18.5t18.5 -44.5t-18.5 -44.5t-44.5 -18.5q-25 0 -43.5 18.5t-18.5 44.5zM244 164q0 26 18 44.5t44 18.5t44.5 -18.5t18.5 -44.5t-18.5 -44.5t-44.5 -18.5q-25 0 -43.5 18.5t-18.5 44.5z" />
    <glyph glyph-name="oslash" unicode="&#xf8;" horiz-adv-x="599" 
d="M430 385l-247 -289q45 -80 124 -80q65 0 106 60.5t41 165.5q0 81 -24 143zM170 122l244 296q-45 75 -123 75q-65 0 -106 -62.5t-41 -162.5q0 -85 26 -146zM543 518l-61 -71q67 -73 67 -188q0 -122 -70.5 -196t-185.5 -74q-93 0 -156 52l-44 -51l-18 16l43 53
q-68 73 -68 187q0 123 69 198t186 75q89 0 152 -49l39 48h47z" />
    <glyph glyph-name="ugrave" unicode="&#xf9;" horiz-adv-x="621" 
d="M427 116v272q0 64 -44 83v10l130 40v-398q0 -75 44 -94v-9l-130 -30v104q-89 -105 -188 -105q-135 0 -135 152v247q0 63 -44 83v10l130 40v-353q0 -58 22.5 -84.5t71.5 -26.5q66 0 143 59zM159 734h116l80 -155h-26z" />
    <glyph glyph-name="uacute" unicode="&#xfa;" horiz-adv-x="621" 
d="M348 734h117l-171 -155h-26zM427 116v272q0 64 -44 83v10l130 40v-398q0 -75 44 -94v-9l-130 -30v104q-89 -105 -188 -105q-135 0 -135 152v247q0 63 -44 83v10l130 40v-353q0 -58 22.5 -84.5t71.5 -26.5q66 0 143 59z" />
    <glyph glyph-name="ucircumflex" unicode="&#xfb;" horiz-adv-x="621" 
d="M311 647l-141 -68l-7 7l143 148h10l143 -148l-7 -7zM513 521v-398q0 -75 44 -94v-9l-130 -30v104q-89 -105 -188 -105q-135 0 -135 152v247q0 63 -44 83v10l130 40v-353q0 -58 22.5 -84.5t71.5 -26.5q66 0 143 59v272q0 64 -44 83v10z" />
    <glyph glyph-name="udieresis" unicode="&#xfc;" horiz-adv-x="621" 
d="M474 656q0 -25 -17 -42t-42 -17t-42 17t-17 42t17 42.5t42 17.5t42 -17.5t17 -42.5zM266 656q0 -25 -17 -42t-42 -17t-42 17t-17 42t17 42.5t42 17.5t42 -17.5t17 -42.5zM427 116v272q0 64 -44 83v10l130 40v-398q0 -75 44 -94v-9l-130 -30v104q-89 -105 -188 -105
q-135 0 -135 152v247q0 63 -44 83v10l130 40v-353q0 -58 22.5 -84.5t71.5 -26.5q66 0 143 59z" />
    <glyph glyph-name="yacute" unicode="&#xfd;" horiz-adv-x="540" 
d="M266 -8l-163 375q-25 55 -43.5 84.5t-45.5 47.5v9h185v-9q-19 -13 -23.5 -34t1 -44.5t20.5 -59.5l109 -262l83 232q47 134 -9 168v9h154v-9q-30 -15 -53.5 -51t-54.5 -115l-121 -304q-67 -280 -210 -280q-60 0 -100 43v9q42 2 76.5 10t73.5 27.5t70 58.5t51 95zM325 734
h117l-171 -155h-26z" />
    <glyph glyph-name="thorn" unicode="&#xfe;" horiz-adv-x="612" 
d="M195 400v-282q25 -102 120 -102q71 0 113 58t42 171q0 98 -42 155t-113 57q-34 0 -67 -16.5t-53 -40.5zM195 752v-328q5 8 15 20t30.5 30.5t51 31.5t62.5 13q97 0 153 -69.5t56 -180.5q0 -126 -67 -203t-180 -77q-71 0 -121 31v-149q0 -47 11.5 -70t37.5 -33v-9h-176v9
q21 10 31 33t10 70v745q0 64 -44 82v10z" />
    <glyph glyph-name="ydieresis" unicode="&#xff;" horiz-adv-x="540" 
d="M266 -8l-163 375q-25 55 -43.5 84.5t-45.5 47.5v9h185v-9q-19 -13 -23.5 -34t1 -44.5t20.5 -59.5l109 -262l83 232q47 134 -9 168v9h154v-9q-30 -15 -53.5 -51t-54.5 -115l-121 -304q-67 -280 -210 -280q-60 0 -100 43v9q42 2 76.5 10t73.5 27.5t70 58.5t51 95zM457 656
q0 -25 -17 -42t-42 -17t-42 17t-17 42t17 42.5t42 17.5t42 -17.5t17 -42.5zM249 656q0 -25 -17 -42t-42 -17t-42 17t-17 42t17 42.5t42 17.5t42 -17.5t17 -42.5z" />
    <glyph glyph-name="Amacron" unicode="&#x100;" horiz-adv-x="682" 
d="M497 841v-38h-307v38h307zM190 234h255l-130 316zM354 685l231 -557q21 -52 40.5 -77t46.5 -42v-9h-197v9q53 23 10 127l-30 72h-275l-19 -47q-45 -115 15 -152v-9h-174v9q66 33 114 148l226 528h12z" />
    <glyph glyph-name="amacron" unicode="&#x101;" horiz-adv-x="534" 
d="M410 675v-38h-307v38h307zM344 95v152q-24 4 -42 4q-75 0 -116 -32.5t-41 -88.5q0 -42 25 -67.5t66 -25.5q64 0 108 58zM491 39h15v-10q-32 -35 -83 -35q-30 0 -50.5 18.5t-26.5 53.5q-55 -76 -151 -76q-63 0 -102.5 35.5t-39.5 96.5q0 72 58.5 114.5t160.5 42.5
q39 0 72 -5v87q0 133 -103 133q-65 0 -95 -41q38 -14 38 -51q0 -23 -16 -38.5t-39 -15.5t-38.5 16t-15.5 41q0 50 51 82t123 32q181 0 181 -161v-254q0 -37 12.5 -51t48.5 -14z" />
    <glyph glyph-name="Abreve" unicode="&#x102;" horiz-adv-x="682" 
d="M463 900h10q1 -6 1 -18q0 -60 -34 -100t-98 -40q-65 0 -97 39.5t-32 100.5q0 11 1 18h10q10 -45 40.5 -69t77.5 -24q98 0 121 93zM190 234h255l-130 316zM354 685l231 -557q21 -52 40.5 -77t46.5 -42v-9h-197v9q53 23 10 127l-30 72h-275l-19 -47q-45 -115 15 -152v-9
h-174v9q66 33 114 148l226 528h12z" />
    <glyph glyph-name="abreve" unicode="&#x103;" horiz-adv-x="534" 
d="M384 734h10q1 -6 1 -18q0 -60 -34 -100t-98 -40q-65 0 -97 39.5t-32 100.5q0 11 1 18h10q10 -45 40.5 -69t77.5 -24q98 0 121 93zM344 95v152q-24 4 -42 4q-75 0 -116 -32.5t-41 -88.5q0 -42 25 -67.5t66 -25.5q64 0 108 58zM491 39h15v-10q-32 -35 -83 -35
q-30 0 -50.5 18.5t-26.5 53.5q-55 -76 -151 -76q-63 0 -102.5 35.5t-39.5 96.5q0 72 58.5 114.5t160.5 42.5q39 0 72 -5v87q0 133 -103 133q-65 0 -95 -41q38 -14 38 -51q0 -23 -16 -38.5t-39 -15.5t-38.5 16t-15.5 41q0 50 51 82t123 32q181 0 181 -161v-254
q0 -37 12.5 -51t48.5 -14z" />
    <glyph glyph-name="Aogonek" unicode="&#x104;" horiz-adv-x="682" 
d="M190 234h255l-130 316zM672 0h-91q-31 -18 -51 -47t-20 -59q0 -36 21 -53.5t54 -17.5q40 0 79 22l5 -9q-48 -55 -126 -55q-46 0 -75.5 23.5t-29.5 66.5t33 77.5t82 51.5h-78v9q53 23 10 127l-30 72h-275l-19 -47q-45 -115 15 -152v-9h-174v9q66 33 114 148l226 528h12
l231 -557q21 -52 40.5 -77t46.5 -42v-9z" />
    <glyph glyph-name="aogonek" unicode="&#x105;" horiz-adv-x="534" 
d="M344 95v152q-24 4 -42 4q-75 0 -116 -32.5t-41 -88.5q0 -42 25 -67.5t66 -25.5q64 0 108 58zM518 -155l4 -9q-46 -55 -126 -55q-46 0 -75.5 23.5t-29.5 66.5q0 41 31 74.5t78 51.5q-45 13 -54 69q-55 -76 -151 -76q-63 0 -102.5 35.5t-39.5 96.5q0 72 58.5 114.5
t160.5 42.5q39 0 72 -5v87q0 133 -103 133q-65 0 -95 -41q38 -14 38 -51q0 -23 -16 -38.5t-39 -15.5t-38.5 16t-15.5 41q0 50 51 82t123 32q181 0 181 -161v-254q0 -37 12.5 -51t48.5 -14h15v-10q-30 -34 -81 -35q-28 -18 -45 -45.5t-17 -54.5q0 -36 21 -53.5t54 -17.5
q41 0 80 22z" />
    <glyph glyph-name="Cacute" unicode="&#x106;" horiz-adv-x="655" 
d="M413 900h117l-171 -155h-26zM52 341q0 149 97 246.5t249 97.5q122 0 220 -54v-148h-11q-60 175 -210 175q-106 0 -173 -86t-68 -232q1 -151 70 -238t183 -87q151 0 198 165h11v-140q-73 -51 -214 -51q-155 0 -253.5 94.5t-98.5 257.5z" />
    <glyph glyph-name="cacute" unicode="&#x107;" horiz-adv-x="519" 
d="M319 734h117l-171 -155h-26zM489 99q-72 -110 -198 -110q-106 0 -173.5 73t-67.5 187q0 118 75 194t182 76q75 0 122.5 -33.5t47.5 -81.5q0 -27 -17 -44.5t-42 -17.5q-24 0 -40 16t-16 41q0 37 39 52q-30 41 -92 41q-76 0 -121.5 -63.5t-45.5 -155.5q0 -105 55 -165
t134 -60q40 0 81 16.5t70 43.5z" />
    <glyph glyph-name="Ccircumflex" unicode="&#x108;" horiz-adv-x="655" 
d="M377 813l-141 -68l-7 7l143 148h10l143 -148l-7 -7zM618 483h-11q-60 175 -210 175q-106 0 -173 -86t-68 -232q1 -151 70 -238t183 -87q151 0 198 165h11v-140q-73 -51 -214 -51q-155 0 -253.5 94.5t-98.5 257.5q0 149 97 246.5t249 97.5q122 0 220 -54v-148z" />
    <glyph glyph-name="ccircumflex" unicode="&#x109;" horiz-adv-x="519" 
d="M285 647l-141 -68l-7 7l143 148h10l143 -148l-7 -7zM482 108l7 -9q-72 -110 -198 -110q-106 0 -173.5 73t-67.5 187q0 118 75 194t182 76q75 0 122.5 -33.5t47.5 -81.5q0 -27 -17 -44.5t-42 -17.5q-24 0 -40 16t-16 41q0 37 39 52q-30 41 -92 41q-76 0 -121.5 -63.5
t-45.5 -155.5q0 -105 55 -165t134 -60q40 0 81 16.5t70 43.5z" />
    <glyph glyph-name="Cdotaccent" unicode="&#x10a;" horiz-adv-x="655" 
d="M52 341q0 149 97 246.5t249 97.5q122 0 220 -54v-148h-11q-60 175 -210 175q-106 0 -173 -86t-68 -232q1 -151 70 -238t183 -87q151 0 198 165h11v-140q-73 -51 -214 -51q-155 0 -253.5 94.5t-98.5 257.5zM438 822q0 -26 -18 -44t-44 -18t-44 18t-18 44t18 44t44 18
t44 -18t18 -44z" />
    <glyph glyph-name="cdotaccent" unicode="&#x10b;" horiz-adv-x="519" 
d="M489 99q-72 -110 -198 -110q-106 0 -173.5 73t-67.5 187q0 118 75 194t182 76q75 0 122.5 -33.5t47.5 -81.5q0 -27 -17 -44.5t-42 -17.5q-24 0 -40 16t-16 41q0 37 39 52q-30 41 -92 41q-76 0 -121.5 -63.5t-45.5 -155.5q0 -105 55 -165t134 -60q40 0 81 16.5t70 43.5z
M347 656q0 -26 -18.5 -44t-43.5 -18t-43.5 18t-18.5 44t18 44t44 18t44 -18t18 -44z" />
    <glyph glyph-name="Ccaron" unicode="&#x10c;" horiz-adv-x="655" 
d="M383 745h-10l-143 147l7 8l141 -68l141 68l7 -8zM618 483h-11q-60 175 -210 175q-106 0 -173 -86t-68 -232q1 -151 70 -238t183 -87q151 0 198 165h11v-140q-73 -51 -214 -51q-155 0 -253.5 94.5t-98.5 257.5q0 149 97 246.5t249 97.5q122 0 220 -54v-148z" />
    <glyph glyph-name="ccaron" unicode="&#x10d;" horiz-adv-x="519" 
d="M290 579h-10l-143 147l7 8l141 -68l141 68l7 -8zM482 108l7 -9q-72 -110 -198 -110q-106 0 -173.5 73t-67.5 187q0 118 75 194t182 76q75 0 122.5 -33.5t47.5 -81.5q0 -27 -17 -44.5t-42 -17.5q-24 0 -40 16t-16 41q0 37 39 52q-30 41 -92 41q-76 0 -121.5 -63.5
t-45.5 -155.5q0 -105 55 -165t134 -60q40 0 81 16.5t70 43.5z" />
    <glyph glyph-name="Dcaron" unicode="&#x10e;" horiz-adv-x="731" 
d="M353 745h-10l-143 147l7 8l141 -68l141 68l7 -8zM292 26h14q125 0 197.5 84t72.5 223q0 145 -76 230t-217 85h-70v-549q0 -39 19 -56t60 -17zM80 674h217q186 0 284 -91t98 -244q0 -150 -102 -244.5t-279 -94.5h-218v9q21 10 30.5 33t9.5 70v450q0 47 -9.5 70t-30.5 33v9
z" />
    <glyph glyph-name="dcaron" unicode="&#x10f;" horiz-adv-x="681" 
d="M421 107v283q-24 103 -121 103q-71 0 -113.5 -59t-42.5 -172q0 -99 42.5 -154.5t112.5 -55.5q33 0 67 16t55 39zM507 752v-629q0 -75 44 -94v-9l-130 -30v93q-7 -10 -16.5 -20.5t-31 -30t-51.5 -31.5t-62 -12q-96 0 -152.5 68.5t-56.5 180.5q0 127 67 204t180 77
q74 0 123 -32v137q0 65 -52 82v10zM575 534l-3 7q67 43 68 111q-6 -2 -14 -2q-21 1 -35 16t-14 38q0 24 16 40.5t40 16.5q27 0 44 -19t17 -50q0 -50 -36.5 -94t-82.5 -64z" />
    <glyph glyph-name="Dcroat" unicode="&#x110;" horiz-adv-x="731" 
d="M292 26h15q124 0 196.5 84t72.5 223q0 145 -76 230t-217 85h-70v-296l166 4v-30h-166v-227q0 -39 19 -56t60 -17zM80 674h217q186 0 284 -91t98 -244q0 -150 -102 -244.5t-279 -94.5h-218v9q21 10 30.5 33t9.5 70v215h-88v21l88 2v212q0 47 -9.5 70t-30.5 33v9z" />
    <glyph glyph-name="dcroat" unicode="&#x111;" horiz-adv-x="614" 
d="M421 107v283q-24 103 -121 103q-71 0 -113.5 -59t-42.5 -172q0 -99 42.5 -154.5t112.5 -55.5q33 0 67 16t55 39zM584 595h-77v-472q0 -75 44 -94v-9l-130 -30v93q-7 -10 -16.5 -20.5t-31 -30t-51.5 -31.5t-62 -12q-96 0 -152.5 68.5t-56.5 180.5q0 127 67 204t180 77
q74 0 123 -32v108h-134v23l134 4v2q0 65 -52 82v10l138 36v-127l77 2v-32z" />
    <glyph glyph-name="Emacron" unicode="&#x112;" horiz-adv-x="583" 
d="M472 841v-38h-307v38h307zM538 159h12v-159h-470v9q21 10 30.5 33t9.5 70v450q0 47 -9.5 70t-30.5 33v9h453v-144h-11q-24 63 -65.5 90t-119.5 27h-124v-295l104 5q46 2 70 24t36 68h10v-208h-10q-13 45 -37.5 65.5t-70.5 22.5l-102 5v-234q0 -39 18.5 -56.5t61.5 -17.5
h66q83 0 121 29.5t58 103.5z" />
    <glyph glyph-name="emacron" unicode="&#x113;" horiz-adv-x="535" 
d="M431 675v-38h-307v38h307zM144 304l255 16q-2 75 -29 124t-86 49q-62 0 -98 -52.5t-42 -136.5zM486 115l8 -9q-80 -117 -207 -117q-108 0 -172.5 70.5t-64.5 189.5q0 120 65 195t169 75q103 0 152.5 -58.5t49.5 -154.5v-25h-343v-8q0 -112 50.5 -169t128.5 -57
q90 0 164 68z" />
    <glyph glyph-name="Ebreve" unicode="&#x114;" horiz-adv-x="583" 
d="M440 900h10q1 -6 1 -18q0 -60 -34 -100t-98 -40q-65 0 -97 39.5t-32 100.5q0 11 1 18h10q10 -45 40.5 -69t77.5 -24q98 0 121 93zM538 159h12v-159h-470v9q21 10 30.5 33t9.5 70v450q0 47 -9.5 70t-30.5 33v9h453v-144h-11q-24 63 -65.5 90t-119.5 27h-124v-295l104 5
q46 2 70 24t36 68h10v-208h-10q-13 45 -37.5 65.5t-70.5 22.5l-102 5v-234q0 -39 18.5 -56.5t61.5 -17.5h66q83 0 121 29.5t58 103.5z" />
    <glyph glyph-name="ebreve" unicode="&#x115;" horiz-adv-x="535" 
d="M397 734h10q1 -6 1 -18q0 -60 -34 -100t-98 -40q-65 0 -97 39.5t-32 100.5q0 11 1 18h10q10 -45 40.5 -69t77.5 -24q98 0 121 93zM144 304l255 16q-2 75 -29 124t-86 49q-62 0 -98 -52.5t-42 -136.5zM486 115l8 -9q-80 -117 -207 -117q-108 0 -172.5 70.5t-64.5 189.5
q0 120 65 195t169 75q103 0 152.5 -58.5t49.5 -154.5v-25h-343v-8q0 -112 50.5 -169t128.5 -57q90 0 164 68z" />
    <glyph glyph-name="Edotaccent" unicode="&#x116;" horiz-adv-x="583" 
d="M318 760q-26 0 -44 18t-18 44t18 44t44 18t44 -18t18 -44t-18 -44t-44 -18zM538 159h12v-159h-470v9q21 10 30.5 33t9.5 70v450q0 47 -9.5 70t-30.5 33v9h453v-144h-11q-24 63 -65.5 90t-119.5 27h-124v-295l104 5q46 2 70 24t36 68h10v-208h-10q-13 45 -37.5 65.5
t-70.5 22.5l-102 5v-234q0 -39 18.5 -56.5t61.5 -17.5h66q83 0 121 29.5t58 103.5z" />
    <glyph glyph-name="edotaccent" unicode="&#x117;" horiz-adv-x="535" 
d="M278 594q-26 0 -44 18t-18 44t18 44t44 18t44 -18t18 -44t-18 -44t-44 -18zM144 304l255 16q-2 75 -29 124t-86 49q-62 0 -98 -52.5t-42 -136.5zM486 115l8 -9q-80 -117 -207 -117q-108 0 -172.5 70.5t-64.5 189.5q0 120 65 195t169 75q103 0 152.5 -58.5t49.5 -154.5
v-25h-343v-8q0 -112 50.5 -169t128.5 -57q90 0 164 68z" />
    <glyph glyph-name="Eogonek" unicode="&#x118;" horiz-adv-x="583" 
d="M550 0h-101q-31 -18 -51 -47t-20 -59q0 -36 21 -53.5t54 -17.5q40 0 79 22l5 -9q-46 -55 -126 -55q-46 0 -75.5 23.5t-29.5 66.5t33.5 77.5t82.5 51.5h-342v9q21 10 30.5 33t9.5 70v450q0 47 -9.5 70t-30.5 33v9h453v-144h-11q-24 63 -65.5 90t-119.5 27h-124v-295l104 5
q46 2 70 24t36 68h10v-208h-10q-13 45 -37.5 65.5t-70.5 22.5l-102 5v-234q0 -39 18.5 -56.5t61.5 -17.5h66q83 0 121 29.5t58 103.5h12v-159z" />
    <glyph glyph-name="eogonek" unicode="&#x119;" horiz-adv-x="535" 
d="M144 304l255 16q-2 75 -29 124t-86 49q-62 0 -98 -52.5t-42 -136.5zM486 115l8 -9q-54 -80 -134 -105q-31 -18 -51.5 -47.5t-20.5 -59.5q0 -36 21 -53.5t54 -17.5q40 0 79 22l5 -9q-48 -55 -126 -55q-46 0 -75.5 23.5t-29.5 66.5q0 37 25 68t65 51q-6 -1 -19 -1
q-108 0 -172.5 70.5t-64.5 189.5q0 120 65 195t169 75q103 0 152.5 -58.5t49.5 -154.5v-25h-343v-8q0 -112 50.5 -169t128.5 -57q90 0 164 68z" />
    <glyph glyph-name="Ecaron" unicode="&#x11a;" horiz-adv-x="583" 
d="M319 745h-10l-143 147l7 8l141 -68l141 68l7 -8zM538 159h12v-159h-470v9q21 10 30.5 33t9.5 70v450q0 47 -9.5 70t-30.5 33v9h453v-144h-11q-24 63 -65.5 90t-119.5 27h-124v-295l104 5q46 2 70 24t36 68h10v-208h-10q-13 45 -37.5 65.5t-70.5 22.5l-102 5v-234
q0 -39 18.5 -56.5t61.5 -17.5h66q83 0 121 29.5t58 103.5z" />
    <glyph glyph-name="ecaron" unicode="&#x11b;" horiz-adv-x="535" 
d="M283 579h-10l-143 147l7 8l141 -68l141 68l7 -8zM144 304l255 16q-2 75 -29 124t-86 49q-62 0 -98 -52.5t-42 -136.5zM486 115l8 -9q-80 -117 -207 -117q-108 0 -172.5 70.5t-64.5 189.5q0 120 65 195t169 75q103 0 152.5 -58.5t49.5 -154.5v-25h-343v-8
q0 -112 50.5 -169t128.5 -57q90 0 164 68z" />
    <glyph glyph-name="Gcircumflex" unicode="&#x11c;" horiz-adv-x="704" 
d="M392 813l-141 -68l-7 7l143 148h10l143 -148l-7 -7zM485 328h186v-9q-40 -19 -40 -102v-90q0 -62 13 -83q-98 -55 -237 -55q-156 0 -255.5 93t-99.5 258q0 147 96 246t250 99q126 0 229 -50v-149h-12q-67 172 -218 172q-108 0 -174.5 -90t-66.5 -229q0 -143 68.5 -233.5
t181.5 -90.5q67 0 101 26.5t34 86.5v89q0 47 -12.5 69.5t-43.5 32.5v9z" />
    <glyph glyph-name="gcircumflex" unicode="&#x11d;" horiz-adv-x="556" 
d="M264 647l-141 -68l-7 7l143 148h10l143 -148l-7 -7zM362 -9h-136q-32 0 -56 6q-57 -37 -57 -98q0 -52 39.5 -81.5t104.5 -29.5q83 0 138.5 38.5t55.5 102.5q0 33 -21.5 47.5t-67.5 14.5zM260 495q-48 0 -79 -41t-31 -105q0 -70 31.5 -112.5t78.5 -42.5t78.5 41t31.5 106
t-31.5 109.5t-78.5 44.5zM235 74h131q81 0 118 -25t37 -82q0 -81 -86 -149t-211 -68q-87 0 -136 35t-49 92q0 42 30.5 77t77.5 50q-50 22 -50 72q0 35 23.5 62t52.5 43q-51 18 -81 59.5t-30 99.5q0 78 57.5 128.5t149.5 50.5q68 0 116 -31q30 81 94 81q25 0 39.5 -14
t14.5 -34t-12 -33t-33 -13q-35 0 -47 34q-24 -4 -41 -31q58 -47 58 -129q0 -79 -58.5 -129.5t-149.5 -50.5q-30 0 -55 6q-29 -31 -29 -56q0 -45 69 -45z" />
    <glyph glyph-name="Gbreve" unicode="&#x11e;" horiz-adv-x="704" 
d="M508 900h10q1 -6 1 -18q0 -60 -34 -100t-98 -40q-65 0 -97 39.5t-32 100.5q0 11 1 18h10q10 -45 40.5 -69t77.5 -24q98 0 121 93zM485 328h186v-9q-40 -19 -40 -102v-90q0 -62 13 -83q-98 -55 -237 -55q-156 0 -255.5 93t-99.5 258q0 147 96 246t250 99q126 0 229 -50
v-149h-12q-67 172 -218 172q-108 0 -174.5 -90t-66.5 -229q0 -143 68.5 -233.5t181.5 -90.5q67 0 101 26.5t34 86.5v89q0 47 -12.5 69.5t-43.5 32.5v9z" />
    <glyph glyph-name="gbreve" unicode="&#x11f;" horiz-adv-x="556" 
d="M384 734h10q1 -6 1 -18q0 -60 -34 -100t-98 -40q-65 0 -97 39.5t-32 100.5q0 11 1 18h10q10 -45 40.5 -69t77.5 -24q98 0 121 93zM362 -9h-136q-32 0 -56 6q-57 -37 -57 -98q0 -52 39.5 -81.5t104.5 -29.5q83 0 138.5 38.5t55.5 102.5q0 33 -21.5 47.5t-67.5 14.5z
M260 495q-48 0 -79 -41t-31 -105q0 -70 31.5 -112.5t78.5 -42.5t78.5 41t31.5 106t-31.5 109.5t-78.5 44.5zM235 74h131q81 0 118 -25t37 -82q0 -81 -86 -149t-211 -68q-87 0 -136 35t-49 92q0 42 30.5 77t77.5 50q-50 22 -50 72q0 35 23.5 62t52.5 43q-51 18 -81 59.5
t-30 99.5q0 78 57.5 128.5t149.5 50.5q68 0 116 -31q30 81 94 81q25 0 39.5 -14t14.5 -34t-12 -33t-33 -13q-35 0 -47 34q-24 -4 -41 -31q58 -47 58 -129q0 -79 -58.5 -129.5t-149.5 -50.5q-30 0 -55 6q-29 -31 -29 -56q0 -45 69 -45z" />
    <glyph glyph-name="Gdotaccent" unicode="&#x120;" horiz-adv-x="704" 
d="M388 760q-26 0 -44 18t-18 44t18 44t44 18t44 -18t18 -44t-18 -44t-44 -18zM485 328h186v-9q-40 -19 -40 -102v-90q0 -62 13 -83q-98 -55 -237 -55q-156 0 -255.5 93t-99.5 258q0 147 96 246t250 99q126 0 229 -50v-149h-12q-67 172 -218 172q-108 0 -174.5 -90
t-66.5 -229q0 -143 68.5 -233.5t181.5 -90.5q67 0 101 26.5t34 86.5v89q0 47 -12.5 69.5t-43.5 32.5v9z" />
    <glyph glyph-name="gdotaccent" unicode="&#x121;" horiz-adv-x="556" 
d="M265 594q-25 0 -43.5 18t-18.5 44t18 44t44 18t44 -18t18 -44t-18.5 -44t-43.5 -18zM362 -9h-136q-32 0 -56 6q-57 -37 -57 -98q0 -52 39.5 -81.5t104.5 -29.5q83 0 138.5 38.5t55.5 102.5q0 33 -21.5 47.5t-67.5 14.5zM260 495q-48 0 -79 -41t-31 -105
q0 -70 31.5 -112.5t78.5 -42.5t78.5 41t31.5 106t-31.5 109.5t-78.5 44.5zM235 74h131q81 0 118 -25t37 -82q0 -81 -86 -149t-211 -68q-87 0 -136 35t-49 92q0 42 30.5 77t77.5 50q-50 22 -50 72q0 35 23.5 62t52.5 43q-51 18 -81 59.5t-30 99.5q0 78 57.5 128.5t149.5 50.5
q68 0 116 -31q30 81 94 81q25 0 39.5 -14t14.5 -34t-12 -33t-33 -13q-35 0 -47 34q-24 -4 -41 -31q58 -47 58 -129q0 -79 -58.5 -129.5t-149.5 -50.5q-30 0 -55 6q-29 -31 -29 -56q0 -45 69 -45z" />
    <glyph glyph-name="uni0122" unicode="&#x122;" horiz-adv-x="704" 
d="M338 -288l-3 7q29 18 48.5 49t20.5 66q-6 -1 -14 -1q-21 0 -35.5 15t-14.5 39t16.5 41t40.5 17q28 0 45 -19.5t17 -50.5q0 -51 -36.5 -97t-84.5 -66zM485 328h186v-9q-40 -19 -40 -102v-90q0 -62 13 -83q-98 -55 -237 -55q-156 0 -255.5 93t-99.5 258q0 147 96 246
t250 99q126 0 229 -50v-149h-12q-67 172 -218 172q-108 0 -174.5 -90t-66.5 -229q0 -143 68.5 -233.5t181.5 -90.5q67 0 101 26.5t34 86.5v89q0 47 -12.5 69.5t-43.5 32.5v9z" />
    <glyph glyph-name="uni0123" unicode="&#x123;" horiz-adv-x="556" 
d="M323 802l3 -7q-29 -18 -48.5 -49.5t-20.5 -66.5q6 2 14 2q21 -1 35.5 -16t14.5 -39t-16.5 -40.5t-40.5 -16.5q-28 0 -45 19.5t-17 50.5q0 51 36.5 97t84.5 66zM362 -9h-136q-32 0 -56 6q-57 -37 -57 -98q0 -52 39.5 -81.5t104.5 -29.5q83 0 138.5 38.5t55.5 102.5
q0 33 -21.5 47.5t-67.5 14.5zM260 495q-48 0 -79 -41t-31 -105q0 -70 31.5 -112.5t78.5 -42.5t78.5 41t31.5 106t-31.5 109.5t-78.5 44.5zM235 74h131q81 0 118 -25t37 -82q0 -81 -86 -149t-211 -68q-87 0 -136 35t-49 92q0 42 30.5 77t77.5 50q-50 22 -50 72q0 35 23.5 62
t52.5 43q-51 18 -81 59.5t-30 99.5q0 78 57.5 128.5t149.5 50.5q68 0 116 -31q30 81 94 81q25 0 39.5 -14t14.5 -34t-12 -33t-33 -13q-35 0 -47 34q-24 -4 -41 -31q58 -47 58 -129q0 -79 -58.5 -129.5t-149.5 -50.5q-30 0 -55 6q-29 -31 -29 -56q0 -45 69 -45z" />
    <glyph glyph-name="Hcircumflex" unicode="&#x124;" horiz-adv-x="773" 
d="M387 813l-141 -68l-7 7l143 148h10l143 -148l-7 -7zM693 674v-9q-21 -10 -30.5 -33t-9.5 -70v-450q0 -47 9.5 -70t30.5 -33v-9h-172v9q21 10 30.5 33t9.5 70v213h-348v-213q0 -48 9 -70.5t31 -32.5v-9h-173v9q21 10 30.5 33t9.5 70v450q0 47 -9.5 70t-30.5 33v9h173v-9
q-22 -10 -31 -32.5t-9 -70.5v-211h348v211q0 47 -9.5 70t-30.5 33v9h172z" />
    <glyph glyph-name="hcircumflex" unicode="&#x125;" horiz-adv-x="632" 
d="M284 849l-141 -68l-7 7l143 148h10l143 -148l-7 -7zM528 367v-255q0 -47 9.5 -70t31.5 -33v-9h-167v9q22 10 31 32.5t9 70.5v227q0 59 -23 85.5t-73 26.5q-67 0 -152 -59v-280q0 -48 9 -70.5t31 -32.5v-9h-167v9q22 10 31.5 33t9.5 70v504q0 64 -44 82v10l130 44v-338
q97 105 201 105q74 0 103.5 -40t29.5 -112z" />
    <glyph glyph-name="Hbar" unicode="&#x126;" horiz-adv-x="773" 
d="M561 351v142h-348v-142h348zM729 493h-76v-381q0 -47 9.5 -70t30.5 -33v-9h-172v9q21 10 30.5 33t9.5 70v213h-348v-213q0 -48 9 -70.5t31 -32.5v-9h-173v9q21 10 30.5 33t9.5 70v381h-74v21l74 1v47q0 47 -9.5 70t-30.5 33v9h173v-9q-22 -10 -31 -32.5t-9 -70.5v-46
l348 5v41q0 47 -9.5 70t-30.5 33v9h172v-9q-21 -10 -30.5 -33t-9.5 -70v-40l76 1v-30z" />
    <glyph glyph-name="hbar" unicode="&#x127;" horiz-adv-x="632" 
d="M528 367v-255q0 -47 9.5 -70t31.5 -33v-9h-167v9q22 10 31 32.5t9 70.5v227q0 59 -23 85.5t-73 26.5q-67 0 -152 -59v-280q0 -48 9 -70.5t31 -32.5v-9h-167v9q22 10 31.5 33t9.5 70v483h-80v23l80 2q-1 60 -44 78v10l130 44v-129l131 4v-32h-131v-181q97 105 201 105
q74 0 103.5 -40t29.5 -112z" />
    <glyph glyph-name="Itilde" unicode="&#x128;" horiz-adv-x="332" 
d="M213 562v-450q0 -48 9 -70.5t31 -32.5v-9h-173v9q21 10 30.5 33t9.5 70v450q0 47 -9.5 70t-30.5 33v9h173v-9q-22 -10 -31 -32.5t-9 -70.5zM24 760h-9q-2 8 -2 26q0 41 22 69.5t61 28.5q29 0 77.5 -30.5t73.5 -30.5q27 0 42.5 17.5t17.5 45.5h9q2 -9 2 -26q0 -42 -21 -70
t-62 -28q-28 0 -76.5 30.5t-74.5 30.5q-27 0 -42.5 -17.5t-17.5 -45.5z" />
    <glyph glyph-name="itilde" unicode="&#x129;" horiz-adv-x="304" 
d="M195 519v-407q0 -47 10 -70t31 -33v-9h-168v9q22 10 31.5 33t9.5 70v274q0 59 -44 79v10zM10 594h-9q-2 8 -2 26q0 41 22 69.5t61 28.5q29 0 77.5 -30.5t73.5 -30.5q27 0 42.5 17.5t17.5 45.5h9q2 -9 2 -26q0 -42 -21 -70t-62 -28q-28 0 -76.5 30.5t-74.5 30.5
q-27 0 -42.5 -17.5t-17.5 -45.5z" />
    <glyph glyph-name="Imacron" unicode="&#x12a;" horiz-adv-x="332" 
d="M213 562v-450q0 -48 9 -70.5t31 -32.5v-9h-173v9q21 10 30.5 33t9.5 70v450q0 47 -9.5 70t-30.5 33v9h173v-9q-22 -10 -31 -32.5t-9 -70.5zM12 803v38h307v-38h-307z" />
    <glyph glyph-name="imacron" unicode="&#x12b;" horiz-adv-x="304" 
d="M195 519v-407q0 -47 10 -70t31 -33v-9h-168v9q22 10 31.5 33t9.5 70v274q0 59 -44 79v10zM-2 637v38h307v-38h-307z" />
    <glyph glyph-name="Ibreve" unicode="&#x12c;" horiz-adv-x="332" 
d="M213 562v-450q0 -48 9 -70.5t31 -32.5v-9h-173v9q21 10 30.5 33t9.5 70v450q0 47 -9.5 70t-30.5 33v9h173v-9q-22 -10 -31 -32.5t-9 -70.5zM296 882q0 -60 -34 -100t-98 -40q-65 0 -97 39.5t-32 100.5q0 11 1 18h10q10 -45 40.5 -69t77.5 -24q98 0 121 93h10q1 -6 1 -18z
" />
    <glyph glyph-name="ibreve" unicode="&#x12d;" horiz-adv-x="304" 
d="M195 519v-407q0 -47 10 -70t31 -33v-9h-168v9q22 10 31.5 33t9.5 70v274q0 59 -44 79v10zM282 716q0 -60 -34 -100t-98 -40q-65 0 -97 39.5t-32 100.5q0 11 1 18h10q10 -45 40.5 -69t77.5 -24q98 0 121 93h10q1 -6 1 -18z" />
    <glyph glyph-name="Iogonek" unicode="&#x12e;" horiz-adv-x="332" 
d="M262 -155l4 -9q-46 -55 -126 -55q-46 0 -75.5 23.5t-29.5 66.5t33.5 77.5t82.5 51.5h-71v9q21 10 30.5 33t9.5 70v450q0 47 -9.5 70t-30.5 33v9h173v-9q-22 -10 -31 -32.5t-9 -70.5v-450q0 -48 9 -70.5t31 -32.5v-9h-74q-31 -18 -51.5 -47t-20.5 -59q0 -36 21 -53.5
t54 -17.5q41 0 80 22z" />
    <glyph glyph-name="iogonek" unicode="&#x12f;" horiz-adv-x="301" 
d="M147 592q-25 0 -44 19t-19 44t19 44t44 19t44 -19t19 -44t-19 -44t-44 -19zM246 -155l5 -9q-48 -55 -126 -55q-46 0 -75.5 23.5t-29.5 66.5t33 77.5t82 51.5h-68v9q22 10 31.5 33t9.5 70v274q0 59 -44 79v10l130 44v-407q0 -47 9.5 -70t31.5 -33v-9h-72q-31 -18 -51 -47
t-20 -59q0 -36 21 -53.5t53 -17.5q41 0 80 22z" />
    <glyph glyph-name="Idotaccent" unicode="&#x130;" horiz-adv-x="332" 
d="M213 562v-450q0 -48 9 -70.5t31 -32.5v-9h-173v9q21 10 30.5 33t9.5 70v450q0 47 -9.5 70t-30.5 33v9h173v-9q-22 -10 -31 -32.5t-9 -70.5zM228 822q0 -26 -18 -44t-44 -18t-44 18t-18 44t18 44t44 18t44 -18t18 -44z" />
    <glyph glyph-name="dotlessi" unicode="&#x131;" horiz-adv-x="304" 
d="M195 519v-407q0 -47 10 -70t31 -33v-9h-168v9q22 10 31.5 33t9.5 70v274q0 59 -44 79v10z" />
    <glyph glyph-name="IJ" unicode="&#x132;" horiz-adv-x="662" 
d="M213 562v-450q0 -48 9 -70.5t31 -32.5v-9h-173v9q21 10 30.5 33t9.5 70v450q0 47 -9.5 70t-30.5 33v9h173v-9q-22 -10 -31 -32.5t-9 -70.5zM548 562v-424q0 -118 -33.5 -173.5t-142.5 -93.5l-3 8q46 43 66 102.5t20 154.5v426q0 48 -9 70.5t-31 32.5v9h173v-9
q-21 -10 -30.5 -33t-9.5 -70z" />
    <glyph glyph-name="ij" unicode="&#x133;" horiz-adv-x="603" 
d="M194 519v-407q0 -47 9.5 -70t31.5 -33v-9h-168v9q22 10 31.5 33t9.5 70v274q0 59 -44 79v10zM84 655q0 25 19 44t44 19t44 -19t19 -44t-19 -44t-44 -19t-44 19t-19 44zM409 21v365q0 59 -44 79v10l130 44v-494q0 -112 -39.5 -181.5t-141.5 -99.5l-4 8q99 85 99 269z
M384 655q0 25 19 44t44 19t44 -19t19 -44t-19 -44t-44 -19t-44 19t-19 44z" />
    <glyph glyph-name="Jcircumflex" unicode="&#x134;" horiz-adv-x="330" 
d="M83 665v9h173v-9q-21 -10 -30.5 -33t-9.5 -70v-424q0 -118 -33.5 -173.5t-142.5 -93.5l-3 8q46 43 66 102.5t20 154.5v426q0 48 -9 70.5t-31 32.5zM172 900l143 -148l-7 -7l-141 68l-141 -68l-7 7l143 148h10z" />
    <glyph glyph-name="jcircumflex" unicode="&#x135;" horiz-adv-x="300" 
d="M65 465v10l130 44v-494q0 -112 -39.5 -181.5t-141.5 -99.5l-3 8q98 84 98 269v365q0 60 -44 79zM155 734l143 -148l-7 -7l-141 68l-141 -68l-7 7l143 148h10z" />
    <glyph glyph-name="uni0136" unicode="&#x136;" horiz-adv-x="666" 
d="M334 -55q28 0 45 -19.5t17 -50.5q0 -51 -36.5 -97t-84.5 -66l-3 7q29 18 48.5 49t20.5 66q-6 -1 -14 -1q-21 0 -35.5 15t-14.5 39t16.5 41t40.5 17zM261 320v8l172 209q32 41 34 75.5t-24 52.5v9h181v-9q-72 -30 -147 -119l-145 -166l129 -165q121 -157 195 -192v-9
q-23 -25 -70 -25q-44 0 -80.5 30t-94.5 106zM213 562v-450q0 -48 9 -70.5t31 -32.5v-9h-173v9q21 10 30.5 33t9.5 70v450q0 47 -9.5 70t-30.5 33v9h173v-9q-22 -10 -31 -32.5t-9 -70.5z" />
    <glyph glyph-name="uni0137" unicode="&#x137;" horiz-adv-x="571" 
d="M194 752v-640q0 -47 9.5 -70t31.5 -33v-9h-168v9q22 10 31.5 33t9.5 70v504q0 64 -44 82v10zM225 258l109 123q35 40 36 72.5t-31 45.5v9h198v-9q-82 -31 -171 -121l-75 -78l121 -139q61 -70 92 -100t62 -48v-8q-21 -16 -52 -16q-39 0 -71.5 21.5t-81.5 77.5l-136 160v10
zM228 -288l-3 7q29 18 48.5 49t20.5 66q-6 -1 -14 -1q-21 0 -35.5 15t-14.5 39t16.5 41t40.5 17q28 0 45 -19.5t17 -50.5q0 -51 -36.5 -97t-84.5 -66z" />
    <glyph glyph-name="Lacute" unicode="&#x139;" horiz-adv-x="566" 
d="M356 900l-171 -155h-26l80 155h117zM533 185h11v-185h-464v9q40 19 40 103v450q0 48 -9 70.5t-31 32.5v9h173v-9q-22 -10 -31 -32.5t-9 -70.5v-462q0 -39 19 -56.5t64 -17.5h55q85 0 124 35t58 124z" />
    <glyph glyph-name="lacute" unicode="&#x13a;" horiz-adv-x="301" 
d="M187 934h117l-171 -155h-26zM194 752v-640q0 -47 9.5 -70t31.5 -33v-9h-168v9q22 10 31.5 33t9.5 70v504q0 64 -44 82v10z" />
    <glyph glyph-name="uni013B" unicode="&#x13b;" horiz-adv-x="566" 
d="M255 -288l-3 7q29 18 48.5 49t20.5 66q-6 -1 -14 -1q-21 0 -35.5 15t-14.5 39t16.5 41t40.5 17q28 0 45 -19.5t17 -50.5q0 -51 -36.5 -97t-84.5 -66zM533 185h11v-185h-464v9q40 19 40 103v450q0 48 -9 70.5t-31 32.5v9h173v-9q-22 -10 -31 -32.5t-9 -70.5v-462
q0 -39 19 -56.5t64 -17.5h55q85 0 124 35t58 124z" />
    <glyph glyph-name="uni013C" unicode="&#x13c;" horiz-adv-x="301" 
d="M147 -55q28 0 45 -19.5t17 -50.5q0 -51 -36.5 -97t-84.5 -66l-3 7q29 18 48.5 49t20.5 66q-6 -1 -14 -1q-21 0 -35.5 15t-14.5 39t16.5 41t40.5 17zM194 752v-640q0 -47 9.5 -70t31.5 -33v-9h-168v9q22 10 31.5 33t9.5 70v504q0 64 -44 82v10z" />
    <glyph glyph-name="Lcaron" unicode="&#x13d;" horiz-adv-x="566" 
d="M355 455l-3 7q29 19 48.5 48t19.5 63q-6 -2 -13 -2q-21 1 -35.5 16t-14.5 38q0 24 16 40.5t40 16.5q28 0 45 -19t17 -50q0 -50 -37 -94t-83 -64zM533 185h11v-185h-464v9q40 19 40 103v450q0 48 -9 70.5t-31 32.5v9h173v-9q-22 -10 -31 -32.5t-9 -70.5v-462
q0 -39 19 -56.5t64 -17.5h55q85 0 124 35t58 124z" />
    <glyph glyph-name="lcaron" unicode="&#x13e;" horiz-adv-x="364" 
d="M315 761q28 0 45 -19t17 -50q0 -50 -37 -94t-83 -64l-3 7q29 19 48.5 48t20.5 63q-6 -2 -14 -2q-21 1 -35.5 16t-14.5 38q0 24 16 40.5t40 16.5zM194 752v-640q0 -47 9.5 -70t31.5 -33v-9h-168v9q22 10 31.5 33t9.5 70v504q0 64 -44 82v10z" />
    <glyph glyph-name="Ldot" unicode="&#x13f;" horiz-adv-x="566" 
d="M407 293q-25 0 -43.5 18.5t-18.5 43.5t18.5 43.5t43.5 18.5t43.5 -18.5t18.5 -43.5t-18.5 -43.5t-43.5 -18.5zM533 185h11v-185h-464v9q40 19 40 103v450q0 48 -9 70.5t-31 32.5v9h173v-9q-22 -10 -31 -32.5t-9 -70.5v-462q0 -39 19 -56.5t64 -17.5h55q85 0 124 35
t58 124z" />
    <glyph glyph-name="ldot" unicode="&#x140;" horiz-adv-x="337" 
d="M194 752v-640q0 -47 9.5 -70t31.5 -33v-9h-168v9q22 10 31.5 33t9.5 70v504q0 64 -44 82v10zM251 355q0 26 18.5 44t44.5 18t44 -18.5t18 -43.5t-18 -43.5t-44 -18.5t-44.5 18t-18.5 44z" />
    <glyph glyph-name="Lslash" unicode="&#x141;" horiz-adv-x="566" 
d="M533 185h11v-185h-464v9q40 19 40 103v157l-78 -42l-11 20l89 50v265q0 48 -9 70.5t-31 32.5v9h173v-9q-22 -10 -31 -32.5t-9 -70.5v-212l146 82v-36l-146 -78v-218q0 -39 19 -56.5t64 -17.5h55q85 0 124 35t58 124z" />
    <glyph glyph-name="lslash" unicode="&#x142;" horiz-adv-x="305" 
d="M287 428l-92 -51v-265q0 -47 9.5 -70t31.5 -33v-9h-168v9q22 10 31.5 33t9.5 70v218l-77 -42l-12 19l89 52v257q0 64 -44 82v10l130 44v-343l92 53v-34z" />
    <glyph glyph-name="Nacute" unicode="&#x143;" horiz-adv-x="730" 
d="M400 900h117l-171 -155h-26zM610 510l-10 -524h-15l-434 542l7 -357q3 -129 66 -162v-9h-166v9q61 31 64 163l4 319q0 136 -64 174v9h96l420 -535l-2 372q-1 123 -63 154v9h159v-9q-59 -30 -62 -155z" />
    <glyph glyph-name="nacute" unicode="&#x144;" horiz-adv-x="632" 
d="M353 734h117l-171 -155h-26zM194 392v-280q0 -48 9 -70.5t31 -32.5v-9h-167v9q22 10 31.5 33t9.5 70v276q0 58 -44 80v9l130 44v-107q97 105 201 105q133 0 133 -152v-255q0 -47 10 -70t31 -33v-9h-167v9q22 10 31 32.5t9 70.5v227q0 59 -23 85.5t-73 26.5
q-70 0 -152 -59z" />
    <glyph glyph-name="uni0145" unicode="&#x145;" horiz-adv-x="730" 
d="M368 -55q28 0 45 -19.5t17 -50.5q0 -51 -36.5 -97t-84.5 -66l-3 7q29 18 48.5 49t20.5 66q-6 -1 -14 -1q-21 0 -35.5 15t-14.5 39t16.5 41t40.5 17zM610 510l-10 -524h-15l-434 542l7 -357q3 -129 66 -162v-9h-166v9q61 31 64 163l4 319q0 136 -64 174v9h96l420 -535
l-2 372q-1 123 -63 154v9h159v-9q-59 -30 -62 -155z" />
    <glyph glyph-name="uni0146" unicode="&#x146;" horiz-adv-x="632" 
d="M317 -55q28 0 45 -19.5t17 -50.5q0 -51 -36.5 -97t-84.5 -66l-3 7q29 18 48.5 49t20.5 66q-6 -1 -14 -1q-21 0 -35.5 15t-14.5 39t16.5 41t40.5 17zM194 392v-280q0 -48 9 -70.5t31 -32.5v-9h-167v9q22 10 31.5 33t9.5 70v276q0 58 -44 80v9l130 44v-107q97 105 201 105
q133 0 133 -152v-255q0 -47 10 -70t31 -33v-9h-167v9q22 10 31 32.5t9 70.5v227q0 59 -23 85.5t-73 26.5q-70 0 -152 -59z" />
    <glyph glyph-name="Ncaron" unicode="&#x147;" horiz-adv-x="730" 
d="M370 745h-10l-143 147l7 8l141 -68l141 68l7 -8zM513 674h159v-9q-59 -30 -62 -155l-10 -524h-15l-434 542l7 -357q3 -129 66 -162v-9h-166v9q61 31 64 163l4 319q0 136 -64 174v9h96l420 -535l-2 372q-1 123 -63 154v9z" />
    <glyph glyph-name="ncaron" unicode="&#x148;" horiz-adv-x="632" 
d="M321 579h-10l-143 147l7 8l141 -68l141 68l7 -8zM528 367v-255q0 -47 10 -70t31 -33v-9h-167v9q22 10 31 32.5t9 70.5v227q0 59 -23 85.5t-73 26.5q-70 0 -152 -59v-280q0 -48 9 -70.5t31 -32.5v-9h-167v9q22 10 31.5 33t9.5 70v276q0 58 -44 80v9l130 44v-107
q97 105 201 105q133 0 133 -152z" />
    <glyph glyph-name="Omacron" unicode="&#x14c;" horiz-adv-x="773" 
d="M232 803v38h307v-38h-307zM386 15q106 0 168 90t62 236q0 135 -63 226.5t-167 91.5q-105 0 -167.5 -91t-62.5 -227q0 -145 62.5 -235.5t167.5 -90.5zM385 -11q-152 0 -242.5 95t-90.5 257q0 145 93 244.5t241 99.5q151 0 243 -98.5t92 -245.5q0 -157 -94 -254.5
t-242 -97.5z" />
    <glyph glyph-name="omacron" unicode="&#x14d;" horiz-adv-x="598" 
d="M145 637v38h307v-38h-307zM549 259q0 -122 -70.5 -196t-185.5 -74q-110 0 -176.5 72t-66.5 185q0 123 69 198t186 75q112 0 178 -73t66 -187zM144 268q0 -110 44.5 -181t118.5 -71q65 0 106 60.5t41 165.5q0 114 -44.5 182.5t-118.5 68.5q-65 0 -106 -62.5t-41 -162.5z
" />
    <glyph glyph-name="Obreve" unicode="&#x14e;" horiz-adv-x="773" 
d="M386 15q106 0 168 90t62 236q0 135 -63 226.5t-167 91.5q-105 0 -167.5 -91t-62.5 -227q0 -145 62.5 -235.5t167.5 -90.5zM385 -11q-152 0 -242.5 95t-90.5 257q0 145 93 244.5t241 99.5q151 0 243 -98.5t92 -245.5q0 -157 -94 -254.5t-242 -97.5zM516 882
q0 -60 -34 -100t-98 -40q-65 0 -97 39.5t-32 100.5q0 11 1 18h10q10 -45 40.5 -69t77.5 -24q98 0 121 93h10q1 -6 1 -18z" />
    <glyph glyph-name="obreve" unicode="&#x14f;" horiz-adv-x="598" 
d="M549 259q0 -122 -70.5 -196t-185.5 -74q-110 0 -176.5 72t-66.5 185q0 123 69 198t186 75q112 0 178 -73t66 -187zM144 268q0 -110 44.5 -181t118.5 -71q65 0 106 60.5t41 165.5q0 114 -44.5 182.5t-118.5 68.5q-65 0 -106 -62.5t-41 -162.5zM429 716q0 -60 -34 -100
t-98 -40q-65 0 -97 39.5t-32 100.5q0 11 1 18h10q10 -45 40.5 -69t77.5 -24q98 0 121 93h10q1 -6 1 -18z" />
    <glyph glyph-name="Ohungarumlaut" unicode="&#x150;" horiz-adv-x="773" 
d="M361 900h109l-163 -155h-26zM513 900h110l-164 -155h-26zM386 15q106 0 168 90t62 236q0 135 -63 226.5t-167 91.5q-105 0 -167.5 -91t-62.5 -227q0 -145 62.5 -235.5t167.5 -90.5zM385 -11q-152 0 -242.5 95t-90.5 257q0 145 93 244.5t241 99.5q151 0 243 -98.5
t92 -245.5q0 -157 -94 -254.5t-242 -97.5z" />
    <glyph glyph-name="ohungarumlaut" unicode="&#x151;" horiz-adv-x="598" 
d="M274 734h109l-163 -155h-26zM426 734h110l-164 -155h-26zM549 259q0 -122 -70.5 -196t-185.5 -74q-110 0 -176.5 72t-66.5 185q0 123 69 198t186 75q112 0 178 -73t66 -187zM144 268q0 -110 44.5 -181t118.5 -71q65 0 106 60.5t41 165.5q0 114 -44.5 182.5t-118.5 68.5
q-65 0 -106 -62.5t-41 -162.5z" />
    <glyph glyph-name="OE" unicode="&#x152;" horiz-adv-x="1060" 
d="M382 15q107 0 164.5 89t57.5 237q0 136 -60 227t-162 91t-164 -91.5t-62 -226.5q0 -145 61.5 -235.5t164.5 -90.5zM1015 159h11v-159h-430v96q-86 -107 -218 -107q-147 0 -236.5 95.5t-89.5 256.5q0 145 91.5 244.5t234.5 99.5q129 0 218 -108v97h413v-144h-11
q-24 63 -65.5 90t-119.5 27h-124v-295l105 5q45 2 69 24t36 68h10v-208h-10q-12 45 -36.5 65.5t-71.5 22.5l-102 5v-234q0 -39 19 -56.5t62 -17.5h65q82 0 120.5 29.5t59.5 103.5z" />
    <glyph glyph-name="oe" unicode="&#x153;" horiz-adv-x="937" 
d="M307 16q65 0 106 60.5t41 165.5q0 114 -44.5 182.5t-118.5 68.5q-65 0 -106 -62.5t-41 -162.5q0 -110 44.5 -181t118.5 -71zM548 304l253 17q-1 74 -28 123t-87 49q-62 0 -97 -53t-41 -136zM888 115l8 -9q-80 -117 -207 -117q-131 0 -193 100q-70 -100 -203 -100
q-110 0 -176.5 72t-66.5 185q0 123 69 198t186 75q130 0 195 -99q65 99 186 99q104 0 153 -58.5t49 -155.5v-24h-341v-8q0 -112 49.5 -169t127.5 -57q90 0 164 68z" />
    <glyph glyph-name="Racute" unicode="&#x154;" horiz-adv-x="637" 
d="M351 900h117l-171 -155h-26zM571 -11q-45 0 -82.5 29.5t-107.5 117.5q-22 27 -134 173v9q99 7 150 50.5t51 115.5q0 79 -48 121t-140 42h-47v-535q0 -48 9 -70.5t31 -32.5v-9h-173v9q22 10 31 32.5t9 70.5v450q0 47 -9.5 70t-30.5 33v9h210q128 0 195 -49t67 -136
q0 -76 -56 -120t-144 -55l91 -108q81 -97 120 -133.5t74 -51.5l-1 -9q-23 -23 -65 -23z" />
    <glyph glyph-name="racute" unicode="&#x155;" horiz-adv-x="422" 
d="M272 734h117l-171 -155h-26zM194 409q38 51 79 81t75 29q29 1 46.5 -17t17.5 -43q0 -27 -17 -44.5t-43 -17.5q-23 0 -40 17.5t-18 44.5q-18 -2 -46.5 -24.5t-53.5 -53.5v-269q0 -47 12 -69.5t41 -33.5v-9h-180v9q22 10 31.5 33t9.5 70v276q0 58 -44 80v9l130 44v-112z
" />
    <glyph glyph-name="uni0156" unicode="&#x156;" horiz-adv-x="637" 
d="M336 -55q28 0 45 -19.5t17 -50.5q0 -51 -36.5 -97t-84.5 -66l-3 7q29 18 48.5 49t20.5 66q-6 -1 -14 -1q-21 0 -35.5 15t-14.5 39t16.5 41t40.5 17zM571 -11q-45 0 -82.5 29.5t-107.5 117.5q-22 27 -134 173v9q99 7 150 50.5t51 115.5q0 79 -48 121t-140 42h-47v-535
q0 -48 9 -70.5t31 -32.5v-9h-173v9q22 10 31 32.5t9 70.5v450q0 47 -9.5 70t-30.5 33v9h210q128 0 195 -49t67 -136q0 -76 -56 -120t-144 -55l91 -108q81 -97 120 -133.5t74 -51.5l-1 -9q-23 -23 -65 -23z" />
    <glyph glyph-name="uni0157" unicode="&#x157;" horiz-adv-x="422" 
d="M182 -53q28 0 45 -19.5t17 -50.5q0 -51 -36.5 -97t-84.5 -66l-3 7q29 18 48.5 49t20.5 66q-6 -1 -14 -1q-21 0 -35.5 15t-14.5 39t16.5 41t40.5 17zM194 409q38 51 79 81t75 29q29 1 46.5 -17t17.5 -43q0 -27 -17 -44.5t-43 -17.5q-23 0 -40 17.5t-18 44.5
q-18 -2 -46.5 -24.5t-53.5 -53.5v-269q0 -47 12 -69.5t41 -33.5v-9h-180v9q22 10 31.5 33t9.5 70v276q0 58 -44 80v9l130 44v-112z" />
    <glyph glyph-name="Rcaron" unicode="&#x158;" horiz-adv-x="637" 
d="M321 745h-10l-143 147l7 8l141 -68l141 68l7 -8zM352 314l91 -108q81 -97 120 -133.5t74 -51.5l-1 -9q-23 -23 -65 -23q-45 0 -82.5 29.5t-107.5 117.5q-22 27 -134 173v9q99 7 150 50.5t51 115.5q0 79 -48 121t-140 42h-47v-535q0 -48 9 -70.5t31 -32.5v-9h-173v9
q22 10 31 32.5t9 70.5v450q0 47 -9.5 70t-30.5 33v9h210q128 0 195 -49t67 -136q0 -76 -56 -120t-144 -55z" />
    <glyph glyph-name="rcaron" unicode="&#x159;" horiz-adv-x="422" 
d="M240 579h-10l-143 147l7 8l141 -68l141 68l7 -8zM194 521v-112q38 51 79 81t75 29q29 1 46.5 -17t17.5 -43q0 -27 -17 -44.5t-43 -17.5q-23 0 -40 17.5t-18 44.5q-18 -2 -46.5 -24.5t-53.5 -53.5v-269q0 -47 12 -69.5t41 -33.5v-9h-180v9q22 10 31.5 33t9.5 70v276
q0 58 -44 80v9z" />
    <glyph glyph-name="Sacute" unicode="&#x15a;" horiz-adv-x="500" 
d="M275 900h117l-171 -155h-26zM61 189q29 -85 78.5 -128.5t105.5 -44.5q61 0 93.5 33t32.5 82q0 37 -18 66.5t-46.5 50.5t-63.5 40t-69.5 40t-63 44.5t-46.5 59t-18 79.5q0 76 57.5 124.5t146.5 48.5q110 0 177 -44v-144h-11q-24 80 -70.5 121t-101.5 41q-53 0 -84 -31
t-31 -77q0 -50 33.5 -88t81 -64t95 -53.5t81 -71t33.5 -101.5q0 -79 -56.5 -131t-150.5 -52q-98 0 -196 50v150h11z" />
    <glyph glyph-name="sacute" unicode="&#x15b;" horiz-adv-x="452" 
d="M261 734h117l-171 -155h-26zM223 -9q-69 -2 -122 25t-53 69q0 23 14.5 38.5t37.5 15.5t38 -14t15 -35q0 -30 -24 -44q30 -31 94 -31q52 0 82.5 24t30.5 64t-29 67.5t-70 44.5t-82 35t-70 51t-29 81q0 59 50 98t129 39q71 0 115 -28t44 -67q0 -22 -14 -37.5t-37 -15.5
t-38 14t-15 36q0 33 28 46q-24 27 -89 27q-48 0 -72.5 -22t-24.5 -55q0 -36 28.5 -61.5t69 -42t81.5 -35t69.5 -52.5t28.5 -82q0 -66 -54 -110.5t-132 -42.5z" />
    <glyph glyph-name="Scircumflex" unicode="&#x15c;" horiz-adv-x="500" 
d="M242 813l-141 -68l-7 7l143 148h10l143 -148l-7 -7zM427 496h-11q-24 80 -70.5 121t-101.5 41q-53 0 -84 -31t-31 -77q0 -50 33.5 -88t81 -64t95 -53.5t81 -71t33.5 -101.5q0 -79 -56.5 -131t-150.5 -52q-98 0 -196 50v150h11q29 -85 78.5 -128.5t105.5 -44.5
q61 0 93.5 33t32.5 82q0 37 -18 66.5t-46.5 50.5t-63.5 40t-69.5 40t-63 44.5t-46.5 59t-18 79.5q0 76 57.5 124.5t146.5 48.5q110 0 177 -44v-144z" />
    <glyph glyph-name="scircumflex" unicode="&#x15d;" horiz-adv-x="452" 
d="M226 647l-141 -68l-7 7l143 148h10l143 -148l-7 -7zM132 417q0 -36 28.5 -61.5t69 -42t81.5 -35t69.5 -52.5t28.5 -82q0 -66 -54 -110.5t-132 -42.5q-69 -2 -122 25t-53 69q0 23 14.5 38.5t37.5 15.5t38 -14t15 -35q0 -30 -24 -44q30 -31 94 -31q52 0 82.5 24t30.5 64
t-29 67.5t-70 44.5t-82 35t-70 51t-29 81q0 59 50 98t129 39q71 0 115 -28t44 -67q0 -22 -14 -37.5t-37 -15.5t-38 14t-15 36q0 33 28 46q-24 27 -89 27q-48 0 -72.5 -22t-24.5 -55z" />
    <glyph glyph-name="uni015E" unicode="&#x15e;" horiz-adv-x="500" 
d="M427 496h-11q-24 80 -70.5 121t-101.5 41q-53 0 -84 -31t-31 -77q0 -50 33.5 -88t81 -64t95 -53.5t81 -71t33.5 -101.5q0 -71 -47 -121t-126 -60l-23 -53q43 -4 68.5 -25.5t25.5 -50.5q0 -37 -28 -59t-75 -22q-57 0 -99 27l5 18q34 -16 64 -16q26 0 42.5 13t16.5 36
t-20.5 40t-63.5 20l44 70q-91 2 -187 50v150h11q29 -85 78.5 -128.5t105.5 -44.5q61 0 93.5 33t32.5 82q0 37 -18 66.5t-46.5 50.5t-63.5 40t-69.5 40t-63 44.5t-46.5 59t-18 79.5q0 76 57.5 124.5t146.5 48.5q110 0 177 -44v-144z" />
    <glyph glyph-name="uni015F" unicode="&#x15f;" horiz-adv-x="452" 
d="M162 -81l45 72q-65 2 -112 28.5t-47 65.5q0 23 14.5 38.5t37.5 15.5t38 -14t15 -35q0 -30 -24 -44q30 -31 94 -31q52 0 82.5 24t30.5 64t-29 67.5t-70 44.5t-82 35t-70 51t-29 81q0 59 50 98t129 39q71 0 115 -28t44 -67q0 -22 -14 -37.5t-37 -15.5t-38 14t-15 36
q0 33 28 46q-24 27 -89 27q-48 0 -72.5 -22t-24.5 -55q0 -36 28.5 -61.5t69 -42t81.5 -35t69.5 -52.5t28.5 -82q0 -61 -45.5 -103.5t-114.5 -48.5l-23 -54q43 -4 68.5 -25.5t25.5 -50.5q0 -37 -28 -59t-76 -22q-56 0 -98 27l5 18q34 -16 63 -16q27 0 43.5 13t16.5 36
t-20.5 40t-63.5 20z" />
    <glyph glyph-name="Scaron" unicode="&#x160;" horiz-adv-x="500" 
d="M247 745h-10l-143 147l7 8l141 -68l141 68l7 -8zM427 496h-11q-24 80 -70.5 121t-101.5 41q-53 0 -84 -31t-31 -77q0 -50 33.5 -88t81 -64t95 -53.5t81 -71t33.5 -101.5q0 -79 -56.5 -131t-150.5 -52q-98 0 -196 50v150h11q29 -85 78.5 -128.5t105.5 -44.5q61 0 93.5 33
t32.5 82q0 37 -18 66.5t-46.5 50.5t-63.5 40t-69.5 40t-63 44.5t-46.5 59t-18 79.5q0 76 57.5 124.5t146.5 48.5q110 0 177 -44v-144z" />
    <glyph glyph-name="scaron" unicode="&#x161;" horiz-adv-x="452" 
d="M231 579h-10l-143 147l7 8l141 -68l141 68l7 -8zM132 417q0 -36 28.5 -61.5t69 -42t81.5 -35t69.5 -52.5t28.5 -82q0 -66 -54 -110.5t-132 -42.5q-69 -2 -122 25t-53 69q0 23 14.5 38.5t37.5 15.5t38 -14t15 -35q0 -30 -24 -44q30 -31 94 -31q52 0 82.5 24t30.5 64
t-29 67.5t-70 44.5t-82 35t-70 51t-29 81q0 59 50 98t129 39q71 0 115 -28t44 -67q0 -22 -14 -37.5t-37 -15.5t-38 14t-15 36q0 33 28 46q-24 27 -89 27q-48 0 -72.5 -22t-24.5 -55z" />
    <glyph glyph-name="uni0162" unicode="&#x162;" horiz-adv-x="611" 
d="M27 674h557v-179h-11q-16 73 -53 113t-109 40h-61v-536q0 -48 9 -70.5t31 -32.5v-9h-67l-26 -62q43 -4 68.5 -25.5t25.5 -50.5q0 -37 -28 -59t-76 -22q-57 0 -99 27l6 18q32 -16 63 -16q26 0 42.5 13t16.5 36t-20.5 40t-63.5 20l52 81h-67v9q22 10 31 32.5t9 70.5v536
h-57q-73 0 -110 -40t-52 -113h-11v179z" />
    <glyph glyph-name="uni0163" unicode="&#x163;" horiz-adv-x="358" 
d="M343 64l5 -9q-46 -53 -117 -58l-25 -59q43 -4 68.5 -25.5t25.5 -50.5q0 -37 -28 -59t-76 -22q-57 0 -99 27l6 18q34 -16 63 -16q26 0 42.5 13t16.5 36t-20.5 40t-63.5 20l51 79q-84 15 -84 133v335h-78v24q107 42 141 156h23v-144l146 10l-9 -46h-137v-321
q0 -52 16.5 -74.5t55.5 -22.5q41 0 77 16z" />
    <glyph glyph-name="Tcaron" unicode="&#x164;" horiz-adv-x="611" 
d="M310 745h-10l-143 147l7 8l141 -68l141 68l7 -8zM27 674h557v-179h-11q-16 73 -53 113t-109 40h-61v-536q0 -48 9 -70.5t31 -32.5v-9h-173v9q22 10 31 32.5t9 70.5v536h-57q-73 0 -110 -40t-52 -113h-11v179z" />
    <glyph glyph-name="tcaron" unicode="&#x165;" horiz-adv-x="366" 
d="M252 543l-3 7q29 19 48.5 48t20.5 63q-6 -2 -14 -2q-21 1 -35.5 16t-14.5 38q0 24 16 40.5t40 16.5q28 0 45 -19t17 -50q0 -50 -37 -94t-83 -64zM194 466v-321q0 -52 16.5 -74.5t55.5 -22.5q41 0 77 16l5 -9q-23 -26 -59 -42.5t-71 -16.5q-110 0 -110 135v335h-78v24
q107 42 141 156h23v-144l146 10l-9 -46h-137z" />
    <glyph glyph-name="Tbar" unicode="&#x166;" horiz-adv-x="611" 
d="M27 674h557v-179h-11q-16 73 -53 113t-109 40h-61v-296l156 3v-30h-156v-213q0 -48 9 -70.5t31 -32.5v-9h-173v9q22 10 31 32.5t9 70.5v213h-144v22l144 3v298h-57q-73 0 -110 -40t-52 -113h-11v179z" />
    <glyph glyph-name="tbar" unicode="&#x167;" horiz-adv-x="358" 
d="M343 64l5 -9q-23 -26 -59 -42.5t-71 -16.5q-110 0 -110 135v132h-72v22l72 2v179h-78v24q107 42 141 156h23v-144l146 10l-9 -46h-137v-176l139 4v-31h-139v-118q0 -52 16.5 -74.5t55.5 -22.5q41 0 77 16z" />
    <glyph glyph-name="Utilde" unicode="&#x168;" horiz-adv-x="705" 
d="M368 -9q-118 0 -187 54.5t-69 173.5v343q0 48 -9 70.5t-31 32.5v9h173v-9q-22 -10 -31 -32.5t-9 -70.5v-333q0 -198 182 -198q84 0 129.5 48t44.5 143l-3 285q-1 122 -71 158v9h181v-9q-68 -34 -72 -159l-6 -286q-3 -114 -60 -171.5t-162 -57.5zM233 760h-9q-2 8 -2 26
q0 41 22 69.5t61 28.5q29 0 77.5 -30.5t73.5 -30.5q27 0 42.5 17.5t17.5 45.5h9q2 -9 2 -26q0 -42 -21 -70t-62 -28q-28 0 -76.5 30.5t-74.5 30.5q-27 0 -42.5 -17.5t-17.5 -45.5z" />
    <glyph glyph-name="utilde" unicode="&#x169;" horiz-adv-x="621" 
d="M427 116v272q0 64 -44 83v10l130 40v-398q0 -75 44 -94v-9l-130 -30v104q-89 -105 -188 -105q-135 0 -135 152v247q0 63 -44 83v10l130 40v-353q0 -58 22.5 -84.5t71.5 -26.5q66 0 143 59zM169 594h-9q-2 8 -2 26q0 41 22 69.5t61 28.5q29 0 77.5 -30.5t73.5 -30.5
q27 0 42.5 17.5t17.5 45.5h9q2 -9 2 -26q0 -42 -21 -70t-62 -28q-28 0 -76.5 30.5t-74.5 30.5q-27 0 -42.5 -17.5t-17.5 -45.5z" />
    <glyph glyph-name="Umacron" unicode="&#x16a;" horiz-adv-x="705" 
d="M368 -9q-118 0 -187 54.5t-69 173.5v343q0 48 -9 70.5t-31 32.5v9h173v-9q-22 -10 -31 -32.5t-9 -70.5v-333q0 -198 182 -198q84 0 129.5 48t44.5 143l-3 285q-1 122 -71 158v9h181v-9q-68 -34 -72 -159l-6 -286q-3 -114 -60 -171.5t-162 -57.5zM221 803v38h307v-38h-307
z" />
    <glyph glyph-name="umacron" unicode="&#x16b;" horiz-adv-x="621" 
d="M427 116v272q0 64 -44 83v10l130 40v-398q0 -75 44 -94v-9l-130 -30v104q-89 -105 -188 -105q-135 0 -135 152v247q0 63 -44 83v10l130 40v-353q0 -58 22.5 -84.5t71.5 -26.5q66 0 143 59zM157 637v38h307v-38h-307z" />
    <glyph glyph-name="Ubreve" unicode="&#x16c;" horiz-adv-x="705" 
d="M368 -9q-118 0 -187 54.5t-69 173.5v343q0 48 -9 70.5t-31 32.5v9h173v-9q-22 -10 -31 -32.5t-9 -70.5v-333q0 -198 182 -198q84 0 129.5 48t44.5 143l-3 285q-1 122 -71 158v9h181v-9q-68 -34 -72 -159l-6 -286q-3 -114 -60 -171.5t-162 -57.5zM508 882q0 -60 -34 -100
t-98 -40q-65 0 -97 39.5t-32 100.5q0 11 1 18h10q10 -45 40.5 -69t77.5 -24q98 0 121 93h10q1 -6 1 -18z" />
    <glyph glyph-name="ubreve" unicode="&#x16d;" horiz-adv-x="621" 
d="M427 116v272q0 64 -44 83v10l130 40v-398q0 -75 44 -94v-9l-130 -30v104q-89 -105 -188 -105q-135 0 -135 152v247q0 63 -44 83v10l130 40v-353q0 -58 22.5 -84.5t71.5 -26.5q66 0 143 59zM441 716q0 -60 -34 -100t-98 -40q-65 0 -97 39.5t-32 100.5q0 11 1 18h10
q10 -45 40.5 -69t77.5 -24q98 0 121 93h10q1 -6 1 -18z" />
    <glyph glyph-name="Uring" unicode="&#x16e;" horiz-adv-x="705" 
d="M459 822q0 -35 -25 -60t-60 -25t-60 25t-25 60t25 60t60 25t60 -25t25 -60zM328 822q0 -18 13.5 -31.5t32.5 -13.5t32.5 13.5t13.5 31.5q0 19 -13.5 32.5t-32.5 13.5t-32.5 -13.5t-13.5 -32.5zM368 -9q-118 0 -187 54.5t-69 173.5v343q0 48 -9 70.5t-31 32.5v9h173v-9
q-22 -10 -31 -32.5t-9 -70.5v-333q0 -198 182 -198q84 0 129.5 48t44.5 143l-3 285q-1 122 -71 158v9h181v-9q-68 -34 -72 -159l-6 -286q-3 -114 -60 -171.5t-162 -57.5z" />
    <glyph glyph-name="uring" unicode="&#x16f;" horiz-adv-x="621" 
d="M396 656q0 -35 -25 -60t-60 -25t-60 25t-25 60t25 60t60 25t60 -25t25 -60zM265 656q0 -18 13.5 -31.5t32.5 -13.5t32.5 13.5t13.5 31.5q0 19 -13.5 32.5t-32.5 13.5t-32.5 -13.5t-13.5 -32.5zM427 116v272q0 64 -44 83v10l130 40v-398q0 -75 44 -94v-9l-130 -30v104
q-89 -105 -188 -105q-135 0 -135 152v247q0 63 -44 83v10l130 40v-353q0 -58 22.5 -84.5t71.5 -26.5q66 0 143 59z" />
    <glyph glyph-name="Uhungarumlaut" unicode="&#x170;" horiz-adv-x="705" 
d="M368 -9q-118 0 -187 54.5t-69 173.5v343q0 48 -9 70.5t-31 32.5v9h173v-9q-22 -10 -31 -32.5t-9 -70.5v-333q0 -198 182 -198q84 0 129.5 48t44.5 143l-3 285q-1 122 -71 158v9h181v-9q-68 -34 -72 -159l-6 -286q-3 -114 -60 -171.5t-162 -57.5zM348 900h109l-163 -155
h-26zM500 900h110l-164 -155h-26z" />
    <glyph glyph-name="uhungarumlaut" unicode="&#x171;" horiz-adv-x="621" 
d="M427 116v272q0 64 -44 83v10l130 40v-398q0 -75 44 -94v-9l-130 -30v104q-89 -105 -188 -105q-135 0 -135 152v247q0 63 -44 83v10l130 40v-353q0 -58 22.5 -84.5t71.5 -26.5q66 0 143 59zM286 734h109l-163 -155h-26zM438 734h110l-164 -155h-26z" />
    <glyph glyph-name="Uogonek" unicode="&#x172;" horiz-adv-x="705" 
d="M487 674h181v-9q-68 -34 -72 -159l-6 -286q-4 -193 -163 -224q-29 -18 -47.5 -45.5t-18.5 -56.5q0 -36 21 -53.5t54 -17.5q41 0 80 22l4 -9q-46 -55 -126 -55q-46 0 -75.5 23.5t-29.5 66.5q0 38 26.5 69.5t68.5 50.5h-16q-118 0 -187 54.5t-69 173.5v343q0 48 -9 70.5
t-31 32.5v9h173v-9q-22 -10 -31 -32.5t-9 -70.5v-333q0 -198 182 -198q84 0 129.5 48t44.5 143l-3 285q-1 122 -71 158v9z" />
    <glyph glyph-name="uogonek" unicode="&#x173;" horiz-adv-x="621" 
d="M557 20l-107 -25q-28 -17 -45.5 -45t-17.5 -56q0 -36 21 -53.5t54 -17.5q40 0 79 22l5 -9q-48 -55 -126 -55q-46 0 -75.5 23.5t-29.5 66.5q0 42 32 76t80 52v95q-89 -105 -188 -105q-135 0 -135 152v247q0 63 -44 83v10l130 40v-353q0 -58 22.5 -84.5t71.5 -26.5
q66 0 143 59v272q0 64 -44 83v10l130 40v-398q0 -75 44 -94v-9z" />
    <glyph glyph-name="Wcircumflex" unicode="&#x174;" horiz-adv-x="1020" 
d="M521 813l-141 -68l-7 7l143 148h10l143 -148l-7 -7zM841 674h173v-9q-34 -16 -59 -56t-53 -118l-182 -502h-12l-197 497l-201 -497h-11l-205 559q-21 54 -37 78t-43 39v9h195v-9q-48 -32 -12 -129l141 -404l154 402l-8 21q-20 50 -37 73t-43 37v9h196v-9
q-51 -30 -14 -125l160 -406l117 362q20 74 12.5 113t-34.5 56v9z" />
    <glyph glyph-name="wcircumflex" unicode="&#x175;" horiz-adv-x="816" 
d="M417 647l-141 -68l-7 7l143 148h10l143 -148l-7 -7zM654 508h152v-9q-30 -17 -53.5 -51.5t-47.5 -105.5l-124 -353h-20l-152 361l-140 -361h-20l-147 380q-22 57 -38 83.5t-46 46.5v9h183v-9q-25 -17 -26 -48.5t16 -74.5l99 -274l103 287q-30 78 -76 110v9h183v-9
q-48 -32 -10 -126l109 -271l73 248q35 116 -18 149v9z" />
    <glyph glyph-name="Ycircumflex" unicode="&#x176;" horiz-adv-x="628" 
d="M322 813l-141 -68l-7 7l143 148h10l143 -148l-7 -7zM442 674h176v-9q-60 -28 -129 -150l-124 -220v-183q0 -47 9.5 -70t30.5 -33v-9h-173v9q22 10 31 32.5t9 70.5v162l-156 274q-31 54 -52 79t-46 38v9h205v-9q-53 -35 -1 -125l127 -219l103 198q27 55 24 93t-34 53v9z
" />
    <glyph glyph-name="ycircumflex" unicode="&#x177;" horiz-adv-x="540" 
d="M292 647l-141 -68l-7 7l143 148h10l143 -148l-7 -7zM380 508h154v-9q-30 -15 -53.5 -51t-54.5 -115l-121 -304q-67 -280 -210 -280q-60 0 -100 43v9q42 2 76.5 10t73.5 27.5t70 58.5t51 95l-163 375q-25 55 -43.5 84.5t-45.5 47.5v9h185v-9q-19 -13 -23.5 -34t1 -44.5
t20.5 -59.5l109 -262l83 232q47 134 -9 168v9z" />
    <glyph glyph-name="Ydieresis" unicode="&#x178;" horiz-adv-x="628" 
d="M428 763q-25 0 -42 17t-17 42t17 42.5t42 17.5t42 -17.5t17 -42.5t-17 -42t-42 -17zM220 763q-25 0 -42 17t-17 42t17 42.5t42 17.5t42 -17.5t17 -42.5t-17 -42t-42 -17zM442 674h176v-9q-60 -28 -129 -150l-124 -220v-183q0 -47 9.5 -70t30.5 -33v-9h-173v9
q22 10 31 32.5t9 70.5v162l-156 274q-31 54 -52 79t-46 38v9h205v-9q-53 -35 -1 -125l127 -219l103 198q27 55 24 93t-34 53v9z" />
    <glyph glyph-name="Zacute" unicode="&#x179;" horiz-adv-x="580" 
d="M444 900l-171 -155h-26l80 155h117zM536 188h11v-188h-515v9l400 645l-180 -5q-83 -3 -124.5 -39t-63.5 -115h-11v179h493v-9l-401 -644l185 6q93 4 139 41.5t67 119.5z" />
    <glyph glyph-name="zacute" unicode="&#x17a;" horiz-adv-x="498" 
d="M403 734l-171 -155h-26l80 155h117zM460 508v-13l-317 -477l132 7q75 5 111.5 35.5t51.5 93.5h11v-154h-411v13l316 478l-136 -7q-71 -4 -102 -32t-48 -91h-11v147h403z" />
    <glyph glyph-name="Zdotaccent" unicode="&#x17b;" horiz-adv-x="580" 
d="M290 760q-26 0 -44 18t-18 44t18 44t44 18t44 -18t18 -44t-18 -44t-44 -18zM536 188h11v-188h-515v9l400 645l-180 -5q-83 -3 -124.5 -39t-63.5 -115h-11v179h493v-9l-401 -644l185 6q93 4 139 41.5t67 119.5z" />
    <glyph glyph-name="zdotaccent" unicode="&#x17c;" horiz-adv-x="498" 
d="M249 594q-25 0 -43.5 18t-18.5 44t18 44t44 18t44 -18t18 -44t-18.5 -44t-43.5 -18zM460 508v-13l-317 -477l132 7q75 5 111.5 35.5t51.5 93.5h11v-154h-411v13l316 478l-136 -7q-71 -4 -102 -32t-48 -91h-11v147h403z" />
    <glyph glyph-name="Zcaron" unicode="&#x17d;" horiz-adv-x="580" 
d="M297 745h-10l-143 147l7 8l141 -68l141 68l7 -8zM536 188h11v-188h-515v9l400 645l-180 -5q-83 -3 -124.5 -39t-63.5 -115h-11v179h493v-9l-401 -644l185 6q93 4 139 41.5t67 119.5z" />
    <glyph glyph-name="zcaron" unicode="&#x17e;" horiz-adv-x="498" 
d="M256 579h-10l-143 147l7 8l141 -68l141 68l7 -8zM460 508v-13l-317 -477l132 7q75 5 111.5 35.5t51.5 93.5h11v-154h-411v13l316 478l-136 -7q-71 -4 -102 -32t-48 -91h-11v147h403z" />
    <glyph glyph-name="florin" unicode="&#x192;" horiz-adv-x="514" 
d="M189 380l36 214q13 81 61 121.5t120 40.5q59 0 94 -25t35 -62q0 -25 -16.5 -42.5t-39.5 -17.5q-25 0 -40.5 14.5t-15.5 36.5q0 40 35 51q-13 19 -46 19q-80 0 -101 -135l-35 -210l150 9l-10 -46h-147l-45 -269q-43 -253 -222 -281q-15 -3 -48 -5l-2 9q150 64 186 278
l45 268h-101v25z" />
    <glyph glyph-name="uni0218" unicode="&#x218;" horiz-adv-x="500" 
d="M245 -55q28 0 45 -19.5t17 -50.5q0 -51 -36.5 -97t-84.5 -66l-3 7q29 18 48.5 49t20.5 66q-6 -1 -14 -1q-21 0 -35.5 15t-14.5 39t16.5 41t40.5 17zM61 189q29 -85 78.5 -128.5t105.5 -44.5q61 0 93.5 33t32.5 82q0 37 -18 66.5t-46.5 50.5t-63.5 40t-69.5 40t-63 44.5
t-46.5 59t-18 79.5q0 76 57.5 124.5t146.5 48.5q110 0 177 -44v-144h-11q-24 80 -70.5 121t-101.5 41q-53 0 -84 -31t-31 -77q0 -50 33.5 -88t81 -64t95 -53.5t81 -71t33.5 -101.5q0 -79 -56.5 -131t-150.5 -52q-98 0 -196 50v150h11z" />
    <glyph glyph-name="uni0219" unicode="&#x219;" horiz-adv-x="452" 
d="M227 -55q28 0 45 -19.5t17 -50.5q0 -51 -36.5 -97t-84.5 -66l-3 7q29 18 48.5 49t20.5 66q-6 -1 -14 -1q-21 0 -35.5 15t-14.5 39t16.5 41t40.5 17zM223 -9q-69 -2 -122 25t-53 69q0 23 14.5 38.5t37.5 15.5t38 -14t15 -35q0 -30 -24 -44q30 -31 94 -31q52 0 82.5 24
t30.5 64t-29 67.5t-70 44.5t-82 35t-70 51t-29 81q0 59 50 98t129 39q71 0 115 -28t44 -67q0 -22 -14 -37.5t-37 -15.5t-38 14t-15 36q0 33 28 46q-24 27 -89 27q-48 0 -72.5 -22t-24.5 -55q0 -36 28.5 -61.5t69 -42t81.5 -35t69.5 -52.5t28.5 -82q0 -66 -54 -110.5
t-132 -42.5z" />
    <glyph glyph-name="uni021A" unicode="&#x21a;" horiz-adv-x="611" 
d="M240 -288l-3 7q29 18 48.5 49t20.5 66q-6 -1 -14 -1q-21 0 -35.5 15t-14.5 39t16.5 41t40.5 17q28 0 45 -19.5t17 -50.5q0 -51 -36.5 -97t-84.5 -66zM27 674h557v-179h-11q-16 73 -53 113t-109 40h-61v-536q0 -48 9 -70.5t31 -32.5v-9h-173v9q22 10 31 32.5t9 70.5v536
h-57q-73 0 -110 -40t-52 -113h-11v179z" />
    <glyph glyph-name="uni021B" unicode="&#x21b;" horiz-adv-x="358" 
d="M121 -288l-3 7q29 18 48.5 49t20.5 66q-6 -1 -14 -1q-21 0 -35.5 15t-14.5 39t16.5 41t40.5 17q28 0 45 -19.5t17 -50.5q0 -51 -36.5 -97t-84.5 -66zM343 64l5 -9q-23 -26 -59 -42.5t-71 -16.5q-110 0 -110 135v335h-78v24q107 42 141 156h23v-144l146 10l-9 -46h-137
v-321q0 -52 16.5 -74.5t55.5 -22.5q41 0 77 16z" />
    <glyph glyph-name="uni0237" unicode="&#x237;" horiz-adv-x="300" 
d="M109 21v365q0 60 -44 79v10l130 44v-494q0 -112 -39.5 -181.5t-141.5 -99.5l-3 8q98 84 98 269z" />
    <glyph glyph-name="circumflex" unicode="&#x2c6;" 
d="M448 586l-7 -7l-141 68l-141 -68l-7 7l143 148h10z" />
    <glyph glyph-name="caron" unicode="&#x2c7;" 
d="M441 734l7 -8l-143 -147h-10l-143 147l7 8l141 -68z" />
    <glyph glyph-name="uni02C9" unicode="&#x2c9;" 
d="M146 637v38h307v-38h-307z" />
    <glyph glyph-name="breve" unicode="&#x2d8;" 
d="M430 716q0 -60 -34 -100t-98 -40q-65 0 -97 39.5t-32 100.5q0 11 1 18h10q10 -45 40.5 -69t77.5 -24q98 0 121 93h10q1 -6 1 -18z" />
    <glyph glyph-name="dotaccent" unicode="&#x2d9;" 
d="M362 656q0 -26 -18 -44t-44 -18t-44 18t-18 44t18 44t44 18t44 -18t18 -44z" />
    <glyph glyph-name="ring" unicode="&#x2da;" 
d="M385 656q0 -35 -25 -60t-60 -25t-60 25t-25 60t25 60t60 25t60 -25t25 -60zM254 656q0 -18 13.5 -31.5t32.5 -13.5t32.5 13.5t13.5 31.5q0 19 -13.5 32.5t-32.5 13.5t-32.5 -13.5t-13.5 -32.5z" />
    <glyph glyph-name="ogonek" unicode="&#x2db;" 
d="M411 -155l4 -9q-46 -55 -125 -55q-46 0 -76 23.5t-30 66.5q0 44 35.5 79.5t86.5 51.5h26q-33 -17 -54.5 -47t-21.5 -61q0 -36 21 -53.5t54 -17.5q41 0 80 22z" />
    <glyph glyph-name="tilde" unicode="&#x2dc;" 
d="M158 594h-9q-2 8 -2 26q0 41 22 69.5t61 28.5q29 0 77.5 -30.5t73.5 -30.5q27 0 42.5 17.5t17.5 45.5h9q2 -9 2 -26q0 -42 -21 -70t-62 -28q-28 0 -76.5 30.5t-74.5 30.5q-27 0 -42.5 -17.5t-17.5 -45.5z" />
    <glyph glyph-name="hungarumlaut" unicode="&#x2dd;" 
d="M275 734h109l-163 -155h-26zM427 734h110l-164 -155h-26z" />
    <glyph glyph-name="uni0326" unicode="&#x326;" 
d="M301 -55q28 0 45 -19.5t17 -50.5q0 -51 -36.5 -97t-84.5 -66l-3 7q29 18 48.5 49t20.5 66q-6 -1 -14 -1q-21 0 -35.5 15t-14.5 39t16.5 41t40.5 17z" />
    <glyph glyph-name="pi" unicode="&#x3c0;" horiz-adv-x="689" 
d="M628 72l7 -5q-26 -77 -100 -77q-50 0 -74 40t-24 105v308h-169v-383q0 -71 -55 -71q-47 0 -47 53q0 24 10 57.5t20.5 103t10.5 181.5v58q-64 -6 -105.5 -29.5t-79.5 -66.5l-8 4q25 87 78.5 122.5t151.5 35.5h372v-65h-103v-271q0 -63 12.5 -94t45.5 -31q32 0 57 25z" />
    <glyph glyph-name="Wgrave" unicode="&#x1e80;" horiz-adv-x="1020" 
d="M746 134l117 362q20 74 12.5 113t-34.5 56v9h173v-9q-34 -16 -59 -56t-53 -118l-182 -502h-12l-197 497l-201 -497h-11l-205 559q-21 54 -37 78t-43 39v9h195v-9q-48 -32 -12 -129l141 -404l154 402l-8 21q-20 50 -37 73t-43 37v9h196v-9q-51 -30 -14 -125zM371 900h116
l80 -155h-26z" />
    <glyph glyph-name="wgrave" unicode="&#x1e81;" horiz-adv-x="816" 
d="M463 579h-26l-170 155h116zM654 508h152v-9q-30 -17 -53.5 -51.5t-47.5 -105.5l-124 -353h-20l-152 361l-140 -361h-20l-147 380q-22 57 -38 83.5t-46 46.5v9h183v-9q-25 -17 -26 -48.5t16 -74.5l99 -274l103 287q-30 78 -76 110v9h183v-9q-48 -32 -10 -126l109 -271
l73 248q35 116 -18 149v9z" />
    <glyph glyph-name="Wacute" unicode="&#x1e82;" horiz-adv-x="1020" 
d="M553 900h117l-171 -155h-26zM746 134l117 362q20 74 12.5 113t-34.5 56v9h173v-9q-34 -16 -59 -56t-53 -118l-182 -502h-12l-197 497l-201 -497h-11l-205 559q-21 54 -37 78t-43 39v9h195v-9q-48 -32 -12 -129l141 -404l154 402l-8 21q-20 50 -37 73t-43 37v9h196v-9
q-51 -30 -14 -125z" />
    <glyph glyph-name="wacute" unicode="&#x1e83;" horiz-adv-x="816" 
d="M564 734l-171 -155h-26l80 155h117zM654 508h152v-9q-30 -17 -53.5 -51.5t-47.5 -105.5l-124 -353h-20l-152 361l-140 -361h-20l-147 380q-22 57 -38 83.5t-46 46.5v9h183v-9q-25 -17 -26 -48.5t16 -74.5l99 -274l103 287q-30 78 -76 110v9h183v-9q-48 -32 -10 -126
l109 -271l73 248q35 116 -18 149v9z" />
    <glyph glyph-name="Wdieresis" unicode="&#x1e84;" horiz-adv-x="1020" 
d="M682 822q0 -25 -17 -42t-42 -17t-42 17t-17 42t17 42.5t42 17.5t42 -17.5t17 -42.5zM474 822q0 -25 -17 -42t-42 -17t-42 17t-17 42t17 42.5t42 17.5t42 -17.5t17 -42.5zM746 134l117 362q20 74 12.5 113t-34.5 56v9h173v-9q-34 -16 -59 -56t-53 -118l-182 -502h-12
l-197 497l-201 -497h-11l-205 559q-21 54 -37 78t-43 39v9h195v-9q-48 -32 -12 -129l141 -404l154 402l-8 21q-20 50 -37 73t-43 37v9h196v-9q-51 -30 -14 -125z" />
    <glyph glyph-name="wdieresis" unicode="&#x1e85;" horiz-adv-x="816" 
d="M521 597q-25 0 -42 17t-17 42t17 42.5t42 17.5t42 -17.5t17 -42.5t-17 -42t-42 -17zM313 597q-25 0 -42 17t-17 42t17 42.5t42 17.5t42 -17.5t17 -42.5t-17 -42t-42 -17zM654 508h152v-9q-30 -17 -53.5 -51.5t-47.5 -105.5l-124 -353h-20l-152 361l-140 -361h-20
l-147 380q-22 57 -38 83.5t-46 46.5v9h183v-9q-25 -17 -26 -48.5t16 -74.5l99 -274l103 287q-30 78 -76 110v9h183v-9q-48 -32 -10 -126l109 -271l73 248q35 116 -18 149v9z" />
    <glyph glyph-name="Ygrave" unicode="&#x1ef2;" horiz-adv-x="628" 
d="M364 745h-26l-170 155h116zM442 674h176v-9q-60 -28 -129 -150l-124 -220v-183q0 -47 9.5 -70t30.5 -33v-9h-173v9q22 10 31 32.5t9 70.5v162l-156 274q-31 54 -52 79t-46 38v9h205v-9q-53 -35 -1 -125l127 -219l103 198q27 55 24 93t-34 53v9z" />
    <glyph glyph-name="ygrave" unicode="&#x1ef3;" horiz-adv-x="540" 
d="M266 -8l-163 375q-25 55 -43.5 84.5t-45.5 47.5v9h185v-9q-19 -13 -23.5 -34t1 -44.5t20.5 -59.5l109 -262l83 232q47 134 -9 168v9h154v-9q-30 -15 -53.5 -51t-54.5 -115l-121 -304q-67 -280 -210 -280q-60 0 -100 43v9q42 2 76.5 10t73.5 27.5t70 58.5t51 95zM138 734
h116l80 -155h-26z" />
    <glyph glyph-name="endash" unicode="&#x2013;" horiz-adv-x="496" 
d="M58 248v54h380v-54h-380z" />
    <glyph glyph-name="emdash" unicode="&#x2014;" horiz-adv-x="996" 
d="M58 248v54h880v-54h-880z" />
    <glyph glyph-name="quoteleft" unicode="&#x2018;" horiz-adv-x="230" 
d="M118 438q-32 0 -52 23t-20 60q0 58 42.5 112t97.5 78l4 -8q-34 -22 -56.5 -58.5t-22.5 -76.5q5 2 15 2q25 -1 42 -19t17 -46t-19 -47.5t-48 -19.5z" />
    <glyph glyph-name="quoteright" unicode="&#x2019;" horiz-adv-x="246" 
d="M119 707q32 0 52 -23t20 -60q0 -58 -42.5 -112t-97.5 -78l-4 9q34 21 56.5 57.5t22.5 76.5q-5 -2 -15 -2q-25 2 -42 19.5t-17 45.5t19 47.5t48 19.5z" />
    <glyph glyph-name="quotesinglbase" unicode="&#x201a;" horiz-adv-x="246" 
d="M119 143q32 0 52 -22.5t20 -59.5q0 -59 -42.5 -113t-97.5 -78l-4 9q34 21 56.5 57.5t22.5 76.5q-7 -3 -15 -1q-25 1 -42 18.5t-17 45.5t19 47.5t48 19.5z" />
    <glyph glyph-name="quotedblleft" unicode="&#x201c;" horiz-adv-x="442" 
d="M321 438q-32 0 -52 23t-20 60q0 58 42.5 112t97.5 78l4 -8q-34 -22 -56.5 -58.5t-23.5 -76.5q7 2 17 2q24 -2 41 -19.5t17 -45.5t-19 -47.5t-48 -19.5zM118 438q-32 0 -52 23t-20 60q0 58 42.5 112t97.5 78l4 -8q-34 -22 -56.5 -58.5t-22.5 -76.5q6 2 15 2q25 -1 42 -19
t17 -46t-19 -47.5t-48 -19.5z" />
    <glyph glyph-name="quotedblright" unicode="&#x201d;" horiz-adv-x="445" 
d="M119 707q32 0 52 -23t20 -60q0 -58 -42.5 -112t-97.5 -78l-4 9q34 21 56.5 57.5t22.5 76.5q-6 -2 -16 -2q-24 2 -41 19.5t-17 45.5t19 47.5t48 19.5zM322 707q32 0 52 -23t20 -60q0 -58 -42.5 -112t-97.5 -78l-4 9q34 21 56.5 57.5t22.5 76.5q-6 -2 -16 -2
q-24 2 -41 19.5t-17 45.5t19 47.5t48 19.5z" />
    <glyph glyph-name="quotedblbase" unicode="&#x201e;" horiz-adv-x="445" 
d="M119 143q32 0 52 -22.5t20 -59.5q0 -58 -42.5 -112.5t-97.5 -78.5l-4 9q34 21 56.5 57.5t22.5 76.5q-6 -1 -16 -1q-24 1 -41 19t-17 46q0 27 19 46.5t48 19.5zM322 143q32 0 52 -22.5t20 -59.5q0 -58 -42.5 -112.5t-97.5 -78.5l-4 9q34 21 56.5 57.5t22.5 76.5
q-6 -1 -16 -1q-24 1 -41 19t-17 46q0 27 19 46.5t48 19.5z" />
    <glyph glyph-name="dagger" unicode="&#x2020;" horiz-adv-x="501" 
d="M254 -172h-8q0 115 -21 224t-42 160l-21 52q82 51 84 177q-44 -5 -82.5 -25.5t-55.5 -20.5q-27 0 -44 14.5t-17 37.5q0 24 17 38t44 14q17 0 55.5 -20t80.5 -26q-6 48 -26 98t-20 73q0 27 14 44t38 17q23 0 37.5 -17t14.5 -44q0 -22 -20 -72.5t-25 -98.5q42 6 80 26
t56 20q27 0 43.5 -14t16.5 -38q0 -23 -16.5 -37.5t-43.5 -14.5q-17 0 -56 20.5t-83 25.5q2 -127 84 -177q-3 -7 -9 -20.5t-20.5 -58t-25.5 -92.5t-20 -120t-9 -145z" />
    <glyph glyph-name="daggerdbl" unicode="&#x2021;" horiz-adv-x="501" 
d="M336 283q-42 -27 -61 -63.5t-21 -92.5q43 5 82.5 25.5t56.5 20.5q27 0 43.5 -14.5t16.5 -37.5q0 -24 -16.5 -38t-43.5 -14q-18 0 -56.5 19.5t-80.5 25.5q5 -48 25.5 -98t20.5 -72q0 -27 -14.5 -44t-37.5 -17q-24 0 -38 17t-14 44q0 23 19.5 73t25.5 97q-42 -6 -80 -25.5
t-55 -19.5q-27 0 -44 14t-17 38q0 23 17 37.5t44 14.5q17 0 55.5 -20.5t82.5 -25.5q-2 57 -20.5 93t-61.5 63q43 27 62 63.5t20 93.5q-44 -5 -82.5 -25t-55.5 -20q-27 0 -44 14.5t-17 37.5q0 24 17 38t44 14q17 0 55 -20t80 -26q-6 47 -25.5 97.5t-19.5 73.5q0 27 14 44
t38 17q23 0 37.5 -17t14.5 -44q0 -22 -20.5 -72.5t-25.5 -98.5q42 6 80.5 26t56.5 20q27 0 43.5 -14t16.5 -38q0 -23 -16.5 -37.5t-43.5 -14.5q-17 0 -56.5 20.5t-82.5 25.5q1 -57 20.5 -94t61.5 -64z" />
    <glyph glyph-name="bullet" unicode="&#x2022;" horiz-adv-x="331" 
d="M73 314q0 37 26 63t63 26t63.5 -26t26.5 -63t-26.5 -63t-63.5 -26t-63 26t-26 63z" />
    <glyph glyph-name="ellipsis" unicode="&#x2026;" horiz-adv-x="853" 
d="M63 60q0 28 20 47.5t48 19.5t48 -19.5t20 -47.5t-20 -48t-48 -20t-48 20t-20 48zM359 60q0 28 20 47.5t48 19.5t47.5 -19.5t19.5 -47.5t-19.5 -48t-47.5 -20q-29 0 -48.5 20t-19.5 48zM655 60q0 28 19.5 47.5t47.5 19.5t48 -19.5t20 -47.5t-20 -48t-48 -20t-47.5 20
t-19.5 48z" />
    <glyph glyph-name="perthousand" unicode="&#x2030;" horiz-adv-x="1126" 
d="M175 0l385 657h44l-385 -657h-44zM62 496q0 67 38 116t99 49q72 0 105.5 -47.5t33.5 -116.5q0 -71 -36.5 -120t-102.5 -49q-65 0 -101 47t-36 121zM133 496q0 -61 16.5 -103t49.5 -42q67 0 67 145q0 62 -17 102t-50 40q-66 0 -66 -142zM443 164q0 67 38 115.5t99 48.5
q72 0 105.5 -47t33.5 -116q0 -71 -36.5 -120t-102.5 -49q-65 0 -101 47t-36 121zM514 164q0 -61 16.5 -103t49.5 -42q67 0 67 145q0 62 -17 102t-50 40q-66 0 -66 -142zM788 164q0 67 38 115.5t99 48.5q72 0 105.5 -47t33.5 -116q0 -71 -36.5 -120t-102.5 -49q-65 0 -101 47
t-36 121zM859 164q0 -61 16.5 -103t49.5 -42q67 0 67 145q0 62 -17 102t-50 40q-66 0 -66 -142z" />
    <glyph glyph-name="guilsinglleft" unicode="&#x2039;" horiz-adv-x="306" 
d="M48 263q112 64 202 180l16 -12l-113 -178l113 -178l-16 -12q-90 116 -202 180v20z" />
    <glyph glyph-name="guilsinglright" unicode="&#x203a;" horiz-adv-x="306" 
d="M152 253l-112 178l16 12q90 -116 202 -180v-20q-112 -64 -202 -180l-16 12z" />
    <glyph glyph-name="fraction" unicode="&#x2044;" horiz-adv-x="358" 
d="M-7 0l272 657h50l-272 -657h-50z" />
    <glyph glyph-name="Euro" unicode="&#x20ac;" horiz-adv-x="660" 
d="M597 188h11v-148q-74 -51 -196 -51q-115 0 -196 69.5t-103 190.5l-80 1v27h75q-3 29 -3 58q0 27 3 52h-75v27l80 1q22 116 100.5 188t191.5 72q99 0 197 -54v-148h-11q-29 86 -72.5 131t-108.5 45q-73 0 -125.5 -62t-68.5 -170l235 4v-35l-239 1q-2 -34 -2 -52
q0 -30 3 -57l238 1v-35l-235 3q16 -109 70.5 -170.5t132.5 -61.5q70 0 111.5 43.5t66.5 129.5z" />
    <glyph glyph-name="uni20B9" unicode="&#x20b9;" horiz-adv-x="590" 
d="M538 674v-26h-234q118 -43 118 -161v-1h116v-26h-118q-11 -77 -76.5 -118.5t-157.5 -44.5q173 -224 260 -285v-7q-23 -17 -58 -17q-54 0 -107.5 55t-208.5 259v7q97 3 164 44t80 107h-244v26h246q0 77 -48 119.5t-143 42.5h-55v26h466z" />
    <glyph glyph-name="uni2113" unicode="&#x2113;" horiz-adv-x="469" 
d="M221 511v-234q112 91 112 231q0 117 -57 117q-55 0 -55 -114zM398 96l11 -9q-19 -45 -57 -70.5t-88 -25.5q-64 0 -99 44.5t-35 123.5v34q-48 -17 -91 -25l-3 17q50 15 94 36v261q0 207 141 207q57 0 89.5 -46t32.5 -122q0 -80 -44 -156t-128 -128v-61q0 -121 87 -121
q49 0 90 41z" />
    <glyph glyph-name="trademark" unicode="&#x2122;" horiz-adv-x="753" 
d="M22 573v111h284v-111h-6q-17 93 -96 93h-12v-238q0 -43 29 -57v-6h-112v6q28 14 28 57v238h-13q-79 0 -96 -93h-6zM725 684v-6q-23 -12 -23 -58v-191q0 -45 23 -59v-5h-103v5q24 17 24 59v195l-117 -253h-11l-125 241l5 -153q2 -73 33 -89v-5h-94v5q32 14 34 89l4 121
q2 72 -36 98v6h84l122 -239l101 239h79z" />
    <glyph glyph-name="uni2126" unicode="&#x2126;" horiz-adv-x="732" 
d="M343 15v-15h-264v97h11q25 -24 58 -35t138 -24q-237 160 -237 342q0 126 90.5 215.5t226.5 89.5q146 0 231.5 -87.5t85.5 -215.5q0 -181 -236 -343q103 12 137.5 23.5t57.5 34.5h11v-97h-264v15q105 81 147 167.5t42 198.5q0 121 -58 199.5t-154 78.5q-98 0 -155 -80
t-57 -200q0 -110 42.5 -196.5t146.5 -167.5z" />
    <glyph glyph-name="estimated" unicode="&#x212e;" horiz-adv-x="726" 
d="M186 340h346v188q-60 67 -174 67q-51 0 -97.5 -17.5t-74.5 -49.5v-188zM652 312h-466v-223q67 -69 173 -69q73 0 132.5 36t97.5 102l25 -15q-95 -153 -255 -153q-134 0 -213.5 91t-79.5 227q0 139 81 228t212 89q137 0 214.5 -89.5t78.5 -223.5z" />
    <glyph glyph-name="partialdiff" unicode="&#x2202;" horiz-adv-x="582" 
d="M528 410q0 -73 -21 -147t-58.5 -136.5t-96 -101.5t-125.5 -39q-81 0 -123 49.5t-42 130.5q0 108 62.5 183t162.5 75q53 0 92 -23t54 -59q9 30 9 71q0 81 -32.5 135.5t-99.5 54.5q-79 0 -149 -107l-11 8q24 69 74.5 115.5t116.5 46.5q94 0 140.5 -73t46.5 -183zM274 72
q55 10 86.5 80t23.5 145q-26 77 -100 42q-52 -10 -84.5 -74.5t-24.5 -139.5q24 -85 99 -53z" />
    <glyph glyph-name="uni2206" unicode="&#x2206;" horiz-adv-x="622" 
d="M592 0h-562v22l274 634h25l263 -634v-22zM479 37l-196 480l-207 -480h403z" />
    <glyph glyph-name="product" unicode="&#x220f;" horiz-adv-x="683" 
d="M612 657v-10q-22 -9 -31 -31.5t-9 -70.5v-564q0 -47 9 -69.5t31 -32.5v-9h-169v9q22 10 31 32.5t9 69.5v650h-284v-650q0 -83 40 -102v-9h-168v9q22 10 31 32.5t9 69.5v564q0 48 -9 70.5t-31 31.5v10h541z" />
    <glyph glyph-name="summation" unicode="&#x2211;" horiz-adv-x="643" 
d="M600 72h11v-192h-570v10l280 385l-280 418v11h558v-195h-11q-74 155 -257 167l-169 11l245 -366v-9l-292 -366l257 9q86 2 140 30t88 87z" />
    <glyph glyph-name="minus" unicode="&#x2212;" horiz-adv-x="623" 
d="M62 321v39h499v-39h-499z" />
    <glyph glyph-name="uni2215" unicode="&#x2215;" horiz-adv-x="401" 
d="M10 -100l328 806h53l-328 -806h-53z" />
    <glyph glyph-name="uni2219" unicode="&#x2219;" horiz-adv-x="311" 
d="M58 254q0 40 29 69t69 29t68.5 -29t28.5 -69t-28.5 -69t-68.5 -29t-69 29t-29 69z" />
    <glyph glyph-name="radical" unicode="&#x221a;" horiz-adv-x="690" 
d="M318 -131l-177 433q-20 44 -60 55l-71 22v9h192l153 -389l281 784h44l-342 -914h-20z" />
    <glyph glyph-name="infinity" unicode="&#x221e;" horiz-adv-x="774" 
d="M603 211q41 0 65 30.5t24 76.5q0 54 -36 88t-95 34q-74 0 -142 -77q26 -39 39.5 -57.5t38 -45t50.5 -38t56 -11.5zM224 223q43 0 73 19t61 58q-21 32 -30 46t-29 39t-35 36.5t-38 21t-48 9.5q-41 0 -67 -27.5t-26 -72.5q0 -56 41.5 -92.5t97.5 -36.5zM576 520
q64 0 103.5 -51.5t39.5 -135.5q0 -79 -42 -135t-120 -56q-62 0 -104 36.5t-85 104.5q-60 -139 -162 -139q-65 0 -107.5 52.5t-42.5 134.5q0 79 43.5 135t119.5 56q61 0 103 -37t87 -106q67 141 167 141z" />
    <glyph glyph-name="integral" unicode="&#x222b;" horiz-adv-x="464" 
d="M122 -111q39 0 53 34t14 101v599q0 80 36.5 124t108.5 44q56 0 87 -25.5t31 -65.5q0 -27 -15.5 -43t-39.5 -16q-22 0 -37 14.5t-15 37.5q0 40 40 50q-10 21 -43 21q-39 0 -53 -34t-14 -101v-599q0 -80 -36.5 -124t-108.5 -44q-56 0 -87 25.5t-31 65.5q0 27 15.5 43
t39.5 16q22 0 37 -14.5t15 -37.5q0 -40 -40 -50q10 -21 43 -21z" />
    <glyph glyph-name="approxequal" unicode="&#x2248;" horiz-adv-x="646" 
d="M54 106v11q2 67 40.5 112.5t113.5 45.5q41 0 82 -22.5t81 -45t79 -22.5q91 0 129 99h12q1 -6 1 -16q-3 -68 -42.5 -115t-114.5 -47q-48 0 -122 44.5t-119 44.5q-50 0 -82 -25.5t-45 -63.5h-13zM54 320v12q2 67 40.5 112t113.5 45q41 0 82 -22.5t81 -45t79 -22.5
q91 0 129 99h12q1 -5 1 -16q-3 -68 -42.5 -114.5t-114.5 -46.5q-48 0 -122 44.5t-119 44.5q-50 0 -82 -25.5t-45 -64.5h-13z" />
    <glyph glyph-name="notequal" unicode="&#x2260;" horiz-adv-x="623" 
d="M561 432h-195l-82 -181h277v-39h-294l-73 -162h-44l73 162h-161v39h178l82 181h-260v39h278l72 161h44l-72 -161h177v-39z" />
    <glyph glyph-name="lessequal" unicode="&#x2264;" horiz-adv-x="624" 
d="M86 71v35h452v-35h-452zM87 322v39l451 167v-42l-405 -145l403 -145v-42z" />
    <glyph glyph-name="greaterequal" unicode="&#x2265;" horiz-adv-x="624" 
d="M538 106v-35h-452v35h452zM537 361v-39l-450 -168v42l403 145l-404 145v42z" />
    <glyph glyph-name="lozenge" unicode="&#x25ca;" horiz-adv-x="535" 
d="M244 704h44l195 -362l-196 -371h-43l-192 372zM439 342l-174 320l-169 -319l170 -330z" />
    <glyph glyph-name="itfLogo" horiz-adv-x="1648" 
d="M147 0v634h196v-634h-196zM383 449v185h196v-185h-196zM619 0v634h196v-634h-196zM855 449v185h196v-185h-196zM1091 0v634h196v-634h-196zM1327 449v185h196v-185h-196zM1327 224v185h196v-185h-196z" />
    <glyph glyph-name="caron.alt" 
d="M301 770q28 0 45 -19t17 -50q0 -50 -37 -94t-83 -64l-3 7q29 19 48.5 48t19.5 63q-6 -2 -13 -2q-21 1 -35.5 16t-14.5 38q0 24 16 40.5t40 16.5z" />
    <glyph glyph-name="commaaccent.alt" 
d="M299 569q-28 0 -45 19.5t-17 50.5q0 51 36.5 97t84.5 66l3 -7q-29 -18 -48.5 -49.5t-20.5 -66.5q6 2 14 2q21 -1 35.5 -16t14.5 -39t-16.5 -40.5t-40.5 -16.5z" />
    </font>
</defs>
</svg>
