<?xml version="1.0" standalone="no"?>
<!DOCTYPE svg PUBLIC "-//W3C//DTD SVG 1.1//EN" "http://www.w3.org/Graphics/SVG/1.1/DTD/svg11.dtd" >
<svg xmlns="http://www.w3.org/2000/svg" xmlns:xlink="http://www.w3.org/1999/xlink" version="1.1">
<metadata>
Created by FontForge 20141024 at Thu Jul  9 06:24:59 2015
 By System Administrator
Copyright 2015 Indian Type Foundry. All rights reserved.
</metadata>
<defs>
<font id="Begum-Bold" horiz-adv-x="547" >
  <font-face 
    font-family="Begum-Bold"
    font-weight="400"
    font-stretch="normal"
    units-per-em="1000"
    panose-1="2 0 0 0 0 0 0 0 0 0"
    ascent="749"
    descent="-251"
    x-height="508"
    cap-height="674"
    bbox="-50 -339 1523 953"
    underline-thickness="50"
    underline-position="-50"
    unicode-range="U+000D-FB02"
  />
<missing-glyph horiz-adv-x="756" 
d="M160 0v701h436v-701h-436zM241 625v-549h275v549h-275z" />
    <glyph glyph-name="fi" unicode="fi" horiz-adv-x="689" 
d="M597 518v-385q0 -83 49 -118v-15h-263v15q49 31 49 118v244q0 44 -12.5 62.5t-52.5 18.5h-120v-325q0 -89 59 -118v-15h-273v15q49 31 49 118v325h-52v27l52 2v31q0 243 271 243q113 0 175.5 -30.5t62.5 -87.5q0 -38 -22 -60t-60 -22q-33 0 -58 22t-25 60q0 24 13.5 44
t34.5 27q-28 13 -91 13q-136 0 -136 -207v-26l295 12z" />
    <glyph glyph-name="fl" unicode="fl" horiz-adv-x="689" 
d="M597 759v-626q0 -82 49 -118v-15h-263v15q49 31 49 118v463q0 131 -86 131q-99 0 -99 -207v-4l123 12l-9 -60h-114v-335q0 -89 59 -118v-15h-273v15q49 31 49 118v335h-52v27l52 5v18q0 115 68.5 179t195.5 64q93 0 146 -34z" />
    <glyph glyph-name=".notdef" horiz-adv-x="756" 
d="M160 0v701h436v-701h-436zM241 625v-549h275v549h-275z" />
    <glyph glyph-name=".null" horiz-adv-x="0" 
 />
    <glyph glyph-name="nonmarkingreturn" horiz-adv-x="333" 
 />
    <glyph glyph-name="NULL" horiz-adv-x="0" 
 />
    <glyph glyph-name="NULL" horiz-adv-x="0" 
 />
    <glyph glyph-name="CR" unicode="&#xd;" horiz-adv-x="0" 
 />
    <glyph glyph-name="space" unicode=" " horiz-adv-x="280" 
 />
    <glyph glyph-name="exclam" unicode="!" horiz-adv-x="301" 
d="M55 88q0 40 28 68.5t68 28.5t68.5 -28.5t28.5 -68.5t-28.5 -68t-68.5 -28t-68 28t-28 68zM164 236h-24l-79 295q-11 39 -11 64q0 42 29.5 65t72.5 23q42 0 70.5 -22.5t28.5 -63.5q0 -34 -9 -67z" />
    <glyph glyph-name="quotedbl" unicode="&#x22;" horiz-adv-x="385" 
d="M90 706q38 0 59 -25t21 -63q0 -20 -6 -46t-13 -46t-24 -64.5t-27 -73.5h-20q-10 29 -27 73.5t-24 64.5t-13 46t-6 46q0 38 21 63t59 25zM295 706q38 0 59 -25t21 -63q0 -20 -6 -46t-13 -46t-24 -64.5t-27 -73.5h-20q-10 29 -27 73.5t-24 64.5t-13 46t-6 46q0 38 21 63
t59 25z" />
    <glyph glyph-name="numbersign" unicode="#" horiz-adv-x="747" 
d="M443 234l42 197h-178l-41 -197h177zM712 431h-165l-41 -197h172v-54h-184l-38 -180h-62l38 180h-178l-38 -180h-62l38 180h-147v54h158l42 197h-166v54h177l40 189h63l-40 -189h177l40 189h63l-40 -189h153v-54z" />
    <glyph glyph-name="dollar" unicode="$" horiz-adv-x="551" 
d="M294 208l-2 -181q74 10 74 78q0 55 -72 103zM253 463l-2 175q-34 -4 -52.5 -23.5t-18.5 -50.5q0 -53 73 -101zM299 635l-2 -198q6 -4 28.5 -16t31 -17t28.5 -17.5t29 -19.5t25.5 -20.5t24 -24t18.5 -25.5t16 -29.5t9 -32.5t4 -37q0 -89 -57 -144t-163 -63l-1 -110h-31
l-1 109q-117 0 -210 54v174h15q84 -182 194 -193l-2 206q-7 4 -28.5 15.5t-30 16.5t-29 17t-29.5 19.5t-25.5 21t-24.5 24.5t-19 27t-16 31t-9 34.5t-4 40.5q0 82 59.5 134.5t150.5 59.5l-1 118h52l-1 -118q101 -4 171 -49v-167h-15q-58 153 -157 179z" />
    <glyph glyph-name="percent" unicode="%" horiz-adv-x="827" 
d="M186 0l380 667h70l-381 -667h-69zM40 499q0 79 43 129t114 50q77 0 118.5 -49.5t41.5 -128.5q0 -76 -42 -124t-118 -48q-73 0 -115 44.5t-42 126.5zM155 499q0 -144 42 -144q27 0 35 34t8 111q0 154 -43 154q-26 0 -34 -35.5t-8 -119.5zM470 162q0 79 43 129t114 50
q77 0 118.5 -49.5t41.5 -128.5q0 -76 -42 -124t-118 -48q-73 0 -115 44.5t-42 126.5zM585 162q0 -144 42 -144q27 0 35 34t8 111q0 154 -43 154q-26 0 -34 -35.5t-8 -119.5z" />
    <glyph glyph-name="ampersand" unicode="&#x26;" horiz-adv-x="818" 
d="M349 57q68 0 118 37q-122 102 -225 228q-35 -47 -35 -117q0 -65 39.5 -106.5t102.5 -41.5zM363 654q-28 0 -45.5 -19t-17.5 -52q0 -60 73 -158q64 54 64 130q0 43 -18.5 71t-55.5 28zM789 365v-15q-29 -8 -62 -33t-55.5 -49.5t-68.5 -78.5q126 -108 205 -155v-15
q-46 -29 -110 -29q-80 0 -146 41q-24 15 -57 41q-101 -84 -232 -84q-102 0 -160 47t-58 128q0 63 43.5 111.5t132.5 74.5l-6 8q-58 80 -58 157q0 73 61.5 126t168.5 53q94 0 147 -36t53 -94q0 -35 -19.5 -64t-52 -47.5t-62.5 -29.5t-63 -19q45 -55 92 -102q51 -51 97 -90
q23 30 20.5 74t-35.5 65v15h225z" />
    <glyph glyph-name="quotesingle" unicode="'" horiz-adv-x="180" 
d="M90 706q38 0 59 -25t21 -63q0 -20 -6 -46t-13 -46t-24 -64.5t-27 -73.5h-20q-10 29 -27 73.5t-24 64.5t-13 46t-6 46q0 38 21 63t59 25z" />
    <glyph glyph-name="parenleft" unicode="(" horiz-adv-x="434" 
d="M220 294q0 -80 11 -153t33.5 -135.5t60 -101.5t85.5 -43l4 -15q-27 -9 -55 -9q-89 0 -163 65t-115 169.5t-41 221.5q0 113 38.5 218.5t113.5 176t167 70.5q28 0 55 -9l-4 -15q-52 -4 -90 -40.5t-59 -98.5t-31 -136.5t-10 -164.5z" />
    <glyph glyph-name="parenright" unicode=")" horiz-adv-x="434" 
d="M214 294q0 90 -10 164.5t-31 136.5t-59 98.5t-90 40.5l-4 15q27 9 55 9q92 0 167 -70.5t113.5 -176t38.5 -218.5q0 -117 -41 -221.5t-115 -169.5t-163 -65q-28 0 -55 9l4 15q48 4 85.5 43t60 101.5t33.5 135.5t11 153z" />
    <glyph glyph-name="asterisk" unicode="*" horiz-adv-x="458" 
d="M299 621q-1 -16 -5 -28.5t-9.5 -22t-19 -35t-27.5 -57.5q28 25 48.5 46.5t27 29.5t16 15t25.5 12q23 8 51.5 -4t38.5 -43q10 -35 -13.5 -63t-62.5 -28q-21 0 -61.5 9t-65.5 10q33 -19 60 -32t37 -17t19 -11t19 -20q15 -21 12.5 -46.5t-20.5 -45.5q-22 -24 -54 -21t-51 31
q-11 17 -14.5 29t-7.5 46.5t-13 74.5q-8 -36 -12 -66t-4.5 -40.5t-4.5 -21t-13 -23.5q-18 -23 -49.5 -27t-55.5 16q-20 17 -23 42.5t15 50.5q13 16 23.5 22.5t41.5 21t66 35.5q-38 -3 -71 -11t-53 -8q-27 0 -53 19t-26 54t29 57t64 9q19 -8 28.5 -16t33 -32.5t54.5 -51.5
q-15 33 -29 59t-19.5 35t-8.5 20t-3 27q0 27 19 49t51 22q34 0 52 -21t18 -50z" />
    <glyph glyph-name="plus" unicode="+" horiz-adv-x="599" 
d="M549 371v-62h-218v-215h-64v215h-217v62h217v214h64v-214h218z" />
    <glyph glyph-name="comma" unicode="," horiz-adv-x="253" 
d="M117 2h-6q-35 4 -58 30.5t-23 64.5q0 39 27 67.5t69 28.5q46 0 73.5 -31.5t27.5 -79.5q0 -68 -48 -129t-126 -94l-8 15q24 16 48 54t24 74z" />
    <glyph glyph-name="hyphen" unicode="-" horiz-adv-x="347" 
d="M50 248v54h247v-54h-247z" />
    <glyph glyph-name="period" unicode="." horiz-adv-x="253" 
d="M30 88q0 40 28 68.5t68 28.5t68.5 -28.5t28.5 -68.5t-28.5 -68t-68.5 -28t-68 28t-28 68z" />
    <glyph glyph-name="slash" unicode="/" horiz-adv-x="455" 
d="M10 -103l366 810h69l-365 -810h-70z" />
    <glyph glyph-name="zero" unicode="0" horiz-adv-x="622" 
d="M309 -8q-126 0 -197.5 89.5t-71.5 245.5q0 168 77 254.5t193 86.5q124 0 198 -86.5t74 -244.5q0 -165 -74.5 -255t-198.5 -90zM309 28q53 0 68 71.5t15 233.5q0 152 -19 228.5t-63 76.5q-49 -3 -65.5 -72.5t-16.5 -232.5q0 -305 81 -305z" />
    <glyph glyph-name="one" unicode="1" horiz-adv-x="379" 
d="M280 668v-535q0 -82 49 -118v-15h-273v15q49 32 49 118v408l-85 -15v15z" />
    <glyph glyph-name="two" unicode="2" horiz-adv-x="558" 
d="M479 0h-443v67q114 77 198 190t84 228q0 65 -25 103t-68 38q-32 0 -55 -19t-28 -47q73 -13 73 -89q0 -37 -26 -62.5t-67 -25.5q-39 1 -65.5 31.5t-26.5 71.5q0 73 67.5 125.5t164.5 52.5q114 0 176 -51.5t62 -133.5q0 -91 -88.5 -182.5t-251.5 -176.5h180q60 0 94 14.5
t64 43.5h15z" />
    <glyph glyph-name="three" unicode="3" horiz-adv-x="584" 
d="M180 318v20q79 25 117 67.5t38 110.5q0 48 -24 77.5t-65 29.5q-54 0 -77 -37q24 -7 38.5 -29.5t14.5 -48.5q0 -39 -25 -62.5t-63 -23.5t-63.5 26t-25.5 67q0 65 65 107.5t165 42.5q110 0 178.5 -42t68.5 -119q0 -110 -141 -154q73 -11 120.5 -52t47.5 -104
q0 -95 -78.5 -149.5t-202.5 -54.5q-103 0 -170.5 39.5t-67.5 100.5q0 39 26 66t65 27q41 0 67.5 -25.5t26.5 -64.5q0 -37 -25 -62q23 -40 78 -40q45 0 72 38.5t27 102.5q0 60 -35.5 102.5t-116.5 44.5h-28z" />
    <glyph glyph-name="four" unicode="4" horiz-adv-x="611" 
d="M92 235h214v312v1zM573 135h-92v-2q0 -86 44 -118v-15h-263v15q44 28 44 118v2h-286v67l351 466h110v-433h110z" />
    <glyph glyph-name="five" unicode="5" horiz-adv-x="539" 
d="M245 -9q-104 0 -164.5 37t-60.5 99q0 44 27.5 68.5t65.5 24.5q42 0 68 -26.5t26 -63.5q0 -45 -30 -68q6 -15 24.5 -26t43.5 -11q52 0 78 40.5t26 105.5q0 68 -44.5 107t-128.5 39q-58 0 -107 -18l44 357h376l-21 -120h-347l-6 -147q27 16 80.5 29t94.5 13
q105 0 162 -53.5t57 -148.5q0 -102 -71.5 -170t-192.5 -68z" />
    <glyph glyph-name="six" unicode="6" horiz-adv-x="575" 
d="M299 -19q-128 0 -193.5 84t-65.5 215q0 178 90.5 277t246.5 99q48 0 86 -12l-4 -15q-213 -1 -241 -274q21 29 59.5 51t82.5 22q89 0 137 -55t48 -147q0 -112 -66.5 -178.5t-179.5 -66.5zM216 313q-2 -38 -2 -58q0 -40 5 -79.5t16 -77t31 -60.5t46 -23q74 0 74 147
q0 76 -25.5 126.5t-69.5 50.5t-75 -26z" />
    <glyph glyph-name="seven" unicode="7" horiz-adv-x="501" 
d="M278 0h-194q72 233 338 535h-220q-59 0 -104.5 -16.5t-67.5 -41.5h-15l31 178h465v-28q-83 -121 -145.5 -305t-87.5 -322z" />
    <glyph glyph-name="eight" unicode="8" horiz-adv-x="604" 
d="M329 28q43 0 70.5 22.5t27.5 61.5q0 62 -93 118q-20 12 -109 58q-32 -47 -32 -113t37.5 -106.5t98.5 -40.5zM279 631q-39 0 -61 -21t-22 -58q0 -25 12 -47t39 -42.5t49 -33.5t63 -34q24 42 24 105q0 51 -27.5 91t-76.5 40zM398 374q79 -43 122.5 -87.5t43.5 -108.5
q0 -81 -78 -134.5t-197 -53.5q-109 0 -179 43t-70 125q0 57 43 95.5t106 54.5q-66 38 -103 78.5t-37 95.5q0 64 40 107t94.5 60t116.5 17q104 0 171 -45t67 -110q0 -54 -40.5 -89.5t-99.5 -47.5z" />
    <glyph glyph-name="nine" unicode="9" horiz-adv-x="570" 
d="M277 664q128 0 190.5 -85t62.5 -221q0 -160 -84.5 -263.5t-239.5 -103.5q-69 0 -109 16l4 15q120 0 180.5 72.5t71.5 195.5q-57 -72 -150 -72q-69 0 -121 56t-52 145q0 110 65.5 177.5t181.5 67.5zM355 332q2 38 2 58q0 37 -3 72t-11.5 76.5t-28 66.5t-46.5 25
q-36 0 -57.5 -42t-21.5 -105q0 -76 25.5 -126.5t75.5 -50.5q29 0 65 26z" />
    <glyph glyph-name="colon" unicode=":" horiz-adv-x="253" 
d="M30 410q0 40 28 68.5t68 28.5t68.5 -28.5t28.5 -68.5t-28.5 -68t-68.5 -28t-68 28t-28 68zM30 96q0 40 28 68.5t68 28.5t68.5 -28.5t28.5 -68.5t-28.5 -68t-68.5 -28t-68 28t-28 68z" />
    <glyph glyph-name="semicolon" unicode=";" horiz-adv-x="253" 
d="M31 410q0 40 28 68.5t68 28.5t68.5 -28.5t28.5 -68.5t-28.5 -68t-68.5 -28t-68 28t-28 68zM126 193q46 0 73.5 -31.5t27.5 -79.5q0 -68 -48 -129t-126 -94l-8 15q24 16 48 54t24 74q-6 0 -8 1q-34 5 -56.5 30.5t-22.5 63.5q0 39 27 67.5t69 28.5z" />
    <glyph glyph-name="less" unicode="&#x3c;" horiz-adv-x="599" 
d="M69 305v54l459 180v-64l-383 -142l384 -145v-63z" />
    <glyph glyph-name="equal" unicode="=" horiz-adv-x="599" 
d="M50 423v57h499v-57h-499zM50 203v57h499v-57h-499z" />
    <glyph glyph-name="greater" unicode="&#x3e;" horiz-adv-x="599" 
d="M530 358v-54l-460 -180v63l384 145l-383 142v64z" />
    <glyph glyph-name="question" unicode="?" horiz-adv-x="514" 
d="M237 185q40 0 68.5 -28.5t28.5 -68.5t-28.5 -68t-68.5 -28t-68 28t-28 68t28 68.5t68 28.5zM224 236l-41 151q74 12 110.5 53t36.5 100q0 50 -25.5 78.5t-67.5 28.5q-27 0 -51.5 -11t-32.5 -27q35 -29 35 -80q0 -36 -26.5 -62t-63.5 -26q-35 0 -61.5 25.5t-26.5 64.5
q0 69 65 110.5t172 41.5q112 0 179.5 -49t67.5 -129q0 -78 -58 -127.5t-156 -57.5l-32 -84h-24z" />
    <glyph glyph-name="at" unicode="@" horiz-adv-x="910" 
d="M567 341l19 108q-12 15 -37 15q-60 0 -110 -84t-50 -192q0 -78 36 -78q37 0 78 66.5t64 164.5zM657 -62l16 -35q-103 -60 -244 -60q-165 0 -272 96.5t-107 260.5q0 120 62.5 223t169 163.5t229.5 60.5q162 0 260.5 -94t98.5 -249q0 -70 -27 -136t-78.5 -111t-115.5 -45
q-52 0 -85 35.5t-27 112.5q-38 -63 -82.5 -102t-86.5 -39q-49 0 -79.5 36.5t-30.5 97.5q0 135 91 242.5t201 107.5q91 0 161 -50q-13 -26 -23 -90l-30 -190q-10 -49 -3 -73t16 -30.5t25 -6.5q47 0 78 72.5t31 164.5q0 141 -77 223.5t-218 82.5q-139 0 -238 -114t-99 -283
q0 -157 81 -239t214 -82q102 0 189 50z" />
    <glyph glyph-name="A" unicode="A" horiz-adv-x="745" 
d="M210 225h205l-106 248zM398 685l208 -486q60 -140 129 -184v-15h-327v15q36 9 43.5 55t-22.5 121h-232l-8 -19q-19 -48 -6.5 -90.5t52.5 -66.5v-15h-225v15q34 15 71.5 58t61.5 96l233 516h22z" />
    <glyph glyph-name="B" unicode="B" horiz-adv-x="658" 
d="M346 34h1q38 0 58.5 33.5t20.5 117.5q0 69 -26 105t-84 40l-37 3v-212q0 -87 67 -87zM297 640h-18v-281l32 3q92 10 92 135q0 83 -27.5 113t-78.5 30zM60 674h300q110 0 172 -45t62 -123q0 -73 -48 -113.5t-113 -48.5q34 -3 64.5 -13t58.5 -27.5t45 -48t17 -70.5
q0 -185 -262 -185h-296v15q44 28 44 118v418q0 79 -44 108v15z" />
    <glyph glyph-name="C" unicode="C" horiz-adv-x="678" 
d="M40 335q0 166 106.5 257t265.5 91q122 0 222 -51v-194h-15q-29 95 -82.5 153t-123.5 58q-81 0 -130.5 -79t-50.5 -235q1 -156 54.5 -234.5t140.5 -78.5q75 0 120.5 54.5t75.5 156.5h15v-194q-83 -51 -226 -51q-159 0 -265.5 90.5t-106.5 256.5z" />
    <glyph glyph-name="D" unicode="D" horiz-adv-x="753" 
d="M352 33h1q82 0 127.5 84.5t45.5 215.5q0 88 -20 154.5t-67.5 109.5t-119.5 43h-40v-509q0 -98 73 -98zM60 674h265q194 0 291 -86t97 -249q0 -157 -97.5 -248t-296.5 -91h-259v15q44 29 44 118v408q0 89 -44 118v15z" />
    <glyph glyph-name="E" unicode="E" horiz-adv-x="604" 
d="M559 180h15v-180h-514v15q44 29 44 118v408q0 89 -44 118v15h490v-180h-15q-28 65 -79.5 105.5t-120.5 40.5h-56v-284l44 4q44 4 71 30.5t49 70.5h15v-235h-15q-23 43 -49.5 69.5t-70.5 30.5l-44 4v-198q0 -52 19.5 -75t60.5 -23h2q68 0 119 40.5t79 105.5z" />
    <glyph glyph-name="F" unicode="F" horiz-adv-x="595" 
d="M570 674v-180h-15q-28 65 -79.5 105.5t-120.5 40.5h-76v-289l39 4q47 5 77.5 30.5t55.5 70.5h15v-235h-15q-28 45 -57.5 70t-75.5 30l-39 4v-192q0 -87 44 -118v-15h-263v15q44 29 44 118v408q0 89 -44 118v15h510z" />
    <glyph glyph-name="G" unicode="G" horiz-adv-x="714" 
d="M442 345h247v-15q-43 -31 -43 -118v-66q0 -50 17 -87q-38 -27 -108 -49t-139 -22q-173 0 -274.5 91.5t-101.5 253.5q0 153 101.5 251.5t272.5 98.5q47 0 96 -9.5t65.5 -15t60.5 -21.5v-195h-15q-37 101 -91 154t-118 53q-48 0 -84.5 -29t-56.5 -76.5t-29.5 -100.5
t-9.5 -110q0 -135 48 -223t139 -88q67 0 67 90v100q0 89 -44 118v15z" />
    <glyph glyph-name="H" unicode="H" horiz-adv-x="804" 
d="M744 674v-15q-44 -31 -44 -118v-408q0 -86 44 -118v-15h-263v15q44 29 44 118v186h-246v-186q0 -86 44 -118v-15h-263v15q44 29 44 118v408q0 89 -44 118v15h263v-15q-44 -31 -44 -118v-188h246v188q0 89 -44 118v15h263z" />
    <glyph glyph-name="I" unicode="I" horiz-adv-x="383" 
d="M279 541v-408q0 -86 44 -118v-15h-263v15q44 29 44 118v408q0 89 -44 118v15h263v-15q-44 -31 -44 -118z" />
    <glyph glyph-name="J" unicode="J" horiz-adv-x="390" 
d="M296 541v-354q0 -38 -1.5 -64t-7.5 -59.5t-16.5 -56t-30 -47.5t-47.5 -41t-69.5 -29t-94.5 -19l-4 15q96 77 96 214v441q0 90 -44 118v15h263v-15q-44 -32 -44 -118z" />
    <glyph glyph-name="K" unicode="K" horiz-adv-x="729" 
d="M293 302v15l127 162q31 40 42 78.5t5.5 63t-20.5 38.5v15h237v-15q-54 -25 -116 -75.5t-102 -99.5l-47 -57l89 -134q121 -181 211 -252v-13q-42 -37 -120 -37q-34 0 -64 13t-58 42t-47 54t-49 70zM279 541v-408q0 -86 44 -118v-15h-263v15q44 29 44 118v408q0 89 -44 118
v15h263v-15q-44 -31 -44 -118z" />
    <glyph glyph-name="L" unicode="L" horiz-adv-x="625" 
d="M580 230h15v-230h-535v15q44 29 44 118v408q0 90 -44 118v15h263v-15q-44 -31 -44 -118v-409q0 -53 21.5 -75.5t71.5 -22.5h3q78 0 130 54t75 142z" />
    <glyph glyph-name="M" unicode="M" horiz-adv-x="958" 
d="M131 492q1 67 -16 103.5t-55 63.5v15h245l211 -465l163 465h219v-15q-44 -28 -44 -118v-408q0 -86 44 -118v-15h-263v15q44 28 44 118v428l-213 -573h-39l-268 570l10 -373q2 -67 23.5 -111.5t52.5 -58.5v-15h-195v15q31 14 52.5 58.5t22.5 111.5z" />
    <glyph glyph-name="N" unicode="N" horiz-adv-x="755" 
d="M634 491l-12 -513h-19l-445 484l11 -279q3 -67 24.5 -110.5t51.5 -57.5v-15h-195v15q31 14 52 57.5t23 110.5l9 256q-3 69 -25.5 127t-58.5 93v15h159l392 -427l-11 244q-3 67 -24 110.5t-51 57.5v15h195v-15q-30 -14 -51.5 -57.5t-24.5 -110.5z" />
    <glyph glyph-name="O" unicode="O" horiz-adv-x="790" 
d="M395 23q58 0 95.5 47t52.5 115t15 155q0 84 -16 152t-54 113.5t-93 45.5q-84 0 -123.5 -88.5t-39.5 -222.5q0 -85 16 -154.5t54 -116t93 -46.5zM395 -11q-169 0 -262 92t-93 258q0 152 97.5 249t257.5 97q162 0 258.5 -96.5t96.5 -249.5q0 -159 -96.5 -254.5
t-258.5 -95.5z" />
    <glyph glyph-name="P" unicode="P" horiz-adv-x="663" 
d="M60 674h280q133 0 208 -57t75 -158q0 -106 -69 -166t-193 -62q-23 0 -35 1l-2 15q57 24 82 71.5t25 140.5q0 181 -136 181h-16v-507q0 -87 44 -118v-15h-263v15q44 28 44 118v408q0 89 -44 118v15z" />
    <glyph glyph-name="Q" unicode="Q" horiz-adv-x="790" 
d="M232 340q0 -85 16 -154.5t54 -116t93 -46.5q58 0 95.5 47t52.5 115t15 155q0 84 -16 152t-54 113.5t-93 45.5q-84 0 -123.5 -88.5t-39.5 -222.5zM770 -104l6 -14q-15 -28 -54 -49.5t-84 -21.5q-74 0 -138 45t-134 134q-155 7 -240.5 99t-85.5 250q0 152 97.5 249
t257.5 97q162 0 258.5 -96.5t96.5 -249.5q0 -149 -85.5 -243t-230.5 -105q73 -41 162.5 -65.5t173.5 -29.5z" />
    <glyph glyph-name="R" unicode="R" horiz-adv-x="704" 
d="M602 -9q-61 0 -108.5 32.5t-100.5 104.5q-12 16 -25 37t-22 36t-26 46.5t-26 46.5v14q133 37 133 185q0 147 -126 147h-22v-507q0 -87 44 -118v-15h-263v15q44 28 44 118v408q0 89 -44 118v15h278q278 0 278 -184q0 -74 -46 -114t-110 -53l42 -60q115 -163 202 -230
l-4 -15q-45 -27 -98 -27z" />
    <glyph glyph-name="S" unicode="S" horiz-adv-x="551" 
d="M63 218q43 -92 95.5 -142.5t109.5 -50.5q46 0 72 22t26 61q0 30 -18 55t-46.5 43.5t-63.5 37.5t-70 41t-63.5 48t-46.5 64.5t-18 86.5q0 88 67.5 143t166.5 55q118 0 197 -50v-167h-15q-38 100 -89 141.5t-100 41.5q-41 0 -64 -21.5t-23 -56.5q0 -38 34 -70.5t82.5 -58.5
t97.5 -56t83 -77t34 -107q0 -95 -66 -153t-186 -58q-118 0 -211 54v174h15z" />
    <glyph glyph-name="T" unicode="T" horiz-adv-x="632" 
d="M15 674h602v-209h-15q-13 33 -23.5 55.5t-32 54t-53.5 48.5t-71 17h-20v-507q0 -86 44 -118v-15h-263v15q44 28 44 118v507h-17q-39 0 -71 -17t-53.5 -48.5t-32 -54t-23.5 -55.5h-15v209z" />
    <glyph glyph-name="U" unicode="U" horiz-adv-x="734" 
d="M384 -9q-64 0 -111.5 11t-87.5 36.5t-60.5 73.5t-20.5 117v312q0 89 -44 118v15h263v-15q-44 -32 -44 -118v-301q0 -193 159 -193q145 0 142 199l-3 266q-1 106 -90 147v15h227v-15q-78 -35 -83 -147l-11 -274q-5 -118 -59 -182.5t-177 -64.5z" />
    <glyph glyph-name="V" unicode="V" horiz-adv-x="731" 
d="M342 659q-33 -22 -38 -71.5t16 -92.5l123 -274l83 244q20 52 13 107t-43 87v15h225v-15q-47 -18 -87.5 -73t-68.5 -127l-185 -470h-22l-231 513q-55 122 -117 157v15h332v-15z" />
    <glyph glyph-name="W" unicode="W" horiz-adv-x="1078" 
d="M816 239l68 207q22 60 11 124t-52 89v15h225v-15q-77 -39 -143 -213l-175 -457h-22l-172 454l-173 -454h-22l-216 486q-32 74 -61.5 118t-73.5 66v15h332v-15q-63 -48 -3 -182l109 -239l88 259l-4 11q-47 124 -108 151v15h332v-15q-27 -16 -38.5 -46t-9 -60t13.5 -60z
" />
    <glyph glyph-name="X" unicode="X" horiz-adv-x="745" 
d="M441 393l149 -227q79 -121 145 -151v-15h-345v15q28 24 23.5 65.5t-36.5 89.5l-76 115l-60 -103q-62 -106 -4 -167v-15h-227v15q85 30 176 154l101 138l-132 201q-27 41 -43.5 64t-42.5 50t-49 37v15h335v-15q-53 -53 10 -151l61 -93l44 82q21 37 20.5 85.5t-27.5 76.5
v15h227v-15q-95 -34 -175 -154z" />
    <glyph glyph-name="Y" unicode="Y" horiz-adv-x="703" 
d="M470 674h223v-15q-47 -16 -92 -62.5t-73 -102.5l-83 -168v-193q0 -86 44 -118v-15h-263v15q44 28 44 118v144l-128 231q-71 128 -132 151v15h333v-15q-29 -17 -35.5 -50t1 -59.5t20.5 -49.5l92 -166l70 157q21 43 16.5 93.5t-37.5 74.5v15z" />
    <glyph glyph-name="Z" unicode="Z" horiz-adv-x="638" 
d="M598 674v-15l-354 -635l118 10q68 6 124.5 57t88.5 129h15v-220h-550v15l355 635l-116 -10q-68 -6 -123 -56.5t-87 -128.5h-15v219h544z" />
    <glyph glyph-name="bracketleft" unicode="[" horiz-adv-x="370" 
d="M350 714h-105v-845h105v-34h-270v913h270v-34z" />
    <glyph glyph-name="backslash" unicode="\" horiz-adv-x="455" 
d="M79 707l366 -810h-70l-365 810h69z" />
    <glyph glyph-name="bracketright" unicode="]" horiz-adv-x="370" 
d="M290 748v-913h-270v34h105v845h-105v34h270z" />
    <glyph glyph-name="asciicircum" unicode="^" horiz-adv-x="514" 
d="M225 594h54l155 -262h-69l-113 194l-109 -194h-63z" />
    <glyph glyph-name="underscore" unicode="_" horiz-adv-x="526" 
d="M10 -70v54h507v-54h-507z" />
    <glyph glyph-name="grave" unicode="`" horiz-adv-x="600" 
d="M108 743h180l64 -164h-34z" />
    <glyph glyph-name="a" unicode="a" 
d="M298 129v123q-54 0 -81 -29t-27 -79q0 -33 16 -55t46 -22q29 0 49 22q-3 18 -3 40zM516 56h17v-18q-27 -23 -52 -34t-68 -11q-74 0 -102 65q-56 -65 -149 -65q-62 0 -99.5 37t-37.5 95q0 80 65 121.5t157 41.5q29 0 51 -3v50q0 94 -8 117q-14 35 -57 36q-44 0 -65 -30
q25 -23 25 -57q0 -33 -20 -55t-54 -22q-31 0 -52.5 21t-21.5 53q0 55 55 88t138 33q58 0 99 -10t65 -27t38 -44.5t18.5 -56.5t4.5 -70v-205q0 -50 53 -50z" />
    <glyph glyph-name="b" unicode="b" horiz-adv-x="626" 
d="M596 279q0 -75 -25 -131.5t-67.5 -90t-95.5 -50t-114 -16.5q-119 0 -215 40v568q0 28 -11 48.5t-22 26.5l-11 7v15l209 63v-342q24 45 65 73.5t95 28.5q89 0 140.5 -70t51.5 -170zM244 64q29 -39 78 -39q48 0 77.5 47t29.5 140q0 98 -28.5 150t-80.5 52q-26 0 -76 -21
v-329z" />
    <glyph glyph-name="c" unicode="c" horiz-adv-x="540" 
d="M513 119q-38 -58 -96.5 -93.5t-130.5 -35.5q-108 0 -182 70.5t-74 186.5q0 122 77.5 197t190.5 75q104 0 157.5 -41t53.5 -99q0 -36 -25 -61t-60 -25q-37 0 -60.5 25t-23.5 60q0 43 30 68q-14 39 -62 39q-33 0 -56.5 -18t-34.5 -47t-15.5 -56t-4.5 -54
q0 -107 51.5 -167.5t120.5 -60.5q32 0 69.5 14t64.5 35z" />
    <glyph glyph-name="d" unicode="d" horiz-adv-x="646" 
d="M397 113v257q-3 58 -29 86t-60 28q-41 0 -71.5 -45.5t-30.5 -152.5q0 -85 28.5 -137.5t88.5 -52.5q33 0 74 17zM562 759v-607q0 -28 11 -52.5t22 -35.5l11 -11v-15l-209 -46v97q-66 -98 -165 -98q-91 0 -144 70t-53 175q0 129 66.5 205.5t182.5 76.5q70 0 113 -32v113
q0 28 -11 48.5t-22 26.5l-11 7v15z" />
    <glyph glyph-name="e" unicode="e" 
d="M197 289l175 22q0 174 -79 174q-28 0 -48.5 -17.5t-30 -46t-13.5 -56t-4 -55.5v-21zM509 128l10 -12q-44 -59 -107 -93t-131 -34q-108 0 -179.5 70.5t-71.5 187.5q0 122 75.5 197t187.5 75q222 0 222 -226v-28h-316q10 -94 57.5 -140t113.5 -46q36 0 75.5 15t63.5 34z
" />
    <glyph glyph-name="f" unicode="f" horiz-adv-x="436" 
d="M84 500v18q0 243 198 243q84 0 132 -28.5t48 -75.5q0 -31 -18.5 -50t-47.5 -19q-26 0 -45.5 17.5t-19.5 47.5q0 45 38 56q-18 18 -51 18q-13 0 -22.5 -3.5t-17 -12.5t-12.5 -18t-8 -26t-5 -30t-3 -36t-1 -38.5v-42.5v-6l163 14l-9 -60h-154v-335q0 -89 59 -118v-15h-273
v15q49 31 49 118v335h-52v27z" />
    <glyph glyph-name="g" unicode="g" horiz-adv-x="560" 
d="M372 -44h-153q-38 0 -66 8q-20 -24 -20 -62q0 -51 38.5 -75t98.5 -24q73 0 122.5 30.5t49.5 78.5q0 28 -18 36t-52 8zM258 489q-35 0 -53.5 -36t-18.5 -99q0 -83 21 -120.5t54 -37.5q31 0 50.5 36t19.5 107q0 60 -19.5 105t-53.5 45zM233 104h150q79 0 120.5 -25.5
t41.5 -87.5q0 -92 -88.5 -166.5t-230.5 -74.5q-97 0 -154 31.5t-57 85.5q0 39 29.5 67t78.5 40q-54 27 -54 87q0 73 89 116q-58 18 -93 59t-35 103q0 80 68 130t169 50q64 0 115 -21q13 46 41 73.5t60 27.5q28 0 45 -18.5t17 -43.5q0 -24 -15.5 -42t-40.5 -18q-36 0 -51 37
q-11 0 -32 -28q81 -45 81 -135q0 -88 -70.5 -137.5t-169.5 -49.5q-31 0 -61 6q-11 -15 -11 -33q0 -33 58 -33z" />
    <glyph glyph-name="h" unicode="h" horiz-adv-x="653" 
d="M249 394v-261q0 -86 44 -118v-15h-258v15q49 31 49 118v466q0 28 -11 48.5t-22 26.5l-11 7v15l209 63v-341q37 50 88 75t99 25q74 0 103.5 -43.5t29.5 -133.5v-208q0 -82 49 -118v-15h-258v15q44 28 44 118v197q0 84 -79 84q-28 0 -76 -20z" />
    <glyph glyph-name="i" unicode="i" horiz-adv-x="333" 
d="M249 518v-385q0 -83 49 -118v-15h-263v15q49 31 49 118v225q0 28 -11 48.5t-22 27.5l-11 6v15zM65 667q0 40 28 68.5t68 28.5t68.5 -28.5t28.5 -68.5t-28.5 -68t-68.5 -28t-68 28t-28 68z" />
    <glyph glyph-name="j" unicode="j" horiz-adv-x="333" 
d="M84 41v317q0 28 -11 48.5t-22 27.5l-11 6v15l209 63v-452q0 -74 -11.5 -126.5t-41 -95t-84 -65.5t-135.5 -29l-4 15q111 86 111 276zM61 667q0 40 28 68.5t68 28.5t68.5 -28.5t28.5 -68.5t-28.5 -68t-68.5 -28t-68 28t-28 68z" />
    <glyph glyph-name="k" unicode="k" horiz-adv-x="649" 
d="M260 247l96 96q22 22 34.5 48t9.5 54t-25 48v15h236v-15q-40 -16 -78 -40t-61.5 -43t-63.5 -53l-27 -23l52 -65q76 -94 123 -145.5t93 -89.5v-12q-38 -31 -92 -31q-60 0 -104 26.5t-98 89.5q-16 18 -50 63.5t-46 60.5zM249 759v-626q0 -82 49 -118v-15h-263v15
q49 31 49 118v466q0 28 -11 48.5t-22 26.5l-11 7v15z" />
    <glyph glyph-name="l" unicode="l" horiz-adv-x="333" 
d="M249 759v-626q0 -82 49 -118v-15h-263v15q49 31 49 118v466q0 28 -11 48.5t-22 26.5l-11 7v15z" />
    <glyph glyph-name="m" unicode="m" horiz-adv-x="959" 
d="M875 341v-208q0 -83 49 -118v-15h-258v15q44 29 44 118v197q0 83 -79 83q-43 0 -72 -17q3 -22 3 -48v-215q0 -87 44 -118v-15h-253v15q44 29 44 118v197q0 83 -72 83q-38 0 -76 -19v-261q0 -86 44 -118v-15h-258v15q49 31 49 118v236q0 28 -11 48.5t-22 26.5l-11 7v15
l209 63v-111q74 100 180 100q105 0 126 -100q33 46 84 73t103 27q74 0 103.5 -43.5t29.5 -133.5z" />
    <glyph glyph-name="n" unicode="n" horiz-adv-x="653" 
d="M249 394v-261q0 -86 44 -118v-15h-258v15q49 31 49 118v236q0 28 -11 48.5t-22 26.5l-11 7v15l209 63v-111q37 50 88 75t99 25q73 0 103 -44t30 -133v-208q0 -83 49 -118v-15h-258v15q44 29 44 118v197q0 42 -22 62.5t-57 20.5q-38 0 -76 -19z" />
    <glyph glyph-name="o" unicode="o" horiz-adv-x="611" 
d="M581 250q0 -114 -80 -187t-203 -73q-120 0 -194 71t-74 184q0 116 75.5 195t208.5 79q124 0 195.5 -76t71.5 -193zM206 287q0 -46 4.5 -87.5t14.5 -83t31.5 -66t52.5 -24.5q96 0 96 206q0 117 -26 184.5t-76 67.5q-51 0 -74 -60t-23 -137z" />
    <glyph glyph-name="p" unicode="p" horiz-adv-x="631" 
d="M249 392v-256q13 -111 86 -111q38 0 68 44.5t30 150.5q0 35 -5 66t-17 61.5t-36 48.5t-59 18q-36 0 -67 -22zM249 529v-112q67 102 162 102q62 0 107 -39t64 -94t19 -117q0 -127 -64 -202.5t-179 -75.5q-70 0 -109 29v-136q0 -88 59 -118v-15h-273v15q49 32 49 118v476
q0 28 -11 50.5t-22 31.5l-11 9v15z" />
    <glyph glyph-name="q" unicode="q" horiz-adv-x="629" 
d="M380 -116v205q-23 -42 -63 -70t-89 -28q-90 0 -144 70.5t-54 170.5q0 72 24 128.5t64.5 90t91 51t107.5 17.5q142 0 255 -76q-27 -38 -27 -145v-414q0 -42 15 -73.5t34 -44.5v-15h-273v15q59 34 59 118zM302 485q-46 0 -75.5 -46.5t-29.5 -139.5q0 -98 31 -150.5
t80 -52.5q31 0 72 17v314q-8 25 -30 41.5t-48 16.5z" />
    <glyph glyph-name="r" unicode="r" horiz-adv-x="503" 
d="M249 408q27 44 68 77.5t86 33.5q41 0 65.5 -26.5t24.5 -61.5q0 -40 -25 -65.5t-63 -25.5q-33 0 -56 24.5t-25 57.5q-35 -3 -75 -43v-246q0 -87 69 -118v-15h-283v15q49 31 49 118v236q0 28 -11 48.5t-22 26.5l-11 7v15l209 63v-121z" />
    <glyph glyph-name="s" unicode="s" horiz-adv-x="488" 
d="M230 -11q-86 0 -138 27t-52 69q0 30 18 48.5t47 18.5q27 0 45.5 -18t18.5 -44q0 -27 -16 -41q23 -23 82 -23q43 0 64.5 17.5t21.5 45.5t-28.5 47.5t-69.5 34t-82 33.5t-69.5 57.5t-28.5 94.5q0 73 60.5 117.5t152.5 44.5q81 0 127 -24t46 -65q0 -30 -18 -48.5t-47 -18.5
q-27 0 -45.5 18t-18.5 44q0 27 16 41q-19 19 -67 19q-31 0 -50.5 -15.5t-19.5 -38.5q0 -28 20 -48.5t50 -32t64.5 -27t64.5 -32.5t50 -50.5t20 -78.5q0 -75 -61 -123.5t-157 -48.5z" />
    <glyph glyph-name="t" unicode="t" horiz-adv-x="393" 
d="M374 88l9 -12q-29 -38 -74 -61.5t-93 -23.5q-69 0 -100.5 41t-31.5 124v312h-63v27q57 21 110.5 69.5t83.5 109.5h34v-157l112 11l-9 -60h-103v-292q0 -103 64 -103q24 0 61 15z" />
    <glyph glyph-name="u" unicode="u" horiz-adv-x="648" 
d="M399 113v256q0 30 -11 54.5t-22 34.5l-11 10v15l209 46v-377q0 -30 11 -54.5t22 -34.5l11 -10v-15l-209 -46v97q-32 -45 -78.5 -71.5t-93.5 -26.5q-143 0 -143 175v203q0 30 -11 54.5t-22 34.5l-11 10v15l209 46v-352q0 -81 74 -81q35 0 76 17z" />
    <glyph glyph-name="v" unicode="v" horiz-adv-x="591" 
d="M292 -11l-179 386q-20 42 -50 76t-53 42v15h295v-15q-55 -37 -13 -130l77 -176l43 146q33 111 -26 160v15h195v-15q-36 -17 -70 -56t-53 -88l-144 -360h-22z" />
    <glyph glyph-name="w" unicode="w" horiz-adv-x="911" 
d="M706 508h195v-15q-80 -50 -122 -154l-138 -350h-22l-151 347l-142 -347h-22l-163 342q-55 117 -131 162v15h285v-15q-47 -36 -1 -134l84 -184l71 205q-38 82 -91 113v15h285v-15q-31 -21 -33 -68t17 -83l64 -167l42 132q18 59 10 110t-37 76v15z" />
    <glyph glyph-name="x" unicode="x" horiz-adv-x="628" 
d="M371 300l132 -179q28 -38 62 -69t53 -37v-15h-295v15q21 14 13 46t-53 96l-25 36l-27 -44q-57 -92 -6 -134v-15h-215v15q23 9 48.5 28t41 33.5t43.5 43.5l97 99l-117 166q-69 98 -109 108v15h285v-15q-13 -10 -16 -25.5t3 -34t15.5 -35.5t21.5 -33l28 -38l20 32
q13 22 21 44.5t6 48.5t-21 41v15h213v-15q-75 -31 -159 -126z" />
    <glyph glyph-name="y" unicode="y" horiz-adv-x="611" 
d="M294 -18l-159 338q-67 141 -125 173v15h295v-15q-27 -20 -28.5 -58.5t10 -71t32.5 -77.5l57 -138l49 145q13 36 16.5 72.5t-6.5 72.5t-36 55v15h202v-15q-35 -19 -65 -58.5t-48 -84.5l-130 -325q-2 -6 -11 -34.5t-12.5 -38t-13 -36.5t-15.5 -38.5t-17.5 -34t-21 -33
t-23.5 -26t-28 -22.5t-32 -12.5t-37 -5.5q-64 0 -101 55l-3 15q74 11 142 52t109 116z" />
    <glyph glyph-name="z" unicode="z" horiz-adv-x="516" 
d="M486 508v-24l-268 -455l49 5q89 10 130 46t70 110h15v-190h-452v24l267 456l-37 -4q-88 -8 -129.5 -45t-70.5 -113h-15v190h441z" />
    <glyph glyph-name="braceleft" unicode="{" horiz-adv-x="403" 
d="M30 300h12q38 0 59.5 35t21.5 80q0 34 -8.5 86t-8.5 76q0 75 57.5 124t130.5 49q56 0 89 -19l-5 -14q-12 2 -23 2q-39 0 -59 -27t-20 -71q0 -31 10.5 -87t10.5 -87q0 -59 -47.5 -104.5t-100.5 -52.5q54 -8 101 -52t47 -105q0 -31 -10.5 -87t-10.5 -87q0 -44 20 -71
t59 -27q11 0 23 2l5 -14q-33 -19 -89 -19q-73 0 -130.5 49t-57.5 124q0 24 8.5 76t8.5 86q0 45 -21.5 80t-59.5 35h-12v20z" />
    <glyph glyph-name="bar" unicode="|" horiz-adv-x="304" 
d="M184 -249h-64v999h64v-999z" />
    <glyph glyph-name="braceright" unicode="}" horiz-adv-x="403" 
d="M373 280h-12q-38 0 -59.5 -35t-21.5 -80q0 -34 8.5 -86t8.5 -76q0 -75 -57.5 -124t-130.5 -49q-56 0 -89 19l5 14q12 -2 23 -2q39 0 59 27t20 71q0 31 -10.5 87t-10.5 87q0 61 47 105t101 52q-53 7 -100.5 52.5t-47.5 104.5q0 31 10.5 87t10.5 87q0 44 -20 71t-59 27
q-11 0 -23 -2l-5 14q33 19 89 19q73 0 130.5 -49t57.5 -124q0 -24 -8.5 -76t-8.5 -86q0 -45 21.5 -80t59.5 -35h12v-20z" />
    <glyph glyph-name="asciitilde" unicode="~" horiz-adv-x="599" 
d="M177 404q38 0 74.5 -14.5t61.5 -32t61.5 -32t73.5 -14.5q81 0 119 90h15q2 -22 2 -34q0 -86 -46 -147t-128 -61q-46 0 -91.5 22.5t-89.5 45t-85 22.5q-40 0 -71.5 -24.5t-41.5 -56.5h-15q-1 8 -1 24q0 81 41.5 146.5t120.5 65.5z" />
    <glyph glyph-name="uni00A0" unicode="&#xa0;" horiz-adv-x="280" 
 />
    <glyph glyph-name="exclamdown" unicode="&#xa1;" horiz-adv-x="301" 
d="M164 271l78 -294q9 -33 9 -67q0 -41 -28.5 -63.5t-70.5 -22.5q-43 0 -72.5 23t-29.5 65q0 25 11 64l79 295h24zM55 419q0 40 28 68t68 28t68.5 -28t28.5 -68t-28.5 -68.5t-68.5 -28.5t-68 28.5t-28 68.5z" />
    <glyph glyph-name="cent" unicode="&#xa2;" horiz-adv-x="540" 
d="M274 117l-5 360q-39 -18 -55.5 -67t-16.5 -100q0 -131 77 -193zM503 131l10 -12q-77 -117 -203 -128l-2 -110h-31l-1 109q-105 4 -175.5 74t-70.5 183q0 114 68 187t170 84l-1 107h52l-2 -106q95 -4 143.5 -44t48.5 -96q0 -36 -25 -61t-60 -25q-37 0 -60.5 25t-23.5 60
q0 43 30 68q-12 35 -53 39l-6 -391q29 -12 58 -12q32 0 69.5 14t64.5 35z" />
    <glyph glyph-name="sterling" unicode="&#xa3;" horiz-adv-x="546" 
d="M501 163h15v-163h-468v20q97 59 97 182q0 44 -19 97l-96 2v30l81 2q-27 64 -27 121q0 92 64.5 151.5t168.5 59.5q78 0 135.5 -31t57.5 -87q0 -38 -22.5 -58.5t-49.5 -20.5q-30 0 -52 21t-22 54q0 46 42 65q-12 21 -49 21q-44 0 -70.5 -35t-26.5 -97q0 -23 5 -46.5
t10.5 -38t16 -39t14.5 -35.5l127 3v-50l-115 3q4 -17 4 -43q0 -100 -114 -180l170 24q38 6 63 16.5t35 21t25 30.5z" />
    <glyph glyph-name="currency" unicode="&#xa4;" horiz-adv-x="594" 
d="M289 185q59 0 99.5 42t40.5 100q0 59 -40.5 101.5t-99.5 42.5q-60 0 -100.5 -42.5t-40.5 -101.5q0 -58 40.5 -100t100.5 -42zM534 144l-42 -42l-77 78q-55 -47 -127 -47q-65 0 -118 40l-68 -68l-42 42l69 69q-36 50 -36 112q0 72 48 128l-71 71l42 42l74 -75
q48 29 102 29q62 0 111 -35l79 79l42 -42l-78 -78q41 -52 41 -119q0 -55 -29 -103z" />
    <glyph glyph-name="yen" unicode="&#xa5;" horiz-adv-x="703" 
d="M470 668h223v-15q-47 -16 -92 -62.5t-73 -102.5l-42 -85l112 2v-43l-131 2l-22 -44v-56l153 2v-43l-153 2v-92q0 -86 44 -118v-15h-263v15q44 28 44 118v94l-174 2v29l174 3v10l-53 96l-121 1v29l103 2l-57 103q-71 128 -132 151v15h333v-15q-29 -17 -35.5 -50t1 -59.5
t20.5 -49.5l92 -166l70 157q21 43 16.5 93.5t-37.5 74.5v15z" />
    <glyph glyph-name="brokenbar" unicode="&#xa6;" horiz-adv-x="304" 
d="M184 331h-64v419h64v-419zM120 169h64v-419h-64v419z" />
    <glyph glyph-name="section" unicode="&#xa7;" horiz-adv-x="603" 
d="M161 318q0 -38 28 -64.5t63 -39t91 -30.5t87 -33q7 23 7 41q0 33 -16 57t-47 39.5t-61 26t-73.5 23.5t-69.5 24q-9 -22 -9 -44zM461 134q76 -47 76 -134q0 -81 -66 -132.5t-160 -51.5q-103 0 -161 32t-58 82q0 29 18.5 47.5t48.5 18.5t49.5 -19.5t19.5 -49.5
q0 -28 -16 -44q32 -32 104 -32q42 0 67 19t25 52q0 35 -37 60.5t-89.5 44.5t-105 41t-89.5 62t-37 96q0 43 25.5 84.5t60.5 68.5q-75 43 -75 120q0 79 65 131t165 52q93 0 152 -29t59 -77q0 -29 -18.5 -47.5t-48.5 -18.5t-49.5 19.5t-19.5 49.5q0 28 16 44q-25 25 -91 25
q-41 0 -66.5 -19t-25.5 -50q0 -39 36.5 -63.5t88.5 -39t104 -33t88.5 -58t36.5 -100.5q0 -88 -92 -151z" />
    <glyph glyph-name="dieresis" unicode="&#xa8;" horiz-adv-x="600" 
d="M484 661q0 -30 -21.5 -51.5t-50.5 -21.5q-30 0 -51.5 21.5t-21.5 51.5t21.5 51.5t51.5 21.5q29 0 50.5 -21.5t21.5 -51.5zM261 661q0 -30 -21.5 -51.5t-50.5 -21.5q-30 0 -51.5 21.5t-21.5 51.5t21.5 51.5t51.5 21.5q29 0 50.5 -21.5t21.5 -51.5z" />
    <glyph glyph-name="copyright" unicode="&#xa9;" horiz-adv-x="740" 
d="M193 338q0 84 57 130t139 46q65 0 114 -27v-92h-12q-42 92 -102 92q-34 0 -58 -38.5t-24 -110.5t24 -111t59 -39q58 0 101 93h12v-93q-50 -27 -114 -27q-82 0 -139 46t-57 131zM30 328q0 141 100 240.5t240 99.5q142 0 241 -99.5t99 -240.5t-99.5 -240.5t-240.5 -99.5
q-140 0 -240 100t-100 240zM77 327q0 -122 85 -210t209 -88t209.5 88t85.5 210q0 123 -85 211.5t-210 88.5q-124 0 -209 -88.5t-85 -211.5z" />
    <glyph glyph-name="ordfeminine" unicode="&#xaa;" horiz-adv-x="379" 
d="M203 424v78q-61 -3 -61 -68q0 -50 35 -50q15 0 28 13q-2 16 -2 27zM364 380l5 -13q-13 -13 -39.5 -24t-54.5 -11q-44 0 -62 38q-36 -38 -94 -38q-43 0 -68.5 24.5t-25.5 63.5q0 53 43.5 81t104.5 28q21 0 30 -1v41q0 27 -0.5 38.5t-4 25.5t-11 19t-21.5 5q-26 0 -39 -18
q16 -14 16 -38q0 -23 -14.5 -38t-39.5 -15q-21 0 -35.5 15t-14.5 37q0 36 37 58t94 22q90 0 120.5 -34t30.5 -104v-135q0 -16 6 -23t20 -7q8 0 17 3z" />
    <glyph glyph-name="guillemotleft" unicode="&#xab;" horiz-adv-x="529" 
d="M260 263q120 69 215 182l14 -12l-84 -180l84 -180l-14 -12q-95 113 -215 182v20zM40 263q120 69 215 182l14 -12l-84 -180l84 -180l-14 -12q-95 113 -215 182v20z" />
    <glyph glyph-name="logicalnot" unicode="&#xac;" horiz-adv-x="599" 
d="M50 457h499v-251h-64v189h-435v62z" />
    <glyph glyph-name="uni00AD" unicode="&#xad;" horiz-adv-x="347" 
d="M50 248v54h247v-54h-247z" />
    <glyph glyph-name="registered" unicode="&#xae;" horiz-adv-x="740" 
d="M218 513h159q146 0 146 -100q0 -34 -25 -56t-61 -29q74 -95 123 -145l-2 -7q-24 -15 -50 -15q-31 0 -56 17t-53 55q-25 35 -55 85l5 6q69 26 69 95q0 75 -69 75h-12v-260q0 -38 22 -60v-8h-141v8q21 15 21 60v211q0 40 -21 61v7zM371 29q124 0 209.5 88t85.5 210
q0 123 -85 211.5t-210 88.5q-124 0 -209 -88.5t-85 -211.5q0 -122 85 -210t209 -88zM370 668q142 0 241 -99.5t99 -240.5t-99.5 -240.5t-240.5 -99.5q-140 0 -240 100t-100 240q0 141 100 240.5t240 99.5z" />
    <glyph glyph-name="macron" unicode="&#xaf;" horiz-adv-x="600" 
d="M146 634v54h307v-54h-307z" />
    <glyph glyph-name="degree" unicode="&#xb0;" horiz-adv-x="466" 
d="M50 505q0 77 53 123.5t141 46.5q78 0 125 -39t47 -104q0 -77 -53 -123.5t-141 -46.5q-78 0 -125 39t-47 104zM291 493q0 66 -16.5 106t-44.5 40q-25 0 -40 -26t-15 -69q0 -66 16.5 -106t44.5 -40q25 0 40 26t15 69z" />
    <glyph glyph-name="plusminus" unicode="&#xb1;" horiz-adv-x="599" 
d="M50 62v57h499v-57h-499zM331 415h218v-62h-218v-168h-64v168h-217v62h217v170h64v-170z" />
    <glyph glyph-name="twosuperior" unicode="&#xb2;" horiz-adv-x="337" 
d="M279 338h-248v44q63 41 104.5 94t41.5 108q0 64 -38 64q-22 0 -30 -23q35 -10 35 -46q0 -21 -15 -36.5t-40 -15.5q-27 0 -43 16.5t-16 41.5q0 38 37.5 66.5t92.5 28.5q63 0 97 -28t34 -71q0 -46 -38 -87t-116 -83h60q49 0 80 28h20z" />
    <glyph glyph-name="threesuperior" unicode="&#xb3;" horiz-adv-x="345" 
d="M107 496v15q79 26 79 90q0 22 -9.5 36t-27.5 14q-23 0 -31 -14q26 -10 26 -39q0 -22 -14.5 -35.5t-38.5 -13.5q-23 0 -38.5 14.5t-15.5 37.5q0 35 35.5 57t90.5 22q58 0 95.5 -22.5t37.5 -61.5q0 -51 -64 -77q35 -9 56.5 -30.5t21.5 -51.5q0 -48 -42.5 -76.5
t-108.5 -28.5q-57 0 -93 19.5t-36 55.5q0 20 15 35t39 15q25 0 40.5 -14.5t15.5 -34.5q0 -18 -12 -32q10 -15 31 -15q43 0 43 64q0 71 -80 71h-13h-2z" />
    <glyph glyph-name="acute" unicode="&#xb4;" horiz-adv-x="600" 
d="M318 743h180l-210 -164h-34z" />
    <glyph glyph-name="uni00B5" unicode="&#xb5;" horiz-adv-x="653" 
d="M569 529v-377q0 -30 11 -54.5t22 -34.5l11 -10v-15l-209 -46v97q-21 -38 -64 -66t-88 -28q-37 0 -68 11q8 -27 29.5 -77t21.5 -75q0 -31 -20.5 -48t-51.5 -17q-35 0 -57 22t-22 60v498q0 30 -11 54.5t-22 34.5l-11 10v15l209 46v-342q0 -46 24 -68.5t65 -22.5q37 0 66 17
v256q0 30 -11 54.5t-22 34.5l-11 10v15z" />
    <glyph glyph-name="paragraph" unicode="&#xb6;" horiz-adv-x="573" 
d="M543 674v-20q-44 -29 -44 -113v-512q0 -106 -62.5 -159.5t-169.5 -53.5q-71 0 -119 31.5t-48 90.5q0 39 26 63t59 24q37 0 62 -25.5t25 -64.5t-27 -66q14 -19 42 -19q87 0 87 166v630l-56 -6v-408q-60 0 -106.5 8.5t-90 31t-67.5 68.5t-24 113q0 105 77.5 163t205.5 58
h230z" />
    <glyph glyph-name="periodcentered" unicode="&#xb7;" horiz-adv-x="600" 
d="M378 355q0 -32 -23 -55t-55 -23t-55 23t-23 55t23 55t55 23t55 -23t23 -55z" />
    <glyph glyph-name="cedilla" unicode="&#xb8;" horiz-adv-x="600" 
d="M191 -197l7 28q23 -13 50 -13q21 0 35 11t14 30q0 51 -69 58l54 85h59l-22 -54q42 -4 66 -26t24 -53q0 -44 -32 -68.5t-81 -24.5q-62 0 -105 27z" />
    <glyph glyph-name="onesuperior" unicode="&#xb9;" horiz-adv-x="249" 
d="M183 686v-275q0 -40 26 -59v-14h-170v14q25 17 25 59v187l-44 -8v22z" />
    <glyph glyph-name="ordmasculine" unicode="&#xba;" horiz-adv-x="430" 
d="M30 499q0 80 49.5 132.5t141.5 52.5q86 0 132.5 -51t46.5 -131q0 -76 -53 -125t-137 -49q-82 0 -131 47.5t-49 123.5zM160 529q0 -169 57 -169q54 0 54 130q0 163 -58 163q-53 0 -53 -124z" />
    <glyph glyph-name="guillemotright" unicode="&#xbb;" horiz-adv-x="529" 
d="M344 253l-84 180l14 12q95 -113 215 -182v-20q-120 -69 -215 -182l-14 12zM124 253l-84 180l14 12q95 -113 215 -182v-20q-120 -69 -215 -182l-14 12z" />
    <glyph glyph-name="onequarter" unicode="&#xbc;" horiz-adv-x="674" 
d="M54 338v14q25 17 25 59v187l-44 -8v22l163 74v-275q0 -40 26 -59v-14h-170zM432 656h68l-295 -656h-70zM472 237l-79 -116h79v116zM629 121l-9 -57h-46q3 -36 22 -50v-14h-146v14q21 12 22 50h-143v36l176 236h69v-215h55z" />
    <glyph glyph-name="onehalf" unicode="&#xbd;" horiz-adv-x="692" 
d="M195 686v-275q0 -40 26 -59v-14h-170v14q25 17 25 59v187l-44 -8v22zM132 0l297 656h68l-295 -656h-70zM629 0h-248v44q63 41 104.5 94t41.5 108q0 64 -38 64q-22 0 -30 -23q35 -10 35 -46q0 -21 -15 -36.5t-40 -15.5q-27 0 -43 16.5t-16 41.5q0 38 37.5 66.5t92.5 28.5
q63 0 97 -28t34 -71q0 -46 -38 -87t-116 -83h60q49 0 80 28h20z" />
    <glyph glyph-name="threequarters" unicode="&#xbe;" horiz-adv-x="709" 
d="M107 496v15q79 26 79 90q0 22 -9.5 36t-27.5 14q-23 0 -31 -14q26 -10 26 -39q0 -22 -14.5 -35.5t-38.5 -13.5q-23 0 -38.5 14.5t-15.5 37.5q0 35 35.5 57t90.5 22q58 0 95.5 -22.5t37.5 -61.5q0 -51 -64 -77q35 -9 56.5 -30.5t21.5 -51.5q0 -48 -42.5 -76.5
t-108.5 -28.5q-57 0 -93 19.5t-36 55.5q0 20 15 35t39 15q25 0 40.5 -14.5t15.5 -34.5q0 -18 -12 -32q10 -15 31 -15q43 0 43 64q0 71 -80 71h-13h-2zM477 656h68l-295 -656h-70zM507 237l-79 -116h79v116zM664 121l-9 -57h-46q3 -36 22 -50v-14h-146v14q21 12 22 50h-143
v36l176 236h69v-215h55z" />
    <glyph glyph-name="questiondown" unicode="&#xbf;" horiz-adv-x="514" 
d="M277 322q-40 0 -68.5 28.5t-28.5 68.5t28.5 68t68.5 28t68 -28t28 -68t-28 -68.5t-68 -28.5zM290 271l41 -151q-74 -12 -110.5 -53.5t-36.5 -103.5q0 -47 25.5 -75t67.5 -28q27 0 51.5 11t32.5 27q-35 29 -35 80q0 36 26.5 62t63.5 26q35 0 61.5 -25.5t26.5 -64.5
q0 -63 -64 -107.5t-173 -44.5q-110 0 -178.5 47t-68.5 122q0 92 61 143t155 57l30 78h24z" />
    <glyph glyph-name="Agrave" unicode="&#xc0;" horiz-adv-x="745" 
d="M425 745h-34l-210 164h180zM210 225h205l-106 248zM398 685l208 -486q60 -140 129 -184v-15h-327v15q36 9 43.5 55t-22.5 121h-232l-8 -19q-19 -48 -6.5 -90.5t52.5 -66.5v-15h-225v15q34 15 71.5 58t61.5 96l233 516h22z" />
    <glyph glyph-name="Aacute" unicode="&#xc1;" horiz-adv-x="745" 
d="M576 909l-210 -164h-34l64 164h180zM210 225h205l-106 248zM398 685l208 -486q60 -140 129 -184v-15h-327v15q36 9 43.5 55t-22.5 121h-232l-8 -19q-19 -48 -6.5 -90.5t52.5 -66.5v-15h-225v15q34 15 71.5 58t61.5 96l233 516h22z" />
    <glyph glyph-name="Acircumflex" unicode="&#xc2;" horiz-adv-x="745" 
d="M383 794l-142 -50l-10 11l144 154h16l144 -154l-10 -11zM210 225h205l-106 248zM398 685l208 -486q60 -140 129 -184v-15h-327v15q36 9 43.5 55t-22.5 121h-232l-8 -19q-19 -48 -6.5 -90.5t52.5 -66.5v-15h-225v15q34 15 71.5 58t61.5 96l233 516h22z" />
    <glyph glyph-name="Atilde" unicode="&#xc3;" horiz-adv-x="745" 
d="M249 755h-16q-3 16 -3 29q0 48 23.5 82.5t63.5 34.5q36 0 84 -30t72 -30q25 0 38.5 18t16.5 44h16q3 -16 3 -30q0 -50 -21.5 -83t-65.5 -33q-37 0 -84.5 30t-71.5 30q-25 0 -38.5 -18t-16.5 -44zM210 225h205l-106 248zM398 685l208 -486q60 -140 129 -184v-15h-327v15
q36 9 43.5 55t-22.5 121h-232l-8 -19q-19 -48 -6.5 -90.5t52.5 -66.5v-15h-225v15q34 15 71.5 58t61.5 96l233 516h22z" />
    <glyph glyph-name="Adieresis" unicode="&#xc4;" horiz-adv-x="745" 
d="M497 754q-30 0 -51.5 21.5t-21.5 51.5t21.5 51.5t51.5 21.5q29 0 50.5 -21.5t21.5 -51.5t-21.5 -51.5t-50.5 -21.5zM274 754q-30 0 -51.5 21.5t-21.5 51.5t21.5 51.5t51.5 21.5q29 0 50.5 -21.5t21.5 -51.5t-21.5 -51.5t-50.5 -21.5zM210 225h205l-106 248zM398 685
l208 -486q60 -140 129 -184v-15h-327v15q36 9 43.5 55t-22.5 121h-232l-8 -19q-19 -48 -6.5 -90.5t52.5 -66.5v-15h-225v15q34 15 71.5 58t61.5 96l233 516h22z" />
    <glyph glyph-name="Aring" unicode="&#xc5;" horiz-adv-x="745" 
d="M384 864q-15 0 -26 -11t-11 -26t11 -26t26 -11t26 11t11 26t-11 26t-26 11zM384 734q-38 0 -65.5 27.5t-27.5 65.5t27.5 65.5t65.5 27.5t65.5 -27.5t27.5 -65.5t-27.5 -65.5t-65.5 -27.5zM210 225h205l-106 248zM398 685l208 -486q60 -140 129 -184v-15h-327v15
q36 9 43.5 55t-22.5 121h-232l-8 -19q-19 -48 -6.5 -90.5t52.5 -66.5v-15h-225v15q34 15 71.5 58t61.5 96l233 516h22z" />
    <glyph glyph-name="AE" unicode="&#xc6;" horiz-adv-x="961" 
d="M246 225h215v399zM916 180h15v-180h-514v15q44 29 44 118v58h-234l-10 -19q-13 -25 -18 -52.5t3.5 -57t32.5 -47.5v-15h-225v15q35 15 79.5 59.5t73.5 94.5l298 505h446v-180h-15q-28 65 -79.5 105.5t-120.5 40.5h-56v-284l44 4q44 4 71 30.5t49 70.5h15v-235h-15
q-23 43 -49.5 69t-70.5 31l-44 4v-198q0 -52 19.5 -75t60.5 -23h3q67 0 118 40.5t79 105.5z" />
    <glyph glyph-name="Ccedilla" unicode="&#xc7;" horiz-adv-x="678" 
d="M638 233v-194q-71 -44 -194 -50l-17 -41q42 -4 66 -26t24 -53q0 -44 -32 -68.5t-81 -24.5q-62 0 -105 27l7 28q23 -13 50 -13q21 0 35 11t14 30q0 51 -69 58l46 72q-149 9 -245.5 99t-96.5 247q0 166 106.5 257t265.5 91q122 0 222 -51v-194h-15q-29 95 -82.5 153
t-123.5 58q-81 0 -130.5 -79t-50.5 -235q1 -156 54.5 -234.5t140.5 -78.5q75 0 120.5 54.5t75.5 156.5h15z" />
    <glyph glyph-name="Egrave" unicode="&#xc8;" horiz-adv-x="604" 
d="M384 745h-34l-210 164h180zM559 180h15v-180h-514v15q44 29 44 118v408q0 89 -44 118v15h490v-180h-15q-28 65 -79.5 105.5t-120.5 40.5h-56v-284l44 4q44 4 71 30.5t49 70.5h15v-235h-15q-23 43 -49.5 69.5t-70.5 30.5l-44 4v-198q0 -52 19.5 -75t60.5 -23h2
q68 0 119 40.5t79 105.5z" />
    <glyph glyph-name="Eacute" unicode="&#xc9;" horiz-adv-x="604" 
d="M500 909l-210 -164h-34l64 164h180zM559 180h15v-180h-514v15q44 29 44 118v408q0 89 -44 118v15h490v-180h-15q-28 65 -79.5 105.5t-120.5 40.5h-56v-284l44 4q44 4 71 30.5t49 70.5h15v-235h-15q-23 43 -49.5 69.5t-70.5 30.5l-44 4v-198q0 -52 19.5 -75t60.5 -23h2
q68 0 119 40.5t79 105.5z" />
    <glyph glyph-name="Ecircumflex" unicode="&#xca;" horiz-adv-x="604" 
d="M322 794l-142 -50l-10 11l144 154h16l144 -154l-10 -11zM559 180h15v-180h-514v15q44 29 44 118v408q0 89 -44 118v15h490v-180h-15q-28 65 -79.5 105.5t-120.5 40.5h-56v-284l44 4q44 4 71 30.5t49 70.5h15v-235h-15q-23 43 -49.5 69.5t-70.5 30.5l-44 4v-198
q0 -52 19.5 -75t60.5 -23h2q68 0 119 40.5t79 105.5z" />
    <glyph glyph-name="Edieresis" unicode="&#xcb;" horiz-adv-x="604" 
d="M438 754q-30 0 -51.5 21.5t-21.5 51.5t21.5 51.5t51.5 21.5q29 0 50.5 -21.5t21.5 -51.5t-21.5 -51.5t-50.5 -21.5zM215 754q-30 0 -51.5 21.5t-21.5 51.5t21.5 51.5t51.5 21.5q29 0 50.5 -21.5t21.5 -51.5t-21.5 -51.5t-50.5 -21.5zM559 180h15v-180h-514v15
q44 29 44 118v408q0 89 -44 118v15h490v-180h-15q-28 65 -79.5 105.5t-120.5 40.5h-56v-284l44 4q44 4 71 30.5t49 70.5h15v-235h-15q-23 43 -49.5 69.5t-70.5 30.5l-44 4v-198q0 -52 19.5 -75t60.5 -23h2q68 0 119 40.5t79 105.5z" />
    <glyph glyph-name="Igrave" unicode="&#xcc;" horiz-adv-x="383" 
d="M279 541v-408q0 -86 44 -118v-15h-263v15q44 29 44 118v408q0 89 -44 118v15h263v-15q-44 -31 -44 -118zM9 909h180l64 -164h-34z" />
    <glyph glyph-name="Iacute" unicode="&#xcd;" horiz-adv-x="383" 
d="M279 541v-408q0 -86 44 -118v-15h-263v15q44 29 44 118v408q0 89 -44 118v15h263v-15q-44 -31 -44 -118zM199 909h180l-210 -164h-34z" />
    <glyph glyph-name="Icircumflex" unicode="&#xce;" horiz-adv-x="383" 
d="M60 659v15h263v-15q-44 -31 -44 -118v-408q0 -86 44 -118v-15h-263v15q44 29 44 118v408q0 89 -44 118zM199 909l144 -154l-10 -11l-142 50l-142 -50l-10 11l144 154h16z" />
    <glyph glyph-name="Idieresis" unicode="&#xcf;" horiz-adv-x="383" 
d="M279 541v-408q0 -86 44 -118v-15h-263v15q44 29 44 118v408q0 89 -44 118v15h263v-15q-44 -31 -44 -118zM375 827q0 -30 -21.5 -51.5t-50.5 -21.5q-30 0 -51.5 21.5t-21.5 51.5t21.5 51.5t51.5 21.5q29 0 50.5 -21.5t21.5 -51.5zM152 827q0 -30 -21.5 -51.5t-50.5 -21.5
q-30 0 -51.5 21.5t-21.5 51.5t21.5 51.5t51.5 21.5q29 0 50.5 -21.5t21.5 -51.5z" />
    <glyph glyph-name="Eth" unicode="&#xd0;" horiz-adv-x="753" 
d="M351 33h3q81 0 126.5 85t45.5 215q0 88 -20 154.5t-67.5 109.5t-119.5 43h-40v-280l136 3v-38l-136 3v-197q0 -98 72 -98zM60 674h265q194 0 291 -86t97 -249q0 -157 -97.5 -248t-296.5 -91h-259v15q44 29 44 118v198l-82 2v22l82 2v184q0 89 -44 118v15z" />
    <glyph glyph-name="Ntilde" unicode="&#xd1;" horiz-adv-x="755" 
d="M634 491l-12 -513h-19l-445 484l11 -279q3 -67 24.5 -110.5t51.5 -57.5v-15h-195v15q31 14 52 57.5t23 110.5l9 256q-3 69 -25.5 127t-58.5 93v15h159l392 -427l-11 244q-3 67 -24 110.5t-51 57.5v15h195v-15q-30 -14 -51.5 -57.5t-24.5 -110.5zM238 755h-16q-3 16 -3 29
q0 48 23.5 82.5t63.5 34.5q36 0 84 -30t72 -30q25 0 38.5 18t16.5 44h16q3 -16 3 -30q0 -50 -21.5 -83t-65.5 -33q-37 0 -84.5 30t-71.5 30q-25 0 -38.5 -18t-16.5 -44z" />
    <glyph glyph-name="Ograve" unicode="&#xd2;" horiz-adv-x="790" 
d="M395 23q58 0 95.5 47t52.5 115t15 155q0 84 -16 152t-54 113.5t-93 45.5q-84 0 -123.5 -88.5t-39.5 -222.5q0 -85 16 -154.5t54 -116t93 -46.5zM395 -11q-169 0 -262 92t-93 258q0 152 97.5 249t257.5 97q162 0 258.5 -96.5t96.5 -249.5q0 -159 -96.5 -254.5
t-258.5 -95.5zM203 909h180l64 -164h-34z" />
    <glyph glyph-name="Oacute" unicode="&#xd3;" horiz-adv-x="790" 
d="M413 909h180l-210 -164h-34zM395 23q58 0 95.5 47t52.5 115t15 155q0 84 -16 152t-54 113.5t-93 45.5q-84 0 -123.5 -88.5t-39.5 -222.5q0 -85 16 -154.5t54 -116t93 -46.5zM395 -11q-169 0 -262 92t-93 258q0 152 97.5 249t257.5 97q162 0 258.5 -96.5t96.5 -249.5
q0 -159 -96.5 -254.5t-258.5 -95.5z" />
    <glyph glyph-name="Ocircumflex" unicode="&#xd4;" horiz-adv-x="790" 
d="M395 794l-142 -50l-10 11l144 154h16l144 -154l-10 -11zM395 23q58 0 95.5 47t52.5 115t15 155q0 84 -16 152t-54 113.5t-93 45.5q-84 0 -123.5 -88.5t-39.5 -222.5q0 -85 16 -154.5t54 -116t93 -46.5zM395 685q162 0 258.5 -96.5t96.5 -249.5q0 -159 -96.5 -254.5
t-258.5 -95.5q-169 0 -262 92t-93 258q0 152 97.5 249t257.5 97z" />
    <glyph glyph-name="Otilde" unicode="&#xd5;" horiz-adv-x="790" 
d="M395 23q58 0 95.5 47t52.5 115t15 155q0 84 -16 152t-54 113.5t-93 45.5q-84 0 -123.5 -88.5t-39.5 -222.5q0 -85 16 -154.5t54 -116t93 -46.5zM395 -11q-169 0 -262 92t-93 258q0 152 97.5 249t257.5 97q162 0 258.5 -96.5t96.5 -249.5q0 -159 -96.5 -254.5
t-258.5 -95.5zM255 755h-16q-3 16 -3 29q0 48 23.5 82.5t63.5 34.5q36 0 84 -30t72 -30q25 0 38.5 18t16.5 44h16q3 -16 3 -30q0 -50 -21.5 -83t-65.5 -33q-37 0 -84.5 30t-71.5 30q-25 0 -38.5 -18t-16.5 -44z" />
    <glyph glyph-name="Odieresis" unicode="&#xd6;" horiz-adv-x="790" 
d="M579 827q0 -30 -21.5 -51.5t-50.5 -21.5q-30 0 -51.5 21.5t-21.5 51.5t21.5 51.5t51.5 21.5q29 0 50.5 -21.5t21.5 -51.5zM356 827q0 -30 -21.5 -51.5t-50.5 -21.5q-30 0 -51.5 21.5t-21.5 51.5t21.5 51.5t51.5 21.5q29 0 50.5 -21.5t21.5 -51.5zM395 23q58 0 95.5 47
t52.5 115t15 155q0 84 -16 152t-54 113.5t-93 45.5q-84 0 -123.5 -88.5t-39.5 -222.5q0 -85 16 -154.5t54 -116t93 -46.5zM395 -11q-169 0 -262 92t-93 258q0 152 97.5 249t257.5 97q162 0 258.5 -96.5t96.5 -249.5q0 -159 -96.5 -254.5t-258.5 -95.5z" />
    <glyph glyph-name="multiply" unicode="&#xd7;" horiz-adv-x="599" 
d="M496 184l-42 -42l-156 158l-154 -155l-42 42l154 155l-154 155l42 42l154 -155l152 153l42 -42l-152 -153z" />
    <glyph glyph-name="Oslash" unicode="&#xd8;" horiz-adv-x="790" 
d="M544 481l-285 -332q43 -126 136 -126q58 0 95.5 47t52.5 115t15 155q0 81 -14 141zM247 194l277 352q-43 105 -129 105q-84 0 -123.5 -88.5t-39.5 -222.5q0 -78 15 -146zM719 685l-75 -87q106 -97 106 -259q0 -159 -96.5 -254.5t-258.5 -95.5q-134 0 -222 60l-44 -51
l-23 17l42 53q-108 93 -108 271q0 152 97.5 249t257.5 97q114 0 198 -50l40 50h86z" />
    <glyph glyph-name="Ugrave" unicode="&#xd9;" horiz-adv-x="734" 
d="M384 -9q-64 0 -111.5 11t-87.5 36.5t-60.5 73.5t-20.5 117v312q0 89 -44 118v15h263v-15q-44 -32 -44 -118v-301q0 -193 159 -193q145 0 142 199l-3 266q-1 106 -90 147v15h227v-15q-78 -35 -83 -147l-11 -274q-5 -118 -59 -182.5t-177 -64.5zM195 909h180l64 -164h-34z
" />
    <glyph glyph-name="Uacute" unicode="&#xda;" horiz-adv-x="734" 
d="M405 909h180l-210 -164h-34zM384 -9q-64 0 -111.5 11t-87.5 36.5t-60.5 73.5t-20.5 117v312q0 89 -44 118v15h263v-15q-44 -32 -44 -118v-301q0 -193 159 -193q145 0 142 199l-3 266q-1 106 -90 147v15h227v-15q-78 -35 -83 -147l-11 -274q-5 -118 -59 -182.5t-177 -64.5
z" />
    <glyph glyph-name="Ucircumflex" unicode="&#xdb;" horiz-adv-x="734" 
d="M410 794l-142 -50l-10 11l144 154h16l144 -154l-10 -11zM487 674h227v-15q-78 -35 -83 -147l-11 -274q-5 -118 -59 -182.5t-177 -64.5q-64 0 -111.5 11t-87.5 36.5t-60.5 73.5t-20.5 117v312q0 89 -44 118v15h263v-15q-44 -32 -44 -118v-301q0 -193 159 -193
q145 0 142 199l-3 266q-1 106 -90 147v15z" />
    <glyph glyph-name="Udieresis" unicode="&#xdc;" horiz-adv-x="734" 
d="M597 827q0 -30 -21.5 -51.5t-50.5 -21.5q-30 0 -51.5 21.5t-21.5 51.5t21.5 51.5t51.5 21.5q29 0 50.5 -21.5t21.5 -51.5zM374 827q0 -30 -21.5 -51.5t-50.5 -21.5q-30 0 -51.5 21.5t-21.5 51.5t21.5 51.5t51.5 21.5q29 0 50.5 -21.5t21.5 -51.5zM384 -9q-64 0 -111.5 11
t-87.5 36.5t-60.5 73.5t-20.5 117v312q0 89 -44 118v15h263v-15q-44 -32 -44 -118v-301q0 -193 159 -193q145 0 142 199l-3 266q-1 106 -90 147v15h227v-15q-78 -35 -83 -147l-11 -274q-5 -118 -59 -182.5t-177 -64.5z" />
    <glyph glyph-name="Yacute" unicode="&#xdd;" horiz-adv-x="703" 
d="M575 909l-210 -164h-34l64 164h180zM470 674h223v-15q-47 -16 -92 -62.5t-73 -102.5l-83 -168v-193q0 -86 44 -118v-15h-263v15q44 28 44 118v144l-128 231q-71 128 -132 151v15h333v-15q-29 -17 -35.5 -50t1 -59.5t20.5 -49.5l92 -166l70 157q21 43 16.5 93.5
t-37.5 74.5v15z" />
    <glyph glyph-name="Thorn" unicode="&#xde;" horiz-adv-x="654" 
d="M279 532h62q134 0 203.5 -50t69.5 -146q0 -90 -63 -141t-191 -55h-33l-2 15q55 23 76 64.5t21 122.5q0 156 -126 156h-17v-365q0 -87 44 -118v-15h-263v15q44 28 44 118v408q0 90 -44 118v15h263v-15q-44 -31 -44 -118v-9z" />
    <glyph glyph-name="germandbls" unicode="&#xdf;" horiz-adv-x="720" 
d="M592 624q0 -28 -20 -52.5t-44.5 -39t-44.5 -32t-20 -33.5q0 -18 23.5 -39t56.5 -43t66.5 -49t57 -67t23.5 -87q0 -82 -59.5 -136.5t-153.5 -54.5q-71 0 -112.5 29.5t-41.5 78.5q0 32 22.5 54.5t51.5 22.5q32 0 54 -22t22 -52q0 -36 -25 -54q9 -29 49 -29q35 0 56 26
t21 66q0 36 -22 65.5t-53 51t-62 43.5t-53 54t-22 71q0 29 15 57t33.5 47.5t33.5 49.5t15 61q0 50 -24.5 82.5t-69.5 32.5q-52 0 -74 -43t-22 -133v-550h-219v15q44 29 44 118v397q0 106 70 166t195 60q107 0 170 -36.5t63 -95.5z" />
    <glyph glyph-name="agrave" unicode="&#xe0;" 
d="M330 579h-34l-210 164h180zM298 129v123q-54 0 -81 -29t-27 -79q0 -33 16 -55t46 -22q29 0 49 22q-3 18 -3 40zM516 56h17v-18q-27 -23 -52 -34t-68 -11q-74 0 -102 65q-56 -65 -149 -65q-62 0 -99.5 37t-37.5 95q0 80 65 121.5t157 41.5q29 0 51 -3v50q0 94 -8 117
q-14 35 -57 36q-44 0 -65 -30q25 -23 25 -57q0 -33 -20 -55t-54 -22q-31 0 -52.5 21t-21.5 53q0 55 55 88t138 33q58 0 99 -10t65 -27t38 -44.5t18.5 -56.5t4.5 -70v-205q0 -50 53 -50z" />
    <glyph glyph-name="aacute" unicode="&#xe1;" 
d="M431 743l-210 -164h-34l64 164h180zM298 129v123q-54 0 -81 -29t-27 -79q0 -33 16 -55t46 -22q29 0 49 22q-3 18 -3 40zM516 56h17v-18q-27 -23 -52 -34t-68 -11q-74 0 -102 65q-56 -65 -149 -65q-62 0 -99.5 37t-37.5 95q0 80 65 121.5t157 41.5q29 0 51 -3v50
q0 94 -8 117q-14 35 -57 36q-44 0 -65 -30q25 -23 25 -57q0 -33 -20 -55t-54 -22q-31 0 -52.5 21t-21.5 53q0 55 55 88t138 33q58 0 99 -10t65 -27t38 -44.5t18.5 -56.5t4.5 -70v-205q0 -50 53 -50z" />
    <glyph glyph-name="acircumflex" unicode="&#xe2;" 
d="M263 628l-142 -50l-10 11l144 154h16l144 -154l-10 -11zM298 129v123q-54 0 -81 -29t-27 -79q0 -33 16 -55t46 -22q29 0 49 22q-3 18 -3 40zM516 56h17v-18q-27 -23 -52 -34t-68 -11q-74 0 -102 65q-56 -65 -149 -65q-62 0 -99.5 37t-37.5 95q0 80 65 121.5t157 41.5
q29 0 51 -3v50q0 94 -8 117q-14 35 -57 36q-44 0 -65 -30q25 -23 25 -57q0 -33 -20 -55t-54 -22q-31 0 -52.5 21t-21.5 53q0 55 55 88t138 33q58 0 99 -10t65 -27t38 -44.5t18.5 -56.5t4.5 -70v-205q0 -50 53 -50z" />
    <glyph glyph-name="atilde" unicode="&#xe3;" 
d="M123 589h-16q-3 17 -3 29q0 48 23.5 82.5t63.5 34.5q36 0 84 -30t72 -30q25 0 38.5 18t16.5 44h16q3 -17 3 -30q0 -50 -21.5 -83t-65.5 -33q-37 0 -84.5 30t-71.5 30q-25 0 -38.5 -18t-16.5 -44zM298 129v123q-54 0 -81 -29t-27 -79q0 -33 16 -55t46 -22q29 0 49 22
q-3 18 -3 40zM516 56h17v-18q-27 -23 -52 -34t-68 -11q-74 0 -102 65q-56 -65 -149 -65q-62 0 -99.5 37t-37.5 95q0 80 65 121.5t157 41.5q29 0 51 -3v50q0 94 -8 117q-14 35 -57 36q-44 0 -65 -30q25 -23 25 -57q0 -33 -20 -55t-54 -22q-31 0 -52.5 21t-21.5 53q0 55 55 88
t138 33q58 0 99 -10t65 -27t38 -44.5t18.5 -56.5t4.5 -70v-205q0 -50 53 -50z" />
    <glyph glyph-name="adieresis" unicode="&#xe4;" 
d="M375 588q-30 0 -51.5 21.5t-21.5 51.5t21.5 51.5t51.5 21.5q29 0 50.5 -21.5t21.5 -51.5t-21.5 -51.5t-50.5 -21.5zM152 588q-30 0 -51.5 21.5t-21.5 51.5t21.5 51.5t51.5 21.5q29 0 50.5 -21.5t21.5 -51.5t-21.5 -51.5t-50.5 -21.5zM298 129v123q-54 0 -81 -29t-27 -79
q0 -33 16 -55t46 -22q29 0 49 22q-3 18 -3 40zM516 56h17v-18q-27 -23 -52 -34t-68 -11q-74 0 -102 65q-56 -65 -149 -65q-62 0 -99.5 37t-37.5 95q0 80 65 121.5t157 41.5q29 0 51 -3v50q0 94 -8 117q-14 35 -57 36q-44 0 -65 -30q25 -23 25 -57q0 -33 -20 -55t-54 -22
q-31 0 -52.5 21t-21.5 53q0 55 55 88t138 33q58 0 99 -10t65 -27t38 -44.5t18.5 -56.5t4.5 -70v-205q0 -50 53 -50z" />
    <glyph glyph-name="aring" unicode="&#xe5;" 
d="M263 698q-15 0 -26 -11t-11 -26t11 -26t26 -11t26 11t11 26t-11 26t-26 11zM263 568q-38 0 -65.5 27.5t-27.5 65.5t27.5 65.5t65.5 27.5t65.5 -27.5t27.5 -65.5t-27.5 -65.5t-65.5 -27.5zM298 129v123q-54 0 -81 -29t-27 -79q0 -33 16 -55t46 -22q29 0 49 22q-3 18 -3 40
zM516 56h17v-18q-27 -23 -52 -34t-68 -11q-74 0 -102 65q-56 -65 -149 -65q-62 0 -99.5 37t-37.5 95q0 80 65 121.5t157 41.5q29 0 51 -3v50q0 94 -8 117q-14 35 -57 36q-44 0 -65 -30q25 -23 25 -57q0 -33 -20 -55t-54 -22q-31 0 -52.5 21t-21.5 53q0 55 55 88t138 33
q58 0 99 -10t65 -27t38 -44.5t18.5 -56.5t4.5 -70v-205q0 -50 53 -50z" />
    <glyph glyph-name="ae" unicode="&#xe6;" horiz-adv-x="822" 
d="M312 247v5q-53 0 -80 -29t-27 -79q0 -33 16 -55t46 -22q44 0 73 50q-28 58 -28 130zM479 291l168 24q2 170 -75 170q-28 0 -48 -17.5t-29 -46.5t-12.5 -55.5t-3.5 -55.5v-19zM784 128l10 -12q-44 -59 -107 -93t-131 -34q-131 0 -200 100q-22 -39 -69.5 -67.5
t-109.5 -28.5t-99.5 37t-37.5 95q0 80 65 121.5t157 41.5q28 0 51 -3v50q0 94 -8 117q-14 35 -57 36q-44 0 -65 -30q25 -23 25 -57q0 -33 -20 -55t-54 -22q-31 0 -52.5 21t-21.5 53q0 55 55 88t138 33q105 0 163 -49q66 49 156 49q218 0 218 -230v-24h-309q9 -94 54 -140
t110 -46q36 0 75.5 15t63.5 34z" />
    <glyph glyph-name="ccedilla" unicode="&#xe7;" horiz-adv-x="540" 
d="M503 131l10 -12q-75 -113 -196 -127l-18 -44q42 -4 66 -26t24 -53q0 -44 -32 -68.5t-81 -24.5q-62 0 -105 27l7 28q23 -13 50 -13q21 0 35 11t14 30q0 51 -69 58l47 75q-98 10 -161.5 79t-63.5 176q0 122 77.5 197t190.5 75q104 0 157.5 -41t53.5 -99q0 -36 -25 -61
t-60 -25q-37 0 -60.5 25t-23.5 60q0 43 30 68q-14 39 -62 39q-33 0 -56.5 -18t-34.5 -47t-15.5 -56t-4.5 -54q0 -107 51.5 -167.5t120.5 -60.5q32 0 69.5 14t64.5 35z" />
    <glyph glyph-name="egrave" unicode="&#xe8;" 
d="M335 579h-34l-210 164h180zM197 289l175 22q0 174 -79 174q-28 0 -48.5 -17.5t-30 -46t-13.5 -56t-4 -55.5v-21zM509 128l10 -12q-44 -59 -107 -93t-131 -34q-108 0 -179.5 70.5t-71.5 187.5q0 122 75.5 197t187.5 75q222 0 222 -226v-28h-316q10 -94 57.5 -140
t113.5 -46q36 0 75.5 15t63.5 34z" />
    <glyph glyph-name="eacute" unicode="&#xe9;" 
d="M471 743l-210 -164h-34l64 164h180zM197 289l175 22q0 174 -79 174q-28 0 -48.5 -17.5t-30 -46t-13.5 -56t-4 -55.5v-21zM509 128l10 -12q-44 -59 -107 -93t-131 -34q-108 0 -179.5 70.5t-71.5 187.5q0 122 75.5 197t187.5 75q222 0 222 -226v-28h-316q10 -94 57.5 -140
t113.5 -46q36 0 75.5 15t63.5 34z" />
    <glyph glyph-name="ecircumflex" unicode="&#xea;" 
d="M283 628l-142 -50l-10 11l144 154h16l144 -154l-10 -11zM197 289l175 22q0 174 -79 174q-28 0 -48.5 -17.5t-30 -46t-13.5 -56t-4 -55.5v-21zM509 128l10 -12q-44 -59 -107 -93t-131 -34q-108 0 -179.5 70.5t-71.5 187.5q0 122 75.5 197t187.5 75q222 0 222 -226v-28
h-316q10 -94 57.5 -140t113.5 -46q36 0 75.5 15t63.5 34z" />
    <glyph glyph-name="edieresis" unicode="&#xeb;" 
d="M396 588q-30 0 -51.5 21.5t-21.5 51.5t21.5 51.5t51.5 21.5q29 0 50.5 -21.5t21.5 -51.5t-21.5 -51.5t-50.5 -21.5zM173 588q-30 0 -51.5 21.5t-21.5 51.5t21.5 51.5t51.5 21.5q29 0 50.5 -21.5t21.5 -51.5t-21.5 -51.5t-50.5 -21.5zM197 289l175 22q0 174 -79 174
q-28 0 -48.5 -17.5t-30 -46t-13.5 -56t-4 -55.5v-21zM509 128l10 -12q-44 -59 -107 -93t-131 -34q-108 0 -179.5 70.5t-71.5 187.5q0 122 75.5 197t187.5 75q222 0 222 -226v-28h-316q10 -94 57.5 -140t113.5 -46q36 0 75.5 15t63.5 34z" />
    <glyph glyph-name="igrave" unicode="&#xec;" horiz-adv-x="346" 
d="M254 518v-385q0 -83 49 -118v-15h-263v15q49 31 49 118v225q0 28 -11 48.5t-22 27.5l-11 6v15zM-13 743h180l64 -164h-34z" />
    <glyph glyph-name="iacute" unicode="&#xed;" horiz-adv-x="346" 
d="M181 743h180l-210 -164h-34zM254 518v-385q0 -83 49 -118v-15h-263v15q49 31 49 118v225q0 28 -11 48.5t-22 27.5l-11 6v15z" />
    <glyph glyph-name="icircumflex" unicode="&#xee;" horiz-adv-x="346" 
d="M254 518v-385q0 -83 49 -118v-15h-263v15q49 31 49 118v225q0 28 -11 48.5t-22 27.5l-11 6v15zM181 743l144 -154l-10 -11l-142 50l-142 -50l-10 11l144 154h16z" />
    <glyph glyph-name="idieresis" unicode="&#xef;" horiz-adv-x="346" 
d="M357 661q0 -30 -21.5 -51.5t-50.5 -21.5q-30 0 -51.5 21.5t-21.5 51.5t21.5 51.5t51.5 21.5q29 0 50.5 -21.5t21.5 -51.5zM134 661q0 -30 -21.5 -51.5t-50.5 -21.5q-30 0 -51.5 21.5t-21.5 51.5t21.5 51.5t51.5 21.5q29 0 50.5 -21.5t21.5 -51.5zM254 518v-385
q0 -83 49 -118v-15h-263v15q49 31 49 118v225q0 28 -11 48.5t-22 27.5l-11 6v15z" />
    <glyph glyph-name="eth" unicode="&#xf0;" horiz-adv-x="621" 
d="M317 26q96 0 96 206q0 117 -26 184.5t-76 67.5q-51 0 -74 -60t-23 -137q0 -46 4.5 -87.5t14.5 -83t31.5 -66t52.5 -24.5zM470 730l-57 -27q88 -59 133 -164.5t45 -214.5q0 -161 -77 -247.5t-208 -86.5q-120 0 -194 71t-74 184q0 116 75.5 195t208.5 79q39 0 68 -7
q-27 91 -77 145l-97 -45l-12 20l87 47q-64 55 -152 59l-4 15q39 7 80 7q88 0 160 -35l95 51v-46z" />
    <glyph glyph-name="ntilde" unicode="&#xf1;" horiz-adv-x="653" 
d="M249 394v-261q0 -86 44 -118v-15h-258v15q49 31 49 118v236q0 28 -11 48.5t-22 26.5l-11 7v15l209 63v-111q37 50 88 75t99 25q73 0 103 -44t30 -133v-208q0 -83 49 -118v-15h-258v15q44 29 44 118v197q0 42 -22 62.5t-57 20.5q-38 0 -76 -19zM187 589h-16q-3 17 -3 29
q0 48 23.5 82.5t63.5 34.5q36 0 84 -30t72 -30q25 0 38.5 18t16.5 44h16q3 -17 3 -30q0 -50 -21.5 -83t-65.5 -33q-37 0 -84.5 30t-71.5 30q-25 0 -38.5 -18t-16.5 -44z" />
    <glyph glyph-name="ograve" unicode="&#xf2;" horiz-adv-x="611" 
d="M581 250q0 -114 -80 -187t-203 -73q-120 0 -194 71t-74 184q0 116 75.5 195t208.5 79q124 0 195.5 -76t71.5 -193zM206 287q0 -46 4.5 -87.5t14.5 -83t31.5 -66t52.5 -24.5q96 0 96 206q0 117 -26 184.5t-76 67.5q-51 0 -74 -60t-23 -137zM114 743h180l64 -164h-34z" />
    <glyph glyph-name="oacute" unicode="&#xf3;" horiz-adv-x="611" 
d="M324 743h180l-210 -164h-34zM581 250q0 -114 -80 -187t-203 -73q-120 0 -194 71t-74 184q0 116 75.5 195t208.5 79q124 0 195.5 -76t71.5 -193zM206 287q0 -46 4.5 -87.5t14.5 -83t31.5 -66t52.5 -24.5q96 0 96 206q0 117 -26 184.5t-76 67.5q-51 0 -74 -60t-23 -137z
" />
    <glyph glyph-name="ocircumflex" unicode="&#xf4;" horiz-adv-x="611" 
d="M306 628l-142 -50l-10 11l144 154h16l144 -154l-10 -11zM309 26q96 0 96 206q0 117 -26 184.5t-76 67.5q-51 0 -74 -60t-23 -137q0 -46 4.5 -87.5t14.5 -83t31.5 -66t52.5 -24.5zM314 519q124 0 195.5 -76t71.5 -193q0 -114 -80 -187t-203 -73q-120 0 -194 71t-74 184
q0 116 75.5 195t208.5 79z" />
    <glyph glyph-name="otilde" unicode="&#xf5;" horiz-adv-x="611" 
d="M581 250q0 -114 -80 -187t-203 -73q-120 0 -194 71t-74 184q0 116 75.5 195t208.5 79q124 0 195.5 -76t71.5 -193zM206 287q0 -46 4.5 -87.5t14.5 -83t31.5 -66t52.5 -24.5q96 0 96 206q0 117 -26 184.5t-76 67.5q-51 0 -74 -60t-23 -137zM166 589h-16q-3 17 -3 29
q0 48 23.5 82.5t63.5 34.5q36 0 84 -30t72 -30q25 0 38.5 18t16.5 44h16q3 -17 3 -30q0 -50 -21.5 -83t-65.5 -33q-37 0 -84.5 30t-71.5 30q-25 0 -38.5 -18t-16.5 -44z" />
    <glyph glyph-name="odieresis" unicode="&#xf6;" horiz-adv-x="611" 
d="M490 661q0 -30 -21.5 -51.5t-50.5 -21.5q-30 0 -51.5 21.5t-21.5 51.5t21.5 51.5t51.5 21.5q29 0 50.5 -21.5t21.5 -51.5zM267 661q0 -30 -21.5 -51.5t-50.5 -21.5q-30 0 -51.5 21.5t-21.5 51.5t21.5 51.5t51.5 21.5q29 0 50.5 -21.5t21.5 -51.5zM581 250
q0 -114 -80 -187t-203 -73q-120 0 -194 71t-74 184q0 116 75.5 195t208.5 79q124 0 195.5 -76t71.5 -193zM206 287q0 -46 4.5 -87.5t14.5 -83t31.5 -66t52.5 -24.5q96 0 96 206q0 117 -26 184.5t-76 67.5q-51 0 -74 -60t-23 -137z" />
    <glyph glyph-name="divide" unicode="&#xf7;" horiz-adv-x="599" 
d="M50 311v57h499v-57h-499zM221 516q0 31 21.5 52.5t50.5 21.5q31 0 52.5 -21.5t21.5 -52.5q0 -29 -21.5 -50.5t-52.5 -21.5q-29 0 -50.5 21.5t-21.5 50.5zM221 164q0 31 21.5 52.5t50.5 21.5q31 0 52.5 -21.5t21.5 -52.5q0 -29 -21.5 -50.5t-52.5 -21.5q-29 0 -50.5 21.5
t-21.5 50.5z" />
    <glyph glyph-name="oslash" unicode="&#xf8;" horiz-adv-x="612" 
d="M400 327l-181 -187q25 -114 90 -114q96 0 96 206q0 47 -5 95zM211 188l178 199q-27 97 -86 97q-51 0 -74 -60t-23 -137q0 -57 5 -99zM582 515l-71 -73q70 -75 70 -192q0 -114 -80 -187t-203 -73q-103 0 -173 53l-53 -55l-22 20l50 56q-70 72 -70 181q0 116 75.5 195
t208.5 79q91 0 155 -42l34 38h79z" />
    <glyph glyph-name="ugrave" unicode="&#xf9;" horiz-adv-x="648" 
d="M399 113v256q0 30 -11 54.5t-22 34.5l-11 10v15l209 46v-377q0 -30 11 -54.5t22 -34.5l11 -10v-15l-209 -46v97q-32 -45 -78.5 -71.5t-93.5 -26.5q-143 0 -143 175v203q0 30 -11 54.5t-22 34.5l-11 10v15l209 46v-352q0 -81 74 -81q35 0 76 17zM132 743h180l64 -164h-34z
" />
    <glyph glyph-name="uacute" unicode="&#xfa;" horiz-adv-x="648" 
d="M342 743h180l-210 -164h-34zM399 113v256q0 30 -11 54.5t-22 34.5l-11 10v15l209 46v-377q0 -30 11 -54.5t22 -34.5l11 -10v-15l-209 -46v97q-32 -45 -78.5 -71.5t-93.5 -26.5q-143 0 -143 175v203q0 30 -11 54.5t-22 34.5l-11 10v15l209 46v-352q0 -81 74 -81
q35 0 76 17z" />
    <glyph glyph-name="ucircumflex" unicode="&#xfb;" horiz-adv-x="648" 
d="M324 628l-142 -50l-10 11l144 154h16l144 -154l-10 -11zM564 529v-377q0 -30 11 -54.5t22 -34.5l11 -10v-15l-209 -46v97q-32 -45 -78.5 -71.5t-93.5 -26.5q-143 0 -143 175v203q0 30 -11 54.5t-22 34.5l-11 10v15l209 46v-352q0 -81 74 -81q35 0 76 17v256
q0 30 -11 54.5t-22 34.5l-11 10v15z" />
    <glyph glyph-name="udieresis" unicode="&#xfc;" horiz-adv-x="648" 
d="M508 661q0 -30 -21.5 -51.5t-50.5 -21.5q-30 0 -51.5 21.5t-21.5 51.5t21.5 51.5t51.5 21.5q29 0 50.5 -21.5t21.5 -51.5zM285 661q0 -30 -21.5 -51.5t-50.5 -21.5q-30 0 -51.5 21.5t-21.5 51.5t21.5 51.5t51.5 21.5q29 0 50.5 -21.5t21.5 -51.5zM399 113v256
q0 30 -11 54.5t-22 34.5l-11 10v15l209 46v-377q0 -30 11 -54.5t22 -34.5l11 -10v-15l-209 -46v97q-32 -45 -78.5 -71.5t-93.5 -26.5q-143 0 -143 175v203q0 30 -11 54.5t-22 34.5l-11 10v15l209 46v-352q0 -81 74 -81q35 0 76 17z" />
    <glyph glyph-name="yacute" unicode="&#xfd;" horiz-adv-x="611" 
d="M294 -18l-159 338q-67 141 -125 173v15h295v-15q-27 -20 -28.5 -58.5t10 -71t32.5 -77.5l57 -138l49 145q13 36 16.5 72.5t-6.5 72.5t-36 55v15h202v-15q-35 -19 -65 -58.5t-48 -84.5l-130 -325q-2 -6 -11 -34.5t-12.5 -38t-13 -36.5t-15.5 -38.5t-17.5 -34t-21 -33
t-23.5 -26t-28 -22.5t-32 -12.5t-37 -5.5q-64 0 -101 55l-3 15q74 11 142 52t109 116zM334 743h180l-210 -164h-34z" />
    <glyph glyph-name="thorn" unicode="&#xfe;" horiz-adv-x="636" 
d="M254 392v-256q13 -111 86 -111q38 0 68 44.5t30 150.5q0 35 -5 66t-17 61.5t-36 48.5t-59 18q-36 0 -67 -22zM254 759v-342q67 102 162 102q62 0 107 -39t64 -94t19 -117q0 -127 -64 -202.5t-179 -75.5q-70 0 -109 29v-136q0 -82 49 -118v-15h-263v15q49 32 49 118v715
q0 28 -11 48.5t-22 26.5l-11 7v15z" />
    <glyph glyph-name="ydieresis" unicode="&#xff;" horiz-adv-x="611" 
d="M294 -18l-159 338q-67 141 -125 173v15h295v-15q-27 -20 -28.5 -58.5t10 -71t32.5 -77.5l57 -138l49 145q13 36 16.5 72.5t-6.5 72.5t-36 55v15h202v-15q-35 -19 -65 -58.5t-48 -84.5l-130 -325q-2 -6 -11 -34.5t-12.5 -38t-13 -36.5t-15.5 -38.5t-17.5 -34t-21 -33
t-23.5 -26t-28 -22.5t-32 -12.5t-37 -5.5q-64 0 -101 55l-3 15q74 11 142 52t109 116zM530 661q0 -30 -21.5 -51.5t-50.5 -21.5q-30 0 -51.5 21.5t-21.5 51.5t21.5 51.5t51.5 21.5q29 0 50.5 -21.5t21.5 -51.5zM307 661q0 -30 -21.5 -51.5t-50.5 -21.5q-30 0 -51.5 21.5
t-21.5 51.5t21.5 51.5t51.5 21.5q29 0 50.5 -21.5t21.5 -51.5z" />
    <glyph glyph-name="Amacron" unicode="&#x100;" horiz-adv-x="745" 
d="M540 854v-54h-307v54h307zM210 225h205l-106 248zM398 685l208 -486q60 -140 129 -184v-15h-327v15q36 9 43.5 55t-22.5 121h-232l-8 -19q-19 -48 -6.5 -90.5t52.5 -66.5v-15h-225v15q34 15 71.5 58t61.5 96l233 516h22z" />
    <glyph glyph-name="amacron" unicode="&#x101;" 
d="M416 688v-54h-307v54h307zM298 129v123q-54 0 -81 -29t-27 -79q0 -33 16 -55t46 -22q29 0 49 22q-3 18 -3 40zM516 56h17v-18q-27 -23 -52 -34t-68 -11q-74 0 -102 65q-56 -65 -149 -65q-62 0 -99.5 37t-37.5 95q0 80 65 121.5t157 41.5q29 0 51 -3v50q0 94 -8 117
q-14 35 -57 36q-44 0 -65 -30q25 -23 25 -57q0 -33 -20 -55t-54 -22q-31 0 -52.5 21t-21.5 53q0 55 55 88t138 33q58 0 99 -10t65 -27t38 -44.5t18.5 -56.5t4.5 -70v-205q0 -50 53 -50z" />
    <glyph glyph-name="Abreve" unicode="&#x102;" horiz-adv-x="745" 
d="M505 909h16q1 -8 1 -22q0 -66 -35 -106.5t-101 -40.5q-67 0 -100 40t-33 107q0 14 1 22h16q9 -38 40.5 -56.5t75.5 -18.5q43 0 75.5 18.5t43.5 56.5zM210 225h205l-106 248zM398 685l208 -486q60 -140 129 -184v-15h-327v15q36 9 43.5 55t-22.5 121h-232l-8 -19
q-19 -48 -6.5 -90.5t52.5 -66.5v-15h-225v15q34 15 71.5 58t61.5 96l233 516h22z" />
    <glyph glyph-name="abreve" unicode="&#x103;" 
d="M380 743h16q1 -8 1 -22q0 -66 -35 -106.5t-101 -40.5q-67 0 -100 40t-33 107q0 14 1 22h16q9 -38 40.5 -56.5t75.5 -18.5q43 0 75.5 18.5t43.5 56.5zM298 129v123q-54 0 -81 -29t-27 -79q0 -33 16 -55t46 -22q29 0 49 22q-3 18 -3 40zM516 56h17v-18q-27 -23 -52 -34
t-68 -11q-74 0 -102 65q-56 -65 -149 -65q-62 0 -99.5 37t-37.5 95q0 80 65 121.5t157 41.5q29 0 51 -3v50q0 94 -8 117q-14 35 -57 36q-44 0 -65 -30q25 -23 25 -57q0 -33 -20 -55t-54 -22q-31 0 -52.5 21t-21.5 53q0 55 55 88t138 33q58 0 99 -10t65 -27t38 -44.5
t18.5 -56.5t4.5 -70v-205q0 -50 53 -50z" />
    <glyph glyph-name="Aogonek" unicode="&#x104;" horiz-adv-x="745" 
d="M210 225h205l-106 248zM735 0h-111q-51 -40 -51 -98q0 -31 19.5 -48.5t50.5 -17.5q39 0 71 18l7 -15q-22 -25 -62 -44t-82 -19q-50 0 -81.5 25t-31.5 70q0 42 34.5 77.5t82.5 51.5h-173v15q36 9 43.5 55t-22.5 121h-232l-8 -19q-19 -48 -6.5 -90.5t52.5 -66.5v-15h-225
v15q34 15 71.5 58t61.5 96l233 516h22l208 -486q60 -140 129 -184v-15z" />
    <glyph glyph-name="aogonek" unicode="&#x105;" 
d="M298 129v123q-54 0 -81 -29t-27 -79q0 -33 16 -55t46 -22q29 0 49 22q-3 18 -3 40zM535 -146l7 -15q-22 -25 -62 -44t-82 -19q-50 0 -81.5 25t-31.5 70q0 39 30 72.5t74 51.5q-55 11 -78 63q-56 -65 -149 -65q-62 0 -99.5 37t-37.5 95q0 80 65 121.5t157 41.5q29 0 51 -3
v50q0 94 -8 117q-14 35 -57 36q-44 0 -65 -30q25 -23 25 -57q0 -33 -20 -55t-54 -22q-31 0 -52.5 21t-21.5 53q0 55 55 88t138 33q58 0 99 -10t65 -27t38 -44.5t18.5 -56.5t4.5 -70v-205q0 -50 53 -50h17v-18q-43 -38 -95 -44q-44 -39 -44 -92q0 -31 19.5 -48.5t50.5 -17.5
q39 0 71 18z" />
    <glyph glyph-name="Cacute" unicode="&#x106;" horiz-adv-x="678" 
d="M397 909h180l-210 -164h-34zM40 335q0 166 106.5 257t265.5 91q122 0 222 -51v-194h-15q-29 95 -82.5 153t-123.5 58q-81 0 -130.5 -79t-50.5 -235q1 -156 54.5 -234.5t140.5 -78.5q75 0 120.5 54.5t75.5 156.5h15v-194q-83 -51 -226 -51q-159 0 -265.5 90.5
t-106.5 256.5z" />
    <glyph glyph-name="cacute" unicode="&#x107;" horiz-adv-x="540" 
d="M283 743h180l-210 -164h-34zM513 119q-38 -58 -96.5 -93.5t-130.5 -35.5q-108 0 -182 70.5t-74 186.5q0 122 77.5 197t190.5 75q104 0 157.5 -41t53.5 -99q0 -36 -25 -61t-60 -25q-37 0 -60.5 25t-23.5 60q0 43 30 68q-14 39 -62 39q-33 0 -56.5 -18t-34.5 -47t-15.5 -56
t-4.5 -54q0 -107 51.5 -167.5t120.5 -60.5q32 0 69.5 14t64.5 35z" />
    <glyph glyph-name="Ccircumflex" unicode="&#x108;" horiz-adv-x="678" 
d="M386 794l-142 -50l-10 11l144 154h16l144 -154l-10 -11zM623 233h15v-194q-83 -51 -226 -51q-159 0 -265.5 90.5t-106.5 256.5t106.5 257t265.5 91q122 0 222 -51v-194h-15q-29 95 -82.5 153t-123.5 58q-81 0 -130.5 -79t-50.5 -235q1 -156 54.5 -234.5t140.5 -78.5
q75 0 120.5 54.5t75.5 156.5z" />
    <glyph glyph-name="ccircumflex" unicode="&#x109;" horiz-adv-x="540" 
d="M280 628l-142 -50l-10 11l144 154h16l144 -154l-10 -11zM503 131l10 -12q-38 -58 -96.5 -93.5t-130.5 -35.5q-108 0 -182 70.5t-74 186.5q0 122 77.5 197t190.5 75q104 0 157.5 -41t53.5 -99q0 -36 -25 -61t-60 -25q-37 0 -60.5 25t-23.5 60q0 43 30 68q-14 39 -62 39
q-33 0 -56.5 -18t-34.5 -47t-15.5 -56t-4.5 -54q0 -107 51.5 -167.5t120.5 -60.5q32 0 69.5 14t64.5 35z" />
    <glyph glyph-name="Cdotaccent" unicode="&#x10a;" horiz-adv-x="678" 
d="M40 335q0 166 106.5 257t265.5 91q122 0 222 -51v-194h-15q-29 95 -82.5 153t-123.5 58q-81 0 -130.5 -79t-50.5 -235q1 -156 54.5 -234.5t140.5 -78.5q75 0 120.5 54.5t75.5 156.5h15v-194q-83 -51 -226 -51q-159 0 -265.5 90.5t-106.5 256.5zM460 827q0 -32 -23 -55
t-55 -23t-55 23t-23 55t23 55t55 23t55 -23t23 -55z" />
    <glyph glyph-name="cdotaccent" unicode="&#x10b;" horiz-adv-x="540" 
d="M513 119q-38 -58 -96.5 -93.5t-130.5 -35.5q-108 0 -182 70.5t-74 186.5q0 122 77.5 197t190.5 75q104 0 157.5 -41t53.5 -99q0 -36 -25 -61t-60 -25q-37 0 -60.5 25t-23.5 60q0 43 30 68q-14 39 -62 39q-33 0 -56.5 -18t-34.5 -47t-15.5 -56t-4.5 -54
q0 -107 51.5 -167.5t120.5 -60.5q32 0 69.5 14t64.5 35zM358 661q0 -32 -23 -55t-55 -23t-55 23t-23 55t23 55t55 23t55 -23t23 -55z" />
    <glyph glyph-name="Ccaron" unicode="&#x10c;" horiz-adv-x="678" 
d="M399 744h-16l-144 154l10 11l142 -50l142 50l10 -11zM623 233h15v-194q-83 -51 -226 -51q-159 0 -265.5 90.5t-106.5 256.5t106.5 257t265.5 91q122 0 222 -51v-194h-15q-29 95 -82.5 153t-123.5 58q-81 0 -130.5 -79t-50.5 -235q1 -156 54.5 -234.5t140.5 -78.5
q75 0 120.5 54.5t75.5 156.5z" />
    <glyph glyph-name="ccaron" unicode="&#x10d;" horiz-adv-x="540" 
d="M288 578h-16l-144 154l10 11l142 -50l142 50l10 -11zM503 131l10 -12q-38 -58 -96.5 -93.5t-130.5 -35.5q-108 0 -182 70.5t-74 186.5q0 122 77.5 197t190.5 75q104 0 157.5 -41t53.5 -99q0 -36 -25 -61t-60 -25q-37 0 -60.5 25t-23.5 60q0 43 30 68q-14 39 -62 39
q-33 0 -56.5 -18t-34.5 -47t-15.5 -56t-4.5 -54q0 -107 51.5 -167.5t120.5 -60.5q32 0 69.5 14t64.5 35z" />
    <glyph glyph-name="Dcaron" unicode="&#x10e;" horiz-adv-x="753" 
d="M375 744h-16l-144 154l10 11l142 -50l142 50l10 -11zM352 33h1q82 0 127.5 84.5t45.5 215.5q0 88 -20 154.5t-67.5 109.5t-119.5 43h-40v-509q0 -98 73 -98zM60 674h265q194 0 291 -86t97 -249q0 -157 -97.5 -248t-296.5 -91h-259v15q44 29 44 118v408q0 89 -44 118v15z
" />
    <glyph glyph-name="dcaron" unicode="&#x10f;" horiz-adv-x="776" 
d="M397 113v257q-3 58 -29 86t-60 28q-41 0 -71.5 -45.5t-30.5 -152.5q0 -85 28.5 -137.5t88.5 -52.5q33 0 74 17zM562 759v-607q0 -28 11 -52.5t22 -35.5l11 -11v-15l-209 -46v97q-66 -98 -165 -98q-91 0 -144 70t-53 175q0 129 66.5 205.5t182.5 76.5q70 0 113 -32v113
q0 28 -11 48.5t-22 26.5l-11 7v15zM693 606h-5q-29 2 -48 24t-19 53q0 32 22.5 55.5t56.5 23.5q37 0 59.5 -26t22.5 -64q0 -55 -40 -97t-101 -67l-7 12q59 38 59 86z" />
    <glyph glyph-name="Dcroat" unicode="&#x110;" horiz-adv-x="753" 
d="M351 33h3q81 0 126.5 85t45.5 215q0 88 -20 154.5t-67.5 109.5t-119.5 43h-40v-280l136 3v-38l-136 3v-197q0 -98 72 -98zM60 674h265q194 0 291 -86t97 -249q0 -157 -97.5 -248t-296.5 -91h-259v15q44 29 44 118v198l-82 2v22l82 2v184q0 89 -44 118v15z" />
    <glyph glyph-name="dcroat" unicode="&#x111;" horiz-adv-x="646" 
d="M397 113v257q-3 58 -29 86t-60 28q-41 0 -71.5 -45.5t-30.5 -152.5q0 -85 28.5 -137.5t88.5 -52.5q33 0 74 17zM616 572h-54v-420q0 -28 11 -52.5t22 -35.5l11 -11v-15l-209 -46v97q-66 -98 -165 -98q-91 0 -144 70t-53 175q0 129 66.5 205.5t182.5 76.5q70 0 113 -32v86
h-118v34l117 5q-2 24 -13 41.5t-21 23.5l-9 5v15l209 63v-140l54 2v-49z" />
    <glyph glyph-name="Emacron" unicode="&#x112;" horiz-adv-x="604" 
d="M473 854v-54h-307v54h307zM559 180h15v-180h-514v15q44 29 44 118v408q0 89 -44 118v15h490v-180h-15q-28 65 -79.5 105.5t-120.5 40.5h-56v-284l44 4q44 4 71 30.5t49 70.5h15v-235h-15q-23 43 -49.5 69.5t-70.5 30.5l-44 4v-198q0 -52 19.5 -75t60.5 -23h2
q68 0 119 40.5t79 105.5z" />
    <glyph glyph-name="emacron" unicode="&#x113;" 
d="M437 688v-54h-307v54h307zM197 289l175 22q0 174 -79 174q-28 0 -48.5 -17.5t-30 -46t-13.5 -56t-4 -55.5v-21zM509 128l10 -12q-44 -59 -107 -93t-131 -34q-108 0 -179.5 70.5t-71.5 187.5q0 122 75.5 197t187.5 75q222 0 222 -226v-28h-316q10 -94 57.5 -140t113.5 -46
q36 0 75.5 15t63.5 34z" />
    <glyph glyph-name="Ebreve" unicode="&#x114;" horiz-adv-x="604" 
d="M439 909h16q1 -8 1 -22q0 -66 -35 -106.5t-101 -40.5q-67 0 -100 40t-33 107q0 14 1 22h16q9 -38 40.5 -56.5t75.5 -18.5q43 0 75.5 18.5t43.5 56.5zM559 180h15v-180h-514v15q44 29 44 118v408q0 89 -44 118v15h490v-180h-15q-28 65 -79.5 105.5t-120.5 40.5h-56v-284
l44 4q44 4 71 30.5t49 70.5h15v-235h-15q-23 43 -49.5 69.5t-70.5 30.5l-44 4v-198q0 -52 19.5 -75t60.5 -23h2q68 0 119 40.5t79 105.5z" />
    <glyph glyph-name="ebreve" unicode="&#x115;" 
d="M401 743h16q1 -8 1 -22q0 -66 -35 -106.5t-101 -40.5q-67 0 -100 40t-33 107q0 14 1 22h16q9 -38 40.5 -56.5t75.5 -18.5q43 0 75.5 18.5t43.5 56.5zM197 289l175 22q0 174 -79 174q-28 0 -48.5 -17.5t-30 -46t-13.5 -56t-4 -55.5v-21zM509 128l10 -12q-44 -59 -107 -93
t-131 -34q-108 0 -179.5 70.5t-71.5 187.5q0 122 75.5 197t187.5 75q222 0 222 -226v-28h-316q10 -94 57.5 -140t113.5 -46q36 0 75.5 15t63.5 34z" />
    <glyph glyph-name="Edotaccent" unicode="&#x116;" horiz-adv-x="604" 
d="M314 749q-32 0 -55 23t-23 55t23 55t55 23t55 -23t23 -55t-23 -55t-55 -23zM559 180h15v-180h-514v15q44 29 44 118v408q0 89 -44 118v15h490v-180h-15q-28 65 -79.5 105.5t-120.5 40.5h-56v-284l44 4q44 4 71 30.5t49 70.5h15v-235h-15q-23 43 -49.5 69.5t-70.5 30.5
l-44 4v-198q0 -52 19.5 -75t60.5 -23h2q68 0 119 40.5t79 105.5z" />
    <glyph glyph-name="edotaccent" unicode="&#x117;" 
d="M284 583q-32 0 -55 23t-23 55t23 55t55 23t55 -23t23 -55t-23 -55t-55 -23zM197 289l175 22q0 174 -79 174q-28 0 -48.5 -17.5t-30 -46t-13.5 -56t-4 -55.5v-21zM509 128l10 -12q-44 -59 -107 -93t-131 -34q-108 0 -179.5 70.5t-71.5 187.5q0 122 75.5 197t187.5 75
q222 0 222 -226v-28h-316q10 -94 57.5 -140t113.5 -46q36 0 75.5 15t63.5 34z" />
    <glyph glyph-name="Eogonek" unicode="&#x118;" horiz-adv-x="604" 
d="M574 0h-111q-51 -40 -51 -98q0 -31 19.5 -48.5t50.5 -17.5q39 0 71 18l7 -15q-22 -25 -62 -44t-82 -19q-50 0 -81.5 25t-31.5 70q0 42 34.5 77.5t82.5 51.5h-360v15q44 29 44 118v408q0 89 -44 118v15h490v-180h-15q-28 65 -79.5 105.5t-120.5 40.5h-56v-284l44 4
q44 4 71 30.5t49 70.5h15v-235h-15q-23 43 -49.5 69.5t-70.5 30.5l-44 4v-198q0 -52 19.5 -75t60.5 -23h2q68 0 119 40.5t79 105.5h15v-180z" />
    <glyph glyph-name="eogonek" unicode="&#x119;" 
d="M197 289l175 22q0 174 -79 174q-28 0 -48.5 -17.5t-30 -46t-13.5 -56t-4 -55.5v-21zM509 128l10 -12q-65 -87 -161 -116q-52 -40 -52 -98q0 -31 19.5 -48.5t50.5 -17.5q39 0 71 18l7 -15q-22 -25 -62 -44t-82 -19q-50 0 -81.5 25t-31.5 70q0 36 25.5 67.5t64.5 50.5h-6
q-108 0 -179.5 70.5t-71.5 187.5q0 122 75.5 197t187.5 75q222 0 222 -226v-28h-316q10 -94 57.5 -140t113.5 -46q36 0 75.5 15t63.5 34z" />
    <glyph glyph-name="Ecaron" unicode="&#x11a;" horiz-adv-x="604" 
d="M327 744h-16l-144 154l10 11l142 -50l142 50l10 -11zM559 180h15v-180h-514v15q44 29 44 118v408q0 89 -44 118v15h490v-180h-15q-28 65 -79.5 105.5t-120.5 40.5h-56v-284l44 4q44 4 71 30.5t49 70.5h15v-235h-15q-23 43 -49.5 69.5t-70.5 30.5l-44 4v-198
q0 -52 19.5 -75t60.5 -23h2q68 0 119 40.5t79 105.5z" />
    <glyph glyph-name="ecaron" unicode="&#x11b;" 
d="M292 578h-16l-144 154l10 11l142 -50l142 50l10 -11zM197 289l175 22q0 174 -79 174q-28 0 -48.5 -17.5t-30 -46t-13.5 -56t-4 -55.5v-21zM509 128l10 -12q-44 -59 -107 -93t-131 -34q-108 0 -179.5 70.5t-71.5 187.5q0 122 75.5 197t187.5 75q222 0 222 -226v-28h-316
q10 -94 57.5 -140t113.5 -46q36 0 75.5 15t63.5 34z" />
    <glyph glyph-name="Gcircumflex" unicode="&#x11c;" horiz-adv-x="714" 
d="M397 794l-142 -50l-10 11l144 154h16l144 -154l-10 -11zM442 345h247v-15q-43 -31 -43 -118v-66q0 -50 17 -87q-38 -27 -108 -49t-139 -22q-173 0 -274.5 91.5t-101.5 253.5q0 153 101.5 251.5t272.5 98.5q47 0 96 -9.5t65.5 -15t60.5 -21.5v-195h-15q-37 101 -91 154
t-118 53q-48 0 -84.5 -29t-56.5 -76.5t-29.5 -100.5t-9.5 -110q0 -135 48 -223t139 -88q67 0 67 90v100q0 89 -44 118v15z" />
    <glyph glyph-name="gcircumflex" unicode="&#x11d;" horiz-adv-x="560" 
d="M255 628l-142 -50l-10 11l144 154h16l144 -154l-10 -11zM372 -44h-153q-38 0 -66 8q-20 -24 -20 -62q0 -51 38.5 -75t98.5 -24q73 0 122.5 30.5t49.5 78.5q0 28 -18 36t-52 8zM258 489q-35 0 -53.5 -36t-18.5 -99q0 -83 21 -120.5t54 -37.5q31 0 50.5 36t19.5 107
q0 60 -19.5 105t-53.5 45zM233 104h150q79 0 120.5 -25.5t41.5 -87.5q0 -92 -88.5 -166.5t-230.5 -74.5q-97 0 -154 31.5t-57 85.5q0 39 29.5 67t78.5 40q-54 27 -54 87q0 73 89 116q-58 18 -93 59t-35 103q0 80 68 130t169 50q64 0 115 -21q13 46 41 73.5t60 27.5
q28 0 45 -18.5t17 -43.5q0 -24 -15.5 -42t-40.5 -18q-36 0 -51 37q-11 0 -32 -28q81 -45 81 -135q0 -88 -70.5 -137.5t-169.5 -49.5q-31 0 -61 6q-11 -15 -11 -33q0 -33 58 -33z" />
    <glyph glyph-name="Gbreve" unicode="&#x11e;" horiz-adv-x="714" 
d="M497 909h16q1 -8 1 -22q0 -66 -35 -106.5t-101 -40.5q-67 0 -100 40t-33 107q0 14 1 22h16q9 -38 40.5 -56.5t75.5 -18.5q43 0 75.5 18.5t43.5 56.5zM442 345h247v-15q-43 -31 -43 -118v-66q0 -50 17 -87q-38 -27 -108 -49t-139 -22q-173 0 -274.5 91.5t-101.5 253.5
q0 153 101.5 251.5t272.5 98.5q47 0 96 -9.5t65.5 -15t60.5 -21.5v-195h-15q-37 101 -91 154t-118 53q-48 0 -84.5 -29t-56.5 -76.5t-29.5 -100.5t-9.5 -110q0 -135 48 -223t139 -88q67 0 67 90v100q0 89 -44 118v15z" />
    <glyph glyph-name="gbreve" unicode="&#x11f;" horiz-adv-x="560" 
d="M376 743h16q1 -8 1 -22q0 -66 -35 -106.5t-101 -40.5q-67 0 -100 40t-33 107q0 14 1 22h16q9 -38 40.5 -56.5t75.5 -18.5q43 0 75.5 18.5t43.5 56.5zM372 -44h-153q-38 0 -66 8q-20 -24 -20 -62q0 -51 38.5 -75t98.5 -24q73 0 122.5 30.5t49.5 78.5q0 28 -18 36t-52 8z
M258 489q-35 0 -53.5 -36t-18.5 -99q0 -83 21 -120.5t54 -37.5q31 0 50.5 36t19.5 107q0 60 -19.5 105t-53.5 45zM233 104h150q79 0 120.5 -25.5t41.5 -87.5q0 -92 -88.5 -166.5t-230.5 -74.5q-97 0 -154 31.5t-57 85.5q0 39 29.5 67t78.5 40q-54 27 -54 87q0 73 89 116
q-58 18 -93 59t-35 103q0 80 68 130t169 50q64 0 115 -21q13 46 41 73.5t60 27.5q28 0 45 -18.5t17 -43.5q0 -24 -15.5 -42t-40.5 -18q-36 0 -51 37q-11 0 -32 -28q81 -45 81 -135q0 -88 -70.5 -137.5t-169.5 -49.5q-31 0 -61 6q-11 -15 -11 -33q0 -33 58 -33z" />
    <glyph glyph-name="Gdotaccent" unicode="&#x120;" horiz-adv-x="714" 
d="M397 749q-32 0 -55 23t-23 55t23 55t55 23t55 -23t23 -55t-23 -55t-55 -23zM442 345h247v-15q-43 -31 -43 -118v-66q0 -50 17 -87q-38 -27 -108 -49t-139 -22q-173 0 -274.5 91.5t-101.5 253.5q0 153 101.5 251.5t272.5 98.5q47 0 96 -9.5t65.5 -15t60.5 -21.5v-195h-15
q-37 101 -91 154t-118 53q-48 0 -84.5 -29t-56.5 -76.5t-29.5 -100.5t-9.5 -110q0 -135 48 -223t139 -88q67 0 67 90v100q0 89 -44 118v15z" />
    <glyph glyph-name="gdotaccent" unicode="&#x121;" horiz-adv-x="560" 
d="M258 583q-32 0 -55 23t-23 55t23 55t55 23t55 -23t23 -55t-23 -55t-55 -23zM372 -44h-153q-38 0 -66 8q-20 -24 -20 -62q0 -51 38.5 -75t98.5 -24q73 0 122.5 30.5t49.5 78.5q0 28 -18 36t-52 8zM258 489q-35 0 -53.5 -36t-18.5 -99q0 -83 21 -120.5t54 -37.5
q31 0 50.5 36t19.5 107q0 60 -19.5 105t-53.5 45zM233 104h150q79 0 120.5 -25.5t41.5 -87.5q0 -92 -88.5 -166.5t-230.5 -74.5q-97 0 -154 31.5t-57 85.5q0 39 29.5 67t78.5 40q-54 27 -54 87q0 73 89 116q-58 18 -93 59t-35 103q0 80 68 130t169 50q64 0 115 -21
q13 46 41 73.5t60 27.5q28 0 45 -18.5t17 -43.5q0 -24 -15.5 -42t-40.5 -18q-36 0 -51 37q-11 0 -32 -28q81 -45 81 -135q0 -88 -70.5 -137.5t-169.5 -49.5q-31 0 -61 6q-11 -15 -11 -33q0 -33 58 -33z" />
    <glyph glyph-name="uni0122" unicode="&#x122;" horiz-adv-x="714" 
d="M407 -217h-5q-30 2 -49.5 25t-19.5 55q0 33 23 57.5t59 24.5q38 0 61.5 -27t23.5 -67q0 -58 -40.5 -110t-106.5 -80l-7 13q20 12 40.5 44.5t20.5 64.5zM442 345h247v-15q-43 -31 -43 -118v-66q0 -50 17 -87q-38 -27 -108 -49t-139 -22q-173 0 -274.5 91.5t-101.5 253.5
q0 153 101.5 251.5t272.5 98.5q47 0 96 -9.5t65.5 -15t60.5 -21.5v-195h-15q-37 101 -91 154t-118 53q-48 0 -84.5 -29t-56.5 -76.5t-29.5 -100.5t-9.5 -110q0 -135 48 -223t139 -88q67 0 67 90v100q0 89 -44 118v15z" />
    <glyph glyph-name="uni0123" unicode="&#x123;" horiz-adv-x="560" 
d="M266 745h5q30 -2 49.5 -25t19.5 -55q0 -33 -23 -57.5t-59 -24.5q-38 0 -61.5 27t-23.5 67q0 58 40.5 110t106.5 80l7 -13q-20 -12 -40.5 -44.5t-20.5 -64.5zM372 -44h-153q-38 0 -66 8q-20 -24 -20 -62q0 -51 38.5 -75t98.5 -24q73 0 122.5 30.5t49.5 78.5q0 28 -18 36
t-52 8zM258 489q-35 0 -53.5 -36t-18.5 -99q0 -83 21 -120.5t54 -37.5q31 0 50.5 36t19.5 107q0 60 -19.5 105t-53.5 45zM233 104h150q79 0 120.5 -25.5t41.5 -87.5q0 -92 -88.5 -166.5t-230.5 -74.5q-97 0 -154 31.5t-57 85.5q0 39 29.5 67t78.5 40q-54 27 -54 87
q0 73 89 116q-58 18 -93 59t-35 103q0 80 68 130t169 50q64 0 115 -21q13 46 41 73.5t60 27.5q28 0 45 -18.5t17 -43.5q0 -24 -15.5 -42t-40.5 -18q-36 0 -51 37q-11 0 -32 -28q81 -45 81 -135q0 -88 -70.5 -137.5t-169.5 -49.5q-31 0 -61 6q-11 -15 -11 -33q0 -33 58 -33z
" />
    <glyph glyph-name="Hcircumflex" unicode="&#x124;" horiz-adv-x="804" 
d="M402 794l-142 -50l-10 11l144 154h16l144 -154l-10 -11zM744 674v-15q-44 -31 -44 -118v-408q0 -86 44 -118v-15h-263v15q44 29 44 118v186h-246v-186q0 -86 44 -118v-15h-263v15q44 29 44 118v408q0 89 -44 118v15h263v-15q-44 -31 -44 -118v-188h246v188q0 89 -44 118
v15h263z" />
    <glyph glyph-name="hcircumflex" unicode="&#x125;" horiz-adv-x="653" 
d="M327 838l-142 -50l-10 11l144 154h16l144 -154l-10 -11zM569 341v-208q0 -82 49 -118v-15h-258v15q44 28 44 118v197q0 84 -79 84q-28 0 -76 -20v-261q0 -86 44 -118v-15h-258v15q49 31 49 118v466q0 28 -11 48.5t-22 26.5l-11 7v15l209 63v-341q37 50 88 75t99 25
q74 0 103.5 -43.5t29.5 -133.5z" />
    <glyph glyph-name="Hbar" unicode="&#x126;" horiz-adv-x="804" 
d="M525 353v136h-246v-136h246zM776 489h-76v-356q0 -86 44 -118v-15h-263v15q44 29 44 118v186h-246v-186q0 -86 44 -118v-15h-263v15q44 29 44 118v356h-71v27l71 1v24q0 89 -44 118v15h263v-15q-44 -31 -44 -118v-21l246 4v17q0 89 -44 118v15h263v-15q-44 -31 -44 -118
v-14l76 1v-39z" />
    <glyph glyph-name="hbar" unicode="&#x127;" horiz-adv-x="653" 
d="M569 341v-208q0 -82 49 -118v-15h-258v15q44 28 44 118v197q0 84 -79 84q-28 0 -76 -20v-261q0 -86 44 -118v-15h-258v15q49 31 49 118v439h-61v34l61 3q-2 24 -13 42t-21 24l-10 6v15l209 63v-143l111 5v-49h-111v-154q37 50 88 75t99 25q74 0 103.5 -43.5t29.5 -133.5z
" />
    <glyph glyph-name="Itilde" unicode="&#x128;" horiz-adv-x="383" 
d="M279 541v-408q0 -86 44 -118v-15h-263v15q44 29 44 118v408q0 89 -44 118v15h263v-15q-44 -31 -44 -118zM51 755h-16q-3 17 -3 29q0 48 23.5 82.5t63.5 34.5q36 0 84 -30t72 -30q25 0 38.5 18t16.5 44h16q3 -17 3 -30q0 -50 -21.5 -83t-65.5 -33q-37 0 -84.5 30t-71.5 30
q-25 0 -38.5 -18t-16.5 -44z" />
    <glyph glyph-name="itilde" unicode="&#x129;" horiz-adv-x="346" 
d="M254 518v-385q0 -83 49 -118v-15h-263v15q49 31 49 118v225q0 28 -11 48.5t-22 27.5l-11 6v15zM33 589h-16q-3 17 -3 29q0 48 23.5 82.5t63.5 34.5q36 0 84 -30t72 -30q25 0 38.5 18t16.5 44h16q3 -17 3 -30q0 -50 -21.5 -83t-65.5 -33q-37 0 -84.5 30t-71.5 30
q-25 0 -38.5 -18t-16.5 -44z" />
    <glyph glyph-name="Imacron" unicode="&#x12a;" horiz-adv-x="383" 
d="M279 541v-408q0 -86 44 -118v-15h-263v15q44 29 44 118v408q0 89 -44 118v15h263v-15q-44 -31 -44 -118zM37 800v54h307v-54h-307z" />
    <glyph glyph-name="imacron" unicode="&#x12b;" horiz-adv-x="346" 
d="M254 518v-385q0 -83 49 -118v-15h-263v15q49 31 49 118v225q0 28 -11 48.5t-22 27.5l-11 6v15zM19 634v54h307v-54h-307z" />
    <glyph glyph-name="Ibreve" unicode="&#x12c;" horiz-adv-x="383" 
d="M279 541v-408q0 -86 44 -118v-15h-263v15q44 29 44 118v408q0 89 -44 118v15h263v-15q-44 -31 -44 -118zM325 887q0 -66 -35 -106.5t-101 -40.5q-67 0 -100 40t-33 107q0 14 1 22h16q9 -38 40.5 -56.5t75.5 -18.5q43 0 75.5 18.5t43.5 56.5h16q1 -8 1 -22z" />
    <glyph glyph-name="ibreve" unicode="&#x12d;" horiz-adv-x="346" 
d="M254 518v-385q0 -83 49 -118v-15h-263v15q49 31 49 118v225q0 28 -11 48.5t-22 27.5l-11 6v15zM307 721q0 -66 -35 -106.5t-101 -40.5q-67 0 -100 40t-33 107q0 14 1 22h16q9 -38 40.5 -56.5t75.5 -18.5q43 0 75.5 18.5t43.5 56.5h16q1 -8 1 -22z" />
    <glyph glyph-name="Iogonek" unicode="&#x12e;" horiz-adv-x="383" 
d="M323 674v-15q-44 -31 -44 -118v-408q0 -86 44 -118v-15h-100q-51 -40 -51 -98q0 -31 19.5 -48.5t50.5 -17.5q39 0 71 18l7 -15q-22 -25 -62 -44t-82 -19q-50 0 -81.5 25t-31.5 70q0 42 34.5 77.5t82.5 51.5h-120v15q44 29 44 118v408q0 89 -44 118v15h263z" />
    <glyph glyph-name="iogonek" unicode="&#x12f;" horiz-adv-x="333" 
d="M161 571q-40 0 -68 28t-28 68t28 68.5t68 28.5t68.5 -28.5t28.5 -68.5t-28.5 -68t-68.5 -28zM298 0h-100q-51 -40 -51 -98q0 -31 19.5 -48.5t50.5 -17.5q39 0 71 18l7 -15q-22 -25 -62 -44t-82 -19q-50 0 -81.5 25t-31.5 70q0 42 34.5 77.5t82.5 51.5h-120v15
q49 31 49 118v225q0 28 -11 48.5t-22 27.5l-11 6v15l209 63v-385q0 -83 49 -118v-15z" />
    <glyph glyph-name="Idotaccent" unicode="&#x130;" horiz-adv-x="383" 
d="M279 541v-408q0 -86 44 -118v-15h-263v15q44 29 44 118v408q0 89 -44 118v15h263v-15q-44 -31 -44 -118zM269 827q0 -32 -23 -55t-55 -23t-55 23t-23 55t23 55t55 23t55 -23t23 -55z" />
    <glyph glyph-name="dotlessi" unicode="&#x131;" horiz-adv-x="346" 
d="M254 518v-385q0 -83 49 -118v-15h-263v15q49 31 49 118v225q0 28 -11 48.5t-22 27.5l-11 6v15z" />
    <glyph glyph-name="IJ" unicode="&#x132;" horiz-adv-x="773" 
d="M279 541v-408q0 -86 44 -118v-15h-263v15q44 29 44 118v408q0 89 -44 118v15h263v-15q-44 -31 -44 -118zM679 541v-354q0 -38 -1.5 -64t-7.5 -59.5t-16.5 -56t-30 -47.5t-47.5 -41t-69.5 -29t-94.5 -19l-4 15q96 77 96 214v441q0 90 -44 118v15h263v-15q-44 -32 -44 -118
z" />
    <glyph glyph-name="ij" unicode="&#x133;" horiz-adv-x="666" 
d="M249 518v-385q0 -83 49 -118v-15h-263v15q49 31 49 118v225q0 28 -11 48.5t-22 27.5l-11 6v15zM65 667q0 40 28 68.5t68 28.5t68.5 -28.5t28.5 -68.5t-28.5 -68t-68.5 -28t-68 28t-28 68zM417 41v317q0 28 -11 48.5t-22 27.5l-11 6v15l209 63v-452q0 -74 -11.5 -126.5
t-41 -95t-84 -65.5t-135.5 -29l-4 15q111 86 111 276zM394 667q0 40 28 68.5t68 28.5t68.5 -28.5t28.5 -68.5t-28.5 -68t-68.5 -28t-68 28t-28 68z" />
    <glyph glyph-name="Jcircumflex" unicode="&#x134;" horiz-adv-x="390" 
d="M77 659v15h263v-15q-44 -32 -44 -118v-354q0 -38 -1.5 -64t-7.5 -59.5t-16.5 -56t-30 -47.5t-47.5 -41t-69.5 -29t-94.5 -19l-4 15q96 77 96 214v441q0 90 -44 118zM213 909l144 -154l-10 -11l-142 50l-142 -50l-10 11l144 154h16z" />
    <glyph glyph-name="jcircumflex" unicode="&#x135;" horiz-adv-x="326" 
d="M47 440v15l209 63v-452q0 -74 -11.5 -126.5t-41 -95t-84 -65.5t-135.5 -29l-4 15q111 86 111 276v317q0 28 -11 48.5t-22 27.5zM171 743l144 -154l-10 -11l-142 50l-142 -50l-10 11l144 154h16z" />
    <glyph glyph-name="uni0136" unicode="&#x136;" horiz-adv-x="729" 
d="M279 541v-408q0 -86 44 -118v-15h-263v15q44 29 44 118v408q0 89 -44 118v15h263v-15q-44 -31 -44 -118zM293 302v15l127 162q31 40 42 78.5t5.5 63t-20.5 38.5v15h237v-15q-54 -25 -116 -75.5t-102 -99.5l-47 -57l89 -134q121 -181 211 -252v-13q-42 -37 -120 -37
q-34 0 -64 13t-58 42t-47 54t-49 70zM355 -217h-5q-30 2 -49.5 25t-19.5 55q0 33 23 57.5t59 24.5q38 0 61.5 -27t23.5 -67q0 -58 -40.5 -110t-106.5 -80l-7 13q20 12 40.5 44.5t20.5 64.5z" />
    <glyph glyph-name="uni0137" unicode="&#x137;" horiz-adv-x="654" 
d="M249 759v-626q0 -82 49 -118v-15h-263v15q49 31 49 118v466q0 28 -11 48.5t-22 26.5l-11 7v15zM260 247l96 96q22 22 34.5 48t9.5 54t-25 48v15h236v-15q-40 -16 -78 -40t-61.5 -43t-63.5 -53l-27 -23l52 -65q76 -94 123 -145.5t93 -89.5v-12q-38 -31 -92 -31
q-60 0 -104 26.5t-98 89.5q-16 18 -50 63.5t-46 60.5zM317 -217h-5q-30 2 -49.5 25t-19.5 55q0 33 23 57.5t59 24.5q38 0 61.5 -27t23.5 -67q0 -58 -40.5 -110t-106.5 -80l-7 13q20 12 40.5 44.5t20.5 64.5z" />
    <glyph glyph-name="Lacute" unicode="&#x139;" horiz-adv-x="625" 
d="M391 909l-210 -164h-34l64 164h180zM580 230h15v-230h-535v15q44 29 44 118v408q0 90 -44 118v15h263v-15q-44 -31 -44 -118v-409q0 -53 21.5 -75.5t71.5 -22.5h3q78 0 130 54t75 142z" />
    <glyph glyph-name="lacute" unicode="&#x13a;" horiz-adv-x="333" 
d="M184 943h180l-210 -164h-34zM249 759v-626q0 -82 49 -118v-15h-263v15q49 31 49 118v466q0 28 -11 48.5t-22 26.5l-11 7v15z" />
    <glyph glyph-name="uni013B" unicode="&#x13b;" horiz-adv-x="625" 
d="M333 -217h-5q-30 2 -49.5 25t-19.5 55q0 33 23 57.5t59 24.5q38 0 61.5 -27t23.5 -67q0 -58 -40.5 -110t-106.5 -80l-7 13q20 12 40.5 44.5t20.5 64.5zM580 230h15v-230h-535v15q44 29 44 118v408q0 90 -44 118v15h263v-15q-44 -31 -44 -118v-409q0 -53 21.5 -75.5
t71.5 -22.5h3q78 0 130 54t75 142z" />
    <glyph glyph-name="uni013C" unicode="&#x13c;" horiz-adv-x="333" 
d="M249 759v-626q0 -82 49 -118v-15h-263v15q49 31 49 118v466q0 28 -11 48.5t-22 26.5l-11 7v15zM156 -217h-5q-30 2 -49.5 25t-19.5 55q0 33 23 57.5t59 24.5q38 0 61.5 -27t23.5 -67q0 -58 -40.5 -110t-106.5 -80l-7 13q20 12 40.5 44.5t20.5 64.5z" />
    <glyph glyph-name="Lcaron" unicode="&#x13d;" horiz-adv-x="625" 
d="M469 529h-5q-29 2 -48 24t-19 53q0 32 22.5 55.5t56.5 23.5q37 0 59.5 -26t22.5 -64q0 -55 -40 -97t-101 -67l-7 12q59 38 59 86zM580 230h15v-230h-535v15q44 29 44 118v408q0 90 -44 118v15h263v-15q-44 -31 -44 -118v-409q0 -53 21.5 -75.5t71.5 -22.5h3q78 0 130 54
t75 142z" />
    <glyph glyph-name="lcaron" unicode="&#x13e;" horiz-adv-x="457" 
d="M249 759v-626q0 -82 49 -118v-15h-263v15q49 31 49 118v466q0 28 -11 48.5t-22 26.5l-11 7v15zM374 606h-5q-29 2 -48 24t-19 53q0 32 22.5 55.5t56.5 23.5q37 0 59.5 -26t22.5 -64q0 -55 -40 -97t-101 -67l-7 12q59 38 59 86z" />
    <glyph glyph-name="Ldot" unicode="&#x13f;" horiz-adv-x="625" 
d="M450 277q-32 0 -55 23t-23 55t23 55t55 23t55 -23t23 -55t-23 -55t-55 -23zM580 230h15v-230h-535v15q44 29 44 118v408q0 90 -44 118v15h263v-15q-44 -31 -44 -118v-409q0 -53 21.5 -75.5t71.5 -22.5h3q78 0 130 54t75 142z" />
    <glyph glyph-name="ldot" unicode="&#x140;" horiz-adv-x="423" 
d="M249 759v-626q0 -82 49 -118v-15h-263v15q49 31 49 118v466q0 28 -11 48.5t-22 26.5l-11 7v15zM302 355q0 32 23 55t55 23t55 -23t23 -55t-23 -55t-55 -23t-55 23t-23 55z" />
    <glyph glyph-name="Lslash" unicode="&#x141;" horiz-adv-x="625" 
d="M580 230h15v-230h-535v15q44 29 44 118v128l-83 -41l-11 21l94 51v249q0 90 -44 118v15h263v-15q-44 -31 -44 -118v-153l139 76v-47l-139 -69v-216q0 -53 21.5 -75.5t71.5 -22.5h3q78 0 130 54t75 142z" />
    <glyph glyph-name="lslash" unicode="&#x142;" horiz-adv-x="349" 
d="M357 452l-103 -52v-267q0 -82 49 -118v-15h-263v15q49 31 49 118v183l-78 -40l-15 25l93 51v247q0 28 -11 48.5t-22 26.5l-11 7v15l209 63v-317l103 56v-46z" />
    <glyph glyph-name="Nacute" unicode="&#x143;" horiz-adv-x="755" 
d="M386 909h180l-210 -164h-34zM634 491l-12 -513h-19l-445 484l11 -279q3 -67 24.5 -110.5t51.5 -57.5v-15h-195v15q31 14 52 57.5t23 110.5l9 256q-3 69 -25.5 127t-58.5 93v15h159l392 -427l-11 244q-3 67 -24 110.5t-51 57.5v15h195v-15q-30 -14 -51.5 -57.5
t-24.5 -110.5z" />
    <glyph glyph-name="nacute" unicode="&#x144;" horiz-adv-x="653" 
d="M345 743h180l-210 -164h-34zM249 394v-261q0 -86 44 -118v-15h-258v15q49 31 49 118v236q0 28 -11 48.5t-22 26.5l-11 7v15l209 63v-111q37 50 88 75t99 25q73 0 103 -44t30 -133v-208q0 -83 49 -118v-15h-258v15q44 29 44 118v197q0 42 -22 62.5t-57 20.5q-38 0 -76 -19
z" />
    <glyph glyph-name="uni0145" unicode="&#x145;" horiz-adv-x="755" 
d="M634 491l-12 -513h-19l-445 484l11 -279q3 -67 24.5 -110.5t51.5 -57.5v-15h-195v15q31 14 52 57.5t23 110.5l9 256q-3 69 -25.5 127t-58.5 93v15h159l392 -427l-11 244q-3 67 -24 110.5t-51 57.5v15h195v-15q-30 -14 -51.5 -57.5t-24.5 -110.5zM378 -217h-5
q-30 2 -49.5 25t-19.5 55q0 33 23 57.5t59 24.5q38 0 61.5 -27t23.5 -67q0 -58 -40.5 -110t-106.5 -80l-7 13q20 12 40.5 44.5t20.5 64.5z" />
    <glyph glyph-name="uni0146" unicode="&#x146;" horiz-adv-x="653" 
d="M249 394v-261q0 -86 44 -118v-15h-258v15q49 31 49 118v236q0 28 -11 48.5t-22 26.5l-11 7v15l209 63v-111q37 50 88 75t99 25q73 0 103 -44t30 -133v-208q0 -83 49 -118v-15h-258v15q44 29 44 118v197q0 42 -22 62.5t-57 20.5q-38 0 -76 -19zM317 -217h-5
q-30 2 -49.5 25t-19.5 55q0 33 23 57.5t59 24.5q38 0 61.5 -27t23.5 -67q0 -58 -40.5 -110t-106.5 -80l-7 13q20 12 40.5 44.5t20.5 64.5z" />
    <glyph glyph-name="Ncaron" unicode="&#x147;" horiz-adv-x="755" 
d="M386 744h-16l-144 154l10 11l142 -50l142 50l10 -11zM515 674h195v-15q-30 -14 -51.5 -57.5t-24.5 -110.5l-12 -513h-19l-445 484l11 -279q3 -67 24.5 -110.5t51.5 -57.5v-15h-195v15q31 14 52 57.5t23 110.5l9 256q-3 69 -25.5 127t-58.5 93v15h159l392 -427l-11 244
q-3 67 -24 110.5t-51 57.5v15z" />
    <glyph glyph-name="ncaron" unicode="&#x148;" horiz-adv-x="653" 
d="M335 578h-16l-144 154l10 11l142 -50l142 50l10 -11zM569 341v-208q0 -83 49 -118v-15h-258v15q44 29 44 118v197q0 42 -22 62.5t-57 20.5q-38 0 -76 -19v-261q0 -86 44 -118v-15h-258v15q49 31 49 118v236q0 28 -11 48.5t-22 26.5l-11 7v15l209 63v-111q37 50 88 75
t99 25q73 0 103 -44t30 -133z" />
    <glyph glyph-name="Omacron" unicode="&#x14c;" horiz-adv-x="790" 
d="M241 800v54h307v-54h-307zM395 23q58 0 95.5 47t52.5 115t15 155q0 84 -16 152t-54 113.5t-93 45.5q-84 0 -123.5 -88.5t-39.5 -222.5q0 -85 16 -154.5t54 -116t93 -46.5zM395 -11q-169 0 -262 92t-93 258q0 152 97.5 249t257.5 97q162 0 258.5 -96.5t96.5 -249.5
q0 -159 -96.5 -254.5t-258.5 -95.5z" />
    <glyph glyph-name="omacron" unicode="&#x14d;" horiz-adv-x="611" 
d="M152 634v54h307v-54h-307zM581 250q0 -114 -80 -187t-203 -73q-120 0 -194 71t-74 184q0 116 75.5 195t208.5 79q124 0 195.5 -76t71.5 -193zM206 287q0 -46 4.5 -87.5t14.5 -83t31.5 -66t52.5 -24.5q96 0 96 206q0 117 -26 184.5t-76 67.5q-51 0 -74 -60t-23 -137z" />
    <glyph glyph-name="Obreve" unicode="&#x14e;" horiz-adv-x="790" 
d="M395 23q58 0 95.5 47t52.5 115t15 155q0 84 -16 152t-54 113.5t-93 45.5q-84 0 -123.5 -88.5t-39.5 -222.5q0 -85 16 -154.5t54 -116t93 -46.5zM395 -11q-169 0 -262 92t-93 258q0 152 97.5 249t257.5 97q162 0 258.5 -96.5t96.5 -249.5q0 -159 -96.5 -254.5
t-258.5 -95.5zM529 887q0 -66 -35 -106.5t-101 -40.5q-67 0 -100 40t-33 107q0 14 1 22h16q9 -38 40.5 -56.5t75.5 -18.5q43 0 75.5 18.5t43.5 56.5h16q1 -8 1 -22z" />
    <glyph glyph-name="obreve" unicode="&#x14f;" horiz-adv-x="611" 
d="M581 250q0 -114 -80 -187t-203 -73q-120 0 -194 71t-74 184q0 116 75.5 195t208.5 79q124 0 195.5 -76t71.5 -193zM206 287q0 -46 4.5 -87.5t14.5 -83t31.5 -66t52.5 -24.5q96 0 96 206q0 117 -26 184.5t-76 67.5q-51 0 -74 -60t-23 -137zM440 721q0 -66 -35 -106.5
t-101 -40.5q-67 0 -100 40t-33 107q0 14 1 22h16q9 -38 40.5 -56.5t75.5 -18.5q43 0 75.5 18.5t43.5 56.5h16q1 -8 1 -22z" />
    <glyph glyph-name="Ohungarumlaut" unicode="&#x150;" horiz-adv-x="790" 
d="M334 909h165l-195 -164h-34zM534 909h165l-195 -164h-34zM395 23q58 0 95.5 47t52.5 115t15 155q0 84 -16 152t-54 113.5t-93 45.5q-84 0 -123.5 -88.5t-39.5 -222.5q0 -85 16 -154.5t54 -116t93 -46.5zM395 -11q-169 0 -262 92t-93 258q0 152 97.5 249t257.5 97
q162 0 258.5 -96.5t96.5 -249.5q0 -159 -96.5 -254.5t-258.5 -95.5z" />
    <glyph glyph-name="ohungarumlaut" unicode="&#x151;" horiz-adv-x="611" 
d="M245 743h165l-195 -164h-34zM445 743h165l-195 -164h-34zM581 250q0 -114 -80 -187t-203 -73q-120 0 -194 71t-74 184q0 116 75.5 195t208.5 79q124 0 195.5 -76t71.5 -193zM206 287q0 -46 4.5 -87.5t14.5 -83t31.5 -66t52.5 -24.5q96 0 96 206q0 117 -26 184.5t-76 67.5
q-51 0 -74 -60t-23 -137z" />
    <glyph glyph-name="OE" unicode="&#x152;" horiz-adv-x="1028" 
d="M395 23q38 0 65.5 18t42.5 46t23.5 72.5t11 84.5t2.5 96q0 68 -5.5 117.5t-19.5 96.5t-44.5 72t-75.5 25q-84 0 -123.5 -88.5t-39.5 -222.5q0 -85 16 -154.5t54 -116t93 -46.5zM983 180h15v-180h-470v42q-62 -53 -147 -53q-156 0 -248.5 93t-92.5 257q0 150 97 248
t242 96q87 2 149 -47v38h446v-180h-15q-28 65 -79.5 105.5t-120.5 40.5h-56v-284l44 4q44 4 71 30.5t49 70.5h15v-235h-15q-23 43 -49.5 69.5t-70.5 30.5l-44 4v-198q0 -52 19.5 -75t60.5 -23h3q67 0 118 40.5t79 105.5z" />
    <glyph glyph-name="oe" unicode="&#x153;" horiz-adv-x="913" 
d="M309 26q96 0 96 206q0 117 -26 184.5t-76 67.5q-51 0 -74 -60t-23 -137q0 -46 4.5 -87.5t14.5 -83t31.5 -66t52.5 -24.5zM569 291l168 24q2 170 -75 170q-28 0 -48 -17.5t-29 -46.5t-12.5 -55.5t-3.5 -55.5v-19zM874 128l10 -12q-44 -59 -107 -93t-131 -34
q-103 0 -168 65q-72 -64 -180 -64q-120 0 -194 71t-74 184q0 116 75.5 195t208.5 79q109 0 173 -66q71 66 175 66q218 0 218 -230v-24h-309q9 -94 54 -140t110 -46q36 0 75.5 15t63.5 34z" />
    <glyph glyph-name="Racute" unicode="&#x154;" horiz-adv-x="704" 
d="M350 909h180l-210 -164h-34zM602 -9q-61 0 -108.5 32.5t-100.5 104.5q-12 16 -25 37t-22 36t-26 46.5t-26 46.5v14q133 37 133 185q0 147 -126 147h-22v-507q0 -87 44 -118v-15h-263v15q44 28 44 118v408q0 89 -44 118v15h278q278 0 278 -184q0 -74 -46 -114t-110 -53
l42 -60q115 -163 202 -230l-4 -15q-45 -27 -98 -27z" />
    <glyph glyph-name="racute" unicode="&#x155;" horiz-adv-x="503" 
d="M269 743h180l-210 -164h-34zM249 408q27 44 68 77.5t86 33.5q41 0 65.5 -26.5t24.5 -61.5q0 -40 -25 -65.5t-63 -25.5q-33 0 -56 24.5t-25 57.5q-35 -3 -75 -43v-246q0 -87 69 -118v-15h-283v15q49 31 49 118v236q0 28 -11 48.5t-22 26.5l-11 7v15l209 63v-121z" />
    <glyph glyph-name="uni0156" unicode="&#x156;" horiz-adv-x="704" 
d="M704 33l-4 -15q-45 -27 -98 -27q-61 0 -108.5 32.5t-100.5 104.5q-12 16 -25 37t-22 36t-26 46.5t-26 46.5v14q133 37 133 185q0 147 -126 147h-22v-507q0 -87 44 -118v-15h-263v15q44 28 44 118v408q0 89 -44 118v15h278q278 0 278 -184q0 -74 -46 -114t-110 -53l42 -60
q115 -163 202 -230zM342 -217h-5q-30 2 -49.5 25t-19.5 55q0 33 23 57.5t59 24.5q38 0 61.5 -27t23.5 -67q0 -58 -40.5 -110t-106.5 -80l-7 13q20 12 40.5 44.5t20.5 64.5z" />
    <glyph glyph-name="uni0157" unicode="&#x157;" horiz-adv-x="503" 
d="M249 529v-121q27 44 68 77.5t86 33.5q41 0 65.5 -26.5t24.5 -61.5q0 -40 -25 -65.5t-63 -25.5q-33 0 -56 24.5t-25 57.5q-35 -3 -75 -43v-246q0 -87 69 -118v-15h-283v15q49 31 49 118v236q0 28 -11 48.5t-22 26.5l-11 7v15zM211 -217h-5q-30 2 -49.5 25t-19.5 55
q0 33 23 57.5t59 24.5q38 0 61.5 -27t23.5 -67q0 -58 -40.5 -110t-106.5 -80l-7 13q20 12 40.5 44.5t20.5 64.5z" />
    <glyph glyph-name="Rcaron" unicode="&#x158;" horiz-adv-x="704" 
d="M350 744h-16l-144 154l10 11l142 -50l142 50l10 -11zM460 323l42 -60q115 -163 202 -230l-4 -15q-45 -27 -98 -27q-61 0 -108.5 32.5t-100.5 104.5q-12 16 -25 37t-22 36t-26 46.5t-26 46.5v14q133 37 133 185q0 147 -126 147h-22v-507q0 -87 44 -118v-15h-263v15
q44 28 44 118v408q0 89 -44 118v15h278q278 0 278 -184q0 -74 -46 -114t-110 -53z" />
    <glyph glyph-name="rcaron" unicode="&#x159;" horiz-adv-x="503" 
d="M259 578h-16l-144 154l10 11l142 -50l142 50l10 -11zM249 529v-121q27 44 68 77.5t86 33.5q41 0 65.5 -26.5t24.5 -61.5q0 -40 -25 -65.5t-63 -25.5q-33 0 -56 24.5t-25 57.5q-35 -3 -75 -43v-246q0 -87 69 -118v-15h-283v15q49 31 49 118v236q0 28 -11 48.5t-22 26.5
l-11 7v15z" />
    <glyph glyph-name="Sacute" unicode="&#x15a;" horiz-adv-x="551" 
d="M277 909h180l-210 -164h-34zM63 218q43 -92 95.5 -142.5t109.5 -50.5q46 0 72 22t26 61q0 30 -18 55t-46.5 43.5t-63.5 37.5t-70 41t-63.5 48t-46.5 64.5t-18 86.5q0 88 67.5 143t166.5 55q118 0 197 -50v-167h-15q-38 100 -89 141.5t-100 41.5q-41 0 -64 -21.5
t-23 -56.5q0 -38 34 -70.5t82.5 -58.5t97.5 -56t83 -77t34 -107q0 -95 -66 -153t-186 -58q-118 0 -211 54v174h15z" />
    <glyph glyph-name="sacute" unicode="&#x15b;" horiz-adv-x="488" 
d="M252 743h180l-210 -164h-34zM230 -11q-86 0 -138 27t-52 69q0 30 18 48.5t47 18.5q27 0 45.5 -18t18.5 -44q0 -27 -16 -41q23 -23 82 -23q43 0 64.5 17.5t21.5 45.5t-28.5 47.5t-69.5 34t-82 33.5t-69.5 57.5t-28.5 94.5q0 73 60.5 117.5t152.5 44.5q81 0 127 -24t46 -65
q0 -30 -18 -48.5t-47 -18.5q-27 0 -45.5 18t-18.5 44q0 27 16 41q-19 19 -67 19q-31 0 -50.5 -15.5t-19.5 -38.5q0 -28 20 -48.5t50 -32t64.5 -27t64.5 -32.5t50 -50.5t20 -78.5q0 -75 -61 -123.5t-157 -48.5z" />
    <glyph glyph-name="Scircumflex" unicode="&#x15c;" horiz-adv-x="551" 
d="M275 794l-142 -50l-10 11l144 154h16l144 -154l-10 -11zM471 465h-15q-38 100 -89 141.5t-100 41.5q-41 0 -64 -21.5t-23 -56.5q0 -38 34 -70.5t82.5 -58.5t97.5 -56t83 -77t34 -107q0 -95 -66 -153t-186 -58q-118 0 -211 54v174h15q43 -92 95.5 -142.5t109.5 -50.5
q46 0 72 22t26 61q0 30 -18 55t-46.5 43.5t-63.5 37.5t-70 41t-63.5 48t-46.5 64.5t-18 86.5q0 88 67.5 143t166.5 55q118 0 197 -50v-167z" />
    <glyph glyph-name="scircumflex" unicode="&#x15d;" horiz-adv-x="488" 
d="M244 628l-142 -50l-10 11l144 154h16l144 -154l-10 -11zM179 430q0 -28 20 -48.5t50 -32t64.5 -27t64.5 -32.5t50 -50.5t20 -78.5q0 -75 -61 -123.5t-157 -48.5q-86 0 -138 27t-52 69q0 30 18 48.5t47 18.5q27 0 45.5 -18t18.5 -44q0 -27 -16 -41q23 -23 82 -23
q43 0 64.5 17.5t21.5 45.5t-28.5 47.5t-69.5 34t-82 33.5t-69.5 57.5t-28.5 94.5q0 73 60.5 117.5t152.5 44.5q81 0 127 -24t46 -65q0 -30 -18 -48.5t-47 -18.5q-27 0 -45.5 18t-18.5 44q0 27 16 41q-19 19 -67 19q-31 0 -50.5 -15.5t-19.5 -38.5z" />
    <glyph glyph-name="uni015E" unicode="&#x15e;" horiz-adv-x="551" 
d="M471 465h-15q-38 100 -89 141.5t-100 41.5q-41 0 -64 -21.5t-23 -56.5q0 -38 34 -70.5t82.5 -58.5t97.5 -56t83 -77t34 -107q0 -83 -51.5 -138.5t-145.5 -68.5l-19 -46q42 -4 66 -26t24 -53q0 -44 -32 -68.5t-81 -24.5q-62 0 -105 27l7 28q23 -13 50 -13q21 0 35 11
t14 30q0 51 -69 58l46 73q-112 3 -202 54v174h15q43 -92 95.5 -142.5t109.5 -50.5q46 0 72 22t26 61q0 30 -18 55t-46.5 43.5t-63.5 37.5t-70 41t-63.5 48t-46.5 64.5t-18 86.5q0 88 67.5 143t166.5 55q118 0 197 -50v-167z" />
    <glyph glyph-name="uni015F" unicode="&#x15f;" horiz-adv-x="488" 
d="M172 -83l46 72q-81 2 -129.5 28.5t-48.5 67.5q0 30 18 48.5t47 18.5q27 0 45.5 -18t18.5 -44q0 -27 -16 -41q23 -23 82 -23q43 0 64.5 17.5t21.5 45.5t-28.5 47.5t-69.5 34t-82 33.5t-69.5 57.5t-28.5 94.5q0 73 60.5 117.5t152.5 44.5q81 0 127 -24t46 -65
q0 -30 -18 -48.5t-47 -18.5q-27 0 -45.5 18t-18.5 44q0 27 16 41q-19 19 -67 19q-31 0 -50.5 -15.5t-19.5 -38.5q0 -28 20 -48.5t50 -32t64.5 -27t64.5 -32.5t50 -50.5t20 -78.5q0 -63 -46 -109t-121 -59l-18 -45q42 -4 66 -26t24 -53q0 -44 -32 -68.5t-81 -24.5
q-62 0 -105 27l7 28q23 -13 50 -13q21 0 35 11t14 30q0 51 -69 58z" />
    <glyph glyph-name="Scaron" unicode="&#x160;" horiz-adv-x="551" 
d="M283 744h-16l-144 154l10 11l142 -50l142 50l10 -11zM471 465h-15q-38 100 -89 141.5t-100 41.5q-41 0 -64 -21.5t-23 -56.5q0 -38 34 -70.5t82.5 -58.5t97.5 -56t83 -77t34 -107q0 -95 -66 -153t-186 -58q-118 0 -211 54v174h15q43 -92 95.5 -142.5t109.5 -50.5
q46 0 72 22t26 61q0 30 -18 55t-46.5 43.5t-63.5 37.5t-70 41t-63.5 48t-46.5 64.5t-18 86.5q0 88 67.5 143t166.5 55q118 0 197 -50v-167z" />
    <glyph glyph-name="scaron" unicode="&#x161;" horiz-adv-x="488" 
d="M252 578h-16l-144 154l10 11l142 -50l142 50l10 -11zM179 430q0 -28 20 -48.5t50 -32t64.5 -27t64.5 -32.5t50 -50.5t20 -78.5q0 -75 -61 -123.5t-157 -48.5q-86 0 -138 27t-52 69q0 30 18 48.5t47 18.5q27 0 45.5 -18t18.5 -44q0 -27 -16 -41q23 -23 82 -23
q43 0 64.5 17.5t21.5 45.5t-28.5 47.5t-69.5 34t-82 33.5t-69.5 57.5t-28.5 94.5q0 73 60.5 117.5t152.5 44.5q81 0 127 -24t46 -65q0 -30 -18 -48.5t-47 -18.5q-27 0 -45.5 18t-18.5 44q0 27 16 41q-19 19 -67 19q-31 0 -50.5 -15.5t-19.5 -38.5z" />
    <glyph glyph-name="uni0162" unicode="&#x162;" horiz-adv-x="632" 
d="M15 674h602v-209h-15q-13 33 -23.5 55.5t-32 54t-53.5 48.5t-71 17h-20v-507q0 -86 44 -118v-15h-100l-21 -52q42 -4 66 -26t24 -53q0 -44 -32 -68.5t-81 -24.5q-62 0 -105 27l7 28q23 -13 50 -13q21 0 35 11t14 30q0 51 -69 58l53 83h-104v15q44 28 44 118v507h-17
q-39 0 -71 -17t-53.5 -48.5t-32 -54t-23.5 -55.5h-15v209z" />
    <glyph glyph-name="uni0163" unicode="&#x163;" horiz-adv-x="393" 
d="M374 88l9 -12q-56 -72 -142 -83l-18 -45q42 -4 66 -26t24 -53q0 -44 -32 -68.5t-81 -24.5q-62 0 -105 27l7 28q23 -13 50 -13q21 0 35 11t14 30q0 51 -69 58l49 77q-97 19 -97 162v312h-63v27q57 21 110.5 69.5t83.5 109.5h34v-157l112 11l-9 -60h-103v-292
q0 -103 64 -103q24 0 61 15z" />
    <glyph glyph-name="Tcaron" unicode="&#x164;" horiz-adv-x="632" 
d="M324 744h-16l-144 154l10 11l142 -50l142 50l10 -11zM15 674h602v-209h-15q-13 33 -23.5 55.5t-32 54t-53.5 48.5t-71 17h-20v-507q0 -86 44 -118v-15h-263v15q44 28 44 118v507h-17q-39 0 -71 -17t-53.5 -48.5t-32 -54t-23.5 -55.5h-15v209z" />
    <glyph glyph-name="tcaron" unicode="&#x165;" horiz-adv-x="431" 
d="M249 468v-292q0 -103 64 -103q24 0 61 15l9 -12q-29 -38 -74 -61.5t-93 -23.5q-69 0 -100.5 41t-31.5 124v312h-63v27q57 21 110.5 69.5t83.5 109.5h34v-157l112 11l-9 -60h-103zM357 649h-5q-29 2 -48 24t-19 53q0 32 22.5 55.5t56.5 23.5q37 0 59.5 -26t22.5 -64
q0 -55 -40 -97t-101 -67l-7 12q59 38 59 86z" />
    <glyph glyph-name="Tbar" unicode="&#x166;" horiz-adv-x="632" 
d="M15 674h602v-209h-15q-13 33 -23.5 55.5t-32 54t-53.5 48.5t-71 17h-20v-276l140 4v-39h-140v-196q0 -86 44 -118v-15h-263v15q44 28 44 118v196h-138v27l138 4v280h-17q-39 0 -71 -17t-53.5 -48.5t-32 -54t-23.5 -55.5h-15v209z" />
    <glyph glyph-name="tbar" unicode="&#x167;" horiz-adv-x="393" 
d="M374 88l9 -12q-29 -38 -74 -61.5t-93 -23.5q-69 0 -100.5 41t-31.5 124v116h-61v26l61 3v167h-63v27q57 21 110.5 69.5t83.5 109.5h34v-157l112 11l-9 -60h-103v-160l111 5v-41h-111v-96q0 -103 64 -103q24 0 61 15z" />
    <glyph glyph-name="Utilde" unicode="&#x168;" horiz-adv-x="734" 
d="M384 -9q-64 0 -111.5 11t-87.5 36.5t-60.5 73.5t-20.5 117v312q0 89 -44 118v15h263v-15q-44 -32 -44 -118v-301q0 -193 159 -193q145 0 142 199l-3 266q-1 106 -90 147v15h227v-15q-78 -35 -83 -147l-11 -274q-5 -118 -59 -182.5t-177 -64.5zM257 755h-16q-3 16 -3 29
q0 48 23.5 82.5t63.5 34.5q36 0 84 -30t72 -30q25 0 38.5 18t16.5 44h16q3 -16 3 -30q0 -50 -21.5 -83t-65.5 -33q-37 0 -84.5 30t-71.5 30q-25 0 -38.5 -18t-16.5 -44z" />
    <glyph glyph-name="utilde" unicode="&#x169;" horiz-adv-x="648" 
d="M399 113v256q0 30 -11 54.5t-22 34.5l-11 10v15l209 46v-377q0 -30 11 -54.5t22 -34.5l11 -10v-15l-209 -46v97q-32 -45 -78.5 -71.5t-93.5 -26.5q-143 0 -143 175v203q0 30 -11 54.5t-22 34.5l-11 10v15l209 46v-352q0 -81 74 -81q35 0 76 17zM184 589h-16q-3 17 -3 29
q0 48 23.5 82.5t63.5 34.5q36 0 84 -30t72 -30q25 0 38.5 18t16.5 44h16q3 -17 3 -30q0 -50 -21.5 -83t-65.5 -33q-37 0 -84.5 30t-71.5 30q-25 0 -38.5 -18t-16.5 -44z" />
    <glyph glyph-name="Umacron" unicode="&#x16a;" horiz-adv-x="734" 
d="M384 -9q-64 0 -111.5 11t-87.5 36.5t-60.5 73.5t-20.5 117v312q0 89 -44 118v15h263v-15q-44 -32 -44 -118v-301q0 -193 159 -193q145 0 142 199l-3 266q-1 106 -90 147v15h227v-15q-78 -35 -83 -147l-11 -274q-5 -118 -59 -182.5t-177 -64.5zM245 800v54h307v-54h-307z
" />
    <glyph glyph-name="umacron" unicode="&#x16b;" horiz-adv-x="648" 
d="M399 113v256q0 30 -11 54.5t-22 34.5l-11 10v15l209 46v-377q0 -30 11 -54.5t22 -34.5l11 -10v-15l-209 -46v97q-32 -45 -78.5 -71.5t-93.5 -26.5q-143 0 -143 175v203q0 30 -11 54.5t-22 34.5l-11 10v15l209 46v-352q0 -81 74 -81q35 0 76 17zM170 634v54h307v-54h-307z
" />
    <glyph glyph-name="Ubreve" unicode="&#x16c;" horiz-adv-x="734" 
d="M384 -9q-64 0 -111.5 11t-87.5 36.5t-60.5 73.5t-20.5 117v312q0 89 -44 118v15h263v-15q-44 -32 -44 -118v-301q0 -193 159 -193q145 0 142 199l-3 266q-1 106 -90 147v15h227v-15q-78 -35 -83 -147l-11 -274q-5 -118 -59 -182.5t-177 -64.5zM545 887q0 -66 -35 -106.5
t-101 -40.5q-67 0 -100 40t-33 107q0 14 1 22h16q9 -38 40.5 -56.5t75.5 -18.5q43 0 75.5 18.5t43.5 56.5h16q1 -8 1 -22z" />
    <glyph glyph-name="ubreve" unicode="&#x16d;" horiz-adv-x="648" 
d="M399 113v256q0 30 -11 54.5t-22 34.5l-11 10v15l209 46v-377q0 -30 11 -54.5t22 -34.5l11 -10v-15l-209 -46v97q-32 -45 -78.5 -71.5t-93.5 -26.5q-143 0 -143 175v203q0 30 -11 54.5t-22 34.5l-11 10v15l209 46v-352q0 -81 74 -81q35 0 76 17zM458 721q0 -66 -35 -106.5
t-101 -40.5q-67 0 -100 40t-33 107q0 14 1 22h16q9 -38 40.5 -56.5t75.5 -18.5q43 0 75.5 18.5t43.5 56.5h16q1 -8 1 -22z" />
    <glyph glyph-name="Uring" unicode="&#x16e;" horiz-adv-x="734" 
d="M485 827q0 -38 -27.5 -65.5t-65.5 -27.5t-65.5 27.5t-27.5 65.5t27.5 65.5t65.5 27.5t65.5 -27.5t27.5 -65.5zM355 827q0 -15 11 -26t26 -11t26 11t11 26t-11 26t-26 11t-26 -11t-11 -26zM384 -9q-64 0 -111.5 11t-87.5 36.5t-60.5 73.5t-20.5 117v312q0 89 -44 118v15
h263v-15q-44 -32 -44 -118v-301q0 -193 159 -193q145 0 142 199l-3 266q-1 106 -90 147v15h227v-15q-78 -35 -83 -147l-11 -274q-5 -118 -59 -182.5t-177 -64.5z" />
    <glyph glyph-name="uring" unicode="&#x16f;" horiz-adv-x="648" 
d="M417 661q0 -38 -27.5 -65.5t-65.5 -27.5t-65.5 27.5t-27.5 65.5t27.5 65.5t65.5 27.5t65.5 -27.5t27.5 -65.5zM287 661q0 -15 11 -26t26 -11t26 11t11 26t-11 26t-26 11t-26 -11t-11 -26zM399 113v256q0 30 -11 54.5t-22 34.5l-11 10v15l209 46v-377q0 -30 11 -54.5
t22 -34.5l11 -10v-15l-209 -46v97q-32 -45 -78.5 -71.5t-93.5 -26.5q-143 0 -143 175v203q0 30 -11 54.5t-22 34.5l-11 10v15l209 46v-352q0 -81 74 -81q35 0 76 17z" />
    <glyph glyph-name="Uhungarumlaut" unicode="&#x170;" horiz-adv-x="734" 
d="M384 -9q-64 0 -111.5 11t-87.5 36.5t-60.5 73.5t-20.5 117v312q0 89 -44 118v15h263v-15q-44 -32 -44 -118v-301q0 -193 159 -193q145 0 142 199l-3 266q-1 106 -90 147v15h227v-15q-78 -35 -83 -147l-11 -274q-5 -118 -59 -182.5t-177 -64.5zM326 909h165l-195 -164h-34
zM526 909h165l-195 -164h-34z" />
    <glyph glyph-name="uhungarumlaut" unicode="&#x171;" horiz-adv-x="648" 
d="M399 113v256q0 30 -11 54.5t-22 34.5l-11 10v15l209 46v-377q0 -30 11 -54.5t22 -34.5l11 -10v-15l-209 -46v97q-32 -45 -78.5 -71.5t-93.5 -26.5q-143 0 -143 175v203q0 30 -11 54.5t-22 34.5l-11 10v15l209 46v-352q0 -81 74 -81q35 0 76 17zM263 743h165l-195 -164
h-34zM463 743h165l-195 -164h-34z" />
    <glyph glyph-name="Uogonek" unicode="&#x172;" horiz-adv-x="734" 
d="M487 674h227v-15q-78 -35 -83 -147l-11 -274q-8 -207 -164 -240q-49 -39 -49 -96q0 -31 19.5 -48.5t50.5 -17.5q39 0 71 18l7 -15q-22 -25 -62 -44t-82 -19q-50 0 -81.5 25t-31.5 70q0 37 27.5 69t67.5 51h-9q-64 0 -111.5 11t-87.5 36.5t-60.5 73.5t-20.5 117v312
q0 89 -44 118v15h263v-15q-44 -32 -44 -118v-301q0 -193 159 -193q145 0 142 199l-3 266q-1 106 -90 147v15z" />
    <glyph glyph-name="uogonek" unicode="&#x173;" horiz-adv-x="648" 
d="M608 38l-170 -37q-52 -40 -52 -99q0 -31 19.5 -48.5t50.5 -17.5q39 0 71 18l7 -15q-22 -25 -62 -44t-82 -19q-50 0 -81.5 25t-31.5 70q0 44 36.5 79.5t85.5 51.5v87q-32 -45 -78.5 -71.5t-93.5 -26.5q-143 0 -143 175v203q0 30 -11 54.5t-22 34.5l-11 10v15l209 46v-352
q0 -81 74 -81q35 0 76 17v256q0 30 -11 54.5t-22 34.5l-11 10v15l209 46v-377q0 -30 11 -54.5t22 -34.5l11 -10v-15z" />
    <glyph glyph-name="Wcircumflex" unicode="&#x174;" horiz-adv-x="1078" 
d="M589 794l-142 -50l-10 11l144 154h16l144 -154l-10 -11zM843 674h225v-15q-77 -39 -143 -213l-175 -457h-22l-172 454l-173 -454h-22l-216 486q-32 74 -61.5 118t-73.5 66v15h332v-15q-63 -48 -3 -182l109 -239l88 259l-4 11q-47 124 -108 151v15h332v-15
q-27 -16 -38.5 -46t-9 -60t13.5 -60l94 -254l68 207q22 60 11 124t-52 89v15z" />
    <glyph glyph-name="wcircumflex" unicode="&#x175;" horiz-adv-x="911" 
d="M496 628l-142 -50l-10 11l144 154h16l144 -154l-10 -11zM706 508h195v-15q-80 -50 -122 -154l-138 -350h-22l-151 347l-142 -347h-22l-163 342q-55 117 -131 162v15h285v-15q-47 -36 -1 -134l84 -184l71 205q-38 82 -91 113v15h285v-15q-31 -21 -33 -68t17 -83l64 -167
l42 132q18 59 10 110t-37 76v15z" />
    <glyph glyph-name="Ycircumflex" unicode="&#x176;" horiz-adv-x="703" 
d="M391 794l-142 -50l-10 11l144 154h16l144 -154l-10 -11zM470 674h223v-15q-47 -16 -92 -62.5t-73 -102.5l-83 -168v-193q0 -86 44 -118v-15h-263v15q44 28 44 118v144l-128 231q-71 128 -132 151v15h333v-15q-29 -17 -35.5 -50t1 -59.5t20.5 -49.5l92 -166l70 157
q21 43 16.5 93.5t-37.5 74.5v15z" />
    <glyph glyph-name="ycircumflex" unicode="&#x177;" horiz-adv-x="611" 
d="M338 628l-142 -50l-10 11l144 154h16l144 -154l-10 -11zM399 508h202v-15q-35 -19 -65 -58.5t-48 -84.5l-130 -325q-2 -6 -11 -34.5t-12.5 -38t-13 -36.5t-15.5 -38.5t-17.5 -34t-21 -33t-23.5 -26t-28 -22.5t-32 -12.5t-37 -5.5q-64 0 -101 55l-3 15q74 11 142 52
t109 116l-159 338q-67 141 -125 173v15h295v-15q-27 -20 -28.5 -58.5t10 -71t32.5 -77.5l57 -138l49 145q13 36 16.5 72.5t-6.5 72.5t-36 55v15z" />
    <glyph glyph-name="Ydieresis" unicode="&#x178;" horiz-adv-x="703" 
d="M512 754q-30 0 -51.5 21.5t-21.5 51.5t21.5 51.5t51.5 21.5q29 0 50.5 -21.5t21.5 -51.5t-21.5 -51.5t-50.5 -21.5zM289 754q-30 0 -51.5 21.5t-21.5 51.5t21.5 51.5t51.5 21.5q29 0 50.5 -21.5t21.5 -51.5t-21.5 -51.5t-50.5 -21.5zM470 674h223v-15q-47 -16 -92 -62.5
t-73 -102.5l-83 -168v-193q0 -86 44 -118v-15h-263v15q44 28 44 118v144l-128 231q-71 128 -132 151v15h333v-15q-29 -17 -35.5 -50t1 -59.5t20.5 -49.5l92 -166l70 157q21 43 16.5 93.5t-37.5 74.5v15z" />
    <glyph glyph-name="Zacute" unicode="&#x179;" horiz-adv-x="638" 
d="M517 909l-210 -164h-34l64 164h180zM598 674v-15l-354 -635l118 10q68 6 124.5 57t88.5 129h15v-220h-550v15l355 635l-116 -10q-68 -6 -123 -56.5t-87 -128.5h-15v219h544z" />
    <glyph glyph-name="zacute" unicode="&#x17a;" horiz-adv-x="516" 
d="M456 743l-210 -164h-34l64 164h180zM486 508v-24l-268 -455l49 5q89 10 130 46t70 110h15v-190h-452v24l267 456l-37 -4q-88 -8 -129.5 -45t-70.5 -113h-15v190h441z" />
    <glyph glyph-name="Zdotaccent" unicode="&#x17b;" horiz-adv-x="638" 
d="M319 749q-32 0 -55 23t-23 55t23 55t55 23t55 -23t23 -55t-23 -55t-55 -23zM598 674v-15l-354 -635l118 10q68 6 124.5 57t88.5 129h15v-220h-550v15l355 635l-116 -10q-68 -6 -123 -56.5t-87 -128.5h-15v219h544z" />
    <glyph glyph-name="zdotaccent" unicode="&#x17c;" horiz-adv-x="516" 
d="M258 583q-32 0 -55 23t-23 55t23 55t55 23t55 -23t23 -55t-23 -55t-55 -23zM486 508v-24l-268 -455l49 5q89 10 130 46t70 110h15v-190h-452v24l267 456l-37 -4q-88 -8 -129.5 -45t-70.5 -113h-15v190h441z" />
    <glyph glyph-name="Zcaron" unicode="&#x17d;" horiz-adv-x="638" 
d="M337 744h-16l-144 154l10 11l142 -50l142 50l10 -11zM598 674v-15l-354 -635l118 10q68 6 124.5 57t88.5 129h15v-220h-550v15l355 635l-116 -10q-68 -6 -123 -56.5t-87 -128.5h-15v219h544z" />
    <glyph glyph-name="zcaron" unicode="&#x17e;" horiz-adv-x="516" 
d="M276 578h-16l-144 154l10 11l142 -50l142 50l10 -11zM486 508v-24l-268 -455l49 5q89 10 130 46t70 110h15v-190h-452v24l267 456l-37 -4q-88 -8 -129.5 -45t-70.5 -113h-15v190h441z" />
    <glyph glyph-name="florin" unicode="&#x192;" horiz-adv-x="567" 
d="M152 376l24 146q18 115 81.5 174.5t166.5 59.5q80 0 126.5 -33.5t46.5 -87.5q0 -32 -22 -55.5t-56 -23.5t-56.5 21t-22.5 51q0 46 38 66q-10 28 -42 28q-22 0 -37 -12.5t-26 -43t-17 -60.5t-15 -86l-21 -130l115 10l-12 -59h-111l-43 -267q-46 -284 -278 -285
q-24 0 -37 1l-4 15q119 54 154 271l43 265h-85v27z" />
    <glyph glyph-name="uni0218" unicode="&#x218;" horiz-adv-x="551" 
d="M48 218h15q43 -92 95.5 -142.5t109.5 -50.5q46 0 72 22t26 61q0 30 -18 55t-46.5 43.5t-63.5 37.5t-70 41t-63.5 48t-46.5 64.5t-18 86.5q0 88 67.5 143t166.5 55q118 0 197 -50v-167h-15q-38 100 -89 141.5t-100 41.5q-41 0 -64 -21.5t-23 -56.5q0 -38 34 -70.5
t82.5 -58.5t97.5 -56t83 -77t34 -107q0 -95 -66 -153t-186 -58q-118 0 -211 54v174zM275 -217h-5q-30 2 -49.5 25t-19.5 55q0 33 23 57.5t59 24.5q38 0 61.5 -27t23.5 -67q0 -58 -40.5 -110t-106.5 -80l-7 13q20 12 40.5 44.5t20.5 64.5z" />
    <glyph glyph-name="uni0219" unicode="&#x219;" horiz-adv-x="488" 
d="M230 -11q-86 0 -138 27t-52 69q0 30 18 48.5t47 18.5q27 0 45.5 -18t18.5 -44q0 -27 -16 -41q23 -23 82 -23q43 0 64.5 17.5t21.5 45.5t-28.5 47.5t-69.5 34t-82 33.5t-69.5 57.5t-28.5 94.5q0 73 60.5 117.5t152.5 44.5q81 0 127 -24t46 -65q0 -30 -18 -48.5t-47 -18.5
q-27 0 -45.5 18t-18.5 44q0 27 16 41q-19 19 -67 19q-31 0 -50.5 -15.5t-19.5 -38.5q0 -28 20 -48.5t50 -32t64.5 -27t64.5 -32.5t50 -50.5t20 -78.5q0 -75 -61 -123.5t-157 -48.5zM234 -217h-5q-30 2 -49.5 25t-19.5 55q0 33 23 57.5t59 24.5q38 0 61.5 -27t23.5 -67
q0 -58 -40.5 -110t-106.5 -80l-7 13q20 12 40.5 44.5t20.5 64.5z" />
    <glyph glyph-name="uni021A" unicode="&#x21a;" horiz-adv-x="632" 
d="M306 -217h-5q-30 2 -49.5 25t-19.5 55q0 33 23 57.5t59 24.5q38 0 61.5 -27t23.5 -67q0 -58 -40.5 -110t-106.5 -80l-7 13q20 12 40.5 44.5t20.5 64.5zM15 674h602v-209h-15q-13 33 -23.5 55.5t-32 54t-53.5 48.5t-71 17h-20v-507q0 -86 44 -118v-15h-263v15
q44 28 44 118v507h-17q-39 0 -71 -17t-53.5 -48.5t-32 -54t-23.5 -55.5h-15v209z" />
    <glyph glyph-name="uni021B" unicode="&#x21b;" horiz-adv-x="393" 
d="M186 -217h-5q-30 2 -49.5 25t-19.5 55q0 33 23 57.5t59 24.5q38 0 61.5 -27t23.5 -67q0 -58 -40.5 -110t-106.5 -80l-7 13q20 12 40.5 44.5t20.5 64.5zM374 88l9 -12q-29 -38 -74 -61.5t-93 -23.5q-69 0 -100.5 41t-31.5 124v312h-63v27q57 21 110.5 69.5t83.5 109.5h34
v-157l112 11l-9 -60h-103v-292q0 -103 64 -103q24 0 61 15z" />
    <glyph glyph-name="uni0237" unicode="&#x237;" horiz-adv-x="326" 
d="M91 41v317q0 28 -11 48.5t-22 27.5l-11 6v15l209 63v-452q0 -74 -11.5 -126.5t-41 -95t-84 -65.5t-135.5 -29l-4 15q111 86 111 276z" />
    <glyph glyph-name="circumflex" unicode="&#x2c6;" horiz-adv-x="600" 
d="M452 589l-10 -11l-142 50l-142 -50l-10 11l144 154h16z" />
    <glyph glyph-name="caron" unicode="&#x2c7;" horiz-adv-x="600" 
d="M442 743l10 -11l-144 -154h-16l-144 154l10 11l142 -50z" />
    <glyph glyph-name="uni02C9" unicode="&#x2c9;" horiz-adv-x="600" 
d="M146 634v54h307v-54h-307z" />
    <glyph glyph-name="breve" unicode="&#x2d8;" horiz-adv-x="600" 
d="M434 721q0 -66 -35 -106.5t-101 -40.5q-67 0 -100 40t-33 107q0 14 1 22h16q9 -38 40.5 -56.5t75.5 -18.5q43 0 75.5 18.5t43.5 56.5h16q1 -8 1 -22z" />
    <glyph glyph-name="dotaccent" unicode="&#x2d9;" horiz-adv-x="600" 
d="M378 661q0 -32 -23 -55t-55 -23t-55 23t-23 55t23 55t55 23t55 -23t23 -55z" />
    <glyph glyph-name="ring" unicode="&#x2da;" horiz-adv-x="600" 
d="M393 661q0 -38 -27.5 -65.5t-65.5 -27.5t-65.5 27.5t-27.5 65.5t27.5 65.5t65.5 27.5t65.5 -27.5t27.5 -65.5zM263 661q0 -15 11 -26t26 -11t26 11t11 26t-11 26t-26 11t-26 -11t-11 -26z" />
    <glyph glyph-name="ogonek" unicode="&#x2db;" horiz-adv-x="600" 
d="M421 -146l7 -15q-22 -25 -62 -44t-82 -19q-50 0 -81.5 25t-31.5 70q0 44 37 80t86 51h40q-54 -40 -54 -100q0 -31 19.5 -48.5t50.5 -17.5q39 0 71 18z" />
    <glyph glyph-name="tilde" unicode="&#x2dc;" horiz-adv-x="600" 
d="M160 589h-16q-3 17 -3 29q0 48 23.5 82.5t63.5 34.5q36 0 84 -30t72 -30q25 0 38.5 18t16.5 44h16q3 -17 3 -30q0 -50 -21.5 -83t-65.5 -33q-37 0 -84.5 30t-71.5 30q-25 0 -38.5 -18t-16.5 -44z" />
    <glyph glyph-name="hungarumlaut" unicode="&#x2dd;" horiz-adv-x="600" 
d="M239 743h165l-195 -164h-34zM439 743h165l-195 -164h-34z" />
    <glyph glyph-name="uni0326" unicode="&#x326;" horiz-adv-x="600" 
d="M290 -217h-5q-30 2 -49.5 25t-19.5 55q0 33 23 57.5t59 24.5q38 0 61.5 -27t23.5 -67q0 -58 -40.5 -110t-106.5 -80l-7 13q20 12 40.5 44.5t20.5 64.5z" />
    <glyph glyph-name="pi" unicode="&#x3c0;" horiz-adv-x="728" 
d="M686 90l12 -9q-43 -91 -140 -91q-111 0 -111 137v280h-125v-275q0 -142 -100 -142q-33 0 -55.5 18t-22.5 51q0 24 11.5 55t25.5 61t25.5 90t11.5 136v5q-106 -6 -175 -69l-13 7q22 84 71.5 124t153.5 40h425v-101h-114v-248q0 -50 13.5 -72.5t48.5 -22.5t58 26z" />
    <glyph glyph-name="Wgrave" unicode="&#x1e80;" horiz-adv-x="1078" 
d="M816 239l68 207q22 60 11 124t-52 89v15h225v-15q-77 -39 -143 -213l-175 -457h-22l-172 454l-173 -454h-22l-216 486q-32 74 -61.5 118t-73.5 66v15h332v-15q-63 -48 -3 -182l109 -239l88 259l-4 11q-47 124 -108 151v15h332v-15q-27 -16 -38.5 -46t-9 -60t13.5 -60z
M407 909h180l64 -164h-34z" />
    <glyph glyph-name="wgrave" unicode="&#x1e81;" horiz-adv-x="911" 
d="M558 579h-34l-210 164h180zM706 508h195v-15q-80 -50 -122 -154l-138 -350h-22l-151 347l-142 -347h-22l-163 342q-55 117 -131 162v15h285v-15q-47 -36 -1 -134l84 -184l71 205q-38 82 -91 113v15h285v-15q-31 -21 -33 -68t17 -83l64 -167l42 132q18 59 10 110t-37 76
v15z" />
    <glyph glyph-name="Wacute" unicode="&#x1e82;" horiz-adv-x="1078" 
d="M587 909h180l-210 -164h-34zM816 239l68 207q22 60 11 124t-52 89v15h225v-15q-77 -39 -143 -213l-175 -457h-22l-172 454l-173 -454h-22l-216 486q-32 74 -61.5 118t-73.5 66v15h332v-15q-63 -48 -3 -182l109 -239l88 259l-4 11q-47 124 -108 151v15h332v-15
q-27 -16 -38.5 -46t-9 -60t13.5 -60z" />
    <glyph glyph-name="wacute" unicode="&#x1e83;" horiz-adv-x="911" 
d="M664 743l-210 -164h-34l64 164h180zM706 508h195v-15q-80 -50 -122 -154l-138 -350h-22l-151 347l-142 -347h-22l-163 342q-55 117 -131 162v15h285v-15q-47 -36 -1 -134l84 -184l71 205q-38 82 -91 113v15h285v-15q-31 -21 -33 -68t17 -83l64 -167l42 132q18 59 10 110
t-37 76v15z" />
    <glyph glyph-name="Wdieresis" unicode="&#x1e84;" horiz-adv-x="1078" 
d="M765 827q0 -30 -21.5 -51.5t-50.5 -21.5q-30 0 -51.5 21.5t-21.5 51.5t21.5 51.5t51.5 21.5q29 0 50.5 -21.5t21.5 -51.5zM542 827q0 -30 -21.5 -51.5t-50.5 -21.5q-30 0 -51.5 21.5t-21.5 51.5t21.5 51.5t51.5 21.5q29 0 50.5 -21.5t21.5 -51.5zM816 239l68 207
q22 60 11 124t-52 89v15h225v-15q-77 -39 -143 -213l-175 -457h-22l-172 454l-173 -454h-22l-216 486q-32 74 -61.5 118t-73.5 66v15h332v-15q-63 -48 -3 -182l109 -239l88 259l-4 11q-47 124 -108 151v15h332v-15q-27 -16 -38.5 -46t-9 -60t13.5 -60z" />
    <glyph glyph-name="wdieresis" unicode="&#x1e85;" horiz-adv-x="911" 
d="M608 588q-30 0 -51.5 21.5t-21.5 51.5t21.5 51.5t51.5 21.5q29 0 50.5 -21.5t21.5 -51.5t-21.5 -51.5t-50.5 -21.5zM385 588q-30 0 -51.5 21.5t-21.5 51.5t21.5 51.5t51.5 21.5q29 0 50.5 -21.5t21.5 -51.5t-21.5 -51.5t-50.5 -21.5zM706 508h195v-15q-80 -50 -122 -154
l-138 -350h-22l-151 347l-142 -347h-22l-163 342q-55 117 -131 162v15h285v-15q-47 -36 -1 -134l84 -184l71 205q-38 82 -91 113v15h285v-15q-31 -21 -33 -68t17 -83l64 -167l42 132q18 59 10 110t-37 76v15z" />
    <glyph glyph-name="Ygrave" unicode="&#x1ef2;" horiz-adv-x="703" 
d="M434 745h-34l-210 164h180zM470 674h223v-15q-47 -16 -92 -62.5t-73 -102.5l-83 -168v-193q0 -86 44 -118v-15h-263v15q44 28 44 118v144l-128 231q-71 128 -132 151v15h333v-15q-29 -17 -35.5 -50t1 -59.5t20.5 -49.5l92 -166l70 157q21 43 16.5 93.5t-37.5 74.5v15z
" />
    <glyph glyph-name="ygrave" unicode="&#x1ef3;" horiz-adv-x="611" 
d="M294 -18l-159 338q-67 141 -125 173v15h295v-15q-27 -20 -28.5 -58.5t10 -71t32.5 -77.5l57 -138l49 145q13 36 16.5 72.5t-6.5 72.5t-36 55v15h202v-15q-35 -19 -65 -58.5t-48 -84.5l-130 -325q-2 -6 -11 -34.5t-12.5 -38t-13 -36.5t-15.5 -38.5t-17.5 -34t-21 -33
t-23.5 -26t-28 -22.5t-32 -12.5t-37 -5.5q-64 0 -101 55l-3 15q74 11 142 52t109 116zM134 743h180l64 -164h-34z" />
    <glyph glyph-name="endash" unicode="&#x2013;" horiz-adv-x="480" 
d="M50 248v54h380v-54h-380z" />
    <glyph glyph-name="emdash" unicode="&#x2014;" horiz-adv-x="980" 
d="M50 248v54h880v-54h-880z" />
    <glyph glyph-name="quoteleft" unicode="&#x2018;" horiz-adv-x="267" 
d="M141 393q-46 0 -73.5 31.5t-27.5 79.5q0 68 48 129t126 94l8 -15q-24 -16 -48 -54t-24 -74q5 0 7 -1q35 -4 57.5 -30t22.5 -64q0 -39 -27 -67.5t-69 -28.5z" />
    <glyph glyph-name="quoteright" unicode="&#x2019;" horiz-adv-x="267" 
d="M126 707q46 0 73.5 -31.5t27.5 -79.5q0 -68 -48 -129t-126 -94l-8 15q24 16 48 54t24 74q-5 0 -7 1q-35 4 -57.5 30t-22.5 64q0 39 27 67.5t69 28.5z" />
    <glyph glyph-name="quotesinglbase" unicode="&#x201a;" horiz-adv-x="267" 
d="M126 204q46 0 73.5 -31.5t27.5 -79.5q0 -68 -48 -129t-126 -94l-8 15q24 16 48 54t24 74q-5 0 -7 1q-35 4 -57.5 30t-22.5 64q0 39 27 67.5t69 28.5z" />
    <glyph glyph-name="quotedblleft" unicode="&#x201c;" horiz-adv-x="500" 
d="M374 393q-46 0 -73.5 31.5t-27.5 79.5q0 68 48 129t126 94l8 -15q-24 -16 -48 -54t-24 -74q6 0 9 -1q34 -5 56 -30.5t22 -63.5q0 -39 -27 -67.5t-69 -28.5zM141 393q-46 0 -73.5 31.5t-27.5 79.5q0 68 48 129t126 94l8 -15q-24 -16 -48 -54t-24 -74q5 0 8 -1
q34 -4 56.5 -30t22.5 -64q0 -39 -27 -67.5t-69 -28.5z" />
    <glyph glyph-name="quotedblright" unicode="&#x201d;" horiz-adv-x="500" 
d="M126 707q46 0 73.5 -31.5t27.5 -79.5q0 -68 -48 -129t-126 -94l-8 15q24 16 48 54t24 74q-7 0 -10 1q-34 5 -55.5 31t-21.5 63q0 39 27 67.5t69 28.5zM359 707q46 0 73.5 -31.5t27.5 -79.5q0 -68 -48 -129t-126 -94l-8 15q24 16 48 54t24 74q-2 0 -6 0.5t-6 0.5
q-33 5 -54 31t-21 63q0 39 27 67.5t69 28.5z" />
    <glyph glyph-name="quotedblbase" unicode="&#x201e;" horiz-adv-x="500" 
d="M126 205q46 0 73.5 -31.5t27.5 -79.5q0 -68 -48 -129t-126 -94l-8 15q24 16 48 54t24 74q-7 0 -10 1q-34 5 -55.5 31t-21.5 63q0 39 27 67.5t69 28.5zM359 205q46 0 73.5 -31.5t27.5 -79.5q0 -68 -48 -129t-126 -94l-8 15q24 16 48 54t24 74q-2 0 -6 0.5t-6 0.5
q-33 5 -54 31t-21 63q0 39 27 67.5t69 28.5z" />
    <glyph glyph-name="dagger" unicode="&#x2020;" horiz-adv-x="504" 
d="M259 -172h-15q0 108 -26 218.5t-52 167.5l-25 56q53 29 77 69t26 97q-43 -13 -82 -35.5t-61 -22.5q-29 0 -50 18t-21 52q0 33 21.5 51.5t49.5 18.5q19 0 34.5 -8t43 -24t60.5 -28q-12 36 -28 66.5t-23.5 48.5t-7.5 41q0 28 18.5 49.5t51.5 21.5q34 0 52 -21t18 -50
q0 -27 -22.5 -70.5t-34.5 -86.5q39 14 78 37.5t62 23.5q28 0 49.5 -18.5t21.5 -51.5q0 -34 -21 -52t-50 -18q-22 0 -61 22.5t-83 35.5q5 -120 103 -166q-4 -8 -11 -23t-25 -62.5t-31.5 -96.5t-24.5 -120.5t-11 -139.5z" />
    <glyph glyph-name="daggerdbl" unicode="&#x2021;" horiz-adv-x="504" 
d="M352 284q-47 -33 -68.5 -68t-24.5 -84q44 13 83 35.5t61 22.5q29 0 50 -18t21 -52q0 -33 -21.5 -51.5t-49.5 -18.5q-19 0 -34.5 8t-43.5 24t-63 29q13 -43 35.5 -86.5t22.5 -70.5q0 -29 -18 -50t-52 -21q-33 0 -51.5 21.5t-18.5 49.5q0 23 7.5 41t23.5 48.5t28 66.5
q-33 -12 -60.5 -28t-43 -24t-34.5 -8q-28 0 -49.5 18.5t-21.5 51.5q0 34 21 52t50 18q22 0 60.5 -22.5t81.5 -35.5q-3 50 -24 84.5t-68 67.5q46 30 67.5 64.5t24.5 86.5q-43 -13 -81.5 -35t-60.5 -22q-29 0 -50 18t-21 52q0 33 21.5 51.5t49.5 18.5q19 0 34.5 -8t43 -24
t60.5 -28q-12 36 -28 66.5t-23.5 48.5t-7.5 41q0 28 18.5 49.5t51.5 21.5q34 0 52 -21t18 -50q0 -28 -23 -71t-35 -86q40 14 79 37.5t62 23.5q28 0 49.5 -18.5t21.5 -51.5q0 -34 -21 -52t-50 -18q-22 0 -61.5 22.5t-82.5 35.5q3 -53 24.5 -87.5t68.5 -64.5z" />
    <glyph glyph-name="bullet" unicode="&#x2022;" horiz-adv-x="290" 
d="M40 314q0 44 31 74.5t74 30.5t74 -30.5t31 -74.5t-31 -74.5t-74 -30.5t-74 30.5t-31 74.5z" />
    <glyph glyph-name="ellipsis" unicode="&#x2026;" horiz-adv-x="813" 
d="M30 88q0 40 28 68.5t68 28.5t68.5 -28.5t28.5 -68.5t-28.5 -68t-68.5 -28t-68 28t-28 68zM310 88q0 40 28 68.5t68 28.5t68.5 -28.5t28.5 -68.5t-28.5 -68t-68.5 -28t-68 28t-28 68zM590 88q0 40 28 68.5t68 28.5t68.5 -28.5t28.5 -68.5t-28.5 -68t-68.5 -28t-68 28
t-28 68z" />
    <glyph glyph-name="perthousand" unicode="&#x2030;" horiz-adv-x="1206" 
d="M186 0l380 667h70l-381 -667h-69zM40 499q0 79 43 129t114 50q77 0 118.5 -49.5t41.5 -128.5q0 -76 -42 -124t-118 -48q-73 0 -115 44.5t-42 126.5zM155 499q0 -144 42 -144q27 0 35 34t8 111q0 154 -43 154q-26 0 -34 -35.5t-8 -119.5zM470 162q0 79 43 129t114 50
q77 0 118.5 -49.5t41.5 -128.5q0 -76 -42 -124t-118 -48q-73 0 -115 44.5t-42 126.5zM585 162q0 -144 42 -144q27 0 35 34t8 111q0 154 -43 154q-26 0 -34 -35.5t-8 -119.5zM849 162q0 79 43 129t114 50q77 0 118.5 -49.5t41.5 -128.5q0 -76 -42 -124t-118 -48
q-73 0 -115 44.5t-42 126.5zM964 162q0 -144 42 -144q27 0 35 34t8 111q0 154 -43 154q-26 0 -34 -35.5t-8 -119.5z" />
    <glyph glyph-name="guilsinglleft" unicode="&#x2039;" horiz-adv-x="309" 
d="M40 263q120 69 215 182l14 -12l-84 -180l84 -180l-14 -12q-95 113 -215 182v20z" />
    <glyph glyph-name="guilsinglright" unicode="&#x203a;" horiz-adv-x="309" 
d="M124 253l-84 180l14 12q95 -113 215 -182v-20q-120 -69 -215 -182l-14 12z" />
    <glyph glyph-name="fraction" unicode="&#x2044;" horiz-adv-x="473" 
d="M52 0l297 656h68l-295 -656h-70z" />
    <glyph glyph-name="Euro" unicode="&#x20ac;" horiz-adv-x="663" 
d="M608 233h15v-194q-37 -23 -96.5 -37t-119.5 -14q-132 0 -220.5 67.5t-112.5 186.5l-54 1v31l48 1q-3 25 -3 54t3 55l-48 1v31l54 1q25 119 113.5 188t219.5 69q113 0 212 -51v-194h-15q-29 96 -76 153.5t-107 57.5q-62 0 -104 -55.5t-54 -164.5l184 3v-44l-188 3
q-2 -34 -2 -53t2 -51l188 3v-44l-184 3q14 -109 59.5 -163.5t112.5 -54.5q65 0 104 53t69 158z" />
    <glyph glyph-name="uni20B9" unicode="&#x20b9;" horiz-adv-x="607" 
d="M562 674v-34h-218q110 -41 110 -146h108v-34h-111q-12 -74 -71.5 -111t-137.5 -37q117 -167 240 -279l-4 -15q-45 -27 -98 -27q-78 0 -146 71t-172 242v14q43 8 81.5 23.5t73 47t44.5 71.5h-199v34h203q0 67 -32.5 106.5t-97.5 39.5h-73v34h500z" />
    <glyph glyph-name="uni2113" unicode="&#x2113;" horiz-adv-x="514" 
d="M273 497v-191q75 78 75 193q0 74 -36 74q-39 0 -39 -76zM443 117l11 -11q-24 -51 -70 -83t-114 -32q-76 0 -118.5 47t-43.5 135q-40 -11 -74 -17l-4 23q48 14 78 25v242q0 107 43 175t136 68q71 0 110 -47t39 -120q0 -74 -42 -146t-121 -127v-53q0 -54 22.5 -81.5
t60.5 -27.5q42 0 87 30z" />
    <glyph glyph-name="trademark" unicode="&#x2122;" horiz-adv-x="830" 
d="M50 560v124h284v-124h-11q-5 41 -24 70t-52 29h-4v-232q0 -42 29 -53v-9h-153v9q27 10 27 53v232h-5q-33 0 -54.5 -29.5t-26.5 -69.5h-10zM780 684v-9q-28 -10 -28 -54v-193q0 -42 28 -54v-9h-152v9q26 11 26 54v174l-94 -232h-25q-86 183 -117 244l10 -163q4 -62 42 -77
v-9h-120v9q38 14 42 77l6 87q7 105 -35 137v9h132l91 -202l68 202h126z" />
    <glyph glyph-name="uni2126" unicode="&#x2126;" horiz-adv-x="770" 
d="M360 36v-36h-278v133h15q30 -29 66 -45.5t116 -28.5q-239 156 -239 323q0 132 98 217.5t247 85.5q157 0 251 -88.5t94 -215.5q0 -83 -63 -166.5t-172 -154.5q76 12 111 28t65 45h15v-133h-276v36q62 37 95 130t33 217q0 116 -41.5 192t-111.5 76q-55 0 -91 -44
t-49 -103.5t-13 -130.5q0 -116 37.5 -209.5t90.5 -127.5z" />
    <glyph glyph-name="estimated" unicode="&#x212e;" horiz-adv-x="833" 
d="M240 349h295v185q-59 50 -149 50q-85 0 -146 -50v-185zM685 308h-445v-227q65 -50 147 -50q147 0 226 137l35 -22q-46 -77 -108 -116.5t-153 -39.5q-136 0 -216.5 91t-80.5 227q0 139 82 228t215 89q140 0 219 -91t79 -226z" />
    <glyph glyph-name="partialdiff" unicode="&#x2202;" horiz-adv-x="648" 
d="M598 401q0 -75 -23.5 -148t-66 -133t-110 -97t-148.5 -37q-96 0 -148 51t-52 137q0 117 73.5 187.5t178.5 70.5q54 0 94.5 -17.5t59.5 -48.5q5 25 5 43q0 67 -34.5 116.5t-103.5 49.5q-81 0 -145 -82l-15 11q24 68 80.5 115t128.5 47q102 0 164 -76.5t62 -188.5zM416 272
q0 111 -66 111q-57 0 -91 -78t-34 -168q0 -108 66 -108q52 0 88.5 78.5t36.5 164.5z" />
    <glyph glyph-name="uni2206" unicode="&#x2206;" horiz-adv-x="646" 
d="M616 0h-586v24l298 632h27l261 -632v-24zM424 50l-151 385l-180 -385h331z" />
    <glyph glyph-name="product" unicode="&#x220f;" horiz-adv-x="775" 
d="M719 656v-15q-44 -31 -44 -118v-521q0 -86 44 -118v-15h-263v15q44 29 44 118v620h-225v-620q0 -86 44 -118v-15h-263v15q44 29 44 118v521q0 89 -44 118v15h663z" />
    <glyph glyph-name="summation" unicode="&#x2211;" horiz-adv-x="648" 
d="M613 83h15v-203h-600v16l281 359l-284 434v15h594v-219h-15q-28 64 -94.5 115t-155.5 60l-118 12l217 -331v-15l-311 -348l318 27q16 1 31 4.5t25.5 6t22.5 9t18 9.5t16.5 12t13.5 11.5t13.5 13z" />
    <glyph glyph-name="minus" unicode="&#x2212;" horiz-adv-x="599" 
d="M50 311v57h499v-57h-499z" />
    <glyph glyph-name="uni2215" unicode="&#x2215;" horiz-adv-x="453" 
d="M10 -100l364 806h69l-363 -806h-70z" />
    <glyph glyph-name="uni2219" unicode="&#x2219;" horiz-adv-x="390" 
d="M50 254q0 60 42.5 102.5t102.5 42.5t102.5 -42.5t42.5 -102.5t-42.5 -102.5t-102.5 -42.5t-102.5 42.5t-42.5 102.5z" />
    <glyph glyph-name="radical" unicode="&#x221a;" horiz-adv-x="729" 
d="M348 -131l-180 386q-36 76 -93 96l-65 22v15h274l130 -297l243 692h62l-349 -914h-22z" />
    <glyph glyph-name="infinity" unicode="&#x221e;" horiz-adv-x="761" 
d="M614 228q35 0 53.5 22t18.5 55q0 47 -36.5 78t-92.5 31q-65 0 -115 -26q25 -43 37.5 -62t35.5 -47t46.5 -39.5t52.5 -11.5zM204 246q61 0 109 25q-21 37 -34.5 58t-34.5 45.5t-44.5 36t-51.5 11.5q-31 0 -52 -22t-21 -55q0 -45 37 -72t92 -27zM572 559q71 0 110 -57
t39 -156q0 -47 -11.5 -90t-34.5 -81t-65.5 -61t-97.5 -23q-58 0 -98 38t-82 109q-14 -58 -50.5 -97.5t-92.5 -39.5q-65 0 -107 58t-42 155q0 62 18 117.5t62 96.5t108 41q65 0 109 -39.5t87 -111.5q14 58 52.5 99.5t95.5 41.5z" />
    <glyph glyph-name="integral" unicode="&#x222b;" horiz-adv-x="611" 
d="M154 -105q13 0 22.5 3.5t17 12.5t12.5 18t8 26t5 30t3 36t1 38.5v42.5v446q0 243 198 243q83 0 126.5 -28t43.5 -76q0 -31 -18.5 -50t-47.5 -19q-26 0 -45.5 17.5t-19.5 47.5q0 45 38 56q-11 18 -41 18q-13 0 -22.5 -3.5t-17 -12.5t-12.5 -18t-8 -26t-5 -30t-3 -36
t-1 -38.5v-42.5v-446q0 -243 -198 -243q-83 0 -126.5 28t-43.5 76q0 31 18.5 50t47.5 19q26 0 45.5 -17.5t19.5 -47.5q0 -45 -38 -56q11 -18 41 -18z" />
    <glyph glyph-name="approxequal" unicode="&#x2248;" horiz-adv-x="629" 
d="M30 353q0 71 41 124t121 53q38 0 74.5 -14.5t61.5 -32t61.5 -32t73.5 -14.5q46 0 73.5 21t45.5 64h15q2 -22 2 -34q0 -76 -45 -124.5t-129 -48.5q-46 0 -91.5 22.5t-89.5 45t-85 22.5q-40 0 -71.5 -22t-41.5 -54h-15q-1 8 -1 24zM30 122q0 71 41 124t121 53
q38 0 74.5 -14.5t61.5 -32t61.5 -32t73.5 -14.5q46 0 73.5 21t45.5 64h15q2 -22 2 -34q0 -76 -45 -124.5t-129 -48.5q-46 0 -91.5 22.5t-89.5 45t-85 22.5q-40 0 -71.5 -22t-41.5 -54h-15q-1 8 -1 24z" />
    <glyph glyph-name="notequal" unicode="&#x2260;" horiz-adv-x="599" 
d="M549 423h-188l-72 -163h260v-57h-285l-76 -172h-70l76 172h-144v57h169l73 163h-242v57h267l74 167h69l-74 -167h163v-57z" />
    <glyph glyph-name="lessequal" unicode="&#x2264;" horiz-adv-x="604" 
d="M69 62v57h464v-57h-464zM74 335v54l459 160v-64l-383 -123l384 -124v-63z" />
    <glyph glyph-name="greaterequal" unicode="&#x2265;" horiz-adv-x="604" 
d="M535 119v-57h-464v57h464zM530 389v-54l-460 -160v63l384 124l-383 123v64z" />
    <glyph glyph-name="lozenge" unicode="&#x25ca;" horiz-adv-x="527" 
d="M240 704h44l203 -362l-204 -371h-43l-200 372zM426 342l-165 293l-159 -293l160 -302z" />
    <glyph glyph-name="itfLogo" horiz-adv-x="1648" 
d="M147 0v634h196v-634h-196zM383 449v185h196v-185h-196zM619 0v634h196v-634h-196zM855 449v185h196v-185h-196zM1091 0v634h196v-634h-196zM1327 449v185h196v-185h-196zM1327 224v185h196v-185h-196z" />
    <glyph glyph-name="caron.alt" horiz-adv-x="600" 
d="M291 649h-5q-29 2 -48 24t-19 53q0 32 22.5 55.5t56.5 23.5q37 0 59.5 -26t22.5 -64q0 -55 -40 -97t-101 -67l-7 12q59 38 59 86z" />
    <glyph glyph-name="commaaccent.alt" horiz-adv-x="600" 
d="M310 745h5q30 -2 49.5 -25t19.5 -55q0 -33 -23 -57.5t-59 -24.5q-38 0 -61.5 27t-23.5 67q0 58 40.5 110t106.5 80l7 -13q-20 -12 -40.5 -44.5t-20.5 -64.5z" />
    </font>
</defs>
</svg>
